<svg width="998" height="140" viewBox="0 0 998 140" fill="none" xmlns="http://www.w3.org/2000/svg">
<path d="M34.3999 6.81597L19.1999 47.808H17.9519L4.95994 4.22397L-6.03199e-05 2.81597V1.82397H17.3439V2.81597L11.5839 4.15997L21.8879 39.872H20.2559L34.2399 1.18397H35.8079L50.6239 40.064L49.1519 40.256L58.5279 4.35197L52.5119 2.81597V1.82397H65.6319V2.81597L60.7679 4.44797L48.6399 47.808H47.3919L31.9999 8.41597L34.3999 6.81597ZM77.9584 14.56C80.1771 14.56 82.1078 15.0293 83.7504 15.968C85.3931 16.8853 86.6944 18.2506 87.6544 20.064C88.6358 21.856 89.2224 24.064 89.4144 26.688H68.4544L68.4864 24.8L85.9584 24.672L83.5264 25.952C83.3131 23.776 82.9398 21.9733 82.4064 20.544C81.8731 19.1146 81.1691 18.048 80.2944 17.344C79.4198 16.64 78.3424 16.288 77.0624 16.288C75.3771 16.288 73.9158 16.7786 72.6784 17.76C71.4624 18.72 70.5238 20.1386 69.8624 22.016C69.2224 23.872 68.9024 26.1226 68.9024 28.768C68.9024 32.16 69.3611 34.9333 70.2784 37.088C71.2171 39.2426 72.5611 40.8213 74.3104 41.824C76.0598 42.8266 78.1824 43.328 80.6784 43.328C81.8091 43.328 82.9078 43.1786 83.9744 42.88C85.0624 42.5813 86.0864 42.1333 87.0464 41.536C88.0064 40.9173 88.8384 40.1493 89.5424 39.232L90.0864 39.68C88.8064 41.664 87.5158 43.2533 86.2144 44.448C84.9131 45.6426 83.5478 46.5066 82.1184 47.04C80.6891 47.552 79.1318 47.808 77.4464 47.808C74.7158 47.808 72.2518 47.1893 70.0544 45.952C67.8784 44.7146 66.1611 42.9013 64.9024 40.512C63.6438 38.1013 63.0144 35.1786 63.0144 31.744C63.0144 28.6293 63.6011 25.7706 64.7744 23.168C65.9478 20.5653 67.6544 18.4853 69.8944 16.928C72.1344 15.3493 74.8224 14.56 77.9584 14.56ZM91.8684 16.672C93.8951 15.6266 95.3351 14.5493 96.1884 13.44C97.0418 12.3306 97.4684 11.1253 97.4684 9.82397C97.4684 9.0773 97.2444 8.45863 96.7964 7.96797C96.3698 7.45597 95.8578 7.03997 95.2604 6.71997C94.6844 6.39997 94.1724 6.1333 93.7244 5.91997C93.2764 5.6853 93.0524 5.48263 93.0524 5.31197C93.0524 4.15997 93.4258 3.21063 94.1724 2.46397C94.9404 1.69597 95.9324 1.31197 97.1484 1.31197C98.4924 1.31197 99.5911 1.77063 100.444 2.68797C101.319 3.58397 101.756 4.8853 101.756 6.59197C101.756 8.04263 101.426 9.43997 100.764 10.784C100.103 12.1066 99.1004 13.3546 97.7564 14.528C96.4124 15.7013 94.6844 16.7893 92.5724 17.792L91.8684 16.672ZM122.782 14.656C123.742 14.656 124.489 14.9226 125.022 15.456C125.577 15.9893 125.854 16.7146 125.854 17.632C125.854 18.7413 125.513 19.6373 124.83 20.32C124.148 21.0026 123.273 21.344 122.206 21.344C121.737 21.344 121.257 21.28 120.766 21.152C120.297 21.024 119.796 20.896 119.262 20.768C118.729 20.64 118.142 20.576 117.502 20.576C116.884 20.576 116.297 20.6826 115.742 20.896C115.188 21.1093 114.633 21.3973 114.078 21.76C113.545 22.1226 113.001 22.56 112.446 23.072L112.35 21.696C113.908 20.1173 115.23 18.8586 116.318 17.92C117.406 16.9813 118.334 16.2773 119.102 15.808C119.87 15.3386 120.542 15.0293 121.118 14.88C121.694 14.7306 122.249 14.656 122.782 14.656ZM112.862 20.448V45.216L118.046 46.272V47.168H102.558V46.272L107.166 45.216V20.64C106.889 20.448 106.537 20.224 106.11 19.968C105.705 19.712 105.204 19.4133 104.606 19.072C104.03 18.7093 103.348 18.304 102.558 17.856V17.248L112.606 14.272H112.83L112.862 20.448ZM141.181 14.56C143.4 14.56 145.33 15.0293 146.973 15.968C148.616 16.8853 149.917 18.2506 150.877 20.064C151.858 21.856 152.445 24.064 152.637 26.688H131.677L131.709 24.8L149.181 24.672L146.749 25.952C146.536 23.776 146.162 21.9733 145.629 20.544C145.096 19.1146 144.392 18.048 143.517 17.344C142.642 16.64 141.565 16.288 140.285 16.288C138.6 16.288 137.138 16.7786 135.901 17.76C134.685 18.72 133.746 20.1386 133.085 22.016C132.445 23.872 132.125 26.1226 132.125 28.768C132.125 32.16 132.584 34.9333 133.501 37.088C134.44 39.2426 135.784 40.8213 137.533 41.824C139.282 42.8266 141.405 43.328 143.901 43.328C145.032 43.328 146.13 43.1786 147.197 42.88C148.285 42.5813 149.309 42.1333 150.269 41.536C151.229 40.9173 152.061 40.1493 152.765 39.232L153.309 39.68C152.029 41.664 150.738 43.2533 149.437 44.448C148.136 45.6426 146.77 46.5066 145.341 47.04C143.912 47.552 142.354 47.808 140.669 47.808C137.938 47.808 135.474 47.1893 133.277 45.952C131.101 44.7146 129.384 42.9013 128.125 40.512C126.866 38.1013 126.237 35.1786 126.237 31.744C126.237 28.6293 126.824 25.7706 127.997 23.168C129.17 20.5653 130.877 18.4853 133.117 16.928C135.357 15.3493 138.045 14.56 141.181 14.56ZM171.217 17.024L171.537 15.2H190.257L189.905 17.024H171.217ZM176.913 39.808C175.911 43.9253 174.791 47.424 173.553 50.304C172.316 53.184 170.993 55.5093 169.585 57.28C168.199 59.0506 166.769 60.3413 165.297 61.152C163.804 61.9626 162.332 62.368 160.881 62.368C159.345 62.368 158.161 62.0053 157.329 61.28C156.497 60.5546 156.081 59.616 156.081 58.464C156.081 57.5466 156.359 56.7466 156.913 56.064C157.468 55.4026 158.225 55.072 159.185 55.072C159.975 55.072 160.519 55.296 160.817 55.744C161.116 56.192 161.191 56.9493 161.041 58.016C160.892 59.104 160.924 59.808 161.137 60.128C161.351 60.4693 161.735 60.64 162.289 60.64C163.057 60.64 163.825 60.3946 164.593 59.904C165.34 59.4133 166.097 58.5706 166.865 57.376C167.633 56.1813 168.38 54.5493 169.105 52.48C169.831 50.4106 170.545 47.7973 171.249 44.64L177.617 16.16C178.428 12.5333 179.687 9.53597 181.393 7.16797C183.121 4.77863 185.116 2.98663 187.377 1.79197C189.66 0.597299 192.007 -3.43323e-05 194.417 -3.43323e-05C195.74 -3.43323e-05 196.817 0.159966 197.649 0.479965C198.481 0.799965 199.089 1.24797 199.473 1.82397C199.879 2.37863 200.081 3.0293 200.081 3.77597C200.081 4.99197 199.687 5.9733 198.897 6.71997C198.108 7.4453 197.116 7.80797 195.921 7.80797C195.153 7.80797 194.641 7.51997 194.385 6.94397C194.129 6.36797 194.055 5.53597 194.161 4.44797C194.268 3.35997 194.172 2.59197 193.873 2.14397C193.596 1.67463 193.105 1.43997 192.401 1.43997C191.228 1.43997 190.076 1.85597 188.945 2.68797C187.815 3.49863 186.759 4.79997 185.777 6.59197C184.817 8.36263 183.985 10.688 183.281 13.568L176.913 39.808ZM200.582 45.248L204.358 33.408H204.774C202.875 36.288 201.179 38.656 199.686 40.512C198.193 42.368 196.849 43.8293 195.654 44.896C194.481 45.9626 193.403 46.72 192.422 47.168C191.441 47.5946 190.513 47.808 189.638 47.808C188.507 47.808 187.505 47.584 186.63 47.136C185.755 46.6666 185.062 45.984 184.55 45.088C184.059 44.192 183.814 43.0613 183.814 41.696C183.814 39.52 184.198 37.2053 184.966 34.752C185.755 32.2986 186.822 29.8986 188.166 27.552C189.531 25.184 191.067 23.04 192.774 21.12C194.502 19.1786 196.315 17.632 198.214 16.48C200.113 15.328 202.001 14.752 203.878 14.752C205.094 14.752 206.214 15.0933 207.238 15.776C208.262 16.4373 209.137 17.4293 209.862 18.752L209.446 19.712C208.934 18.6666 208.326 17.9306 207.622 17.504C206.939 17.0773 206.139 16.864 205.222 16.864C203.814 16.864 202.374 17.3866 200.902 18.432C199.43 19.4773 198.001 20.864 196.614 22.592C195.249 24.2986 194.022 26.1866 192.934 28.256C191.846 30.3253 190.971 32.3946 190.31 34.464C189.67 36.512 189.35 38.4 189.35 40.128C189.35 41.408 189.627 42.3146 190.182 42.848C190.758 43.3813 191.494 43.648 192.39 43.648C193.03 43.648 193.766 43.456 194.598 43.072C195.43 42.6666 196.347 42.0373 197.35 41.184C198.374 40.3093 199.473 39.1786 200.646 37.792C201.819 36.384 203.046 34.688 204.326 32.704L209.382 17.984L210.918 15.2H215.43L205.638 44.448L204.998 43.424C205.595 43.616 206.363 43.5413 207.302 43.2C208.262 42.8586 209.371 42.1973 210.63 41.216C211.889 40.2133 213.275 38.8373 214.79 37.088L215.174 37.44C212.614 41.3226 210.321 44.0213 208.294 45.536C206.267 47.0506 204.497 47.808 202.982 47.808C201.958 47.808 201.233 47.584 200.806 47.136C200.379 46.6666 200.305 46.0373 200.582 45.248ZM226.389 20.128C226.496 19.8293 226.507 19.552 226.421 19.296C226.357 19.04 226.155 18.912 225.813 18.912C225.323 18.912 224.683 19.1573 223.893 19.648C223.104 20.1386 222.176 21.024 221.109 22.304C220.064 23.584 218.869 25.4186 217.525 27.808L217.045 27.616C218.432 24.3093 219.755 21.7066 221.013 19.808C222.293 17.9093 223.573 16.5653 224.853 15.776C226.155 14.9866 227.509 14.592 228.917 14.592C229.429 14.592 229.888 14.624 230.293 14.688C230.72 14.7306 231.125 14.8053 231.509 14.912C231.893 14.9973 232.288 15.1253 232.693 15.296L228.277 29.376H228.117C230.123 25.3653 231.883 22.304 233.397 20.192C234.912 18.0586 236.299 16.5866 237.557 15.776C238.837 14.9653 240.075 14.56 241.269 14.56C242.592 14.56 243.563 14.8906 244.181 15.552C244.821 16.192 245.141 17.0026 245.141 17.984C245.141 18.9013 244.928 19.712 244.501 20.416C244.096 21.0986 243.563 21.632 242.901 22.016C242.24 22.4 241.515 22.592 240.725 22.592C239.979 22.592 239.456 22.432 239.157 22.112C238.859 21.7706 238.72 21.248 238.741 20.544C238.805 19.84 238.763 19.3813 238.613 19.168C238.485 18.9333 238.272 18.816 237.973 18.816C237.333 18.816 236.629 19.0933 235.861 19.648C235.093 20.2026 234.283 21.0026 233.429 22.048C232.576 23.072 231.723 24.2986 230.869 25.728C230.016 27.136 229.195 28.704 228.405 30.432C227.616 32.1386 226.891 33.9733 226.229 35.936L222.485 47.168H217.429L226.389 20.128ZM279.704 44.448L279.096 43.456C279.757 43.584 280.579 43.488 281.56 43.168C282.563 42.848 283.757 42.208 285.144 41.248C286.531 40.2666 288.088 38.88 289.816 37.088L290.232 37.44C288.419 39.936 286.733 41.9413 285.176 43.456C283.619 44.9706 282.189 46.08 280.888 46.784C279.587 47.4666 278.403 47.808 277.336 47.808C275.949 47.808 275.011 47.552 274.52 47.04C274.051 46.5066 274.083 45.6 274.616 44.32L282.36 25.344C282.893 24.0426 283.256 23.104 283.448 22.528C283.661 21.9306 283.768 21.44 283.768 21.056C283.768 20.3946 283.533 19.8933 283.064 19.552C282.616 19.1893 281.891 19.008 280.888 19.008C279.715 19.008 278.509 19.4133 277.272 20.224C276.056 21.0346 274.883 22.08 273.752 23.36C272.621 24.6186 271.619 25.9733 270.744 27.424C269.891 28.8533 269.251 30.1866 268.824 31.424L263.384 47.168H258.264L266.456 23.552C266.605 23.168 266.723 22.816 266.808 22.496C266.893 22.176 266.957 21.8773 267 21.6C267.064 21.3013 267.096 21.0453 267.096 20.832C267.096 20.1706 266.883 19.7013 266.456 19.424C266.029 19.1466 265.411 19.008 264.6 19.008C263.64 19.008 262.584 19.3706 261.432 20.096C260.301 20.8213 259.181 21.792 258.072 23.008C256.963 24.224 255.949 25.5786 255.032 27.072C254.136 28.5653 253.443 30.08 252.952 31.616L247.768 47.168H242.712L251.672 20.128C251.779 19.8293 251.789 19.552 251.704 19.296C251.64 19.04 251.437 18.912 251.096 18.912C250.605 18.912 249.965 19.1573 249.176 19.648C248.387 20.1386 247.459 21.024 246.392 22.304C245.347 23.584 244.152 25.4186 242.808 27.808L242.328 27.616C243.715 24.3093 245.037 21.7066 246.296 19.808C247.576 17.9093 248.856 16.5653 250.136 15.776C251.437 14.9866 252.792 14.592 254.2 14.592C254.712 14.592 255.171 14.624 255.576 14.688C256.003 14.7306 256.408 14.8053 256.792 14.912C257.176 14.9973 257.571 15.1253 257.976 15.296L254.072 27.584H253.752C255.288 25.024 256.685 22.9013 257.944 21.216C259.224 19.5306 260.408 18.208 261.496 17.248C262.584 16.2666 263.629 15.5733 264.632 15.168C265.635 14.7626 266.648 14.56 267.672 14.56C269.315 14.56 270.552 14.944 271.384 15.712C272.216 16.4586 272.632 17.4826 272.632 18.784C272.632 19.2746 272.568 19.808 272.44 20.384C272.333 20.9386 272.173 21.5466 271.96 22.208L269.912 28.128H269.4C270.936 25.5893 272.355 23.4453 273.656 21.696C274.979 19.9466 276.216 18.56 277.368 17.536C278.541 16.4906 279.661 15.7333 280.728 15.264C281.816 14.7946 282.893 14.56 283.96 14.56C285.88 14.56 287.224 14.9866 287.992 15.84C288.781 16.6933 289.176 17.7386 289.176 18.976C289.176 19.7013 289.059 20.512 288.824 21.408C288.589 22.2826 288.099 23.6373 287.352 25.472L279.704 44.448ZM308.555 15.968C307.147 15.968 305.835 16.48 304.619 17.504C303.403 18.5066 302.315 19.8293 301.355 21.472C300.395 23.1146 299.563 24.9066 298.859 26.848C298.177 28.768 297.654 30.6666 297.291 32.544C296.929 34.4213 296.747 36.0746 296.747 37.504C296.747 39.7653 297.153 41.376 297.963 42.336C298.795 43.2746 299.979 43.744 301.515 43.744C302.667 43.744 303.819 43.488 304.971 42.976C306.123 42.4426 307.286 41.5466 308.459 40.288C309.633 39.008 310.806 37.2586 311.979 35.04L312.555 35.104C311.211 38.4106 309.846 40.992 308.459 42.848C307.073 44.704 305.654 45.9946 304.203 46.72C302.753 47.4453 301.238 47.808 299.659 47.808C297.953 47.808 296.481 47.488 295.243 46.848C294.006 46.1866 293.057 45.2266 292.395 43.968C291.755 42.7093 291.435 41.1626 291.435 39.328C291.435 37.0453 291.745 34.7413 292.363 32.416C292.982 30.0693 293.846 27.84 294.955 25.728C296.086 23.5946 297.409 21.696 298.923 20.032C300.459 18.3466 302.134 17.0133 303.947 16.032C305.761 15.0506 307.67 14.56 309.675 14.56C311.169 14.56 312.374 14.8053 313.291 15.296C314.209 15.7866 314.881 16.448 315.307 17.28C315.755 18.112 315.979 19.04 315.979 20.064C315.979 20.9813 315.841 21.92 315.563 22.88C315.286 23.84 314.827 24.7573 314.187 25.632C313.483 26.0373 312.481 26.5066 311.179 27.04C309.878 27.5733 308.406 28.128 306.763 28.704C305.142 29.28 303.414 29.856 301.579 30.432C299.766 30.9866 297.963 31.4986 296.171 31.968L296.363 30.784C298.795 30.016 300.875 29.28 302.603 28.576C304.353 27.8506 305.803 27.136 306.955 26.432C308.107 25.728 309.014 25.0133 309.675 24.288C310.337 23.5413 310.806 22.7733 311.083 21.984C311.361 21.1733 311.499 20.3413 311.499 19.488C311.499 18.784 311.382 18.1653 311.147 17.632C310.913 17.0986 310.571 16.6933 310.123 16.416C309.697 16.1173 309.174 15.968 308.555 15.968ZM325.862 20.128C325.969 19.8293 325.979 19.552 325.894 19.296C325.83 19.04 325.627 18.912 325.286 18.912C324.795 18.912 324.155 19.1573 323.366 19.648C322.577 20.1386 321.649 21.024 320.582 22.304C319.537 23.584 318.342 25.4186 316.998 27.808L316.518 27.616C317.905 24.3093 319.227 21.7066 320.486 19.808C321.766 17.9093 323.046 16.5653 324.326 15.776C325.627 14.9866 326.982 14.592 328.39 14.592C328.902 14.592 329.361 14.624 329.766 14.688C330.193 14.7306 330.598 14.8053 330.982 14.912C331.366 14.9973 331.761 15.1253 332.166 15.296L327.75 29.376H327.59C329.595 25.3653 331.355 22.304 332.87 20.192C334.385 18.0586 335.771 16.5866 337.03 15.776C338.31 14.9653 339.547 14.56 340.742 14.56C342.065 14.56 343.035 14.8906 343.654 15.552C344.294 16.192 344.614 17.0026 344.614 17.984C344.614 18.9013 344.401 19.712 343.974 20.416C343.569 21.0986 343.035 21.632 342.374 22.016C341.713 22.4 340.987 22.592 340.198 22.592C339.451 22.592 338.929 22.432 338.63 22.112C338.331 21.7706 338.193 21.248 338.214 20.544C338.278 19.84 338.235 19.3813 338.086 19.168C337.958 18.9333 337.745 18.816 337.446 18.816C336.806 18.816 336.102 19.0933 335.334 19.648C334.566 20.2026 333.755 21.0026 332.902 22.048C332.049 23.072 331.195 24.2986 330.342 25.728C329.489 27.136 328.667 28.704 327.878 30.432C327.089 32.1386 326.363 33.9733 325.702 35.936L321.958 47.168H316.902L325.862 20.128ZM343.912 40.192C344.019 41.4293 344.158 42.432 344.328 43.2C344.52 43.9466 344.776 44.544 345.096 44.992C345.459 45.44 345.832 45.7386 346.216 45.888C346.622 46.016 347.07 46.08 347.56 46.08C348.819 46.08 349.896 45.8773 350.792 45.472C351.71 45.0666 352.414 44.4693 352.904 43.68C353.395 42.8906 353.64 41.9306 353.64 40.8C353.64 40.1386 353.512 39.4346 353.256 38.688C353 37.9413 352.584 37.1093 352.008 36.192C351.454 35.2533 350.686 34.1653 349.704 32.928C348.744 31.6906 347.987 30.5706 347.432 29.568C346.899 28.5653 346.526 27.6373 346.312 26.784C346.099 25.9306 345.992 25.0986 345.992 24.288C345.992 22.496 346.451 20.8746 347.368 19.424C348.307 17.952 349.598 16.7786 351.24 15.904C352.904 15.008 354.814 14.56 356.968 14.56C358.483 14.56 359.688 14.7413 360.584 15.104C361.48 15.4453 362.12 15.9253 362.504 16.544C362.888 17.1413 363.08 17.8453 363.08 18.656C363.08 19.2746 362.931 19.8186 362.632 20.288C362.355 20.736 361.886 21.0773 361.224 21.312C360.563 21.5466 359.667 21.664 358.536 21.664C358.579 20.384 358.526 19.392 358.376 18.688C358.248 17.9626 358.035 17.4186 357.736 17.056C357.438 16.672 357.086 16.4053 356.68 16.256C356.275 16.1066 355.763 16.032 355.144 16.032C353.502 16.032 352.179 16.448 351.176 17.28C350.195 18.112 349.704 19.328 349.704 20.928C349.704 21.5253 349.811 22.1653 350.024 22.848C350.238 23.5306 350.6 24.3306 351.112 25.248C351.646 26.144 352.392 27.2426 353.352 28.544C354.312 29.8453 355.059 31.008 355.592 32.032C356.147 33.0346 356.531 33.9626 356.744 34.816C356.979 35.648 357.096 36.4693 357.096 37.28C357.096 39.328 356.584 41.1413 355.56 42.72C354.558 44.2986 353.171 45.5466 351.4 46.464C349.651 47.36 347.646 47.808 345.384 47.808C343.827 47.808 342.579 47.6266 341.64 47.264C340.723 46.9226 340.062 46.432 339.656 45.792C339.23 45.152 339.016 44.4266 339.016 43.616C339.016 42.8266 339.187 42.1866 339.528 41.696C339.87 41.184 340.403 40.8106 341.128 40.576C341.854 40.32 342.782 40.192 343.912 40.192ZM362.747 56.672C364.454 55.3066 365.734 53.984 366.587 52.704C367.462 51.424 367.899 50.0693 367.899 48.64C367.899 47.872 367.665 47.232 367.195 46.72C366.747 46.1866 366.225 45.7386 365.627 45.376C365.03 45.0133 364.497 44.6933 364.027 44.416C363.579 44.1173 363.355 43.8186 363.355 43.52C363.355 42.2826 363.75 41.2906 364.539 40.544C365.329 39.776 366.385 39.392 367.707 39.392C369.009 39.392 370.086 39.84 370.939 40.736C371.793 41.6106 372.219 42.88 372.219 44.544C372.219 45.632 372.059 46.7093 371.739 47.776C371.419 48.864 370.918 49.9413 370.235 51.008C369.574 52.096 368.699 53.184 367.611 54.272C366.523 55.3813 365.211 56.48 363.675 57.568L362.747 56.672ZM396.346 38.816C396.175 39.3706 396.047 39.904 395.962 40.416C395.898 40.928 395.866 41.408 395.866 41.856C395.866 43.136 396.165 44.2346 396.762 45.152C397.381 46.0693 398.341 46.528 399.642 46.528C400.858 46.528 402.127 46.0586 403.45 45.12C404.773 44.1813 406.053 42.912 407.29 41.312C408.527 39.712 409.647 37.8986 410.65 35.872C411.674 33.8453 412.474 31.7226 413.05 29.504C413.647 27.264 413.946 25.056 413.946 22.88C413.946 21.28 413.658 20.128 413.082 19.424C412.527 18.6986 411.738 18.336 410.714 18.336C409.669 18.336 408.634 18.624 407.61 19.2C406.586 19.7546 405.594 20.5013 404.634 21.44C403.674 22.3786 402.778 23.4346 401.946 24.608C401.135 25.7813 400.421 26.9973 399.802 28.256C399.183 29.4933 398.703 30.688 398.362 31.84L396.346 38.816ZM392.506 43.552L394.81 44.352L390.266 59.744L395.546 60.8L395.29 61.728H380.346L380.602 60.8L385.21 59.744L397.018 20.128C397.146 19.744 397.167 19.4453 397.082 19.232C396.997 19.0186 396.805 18.912 396.506 18.912C396.015 18.912 395.375 19.1573 394.586 19.648C393.797 20.1386 392.869 21.024 391.802 22.304C390.735 23.584 389.53 25.4186 388.186 27.808L387.706 27.616C389.093 24.3093 390.415 21.7066 391.674 19.808C392.954 17.9093 394.234 16.5653 395.514 15.776C396.794 14.9653 398.149 14.56 399.578 14.56C400.325 14.56 400.975 14.624 401.53 14.752C402.106 14.8586 402.703 15.04 403.322 15.296L399.386 28.256L398.97 28.128C400.847 24.608 402.618 21.8666 404.282 19.904C405.946 17.9413 407.514 16.5653 408.986 15.776C410.458 14.9653 411.855 14.56 413.178 14.56C415.311 14.56 416.911 15.1786 417.978 16.416C419.066 17.6533 419.61 19.4346 419.61 21.76C419.61 24.32 419.205 26.848 418.394 29.344C417.605 31.84 416.517 34.1973 415.13 36.416C413.765 38.6346 412.218 40.5973 410.49 42.304C408.762 44.0106 406.97 45.3546 405.114 46.336C403.258 47.3173 401.434 47.808 399.642 47.808C397.679 47.808 396.111 47.4133 394.938 46.624C393.786 45.8133 392.975 44.7893 392.506 43.552ZM437.279 45.28L440.351 35.392H440.639C439.125 37.8026 437.759 39.808 436.543 41.408C435.349 43.008 434.229 44.2773 433.183 45.216C432.159 46.1546 431.167 46.816 430.207 47.2C429.247 47.6053 428.266 47.808 427.263 47.808C425.386 47.808 424.063 47.3706 423.295 46.496C422.527 45.6213 422.143 44.5333 422.143 43.232C422.143 42.592 422.218 41.9093 422.367 41.184C422.538 40.4586 422.762 39.7226 423.039 38.976L430.943 17.952L431.743 19.04C431.295 18.8266 430.613 18.8586 429.695 19.136C428.778 19.392 427.626 20.0213 426.239 21.024C424.853 22.0053 423.242 23.5093 421.407 25.536L421.023 25.216C422.815 22.6773 424.469 20.6293 425.983 19.072C427.498 17.4933 428.906 16.352 430.207 15.648C431.509 14.9226 432.714 14.56 433.823 14.56C435.018 14.56 435.85 14.816 436.319 15.328C436.789 15.84 436.789 16.6933 436.319 17.888L428.319 38.464C428.063 39.0826 427.871 39.6373 427.743 40.128C427.637 40.6186 427.583 41.0346 427.583 41.376C427.583 42.1013 427.818 42.624 428.287 42.944C428.778 43.2426 429.493 43.392 430.431 43.392C431.37 43.392 432.373 43.04 433.439 42.336C434.527 41.632 435.594 40.7253 436.639 39.616C437.685 38.4853 438.602 37.28 439.391 36C440.202 34.72 440.799 33.5146 441.183 32.384L446.911 15.2H451.999L442.239 44.416L441.759 43.424C442.357 43.616 443.125 43.5413 444.063 43.2C445.023 42.8586 446.133 42.1973 447.391 41.216C448.671 40.2133 450.058 38.8373 451.551 37.088L451.935 37.44C449.375 41.344 447.082 44.0533 445.055 45.568C443.05 47.0613 441.279 47.808 439.743 47.808C438.677 47.808 437.941 47.5946 437.535 47.168C437.13 46.72 437.045 46.0906 437.279 45.28ZM462.807 20.128C462.914 19.8293 462.924 19.552 462.839 19.296C462.775 19.04 462.572 18.912 462.231 18.912C461.74 18.912 461.1 19.1573 460.311 19.648C459.522 20.1386 458.594 21.024 457.527 22.304C456.482 23.584 455.287 25.4186 453.943 27.808L453.463 27.616C454.85 24.3093 456.172 21.7066 457.431 19.808C458.711 17.9093 459.991 16.5653 461.271 15.776C462.572 14.9866 463.927 14.592 465.335 14.592C465.847 14.592 466.306 14.624 466.711 14.688C467.138 14.7306 467.543 14.8053 467.927 14.912C468.311 14.9973 468.706 15.1253 469.111 15.296L464.695 29.376H464.535C466.54 25.3653 468.3 22.304 469.815 20.192C471.33 18.0586 472.716 16.5866 473.975 15.776C475.255 14.9653 476.492 14.56 477.687 14.56C479.01 14.56 479.98 14.8906 480.599 15.552C481.239 16.192 481.559 17.0026 481.559 17.984C481.559 18.9013 481.346 19.712 480.919 20.416C480.514 21.0986 479.98 21.632 479.319 22.016C478.658 22.4 477.932 22.592 477.143 22.592C476.396 22.592 475.874 22.432 475.575 22.112C475.276 21.7706 475.138 21.248 475.159 20.544C475.223 19.84 475.18 19.3813 475.031 19.168C474.903 18.9333 474.69 18.816 474.391 18.816C473.751 18.816 473.047 19.0933 472.279 19.648C471.511 20.2026 470.7 21.0026 469.847 22.048C468.994 23.072 468.14 24.2986 467.287 25.728C466.434 27.136 465.612 28.704 464.823 30.432C464.034 32.1386 463.308 33.9733 462.647 35.936L458.903 47.168H453.847L462.807 20.128ZM505.849 20.864C505.849 23.68 505.444 26.4213 504.633 29.088C503.844 31.7333 502.777 34.1866 501.433 36.448C500.089 38.7093 498.596 40.6933 496.953 42.4C495.311 44.1066 493.625 45.44 491.897 46.4C490.169 47.3386 488.527 47.808 486.969 47.808C485.049 47.808 483.588 47.3706 482.585 46.496C481.604 45.6 481.113 44.2666 481.113 42.496C481.113 41.152 481.412 39.5413 482.009 37.664L487.577 20.128C487.663 19.7866 487.663 19.4986 487.577 19.264C487.513 19.0293 487.321 18.912 487.001 18.912C486.511 18.912 485.871 19.1573 485.081 19.648C484.292 20.1386 483.364 21.024 482.297 22.304C481.231 23.584 480.025 25.4186 478.681 27.808L478.233 27.616C479.279 25.1413 480.281 23.072 481.241 21.408C482.201 19.7226 483.161 18.3786 484.121 17.376C485.081 16.3733 486.052 15.6586 487.033 15.232C488.036 14.8053 489.081 14.592 490.169 14.592C490.66 14.592 491.097 14.624 491.481 14.688C491.887 14.7306 492.271 14.8053 492.633 14.912C493.017 15.0186 493.412 15.1573 493.817 15.328L487.097 36.864C486.777 37.9093 486.532 38.8373 486.361 39.648C486.212 40.4373 486.137 41.1093 486.137 41.664C486.137 42.7093 486.383 43.4453 486.873 43.872C487.364 44.2773 488.089 44.48 489.049 44.48C490.329 44.48 491.641 44.1173 492.985 43.392C494.329 42.6453 495.62 41.6426 496.857 40.384C498.116 39.1253 499.236 37.7066 500.217 36.128C501.199 34.5493 501.977 32.9066 502.553 31.2C503.129 29.472 503.417 27.7866 503.417 26.144C503.417 24.6933 503.172 23.5946 502.681 22.848C502.212 22.1013 501.657 21.5146 501.017 21.088C500.377 20.6613 499.823 20.224 499.353 19.776C498.884 19.328 498.649 18.6773 498.649 17.824C498.649 16.8853 498.927 16.1173 499.481 15.52C500.057 14.9013 500.857 14.592 501.881 14.592C503.119 14.592 504.089 15.0826 504.793 16.064C505.497 17.0453 505.849 18.6453 505.849 20.864ZM524.223 15.968C522.815 15.968 521.503 16.48 520.287 17.504C519.071 18.5066 517.983 19.8293 517.023 21.472C516.063 23.1146 515.231 24.9066 514.527 26.848C513.844 28.768 513.322 30.6666 512.959 32.544C512.596 34.4213 512.415 36.0746 512.415 37.504C512.415 39.7653 512.82 41.376 513.631 42.336C514.463 43.2746 515.647 43.744 517.183 43.744C518.335 43.744 519.487 43.488 520.639 42.976C521.791 42.4426 522.954 41.5466 524.127 40.288C525.3 39.008 526.474 37.2586 527.647 35.04L528.223 35.104C526.879 38.4106 525.514 40.992 524.127 42.848C522.74 44.704 521.322 45.9946 519.871 46.72C518.42 47.4453 516.906 47.808 515.327 47.808C513.62 47.808 512.148 47.488 510.911 46.848C509.674 46.1866 508.724 45.2266 508.063 43.968C507.423 42.7093 507.103 41.1626 507.103 39.328C507.103 37.0453 507.412 34.7413 508.031 32.416C508.65 30.0693 509.514 27.84 510.623 25.728C511.754 23.5946 513.076 21.696 514.591 20.032C516.127 18.3466 517.802 17.0133 519.615 16.032C521.428 15.0506 523.338 14.56 525.343 14.56C526.836 14.56 528.042 14.8053 528.959 15.296C529.876 15.7866 530.548 16.448 530.975 17.28C531.423 18.112 531.647 19.04 531.647 20.064C531.647 20.9813 531.508 21.92 531.231 22.88C530.954 23.84 530.495 24.7573 529.855 25.632C529.151 26.0373 528.148 26.5066 526.847 27.04C525.546 27.5733 524.074 28.128 522.431 28.704C520.81 29.28 519.082 29.856 517.247 30.432C515.434 30.9866 513.631 31.4986 511.839 31.968L512.031 30.784C514.463 30.016 516.543 29.28 518.271 28.576C520.02 27.8506 521.471 27.136 522.623 26.432C523.775 25.728 524.682 25.0133 525.343 24.288C526.004 23.5413 526.474 22.7733 526.751 21.984C527.028 21.1733 527.167 20.3413 527.167 19.488C527.167 18.784 527.05 18.1653 526.815 17.632C526.58 17.0986 526.239 16.6933 525.791 16.416C525.364 16.1173 524.842 15.968 524.223 15.968ZM532.441 28.416H531.865C532.505 25.728 533.177 23.4986 533.881 21.728C534.607 19.936 535.364 18.5173 536.153 17.472C536.943 16.4266 537.753 15.68 538.585 15.232C539.439 14.784 540.313 14.56 541.209 14.56C541.785 14.56 542.308 14.7093 542.777 15.008C543.268 15.3066 543.727 15.8186 544.153 16.544C544.601 17.248 545.017 18.24 545.401 19.52C545.807 20.7786 546.201 22.7733 546.585 25.504C546.991 28.2133 547.332 31.5413 547.609 35.488C547.908 39.4133 548.079 43.872 548.121 48.864L543.417 54.176C543.268 49.824 543.087 45.9733 542.873 42.624C542.681 39.2746 542.479 36.3733 542.265 33.92C542.052 31.4666 541.828 29.4293 541.593 27.808C541.38 26.1653 541.167 24.8853 540.953 23.968C540.655 22.7306 540.356 21.7813 540.057 21.12C539.78 20.4586 539.503 20.0106 539.225 19.776C538.969 19.52 538.681 19.392 538.361 19.392C537.828 19.392 537.273 19.6266 536.697 20.096C536.143 20.5653 535.524 21.4506 534.841 22.752C534.159 24.0533 533.359 25.9413 532.441 28.416ZM545.529 50.592L546.297 49.632C548.111 47.2426 549.721 44.7253 551.129 42.08C552.537 39.4346 553.732 36.672 554.713 33.792C555.716 30.912 556.473 27.9253 556.985 24.832C557.497 21.7386 557.753 18.528 557.753 15.2C558.265 15.0506 558.713 14.9546 559.097 14.912C559.503 14.8693 559.919 14.848 560.345 14.848C561.028 14.848 561.519 14.976 561.817 15.232C562.116 15.4666 562.265 15.8186 562.265 16.288C562.265 17.3333 562.041 18.7626 561.593 20.576C561.167 22.368 560.559 24.4053 559.769 26.688C559.001 28.9706 558.073 31.36 556.985 33.856C555.897 36.3306 554.703 38.784 553.401 41.216C552.121 43.648 550.756 45.888 549.305 47.936C546.895 51.3706 544.58 54.144 542.361 56.256C540.143 58.3893 537.999 59.936 535.929 60.896C533.86 61.8773 531.855 62.368 529.913 62.368C528.143 62.368 526.863 61.9733 526.073 61.184C525.284 60.3946 524.889 59.392 524.889 58.176C524.889 57.0666 525.209 56.1173 525.849 55.328C526.468 54.56 527.311 54.176 528.377 54.176C529.337 54.176 529.956 54.4213 530.233 54.912C530.511 55.424 530.564 56.2346 530.393 57.344C530.223 58.4533 530.265 59.1893 530.521 59.552C530.777 59.936 531.225 60.128 531.865 60.128C533.081 60.128 534.447 59.7546 535.961 59.008C537.497 58.2826 539.087 57.2053 540.729 55.776C542.372 54.368 543.972 52.64 545.529 50.592ZM580.412 14.56C582.162 14.56 583.634 14.9333 584.828 15.68C586.023 16.4053 586.919 17.472 587.516 18.88C588.135 20.2666 588.444 21.9626 588.444 23.968C588.444 26.848 587.954 29.696 586.972 32.512C585.991 35.328 584.647 37.888 582.94 40.192C581.255 42.496 579.314 44.3413 577.116 45.728C574.919 47.1146 572.604 47.808 570.172 47.808C568.444 47.808 566.972 47.4453 565.756 46.72C564.562 45.9733 563.655 44.896 563.036 43.488C562.439 42.08 562.14 40.384 562.14 38.4C562.14 35.52 562.631 32.672 563.612 29.856C564.615 27.04 565.959 24.48 567.644 22.176C569.351 19.872 571.292 18.0266 573.468 16.64C575.666 15.2533 577.98 14.56 580.412 14.56ZM570.268 46.56C571.527 46.56 572.786 46.0586 574.044 45.056C575.324 44.0533 576.53 42.688 577.66 40.96C578.791 39.232 579.794 37.28 580.668 35.104C581.543 32.928 582.226 30.6666 582.716 28.32C583.228 25.952 583.484 23.6266 583.484 21.344C583.484 19.4666 583.239 18.08 582.748 17.184C582.258 16.2666 581.447 15.808 580.316 15.808C579.058 15.808 577.799 16.32 576.54 17.344C575.282 18.3466 574.087 19.712 572.956 21.44C571.826 23.1466 570.823 25.088 569.948 27.264C569.074 29.44 568.38 31.712 567.868 34.08C567.356 36.448 567.1 38.7733 567.1 41.056C567.1 42.912 567.346 44.2986 567.836 45.216C568.348 46.112 569.159 46.56 570.268 46.56ZM599.969 20.128C600.076 19.8293 600.087 19.552 600.001 19.296C599.937 19.04 599.735 18.912 599.393 18.912C598.903 18.912 598.263 19.1573 597.473 19.648C596.684 20.1386 595.756 21.024 594.689 22.304C593.644 23.584 592.449 25.4186 591.105 27.808L590.625 27.616C592.012 24.3093 593.335 21.7066 594.593 19.808C595.873 17.9093 597.153 16.5653 598.433 15.776C599.735 14.9866 601.089 14.592 602.497 14.592C603.009 14.592 603.468 14.624 603.873 14.688C604.3 14.7306 604.705 14.8053 605.089 14.912C605.473 14.9973 605.868 15.1253 606.273 15.296L601.857 29.376H601.697C603.703 25.3653 605.463 22.304 606.977 20.192C608.492 18.0586 609.879 16.5866 611.137 15.776C612.417 14.9653 613.655 14.56 614.849 14.56C616.172 14.56 617.143 14.8906 617.761 15.552C618.401 16.192 618.721 17.0026 618.721 17.984C618.721 18.9013 618.508 19.712 618.081 20.416C617.676 21.0986 617.143 21.632 616.481 22.016C615.82 22.4 615.095 22.592 614.305 22.592C613.559 22.592 613.036 22.432 612.737 22.112C612.439 21.7706 612.3 21.248 612.321 20.544C612.385 19.84 612.343 19.3813 612.193 19.168C612.065 18.9333 611.852 18.816 611.553 18.816C610.913 18.816 610.209 19.0933 609.441 19.648C608.673 20.2026 607.863 21.0026 607.009 22.048C606.156 23.072 605.303 24.2986 604.449 25.728C603.596 27.136 602.775 28.704 601.985 30.432C601.196 32.1386 600.471 33.9733 599.809 35.936L596.065 47.168H591.009L599.969 20.128ZM618.02 40.192C618.127 41.4293 618.265 42.432 618.436 43.2C618.628 43.9466 618.884 44.544 619.204 44.992C619.567 45.44 619.94 45.7386 620.324 45.888C620.729 46.016 621.177 46.08 621.668 46.08C622.927 46.08 624.004 45.8773 624.9 45.472C625.817 45.0666 626.521 44.4693 627.012 43.68C627.503 42.8906 627.748 41.9306 627.748 40.8C627.748 40.1386 627.62 39.4346 627.364 38.688C627.108 37.9413 626.692 37.1093 626.116 36.192C625.561 35.2533 624.793 34.1653 623.812 32.928C622.852 31.6906 622.095 30.5706 621.54 29.568C621.007 28.5653 620.633 27.6373 620.42 26.784C620.207 25.9306 620.1 25.0986 620.1 24.288C620.1 22.496 620.559 20.8746 621.476 19.424C622.415 17.952 623.705 16.7786 625.348 15.904C627.012 15.008 628.921 14.56 631.076 14.56C632.591 14.56 633.796 14.7413 634.692 15.104C635.588 15.4453 636.228 15.9253 636.612 16.544C636.996 17.1413 637.188 17.8453 637.188 18.656C637.188 19.2746 637.039 19.8186 636.74 20.288C636.463 20.736 635.993 21.0773 635.332 21.312C634.671 21.5466 633.775 21.664 632.644 21.664C632.687 20.384 632.633 19.392 632.484 18.688C632.356 17.9626 632.143 17.4186 631.844 17.056C631.545 16.672 631.193 16.4053 630.788 16.256C630.383 16.1066 629.871 16.032 629.252 16.032C627.609 16.032 626.287 16.448 625.284 17.28C624.303 18.112 623.812 19.328 623.812 20.928C623.812 21.5253 623.919 22.1653 624.132 22.848C624.345 23.5306 624.708 24.3306 625.22 25.248C625.753 26.144 626.5 27.2426 627.46 28.544C628.42 29.8453 629.167 31.008 629.7 32.032C630.255 33.0346 630.639 33.9626 630.852 34.816C631.087 35.648 631.204 36.4693 631.204 37.28C631.204 39.328 630.692 41.1413 629.668 42.72C628.665 44.2986 627.279 45.5466 625.508 46.464C623.759 47.36 621.753 47.808 619.492 47.808C617.935 47.808 616.687 47.6266 615.748 47.264C614.831 46.9226 614.169 46.432 613.764 45.792C613.337 45.152 613.124 44.4266 613.124 43.616C613.124 42.8266 613.295 42.1866 613.636 41.696C613.977 41.184 614.511 40.8106 615.236 40.576C615.961 40.32 616.889 40.192 618.02 40.192ZM636.855 56.672C638.562 55.3066 639.842 53.984 640.695 52.704C641.57 51.424 642.007 50.0693 642.007 48.64C642.007 47.872 641.772 47.232 641.303 46.72C640.855 46.1866 640.332 45.7386 639.735 45.376C639.138 45.0133 638.604 44.6933 638.135 44.416C637.687 44.1173 637.463 43.8186 637.463 43.52C637.463 42.2826 637.858 41.2906 638.647 40.544C639.436 39.776 640.492 39.392 641.815 39.392C643.116 39.392 644.194 39.84 645.047 40.736C645.9 41.6106 646.327 42.88 646.327 44.544C646.327 45.632 646.167 46.7093 645.847 47.776C645.527 48.864 645.026 49.9413 644.343 51.008C643.682 52.096 642.807 53.184 641.719 54.272C640.631 55.3813 639.319 56.48 637.783 57.568L636.855 56.672ZM682.069 26.432L682.421 27.904C679.499 28.8 677.12 29.6533 675.285 30.464C673.472 31.2746 672.075 32.096 671.093 32.928C670.133 33.7386 669.472 34.592 669.109 35.488C668.747 36.384 668.565 37.376 668.565 38.464C668.565 40.256 669.077 41.6106 670.101 42.528C671.147 43.424 672.416 43.872 673.909 43.872C675.104 43.872 676.149 43.6266 677.045 43.136C677.963 42.6453 678.677 41.9413 679.189 41.024C679.723 40.1066 679.989 39.008 679.989 37.728V23.52C679.989 21.408 679.467 19.808 678.421 18.72C677.397 17.6106 675.819 17.056 673.685 17.056C672.683 17.056 671.669 17.1413 670.645 17.312C669.643 17.4826 668.821 17.728 668.181 18.048L669.877 16.736C669.813 17.4826 669.707 18.2613 669.557 19.072C669.429 19.8826 669.269 20.6186 669.077 21.28C668.885 21.92 668.651 22.4 668.373 22.72C668.096 23.0826 667.669 23.36 667.093 23.552C666.539 23.7226 665.973 23.808 665.397 23.808C664.651 23.808 664.053 23.6586 663.605 23.36C663.157 23.04 662.933 22.5706 662.933 21.952C662.933 21.0773 663.339 20.2133 664.149 19.36C664.981 18.4853 666.048 17.696 667.349 16.992C668.672 16.2666 670.101 15.6906 671.637 15.264C673.173 14.8373 674.645 14.624 676.053 14.624C678.379 14.624 680.245 14.9653 681.653 15.648C683.061 16.3306 684.085 17.3013 684.725 18.56C685.365 19.7973 685.685 21.2586 685.685 22.944V41.28C685.685 41.9626 685.792 42.5173 686.005 42.944C686.24 43.3706 686.549 43.6906 686.933 43.904C687.339 44.096 687.808 44.192 688.341 44.192C689.024 44.192 689.707 44.0853 690.389 43.872C691.093 43.6373 691.808 43.264 692.533 42.752V43.712C691.061 45.44 689.739 46.56 688.565 47.072C687.392 47.5626 686.197 47.808 684.981 47.808C683.744 47.808 682.763 47.5306 682.037 46.976C681.312 46.4213 680.789 45.632 680.469 44.608C680.149 43.5626 679.968 42.3146 679.925 40.864L680.021 40.832C679.68 42.176 679.104 43.3706 678.293 44.416C677.483 45.4613 676.512 46.2933 675.381 46.912C674.251 47.5093 673.003 47.808 671.637 47.808C669.077 47.808 666.933 47.1253 665.205 45.76C663.499 44.3733 662.645 42.368 662.645 39.744C662.645 38.3786 662.88 37.1626 663.349 36.096C663.84 35.0293 664.757 34.016 666.101 33.056C667.467 32.096 669.429 31.0933 671.989 30.048C674.549 28.9813 677.909 27.776 682.069 26.432ZM702.33 20.448V45.216L706.97 46.272V47.168H692.026V46.272L696.634 45.216V20.64C696.293 20.4053 695.802 20.096 695.162 19.712C694.522 19.328 693.477 18.7093 692.026 17.856V17.248L701.978 14.272H702.202L702.33 20.448ZM712.378 46.272L717.018 45.216V25.44C717.018 24.0533 716.773 22.8906 716.282 21.952C715.791 21.0133 715.034 20.3093 714.01 19.84C712.986 19.3493 711.685 19.104 710.106 19.104C708.421 19.104 706.821 19.3493 705.306 19.84C703.791 20.3093 702.565 20.8213 701.626 21.376L701.114 20.64C702.693 19.4026 704.079 18.3893 705.274 17.6C706.469 16.8106 707.546 16.2026 708.506 15.776C709.466 15.328 710.383 15.0186 711.258 14.848C712.133 14.656 713.071 14.56 714.074 14.56C717.125 14.56 719.333 15.4026 720.698 17.088C722.063 18.752 722.746 21.3973 722.746 25.024V45.216L727.354 46.272V47.168H712.378V46.272ZM753.105 23.328C753.105 21.28 752.359 19.5946 750.865 18.272C749.372 16.9493 747.484 16.288 745.201 16.288C743.132 16.288 741.372 16.832 739.921 17.92C738.471 19.008 737.361 20.5973 736.593 22.688C735.847 24.7786 735.473 27.3386 735.473 30.368C735.473 33.312 735.847 35.7653 736.593 37.728C737.34 39.6693 738.449 41.1306 739.921 42.112C741.393 43.072 743.228 43.552 745.425 43.552C747.217 43.552 748.881 43.2533 750.417 42.656C751.953 42.0586 753.436 41.024 754.865 39.552L755.281 40.448C753.895 41.8773 752.636 43.072 751.505 44.032C750.375 44.9706 749.308 45.7173 748.305 46.272C747.324 46.8266 746.375 47.2213 745.457 47.456C744.561 47.6906 743.687 47.808 742.833 47.808C740.06 47.808 737.66 47.1786 735.633 45.92C733.628 44.6613 732.071 42.9013 730.961 40.64C729.873 38.3786 729.329 35.7546 729.329 32.768C729.329 29.888 729.745 27.328 730.577 25.088C731.431 22.8266 732.625 20.9173 734.161 19.36C735.697 17.8026 737.511 16.6186 739.601 15.808C741.692 14.976 743.975 14.56 746.449 14.56C747.665 14.56 748.892 14.656 750.129 14.848C751.367 15.0186 752.583 15.296 753.777 15.68C754.972 16.064 756.103 16.5546 757.169 17.152L753.105 18.176V5.40797C752.849 5.27997 752.433 5.0773 751.857 4.79996C751.303 4.52263 750.684 4.22397 750.001 3.90396C749.319 3.58397 748.668 3.29597 748.049 3.03997V2.46397L759.057 -3.43323e-05H759.249L758.801 4.99197V43.744C758.993 43.8506 759.292 44 759.697 44.192C760.124 44.3626 760.583 44.544 761.073 44.736C761.564 44.928 762.044 45.12 762.513 45.312C763.004 45.504 763.42 45.664 763.761 45.792V46.528L753.393 47.968H753.169L753.105 43.424V23.328ZM794.893 15.968C793.485 15.968 792.173 16.48 790.957 17.504C789.741 18.5066 788.653 19.8293 787.693 21.472C786.733 23.1146 785.901 24.9066 785.197 26.848C784.514 28.768 783.992 30.6666 783.629 32.544C783.266 34.4213 783.085 36.0746 783.085 37.504C783.085 39.7653 783.49 41.376 784.301 42.336C785.133 43.2746 786.317 43.744 787.853 43.744C789.005 43.744 790.157 43.488 791.309 42.976C792.461 42.4426 793.624 41.5466 794.797 40.288C795.97 39.008 797.144 37.2586 798.317 35.04L798.893 35.104C797.549 38.4106 796.184 40.992 794.797 42.848C793.41 44.704 791.992 45.9946 790.541 46.72C789.09 47.4453 787.576 47.808 785.997 47.808C784.29 47.808 782.818 47.488 781.581 46.848C780.344 46.1866 779.394 45.2266 778.733 43.968C778.093 42.7093 777.773 41.1626 777.773 39.328C777.773 37.0453 778.082 34.7413 778.701 32.416C779.32 30.0693 780.184 27.84 781.293 25.728C782.424 23.5946 783.746 21.696 785.261 20.032C786.797 18.3466 788.472 17.0133 790.285 16.032C792.098 15.0506 794.008 14.56 796.013 14.56C797.506 14.56 798.712 14.8053 799.629 15.296C800.546 15.7866 801.218 16.448 801.645 17.28C802.093 18.112 802.317 19.04 802.317 20.064C802.317 20.9813 802.178 21.92 801.901 22.88C801.624 23.84 801.165 24.7573 800.525 25.632C799.821 26.0373 798.818 26.5066 797.517 27.04C796.216 27.5733 794.744 28.128 793.101 28.704C791.48 29.28 789.752 29.856 787.917 30.432C786.104 30.9866 784.301 31.4986 782.509 31.968L782.701 30.784C785.133 30.016 787.213 29.28 788.941 28.576C790.69 27.8506 792.141 27.136 793.293 26.432C794.445 25.728 795.352 25.0133 796.013 24.288C796.674 23.5413 797.144 22.7733 797.421 21.984C797.698 21.1733 797.837 20.3413 797.837 19.488C797.837 18.784 797.72 18.1653 797.485 17.632C797.25 17.0986 796.909 16.6933 796.461 16.416C796.034 16.1173 795.512 15.968 794.893 15.968ZM817.799 45.248L821.575 33.408H821.991C820.093 36.288 818.397 38.656 816.903 40.512C815.41 42.368 814.066 43.8293 812.871 44.896C811.698 45.9626 810.621 46.72 809.639 47.168C808.658 47.5946 807.73 47.808 806.855 47.808C805.725 47.808 804.722 47.584 803.847 47.136C802.973 46.6666 802.279 45.984 801.767 45.088C801.277 44.192 801.031 43.0613 801.031 41.696C801.031 39.52 801.415 37.2053 802.183 34.752C802.973 32.2986 804.039 29.8986 805.383 27.552C806.749 25.184 808.285 23.04 809.991 21.12C811.719 19.1786 813.533 17.632 815.431 16.48C817.33 15.328 819.218 14.752 821.095 14.752C822.311 14.752 823.431 15.0933 824.455 15.776C825.479 16.4373 826.354 17.4293 827.079 18.752L826.663 19.712C826.151 18.6666 825.543 17.9306 824.839 17.504C824.157 17.0773 823.357 16.864 822.439 16.864C821.031 16.864 819.591 17.3866 818.119 18.432C816.647 19.4773 815.218 20.864 813.831 22.592C812.466 24.2986 811.239 26.1866 810.151 28.256C809.063 30.3253 808.189 32.3946 807.527 34.464C806.887 36.512 806.567 38.4 806.567 40.128C806.567 41.408 806.845 42.3146 807.399 42.848C807.975 43.3813 808.711 43.648 809.607 43.648C810.247 43.648 810.983 43.456 811.815 43.072C812.647 42.6666 813.565 42.0373 814.567 41.184C815.591 40.3093 816.69 39.1786 817.863 37.792C819.037 36.384 820.263 34.688 821.543 32.704L826.599 17.984L828.135 15.2H832.647L822.855 44.448L822.215 43.424C822.813 43.616 823.581 43.5413 824.519 43.2C825.479 42.8586 826.589 42.1973 827.847 41.216C829.106 40.2133 830.493 38.8373 832.007 37.088L832.391 37.44C829.831 41.3226 827.538 44.0213 825.511 45.536C823.485 47.0506 821.714 47.808 820.199 47.808C819.175 47.808 818.45 47.584 818.023 47.136C817.597 46.6666 817.522 46.0373 817.799 45.248ZM836.76 17.024L837.272 15.2H855L854.584 17.024H836.76ZM840.568 39.776C840.419 40.2453 840.302 40.64 840.216 40.96C840.152 41.28 840.099 41.5466 840.056 41.76C840.035 41.9733 840.024 42.1653 840.024 42.336C840.024 42.7413 840.131 43.0293 840.344 43.2C840.579 43.3706 840.91 43.456 841.336 43.456C841.848 43.456 842.499 43.2746 843.288 42.912C844.099 42.528 845.08 41.8346 846.232 40.832C847.384 39.808 848.739 38.336 850.296 36.416L850.712 36.736C849.198 39.04 847.811 40.9173 846.552 42.368C845.315 43.8186 844.174 44.9386 843.128 45.728C842.083 46.5173 841.123 47.0613 840.248 47.36C839.395 47.6586 838.616 47.808 837.912 47.808C836.974 47.808 836.184 47.5306 835.544 46.976C834.926 46.4213 834.616 45.4933 834.616 44.192C834.616 43.744 834.67 43.1466 834.776 42.4C834.904 41.6533 835.214 40.4906 835.704 38.912L845.56 7.67997H850.712L840.568 39.776ZM869.178 15.968C867.77 15.968 866.458 16.48 865.242 17.504C864.026 18.5066 862.938 19.8293 861.978 21.472C861.018 23.1146 860.186 24.9066 859.482 26.848C858.799 28.768 858.277 30.6666 857.914 32.544C857.551 34.4213 857.37 36.0746 857.37 37.504C857.37 39.7653 857.775 41.376 858.586 42.336C859.418 43.2746 860.602 43.744 862.138 43.744C863.29 43.744 864.442 43.488 865.594 42.976C866.746 42.4426 867.909 41.5466 869.082 40.288C870.255 39.008 871.429 37.2586 872.602 35.04L873.178 35.104C871.834 38.4106 870.469 40.992 869.082 42.848C867.695 44.704 866.277 45.9946 864.826 46.72C863.375 47.4453 861.861 47.808 860.282 47.808C858.575 47.808 857.103 47.488 855.866 46.848C854.629 46.1866 853.679 45.2266 853.018 43.968C852.378 42.7093 852.058 41.1626 852.058 39.328C852.058 37.0453 852.367 34.7413 852.986 32.416C853.605 30.0693 854.469 27.84 855.578 25.728C856.709 23.5946 858.031 21.696 859.546 20.032C861.082 18.3466 862.757 17.0133 864.57 16.032C866.383 15.0506 868.293 14.56 870.298 14.56C871.791 14.56 872.997 14.8053 873.914 15.296C874.831 15.7866 875.503 16.448 875.93 17.28C876.378 18.112 876.602 19.04 876.602 20.064C876.602 20.9813 876.463 21.92 876.186 22.88C875.909 23.84 875.45 24.7573 874.81 25.632C874.106 26.0373 873.103 26.5066 871.802 27.04C870.501 27.5733 869.029 28.128 867.386 28.704C865.765 29.28 864.037 29.856 862.202 30.432C860.389 30.9866 858.586 31.4986 856.794 31.968L856.986 30.784C859.418 30.016 861.498 29.28 863.226 28.576C864.975 27.8506 866.426 27.136 867.578 26.432C868.73 25.728 869.637 25.0133 870.298 24.288C870.959 23.5413 871.429 22.7733 871.706 21.984C871.983 21.1733 872.122 20.3413 872.122 19.488C872.122 18.784 872.005 18.1653 871.77 17.632C871.535 17.0986 871.194 16.6933 870.746 16.416C870.319 16.1173 869.797 15.968 869.178 15.968ZM886.484 20.128C886.591 19.8293 886.602 19.552 886.516 19.296C886.452 19.04 886.25 18.912 885.908 18.912C885.418 18.912 884.778 19.1573 883.988 19.648C883.199 20.1386 882.271 21.024 881.204 22.304C880.159 23.584 878.964 25.4186 877.62 27.808L877.14 27.616C878.527 24.3093 879.85 21.7066 881.108 19.808C882.388 17.9093 883.668 16.5653 884.948 15.776C886.25 14.9866 887.604 14.592 889.012 14.592C889.524 14.592 889.983 14.624 890.388 14.688C890.815 14.7306 891.22 14.8053 891.604 14.912C891.988 14.9973 892.383 15.1253 892.788 15.296L888.372 29.376H888.212C890.218 25.3653 891.978 22.304 893.492 20.192C895.007 18.0586 896.394 16.5866 897.652 15.776C898.932 14.9653 900.17 14.56 901.364 14.56C902.687 14.56 903.658 14.8906 904.276 15.552C904.916 16.192 905.236 17.0026 905.236 17.984C905.236 18.9013 905.023 19.712 904.596 20.416C904.191 21.0986 903.658 21.632 902.996 22.016C902.335 22.4 901.61 22.592 900.82 22.592C900.074 22.592 899.551 22.432 899.252 22.112C898.954 21.7706 898.815 21.248 898.836 20.544C898.9 19.84 898.858 19.3813 898.708 19.168C898.58 18.9333 898.367 18.816 898.068 18.816C897.428 18.816 896.724 19.0933 895.956 19.648C895.188 20.2026 894.378 21.0026 893.524 22.048C892.671 23.072 891.818 24.2986 890.964 25.728C890.111 27.136 889.29 28.704 888.5 30.432C887.711 32.1386 886.986 33.9733 886.324 35.936L882.58 47.168H877.524L886.484 20.128ZM904.535 40.192C904.642 41.4293 904.78 42.432 904.951 43.2C905.143 43.9466 905.399 44.544 905.719 44.992C906.082 45.44 906.455 45.7386 906.839 45.888C907.244 46.016 907.692 46.08 908.183 46.08C909.442 46.08 910.519 45.8773 911.415 45.472C912.332 45.0666 913.036 44.4693 913.527 43.68C914.018 42.8906 914.263 41.9306 914.263 40.8C914.263 40.1386 914.135 39.4346 913.879 38.688C913.623 37.9413 913.207 37.1093 912.631 36.192C912.076 35.2533 911.308 34.1653 910.327 32.928C909.367 31.6906 908.61 30.5706 908.055 29.568C907.522 28.5653 907.148 27.6373 906.935 26.784C906.722 25.9306 906.615 25.0986 906.615 24.288C906.615 22.496 907.074 20.8746 907.991 19.424C908.93 17.952 910.22 16.7786 911.863 15.904C913.527 15.008 915.436 14.56 917.591 14.56C919.106 14.56 920.311 14.7413 921.207 15.104C922.103 15.4453 922.743 15.9253 923.127 16.544C923.511 17.1413 923.703 17.8453 923.703 18.656C923.703 19.2746 923.554 19.8186 923.255 20.288C922.978 20.736 922.508 21.0773 921.847 21.312C921.186 21.5466 920.29 21.664 919.159 21.664C919.202 20.384 919.148 19.392 918.999 18.688C918.871 17.9626 918.658 17.4186 918.359 17.056C918.06 16.672 917.708 16.4053 917.303 16.256C916.898 16.1066 916.386 16.032 915.767 16.032C914.124 16.032 912.802 16.448 911.799 17.28C910.818 18.112 910.327 19.328 910.327 20.928C910.327 21.5253 910.434 22.1653 910.647 22.848C910.86 23.5306 911.223 24.3306 911.735 25.248C912.268 26.144 913.015 27.2426 913.975 28.544C914.935 29.8453 915.682 31.008 916.215 32.032C916.77 33.0346 917.154 33.9626 917.367 34.816C917.602 35.648 917.719 36.4693 917.719 37.28C917.719 39.328 917.207 41.1413 916.183 42.72C915.18 44.2986 913.794 45.5466 912.023 46.464C910.274 47.36 908.268 47.808 906.007 47.808C904.45 47.808 903.202 47.6266 902.263 47.264C901.346 46.9226 900.684 46.432 900.279 45.792C899.852 45.152 899.639 44.4266 899.639 43.616C899.639 42.8266 899.81 42.1866 900.151 41.696C900.492 41.184 901.026 40.8106 901.751 40.576C902.476 40.32 903.404 40.192 904.535 40.192ZM952.296 46.24C954.301 46.24 955.997 45.6853 957.384 44.576C958.771 43.4666 959.816 41.8026 960.52 39.584C961.245 37.3653 961.608 34.6133 961.608 31.328C961.608 28 961.256 25.216 960.552 22.976C959.848 20.7146 958.813 19.008 957.448 17.856C956.083 16.704 954.408 16.128 952.424 16.128C950.44 16.128 948.755 16.6933 947.368 17.824C945.981 18.9333 944.925 20.5973 944.2 22.816C943.496 25.0133 943.144 27.7546 943.144 31.04C943.144 34.3466 943.496 37.1306 944.2 39.392C944.904 41.6533 945.939 43.36 947.304 44.512C948.669 45.664 950.333 46.24 952.296 46.24ZM952.232 47.808C949.352 47.808 946.749 47.104 944.424 45.696C942.099 44.288 940.243 42.336 938.856 39.84C937.491 37.3226 936.808 34.4426 936.808 31.2C936.808 27.9573 937.512 25.088 938.92 22.592C940.328 20.0746 942.216 18.112 944.584 16.704C946.952 15.2746 949.597 14.56 952.52 14.56C955.443 14.56 958.067 15.2746 960.392 16.704C962.717 18.112 964.552 20.064 965.896 22.56C967.261 25.0346 967.944 27.904 967.944 31.168C967.944 34.432 967.229 37.3226 965.8 39.84C964.371 42.336 962.461 44.288 960.072 45.696C957.704 47.104 955.091 47.808 952.232 47.808ZM977.068 18.592L975.788 19.104L970.028 17.952V16.928L976.172 15.072L977.74 15.2H991.212L990.7 18.592H977.068ZM981.196 45.216L986.476 46.272V47.168H970.732V46.272L975.34 45.216V15.296C975.34 12.9493 975.746 10.8373 976.556 8.95997C977.367 7.0613 978.487 5.45063 979.916 4.12797C981.346 2.78397 982.999 1.75997 984.876 1.05597C986.775 0.351966 988.802 -3.43323e-05 990.956 -3.43323e-05C992.13 -3.43323e-05 993.143 0.0959663 993.996 0.287968C994.85 0.479966 995.564 0.7573 996.14 1.11997C996.738 1.4613 997.175 1.86663 997.452 2.33597C997.73 2.8053 997.868 3.30663 997.868 3.83997C997.868 4.60797 997.602 5.29063 997.068 5.88797C996.556 6.4853 995.895 6.78397 995.084 6.78397C994.807 6.78397 994.391 6.57063 993.836 6.14397C993.303 5.69597 992.663 5.1733 991.916 4.57597C991.191 3.97863 990.38 3.46663 989.484 3.03997C988.588 2.59197 987.639 2.36797 986.636 2.36797C985.463 2.36797 984.471 2.6453 983.66 3.19997C982.85 3.7333 982.231 4.57597 981.804 5.72797C981.399 6.87997 981.196 8.35197 981.196 10.144V45.216ZM197.87 123.24C199.875 123.24 201.571 122.685 202.958 121.576C204.344 120.467 205.39 118.803 206.094 116.584C206.819 114.365 207.182 111.613 207.182 108.328C207.182 105 206.83 102.216 206.126 99.976C205.422 97.7146 204.387 96.008 203.022 94.856C201.656 93.704 199.982 93.128 197.998 93.128C196.014 93.128 194.328 93.6933 192.942 94.824C191.555 95.9333 190.499 97.5973 189.774 99.816C189.07 102.013 188.718 104.755 188.718 108.04C188.718 111.347 189.07 114.131 189.774 116.392C190.478 118.653 191.512 120.36 192.878 121.512C194.243 122.664 195.907 123.24 197.87 123.24ZM197.806 124.808C194.926 124.808 192.323 124.104 189.998 122.696C187.672 121.288 185.816 119.336 184.43 116.84C183.064 114.323 182.382 111.443 182.382 108.2C182.382 104.957 183.086 102.088 184.494 99.592C185.902 97.0746 187.79 95.112 190.158 93.704C192.526 92.2746 195.171 91.56 198.094 91.56C201.016 91.56 203.64 92.2746 205.966 93.704C208.291 95.112 210.126 97.064 211.47 99.56C212.835 102.035 213.518 104.904 213.518 108.168C213.518 111.432 212.803 114.323 211.374 116.84C209.944 119.336 208.035 121.288 205.646 122.696C203.278 124.104 200.664 124.808 197.806 124.808ZM236.306 91.656C237.266 91.656 238.013 91.9226 238.546 92.456C239.101 92.9893 239.378 93.7146 239.378 94.632C239.378 95.7413 239.037 96.6373 238.354 97.32C237.672 98.0026 236.797 98.344 235.73 98.344C235.261 98.344 234.781 98.28 234.29 98.152C233.821 98.024 233.32 97.896 232.786 97.768C232.253 97.64 231.666 97.576 231.026 97.576C230.408 97.576 229.821 97.6826 229.266 97.896C228.712 98.1093 228.157 98.3973 227.602 98.76C227.069 99.1226 226.525 99.56 225.97 100.072L225.874 98.696C227.432 97.1173 228.754 95.8586 229.842 94.92C230.93 93.9813 231.858 93.2773 232.626 92.808C233.394 92.3386 234.066 92.0293 234.642 91.88C235.218 91.7306 235.773 91.656 236.306 91.656ZM226.386 97.448V122.216L231.57 123.272V124.168H216.082V123.272L220.69 122.216V97.64C220.413 97.448 220.061 97.224 219.634 96.968C219.229 96.712 218.728 96.4133 218.13 96.072C217.554 95.7093 216.872 95.304 216.082 94.856V94.248L226.13 91.272H226.354L226.386 97.448ZM252.003 139.368C249.55 139.368 247.449 139.176 245.699 138.792C243.971 138.408 242.553 137.864 241.443 137.16C240.334 136.456 239.513 135.645 238.979 134.728C238.467 133.811 238.211 132.829 238.211 131.784C238.211 130.973 238.414 130.184 238.819 129.416C239.246 128.648 239.929 127.912 240.867 127.208C241.827 126.525 243.075 125.875 244.611 125.256C246.169 124.659 248.078 124.125 250.339 123.656H252.419V124.232C250.009 124.595 248.11 125.117 246.723 125.8C245.358 126.504 244.377 127.304 243.779 128.2C243.203 129.096 242.915 130.067 242.915 131.112C242.915 132.52 243.321 133.725 244.131 134.728C244.963 135.731 246.126 136.499 247.619 137.032C249.134 137.565 250.958 137.832 253.091 137.832C255.523 137.832 257.55 137.533 259.171 136.936C260.814 136.339 262.041 135.528 262.851 134.504C263.683 133.48 264.099 132.339 264.099 131.08C264.099 130.141 263.875 129.341 263.427 128.68C262.979 128.019 262.254 127.464 261.251 127.016C260.27 126.568 258.958 126.205 257.315 125.928C255.694 125.651 253.699 125.427 251.331 125.256C249.369 125.085 247.747 124.797 246.467 124.392C245.187 124.008 244.185 123.528 243.459 122.952C242.755 122.355 242.254 121.693 241.955 120.968C241.678 120.243 241.539 119.432 241.539 118.536C241.539 116.957 242.265 115.613 243.715 114.504C245.166 113.395 247.129 112.52 249.603 111.88L250.083 112.616C248.611 112.723 247.577 113.107 246.979 113.768C246.403 114.429 246.115 115.112 246.115 115.816C246.115 116.435 246.233 116.968 246.467 117.416C246.702 117.843 247.129 118.216 247.747 118.536C248.387 118.835 249.305 119.101 250.499 119.336C251.694 119.549 253.251 119.741 255.171 119.912C257.497 120.125 259.502 120.456 261.187 120.904C262.894 121.331 264.302 121.896 265.411 122.6C266.521 123.283 267.342 124.115 267.875 125.096C268.43 126.077 268.707 127.208 268.707 128.488C268.707 130.387 268.089 132.157 266.851 133.8C265.614 135.443 263.758 136.776 261.283 137.8C258.809 138.845 255.715 139.368 252.003 139.368ZM252.387 113.096C250.126 113.096 248.078 112.637 246.243 111.72C244.43 110.781 242.99 109.501 241.923 107.88C240.857 106.259 240.323 104.424 240.323 102.376C240.323 100.285 240.857 98.4293 241.923 96.808C242.99 95.1653 244.43 93.8853 246.243 92.968C248.078 92.0293 250.126 91.56 252.387 91.56C254.158 91.56 255.779 91.8373 257.251 92.392C258.723 92.9253 260.003 93.6826 261.091 94.664C262.201 95.624 263.054 96.7546 263.651 98.056C264.27 99.3573 264.579 100.787 264.579 102.344C264.579 104.413 264.046 106.259 262.979 107.88C261.934 109.501 260.494 110.781 258.659 111.72C256.825 112.637 254.734 113.096 252.387 113.096ZM253.315 111.848C255.342 111.635 256.814 110.579 257.731 108.68C258.67 106.76 259.011 104.445 258.755 101.736C258.499 98.8986 257.731 96.6693 256.451 95.048C255.171 93.4266 253.507 92.68 251.459 92.808C249.582 92.9786 248.163 94.024 247.203 95.944C246.265 97.864 245.913 100.179 246.147 102.888C246.382 105.64 247.139 107.859 248.419 109.544C249.721 111.229 251.353 111.997 253.315 111.848ZM256.451 92.968L255.203 91.848C257.806 92.0613 259.929 92.1573 261.571 92.136C263.214 92.0933 264.515 91.9973 265.475 91.848C266.435 91.6773 267.171 91.5173 267.683 91.368C268.217 91.2186 268.654 91.144 268.995 91.144C269.379 91.144 269.699 91.2933 269.955 91.592C270.211 91.8693 270.339 92.328 270.339 92.968C270.339 94.2053 270.009 95.1653 269.347 95.848C268.686 96.5093 267.982 96.84 267.235 96.84C266.745 96.84 266.243 96.6693 265.731 96.328C265.219 95.9866 264.59 95.5813 263.843 95.112C263.097 94.6213 262.137 94.1733 260.963 93.768C259.79 93.3626 258.286 93.096 256.451 92.968ZM290.098 103.432L290.45 104.904C287.528 105.8 285.149 106.653 283.314 107.464C281.501 108.275 280.104 109.096 279.122 109.928C278.162 110.739 277.501 111.592 277.138 112.488C276.776 113.384 276.594 114.376 276.594 115.464C276.594 117.256 277.106 118.611 278.13 119.528C279.176 120.424 280.445 120.872 281.938 120.872C283.133 120.872 284.178 120.627 285.074 120.136C285.992 119.645 286.706 118.941 287.218 118.024C287.752 117.107 288.018 116.008 288.018 114.728V100.52C288.018 98.408 287.496 96.808 286.45 95.72C285.426 94.6106 283.848 94.056 281.714 94.056C280.712 94.056 279.698 94.1413 278.674 94.312C277.672 94.4826 276.85 94.728 276.21 95.048L277.906 93.736C277.842 94.4826 277.736 95.2613 277.586 96.072C277.458 96.8826 277.298 97.6186 277.106 98.28C276.914 98.92 276.68 99.4 276.402 99.72C276.125 100.083 275.698 100.36 275.122 100.552C274.568 100.723 274.002 100.808 273.426 100.808C272.68 100.808 272.082 100.659 271.634 100.36C271.186 100.04 270.962 99.5706 270.962 98.952C270.962 98.0773 271.368 97.2133 272.178 96.36C273.01 95.4853 274.077 94.696 275.378 93.992C276.701 93.2666 278.13 92.6906 279.666 92.264C281.202 91.8373 282.674 91.624 284.082 91.624C286.408 91.624 288.274 91.9653 289.682 92.648C291.09 93.3306 292.114 94.3013 292.754 95.56C293.394 96.7973 293.714 98.2586 293.714 99.944V118.28C293.714 118.963 293.821 119.517 294.034 119.944C294.269 120.371 294.578 120.691 294.962 120.904C295.368 121.096 295.837 121.192 296.37 121.192C297.053 121.192 297.736 121.085 298.418 120.872C299.122 120.637 299.837 120.264 300.562 119.752V120.712C299.09 122.44 297.768 123.56 296.594 124.072C295.421 124.563 294.226 124.808 293.01 124.808C291.773 124.808 290.792 124.531 290.066 123.976C289.341 123.421 288.818 122.632 288.498 121.608C288.178 120.563 287.997 119.315 287.954 117.864L288.05 117.832C287.709 119.176 287.133 120.371 286.322 121.416C285.512 122.461 284.541 123.293 283.41 123.912C282.28 124.509 281.032 124.808 279.666 124.808C277.106 124.808 274.962 124.125 273.234 122.76C271.528 121.373 270.674 119.368 270.674 116.744C270.674 115.379 270.909 114.163 271.378 113.096C271.869 112.029 272.786 111.016 274.13 110.056C275.496 109.096 277.458 108.093 280.018 107.048C282.578 105.981 285.938 104.776 290.098 103.432ZM310.359 97.448V122.216L314.999 123.272V124.168H300.055V123.272L304.663 122.216V97.64C304.321 97.4053 303.831 97.096 303.191 96.712C302.551 96.328 301.505 95.7093 300.055 94.856V94.248L310.007 91.272H310.231L310.359 97.448ZM320.407 123.272L325.047 122.216V102.44C325.047 101.053 324.801 99.8906 324.311 98.952C323.82 98.0133 323.063 97.3093 322.039 96.84C321.015 96.3493 319.713 96.104 318.135 96.104C316.449 96.104 314.849 96.3493 313.335 96.84C311.82 97.3093 310.593 97.8213 309.655 98.376L309.143 97.64C310.721 96.4026 312.108 95.3893 313.303 94.6C314.497 93.8106 315.575 93.2026 316.535 92.776C317.495 92.328 318.412 92.0186 319.287 91.848C320.161 91.656 321.1 91.56 322.103 91.56C325.153 91.56 327.361 92.4026 328.727 94.088C330.092 95.752 330.775 98.3973 330.775 102.024V122.216L335.383 123.272V124.168H320.407V123.272ZM343.534 85.8C342.212 85.8 341.166 85.3626 340.398 84.488C339.63 83.592 339.246 82.5786 339.246 81.448C339.246 80.3386 339.63 79.3786 340.398 78.568C341.166 77.7573 342.212 77.352 343.534 77.352C344.836 77.352 345.849 77.7573 346.574 78.568C347.321 79.3786 347.694 80.3386 347.694 81.448C347.694 82.5786 347.321 83.592 346.574 84.488C345.849 85.3626 344.836 85.8 343.534 85.8ZM346.894 91.272L346.862 97.352V122.216L351.502 123.272V124.168H336.526V123.272L341.166 122.216V97.576C340.932 97.4053 340.569 97.1706 340.078 96.872C339.609 96.5733 339.065 96.2426 338.446 95.88C337.849 95.496 337.22 95.1226 336.558 94.76V94.12L346.702 91.272H346.894ZM370.215 91.56C372.221 91.56 373.853 91.7733 375.111 92.2C376.391 92.6266 377.33 93.1813 377.927 93.864C378.525 94.5466 378.823 95.2826 378.823 96.072C378.823 96.7333 378.685 97.3093 378.407 97.8C378.151 98.2693 377.789 98.632 377.319 98.888C376.85 99.144 376.274 99.272 375.591 99.272C375.357 99.272 375.047 99.08 374.663 98.696C374.301 98.2906 373.863 97.8 373.351 97.224C372.839 96.648 372.263 96.072 371.623 95.496C371.005 94.8986 370.343 94.408 369.639 94.024C368.935 93.6186 368.189 93.416 367.399 93.416C365.906 93.416 364.562 93.8533 363.367 94.728C362.194 95.6026 361.266 96.936 360.583 98.728C359.922 100.52 359.591 102.824 359.591 105.64C359.591 109.053 360.018 111.848 360.871 114.024C361.725 116.2 362.973 117.8 364.615 118.824C366.258 119.827 368.285 120.328 370.695 120.328C372.317 120.328 373.885 119.997 375.399 119.336C376.914 118.653 378.194 117.619 379.239 116.232L379.751 116.68C378.535 118.664 377.298 120.253 376.039 121.448C374.781 122.643 373.458 123.507 372.071 124.04C370.706 124.552 369.213 124.808 367.591 124.808C364.967 124.808 362.599 124.189 360.487 122.952C358.397 121.715 356.743 119.912 355.527 117.544C354.311 115.155 353.703 112.243 353.703 108.808C353.703 106.312 354.109 104.019 354.919 101.928C355.73 99.8373 356.871 98.024 358.343 96.488C359.815 94.9306 361.554 93.7253 363.559 92.872C365.586 91.9973 367.805 91.56 370.215 91.56ZM401.728 103.432L402.08 104.904C399.158 105.8 396.779 106.653 394.944 107.464C393.131 108.275 391.734 109.096 390.752 109.928C389.792 110.739 389.131 111.592 388.768 112.488C388.406 113.384 388.224 114.376 388.224 115.464C388.224 117.256 388.736 118.611 389.76 119.528C390.806 120.424 392.075 120.872 393.568 120.872C394.763 120.872 395.808 120.627 396.704 120.136C397.622 119.645 398.336 118.941 398.848 118.024C399.382 117.107 399.648 116.008 399.648 114.728V100.52C399.648 98.408 399.126 96.808 398.08 95.72C397.056 94.6106 395.478 94.056 393.344 94.056C392.342 94.056 391.328 94.1413 390.304 94.312C389.302 94.4826 388.48 94.728 387.84 95.048L389.536 93.736C389.472 94.4826 389.366 95.2613 389.216 96.072C389.088 96.8826 388.928 97.6186 388.736 98.28C388.544 98.92 388.31 99.4 388.032 99.72C387.755 100.083 387.328 100.36 386.752 100.552C386.198 100.723 385.632 100.808 385.056 100.808C384.31 100.808 383.712 100.659 383.264 100.36C382.816 100.04 382.592 99.5706 382.592 98.952C382.592 98.0773 382.998 97.2133 383.808 96.36C384.64 95.4853 385.707 94.696 387.008 93.992C388.331 93.2666 389.76 92.6906 391.296 92.264C392.832 91.8373 394.304 91.624 395.712 91.624C398.038 91.624 399.904 91.9653 401.312 92.648C402.72 93.3306 403.744 94.3013 404.384 95.56C405.024 96.7973 405.344 98.2586 405.344 99.944V118.28C405.344 118.963 405.451 119.517 405.664 119.944C405.899 120.371 406.208 120.691 406.592 120.904C406.998 121.096 407.467 121.192 408 121.192C408.683 121.192 409.366 121.085 410.048 120.872C410.752 120.637 411.467 120.264 412.192 119.752V120.712C410.72 122.44 409.398 123.56 408.224 124.072C407.051 124.563 405.856 124.808 404.64 124.808C403.403 124.808 402.422 124.531 401.696 123.976C400.971 123.421 400.448 122.632 400.128 121.608C399.808 120.563 399.627 119.315 399.584 117.864L399.68 117.832C399.339 119.176 398.763 120.371 397.952 121.416C397.142 122.461 396.171 123.293 395.04 123.912C393.91 124.509 392.662 124.808 391.296 124.808C388.736 124.808 386.592 124.125 384.864 122.76C383.158 121.373 382.304 119.368 382.304 116.744C382.304 115.379 382.539 114.163 383.008 113.096C383.499 112.029 384.416 111.016 385.76 110.056C387.126 109.096 389.088 108.093 391.648 107.048C394.208 105.981 397.568 104.776 401.728 103.432ZM421.605 122.216L426.245 123.272V124.168H411.269V123.272L415.909 122.216V82.536C415.631 82.3866 415.237 82.1946 414.725 81.96C414.234 81.704 413.647 81.4266 412.965 81.128C412.303 80.808 411.557 80.456 410.725 80.072V79.496L421.445 77H421.669L421.605 82.504V122.216ZM437.45 122.216L442.09 123.272V124.168H427.114V123.272L431.754 122.216V82.536C431.476 82.3866 431.082 82.1946 430.57 81.96C430.079 81.704 429.492 81.4266 428.81 81.128C428.148 80.808 427.402 80.456 426.57 80.072V79.496L437.29 77H437.514L437.45 82.504V122.216ZM462.779 118.184L459.611 125.064L445.243 94.568L441.179 93.32V92.2H456.091V93.32L451.515 94.504L462.779 118.184ZM449.019 139.368C447.696 139.368 446.597 139.027 445.723 138.344C444.848 137.661 444.411 136.691 444.411 135.432C444.411 134.813 444.517 134.301 444.731 133.896C444.944 133.512 445.221 133.213 445.563 133C445.904 132.808 446.235 132.712 446.555 132.712C446.875 132.712 447.248 132.829 447.675 133.064C448.123 133.32 448.645 133.565 449.243 133.8C449.84 134.056 450.523 134.184 451.291 134.184C452.187 134.184 452.965 134.045 453.627 133.768C454.309 133.512 454.939 133 455.515 132.232C456.112 131.464 456.72 130.355 457.339 128.904L460.123 122.184L461.499 118.728L469.467 94.312L464.795 93.32V92.2H476.187V93.32L472.187 94.28L459.067 129.448C458.107 131.965 457.115 133.939 456.091 135.368C455.088 136.819 454.011 137.843 452.859 138.44C451.707 139.059 450.427 139.368 449.019 139.368ZM500.953 139.368C498.5 139.368 496.399 139.176 494.649 138.792C492.921 138.408 491.503 137.864 490.393 137.16C489.284 136.456 488.463 135.645 487.929 134.728C487.417 133.811 487.161 132.829 487.161 131.784C487.161 130.973 487.364 130.184 487.769 129.416C488.196 128.648 488.879 127.912 489.817 127.208C490.777 126.525 492.025 125.875 493.561 125.256C495.119 124.659 497.028 124.125 499.289 123.656H501.369V124.232C498.959 124.595 497.06 125.117 495.673 125.8C494.308 126.504 493.327 127.304 492.729 128.2C492.153 129.096 491.865 130.067 491.865 131.112C491.865 132.52 492.271 133.725 493.081 134.728C493.913 135.731 495.076 136.499 496.569 137.032C498.084 137.565 499.908 137.832 502.041 137.832C504.473 137.832 506.5 137.533 508.121 136.936C509.764 136.339 510.991 135.528 511.801 134.504C512.633 133.48 513.049 132.339 513.049 131.08C513.049 130.141 512.825 129.341 512.377 128.68C511.929 128.019 511.204 127.464 510.201 127.016C509.22 126.568 507.908 126.205 506.265 125.928C504.644 125.651 502.649 125.427 500.281 125.256C498.319 125.085 496.697 124.797 495.417 124.392C494.137 124.008 493.135 123.528 492.409 122.952C491.705 122.355 491.204 121.693 490.905 120.968C490.628 120.243 490.489 119.432 490.489 118.536C490.489 116.957 491.215 115.613 492.665 114.504C494.116 113.395 496.079 112.52 498.553 111.88L499.033 112.616C497.561 112.723 496.527 113.107 495.929 113.768C495.353 114.429 495.065 115.112 495.065 115.816C495.065 116.435 495.183 116.968 495.417 117.416C495.652 117.843 496.079 118.216 496.697 118.536C497.337 118.835 498.255 119.101 499.449 119.336C500.644 119.549 502.201 119.741 504.121 119.912C506.447 120.125 508.452 120.456 510.137 120.904C511.844 121.331 513.252 121.896 514.361 122.6C515.471 123.283 516.292 124.115 516.825 125.096C517.38 126.077 517.657 127.208 517.657 128.488C517.657 130.387 517.039 132.157 515.801 133.8C514.564 135.443 512.708 136.776 510.233 137.8C507.759 138.845 504.665 139.368 500.953 139.368ZM501.337 113.096C499.076 113.096 497.028 112.637 495.193 111.72C493.38 110.781 491.94 109.501 490.873 107.88C489.807 106.259 489.273 104.424 489.273 102.376C489.273 100.285 489.807 98.4293 490.873 96.808C491.94 95.1653 493.38 93.8853 495.193 92.968C497.028 92.0293 499.076 91.56 501.337 91.56C503.108 91.56 504.729 91.8373 506.201 92.392C507.673 92.9253 508.953 93.6826 510.041 94.664C511.151 95.624 512.004 96.7546 512.601 98.056C513.22 99.3573 513.529 100.787 513.529 102.344C513.529 104.413 512.996 106.259 511.929 107.88C510.884 109.501 509.444 110.781 507.609 111.72C505.775 112.637 503.684 113.096 501.337 113.096ZM502.265 111.848C504.292 111.635 505.764 110.579 506.681 108.68C507.62 106.76 507.961 104.445 507.705 101.736C507.449 98.8986 506.681 96.6693 505.401 95.048C504.121 93.4266 502.457 92.68 500.409 92.808C498.532 92.9786 497.113 94.024 496.153 95.944C495.215 97.864 494.863 100.179 495.097 102.888C495.332 105.64 496.089 107.859 497.369 109.544C498.671 111.229 500.303 111.997 502.265 111.848ZM505.401 92.968L504.153 91.848C506.756 92.0613 508.879 92.1573 510.521 92.136C512.164 92.0933 513.465 91.9973 514.425 91.848C515.385 91.6773 516.121 91.5173 516.633 91.368C517.167 91.2186 517.604 91.144 517.945 91.144C518.329 91.144 518.649 91.2933 518.905 91.592C519.161 91.8693 519.289 92.328 519.289 92.968C519.289 94.2053 518.959 95.1653 518.297 95.848C517.636 96.5093 516.932 96.84 516.185 96.84C515.695 96.84 515.193 96.6693 514.681 96.328C514.169 95.9866 513.54 95.5813 512.793 95.112C512.047 94.6213 511.087 94.1733 509.913 93.768C508.74 93.3626 507.236 93.096 505.401 92.968ZM539.571 91.656C540.531 91.656 541.278 91.9226 541.811 92.456C542.366 92.9893 542.643 93.7146 542.643 94.632C542.643 95.7413 542.302 96.6373 541.619 97.32C540.936 98.0026 540.062 98.344 538.995 98.344C538.526 98.344 538.046 98.28 537.555 98.152C537.086 98.024 536.584 97.896 536.051 97.768C535.518 97.64 534.931 97.576 534.291 97.576C533.672 97.576 533.086 97.6826 532.531 97.896C531.976 98.1093 531.422 98.3973 530.867 98.76C530.334 99.1226 529.79 99.56 529.235 100.072L529.139 98.696C530.696 97.1173 532.019 95.8586 533.107 94.92C534.195 93.9813 535.123 93.2773 535.891 92.808C536.659 92.3386 537.331 92.0293 537.907 91.88C538.483 91.7306 539.038 91.656 539.571 91.656ZM529.651 97.448V122.216L534.835 123.272V124.168H519.347V123.272L523.955 122.216V97.64C523.678 97.448 523.326 97.224 522.899 96.968C522.494 96.712 521.992 96.4133 521.395 96.072C520.819 95.7093 520.136 95.304 519.347 94.856V94.248L529.395 91.272H529.619L529.651 97.448ZM558.45 123.24C560.455 123.24 562.151 122.685 563.538 121.576C564.924 120.467 565.97 118.803 566.674 116.584C567.399 114.365 567.762 111.613 567.762 108.328C567.762 105 567.41 102.216 566.706 99.976C566.002 97.7146 564.967 96.008 563.602 94.856C562.236 93.704 560.562 93.128 558.578 93.128C556.594 93.128 554.908 93.6933 553.522 94.824C552.135 95.9333 551.079 97.5973 550.354 99.816C549.65 102.013 549.298 104.755 549.298 108.04C549.298 111.347 549.65 114.131 550.354 116.392C551.058 118.653 552.092 120.36 553.458 121.512C554.823 122.664 556.487 123.24 558.45 123.24ZM558.386 124.808C555.506 124.808 552.903 124.104 550.578 122.696C548.252 121.288 546.396 119.336 545.01 116.84C543.644 114.323 542.962 111.443 542.962 108.2C542.962 104.957 543.666 102.088 545.074 99.592C546.482 97.0746 548.37 95.112 550.738 93.704C553.106 92.2746 555.751 91.56 558.674 91.56C561.596 91.56 564.22 92.2746 566.546 93.704C568.871 95.112 570.706 97.064 572.05 99.56C573.415 102.035 574.098 104.904 574.098 108.168C574.098 111.432 573.383 114.323 571.954 116.84C570.524 119.336 568.615 121.288 566.226 122.696C563.858 124.104 561.244 124.808 558.386 124.808ZM616.665 94.312L611.993 93.32V92.2H623.385V93.32L619.385 94.28L610.297 124.968H609.337L597.209 99.176H599.001L588.313 124.968H587.353L577.721 94.568L573.625 93.32V92.2H588.409V93.32L583.833 94.504L590.841 117.48L589.401 118.504L599.225 91.304H600.249L612.185 117.064L610.681 118.504L616.665 94.312ZM634.061 97.448V122.216L638.701 123.272V124.168H623.757V123.272L628.365 122.216V97.64C628.024 97.4053 627.533 97.096 626.893 96.712C626.253 96.328 625.208 95.7093 623.757 94.856V94.248L633.709 91.272H633.933L634.061 97.448ZM644.109 123.272L648.749 122.216V102.44C648.749 101.053 648.504 99.8906 648.013 98.952C647.523 98.0133 646.765 97.3093 645.741 96.84C644.717 96.3493 643.416 96.104 641.837 96.104C640.152 96.104 638.552 96.3493 637.037 96.84C635.523 97.3093 634.296 97.8213 633.357 98.376L632.845 97.64C634.424 96.4026 635.811 95.3893 637.005 94.6C638.2 93.8106 639.277 93.2026 640.237 92.776C641.197 92.328 642.115 92.0186 642.989 91.848C643.864 91.656 644.803 91.56 645.805 91.56C648.856 91.56 651.064 92.4026 652.429 94.088C653.795 95.752 654.477 98.3973 654.477 102.024V122.216L659.085 123.272V124.168H644.109V123.272ZM680.195 95.592L678.915 96.104L673.155 94.952V93.928L679.299 92.072L680.867 92.2H694.339L693.827 95.592H680.195ZM684.323 122.216L689.603 123.272V124.168H673.859V123.272L678.467 122.216V92.296C678.467 89.9493 678.872 87.8373 679.683 85.96C680.493 84.0613 681.613 82.4506 683.043 81.128C684.472 79.784 686.125 78.76 688.003 78.056C689.901 77.352 691.928 77 694.083 77C695.256 77 696.269 77.096 697.123 77.288C697.976 77.48 698.691 77.7573 699.267 78.12C699.864 78.4613 700.301 78.8666 700.579 79.336C700.856 79.8053 700.995 80.3066 700.995 80.84C700.995 81.608 700.728 82.2906 700.195 82.888C699.683 83.4853 699.021 83.784 698.211 83.784C697.933 83.784 697.517 83.5706 696.963 83.144C696.429 82.696 695.789 82.1733 695.043 81.576C694.317 80.9786 693.507 80.4666 692.611 80.04C691.715 79.592 690.765 79.368 689.763 79.368C688.589 79.368 687.597 79.6453 686.787 80.2C685.976 80.7333 685.357 81.576 684.931 82.728C684.525 83.88 684.323 85.352 684.323 87.144V122.216ZM709.675 123.24C711.68 123.24 713.376 122.685 714.763 121.576C716.149 120.467 717.195 118.803 717.899 116.584C718.624 114.365 718.987 111.613 718.987 108.328C718.987 105 718.635 102.216 717.931 99.976C717.227 97.7146 716.192 96.008 714.827 94.856C713.461 93.704 711.787 93.128 709.803 93.128C707.819 93.128 706.133 93.6933 704.747 94.824C703.36 95.9333 702.304 97.5973 701.579 99.816C700.875 102.013 700.523 104.755 700.523 108.04C700.523 111.347 700.875 114.131 701.579 116.392C702.283 118.653 703.317 120.36 704.683 121.512C706.048 122.664 707.712 123.24 709.675 123.24ZM709.611 124.808C706.731 124.808 704.128 124.104 701.803 122.696C699.477 121.288 697.621 119.336 696.235 116.84C694.869 114.323 694.187 111.443 694.187 108.2C694.187 104.957 694.891 102.088 696.299 99.592C697.707 97.0746 699.595 95.112 701.963 93.704C704.331 92.2746 706.976 91.56 709.899 91.56C712.821 91.56 715.445 92.2746 717.771 93.704C720.096 95.112 721.931 97.064 723.275 99.56C724.64 102.035 725.323 104.904 725.323 108.168C725.323 111.432 724.608 114.323 723.179 116.84C721.749 119.336 719.84 121.288 717.451 122.696C715.083 124.104 712.469 124.808 709.611 124.808ZM744.207 123.24C746.213 123.24 747.909 122.685 749.295 121.576C750.682 120.467 751.727 118.803 752.431 116.584C753.157 114.365 753.519 111.613 753.519 108.328C753.519 105 753.167 102.216 752.463 99.976C751.759 97.7146 750.725 96.008 749.359 94.856C747.994 93.704 746.319 93.128 744.335 93.128C742.351 93.128 740.666 93.6933 739.279 94.824C737.893 95.9333 736.837 97.5973 736.111 99.816C735.407 102.013 735.055 104.755 735.055 108.04C735.055 111.347 735.407 114.131 736.111 116.392C736.815 118.653 737.85 120.36 739.215 121.512C740.581 122.664 742.245 123.24 744.207 123.24ZM744.143 124.808C741.263 124.808 738.661 124.104 736.335 122.696C734.01 121.288 732.154 119.336 730.767 116.84C729.402 114.323 728.719 111.443 728.719 108.2C728.719 104.957 729.423 102.088 730.831 99.592C732.239 97.0746 734.127 95.112 736.495 93.704C738.863 92.2746 741.509 91.56 744.431 91.56C747.354 91.56 749.978 92.2746 752.303 93.704C754.629 95.112 756.463 97.064 757.807 99.56C759.173 102.035 759.855 104.904 759.855 108.168C759.855 111.432 759.141 114.323 757.711 116.84C756.282 119.336 754.373 121.288 751.983 122.696C749.615 124.104 747.002 124.808 744.143 124.808ZM787.092 100.328C787.092 98.28 786.345 96.5946 784.852 95.272C783.358 93.9493 781.47 93.288 779.188 93.288C777.118 93.288 775.358 93.832 773.908 94.92C772.457 96.008 771.348 97.5973 770.58 99.688C769.833 101.779 769.46 104.339 769.46 107.368C769.46 110.312 769.833 112.765 770.58 114.728C771.326 116.669 772.436 118.131 773.908 119.112C775.38 120.072 777.214 120.552 779.412 120.552C781.204 120.552 782.868 120.253 784.404 119.656C785.94 119.059 787.422 118.024 788.852 116.552L789.268 117.448C787.881 118.877 786.622 120.072 785.492 121.032C784.361 121.971 783.294 122.717 782.292 123.272C781.31 123.827 780.361 124.221 779.444 124.456C778.548 124.691 777.673 124.808 776.82 124.808C774.046 124.808 771.646 124.179 769.62 122.92C767.614 121.661 766.057 119.901 764.948 117.64C763.86 115.379 763.316 112.755 763.316 109.768C763.316 106.888 763.732 104.328 764.564 102.088C765.417 99.8266 766.612 97.9173 768.148 96.36C769.684 94.8026 771.497 93.6186 773.588 92.808C775.678 91.976 777.961 91.56 780.436 91.56C781.652 91.56 782.878 91.656 784.116 91.848C785.353 92.0186 786.569 92.296 787.764 92.68C788.958 93.064 790.089 93.5546 791.156 94.152L787.092 95.176V82.408C786.836 82.28 786.42 82.0773 785.844 81.8C785.289 81.5226 784.67 81.224 783.988 80.904C783.305 80.584 782.654 80.296 782.036 80.04V79.464L793.044 77H793.236L792.788 81.992V120.744C792.98 120.851 793.278 121 793.684 121.192C794.11 121.363 794.569 121.544 795.06 121.736C795.55 121.928 796.03 122.12 796.5 122.312C796.99 122.504 797.406 122.664 797.748 122.792V123.528L787.38 124.968H787.156L787.092 120.424V100.328ZM804.465 116.04C805.767 116.04 806.823 116.467 807.633 117.32C808.465 118.152 808.881 119.176 808.881 120.392C808.881 121.608 808.465 122.643 807.633 123.496C806.801 124.328 805.745 124.744 804.465 124.744C803.185 124.744 802.129 124.328 801.297 123.496C800.465 122.643 800.049 121.608 800.049 120.392C800.049 119.176 800.465 118.152 801.297 117.32C802.151 116.467 803.207 116.04 804.465 116.04Z" fill="black"/>
</svg>
