<svg width="1440" height="149" viewBox="0 0 1440 149" fill="none" xmlns="http://www.w3.org/2000/svg">
<g clip-path="url(#clip0_4368_321190)">
<rect width="1440" height="149" fill="white"/>
<rect x="1077" y="76" width="88" height="40" rx="20" fill="#426B1F"/>
<path d="M1098.1 101.5H1094.16V89.8636H1098.18C1099.33 89.8636 1100.33 90.0966 1101.16 90.5625C1101.99 91.0246 1102.63 91.6894 1103.08 92.5568C1103.52 93.4242 1103.75 94.4621 1103.75 95.6705C1103.75 96.8826 1103.52 97.9242 1103.07 98.7955C1102.62 99.6667 1101.98 100.335 1101.13 100.801C1100.29 101.267 1099.28 101.5 1098.1 101.5ZM1096.26 99.6761H1098C1098.81 99.6761 1099.48 99.5284 1100.02 99.233C1100.57 98.9337 1100.97 98.4886 1101.25 97.8977C1101.52 97.303 1101.66 96.5606 1101.66 95.6705C1101.66 94.7803 1101.52 94.0417 1101.25 93.4545C1100.97 92.8636 1100.57 92.4223 1100.04 92.1307C1099.51 91.8352 1098.85 91.6875 1098.06 91.6875H1096.26V99.6761ZM1109.52 101.67C1108.65 101.67 1107.89 101.489 1107.25 101.125C1106.62 100.758 1106.14 100.239 1105.79 99.5682C1105.45 98.8939 1105.28 98.1004 1105.28 97.1875C1105.28 96.2898 1105.45 95.5019 1105.79 94.8239C1106.14 94.142 1106.62 93.6117 1107.24 93.233C1107.86 92.8504 1108.58 92.6591 1109.41 92.6591C1109.95 92.6591 1110.46 92.7462 1110.94 92.9205C1111.42 93.0909 1111.84 93.3561 1112.21 93.7159C1112.58 94.0758 1112.87 94.5341 1113.08 95.0909C1113.3 95.6439 1113.4 96.303 1113.4 97.0682V97.6989H1106.25V96.3125H1111.43C1111.43 95.9186 1111.34 95.5682 1111.18 95.2614C1111.01 94.9508 1110.78 94.7064 1110.48 94.5284C1110.18 94.3504 1109.84 94.2614 1109.44 94.2614C1109.02 94.2614 1108.65 94.3636 1108.33 94.5682C1108.02 94.7689 1107.77 95.0341 1107.59 95.3636C1107.42 95.6894 1107.33 96.0473 1107.32 96.4375V97.6477C1107.32 98.1553 1107.42 98.5909 1107.6 98.9545C1107.79 99.3144 1108.05 99.5909 1108.38 99.7841C1108.71 99.9735 1109.1 100.068 1109.55 100.068C1109.85 100.068 1110.12 100.027 1110.36 99.9432C1110.61 99.8561 1110.82 99.7292 1110.99 99.5625C1111.17 99.3958 1111.31 99.1894 1111.4 98.9432L1113.32 99.1591C1113.2 99.6667 1112.97 100.11 1112.62 100.489C1112.29 100.864 1111.86 101.155 1111.33 101.364C1110.8 101.568 1110.2 101.67 1109.52 101.67ZM1119.56 92.7727V94.3636H1114.4V92.7727H1119.56ZM1115.69 101.5V91.9489C1115.69 91.3617 1115.82 90.8731 1116.06 90.483C1116.3 90.0928 1116.63 89.8011 1117.05 89.608C1117.46 89.4148 1117.92 89.3182 1118.42 89.3182C1118.78 89.3182 1119.09 89.3466 1119.37 89.4034C1119.65 89.4602 1119.85 89.5114 1119.98 89.5568L1119.57 91.1477C1119.49 91.1212 1119.38 91.0947 1119.25 91.0682C1119.11 91.0379 1118.96 91.0227 1118.8 91.0227C1118.42 91.0227 1118.15 91.1155 1117.99 91.3011C1117.83 91.483 1117.76 91.7443 1117.76 92.0852V101.5H1115.69ZM1123.39 101.676C1122.84 101.676 1122.34 101.578 1121.89 101.381C1121.45 101.18 1121.11 100.884 1120.85 100.494C1120.59 100.104 1120.47 99.6231 1120.47 99.0511C1120.47 98.5587 1120.56 98.1515 1120.74 97.8295C1120.92 97.5076 1121.17 97.25 1121.49 97.0568C1121.8 96.8636 1122.15 96.7178 1122.55 96.6193C1122.95 96.517 1123.36 96.4432 1123.78 96.3977C1124.29 96.3447 1124.71 96.2973 1125.02 96.2557C1125.34 96.2102 1125.57 96.142 1125.72 96.0511C1125.87 95.9564 1125.94 95.8106 1125.94 95.6136V95.5795C1125.94 95.1515 1125.81 94.8201 1125.56 94.5852C1125.31 94.3504 1124.94 94.233 1124.46 94.233C1123.96 94.233 1123.56 94.3428 1123.26 94.5625C1122.97 94.7822 1122.77 95.0417 1122.67 95.3409L1120.75 95.0682C1120.9 94.5379 1121.15 94.0947 1121.5 93.7386C1121.85 93.3788 1122.28 93.1098 1122.78 92.9318C1123.28 92.75 1123.84 92.6591 1124.45 92.6591C1124.87 92.6591 1125.29 92.7083 1125.71 92.8068C1126.12 92.9053 1126.5 93.0682 1126.85 93.2955C1127.19 93.5189 1127.47 93.8239 1127.68 94.2102C1127.89 94.5966 1128 95.0795 1128 95.6591V101.5H1126.02V100.301H1125.95C1125.83 100.544 1125.65 100.771 1125.42 100.983C1125.2 101.191 1124.92 101.36 1124.58 101.489C1124.24 101.614 1123.84 101.676 1123.39 101.676ZM1123.92 100.165C1124.34 100.165 1124.69 100.083 1125 99.9205C1125.3 99.7538 1125.53 99.5341 1125.7 99.2614C1125.86 98.9886 1125.95 98.6913 1125.95 98.3693V97.3409C1125.88 97.3939 1125.77 97.4432 1125.62 97.4886C1125.46 97.5341 1125.29 97.5739 1125.1 97.608C1124.92 97.642 1124.73 97.6723 1124.54 97.6989C1124.36 97.7254 1124.2 97.7481 1124.06 97.767C1123.75 97.8087 1123.48 97.8769 1123.24 97.9716C1122.99 98.0663 1122.8 98.1989 1122.66 98.3693C1122.52 98.536 1122.45 98.7519 1122.45 99.017C1122.45 99.3958 1122.59 99.6818 1122.87 99.875C1123.14 100.068 1123.49 100.165 1123.92 100.165ZM1135.63 97.8295V92.7727H1137.68V101.5H1135.69V99.9489H1135.6C1135.4 100.437 1135.08 100.837 1134.63 101.148C1134.18 101.458 1133.63 101.614 1132.97 101.614C1132.4 101.614 1131.9 101.487 1131.46 101.233C1131.02 100.975 1130.68 100.602 1130.43 100.114C1130.19 99.6212 1130.06 99.0265 1130.06 98.3295V92.7727H1132.12V98.0114C1132.12 98.5644 1132.27 99.0038 1132.58 99.3295C1132.88 99.6553 1133.28 99.8182 1133.77 99.8182C1134.07 99.8182 1134.37 99.7443 1134.65 99.5966C1134.93 99.4489 1135.17 99.2292 1135.35 98.9375C1135.53 98.642 1135.63 98.2727 1135.63 97.8295ZM1141.86 89.8636V101.5H1139.8V89.8636H1141.86ZM1148.33 92.7727V94.3636H1143.31V92.7727H1148.33ZM1144.55 90.6818H1146.61V98.875C1146.61 99.1515 1146.65 99.3636 1146.73 99.5114C1146.82 99.6553 1146.93 99.7538 1147.07 99.8068C1147.21 99.8598 1147.37 99.8864 1147.54 99.8864C1147.67 99.8864 1147.79 99.8769 1147.89 99.858C1148 99.839 1148.08 99.822 1148.14 99.8068L1148.49 101.415C1148.38 101.453 1148.22 101.494 1148.02 101.54C1147.82 101.585 1147.57 101.612 1147.28 101.619C1146.76 101.634 1146.3 101.557 1145.89 101.386C1145.47 101.212 1145.15 100.943 1144.9 100.58C1144.66 100.216 1144.55 99.7614 1144.55 99.2159V90.6818Z" fill="white"/>
<rect x="1173.5" y="76.5" width="61" height="39" rx="19.5" fill="white"/>
<rect x="1173.5" y="76.5" width="61" height="39" rx="19.5" stroke="#C2C2C2"/>
<path d="M1191.91 101.5H1189.66L1193.75 89.8636H1196.36L1200.46 101.5H1198.21L1195.1 92.25H1195.01L1191.91 101.5ZM1191.98 96.9375H1198.12V98.6307H1191.98V96.9375ZM1207.19 94.8352V96.5284H1201.95V94.8352H1207.19ZM1209.23 101.5V100.188L1215.19 91.6307H1209.19V89.8636H1217.81V91.1761L1211.85 99.733H1217.84V101.5H1209.23Z" fill="black"/>
<rect x="1243.5" y="76.5" width="100" height="39" rx="19.5" fill="white"/>
<rect x="1243.5" y="76.5" width="100" height="39" rx="19.5" stroke="#C2C2C2"/>
<path d="M1260.51 101.5V89.8636H1262.62V99.733H1267.74V101.5H1260.51ZM1269.48 101.5V92.7727H1271.54V101.5H1269.48ZM1270.51 91.5341C1270.19 91.5341 1269.91 91.4261 1269.67 91.2102C1269.44 90.9905 1269.32 90.7273 1269.32 90.4205C1269.32 90.1098 1269.44 89.8466 1269.67 89.6307C1269.91 89.411 1270.19 89.3011 1270.51 89.3011C1270.84 89.3011 1271.12 89.411 1271.35 89.6307C1271.59 89.8466 1271.71 90.1098 1271.71 90.4205C1271.71 90.7273 1271.59 90.9905 1271.35 91.2102C1271.12 91.4261 1270.84 91.5341 1270.51 91.5341ZM1280.55 95.0795L1278.67 95.2841C1278.62 95.0947 1278.53 94.9167 1278.39 94.75C1278.27 94.5833 1278.09 94.4489 1277.87 94.3466C1277.65 94.2443 1277.38 94.1932 1277.07 94.1932C1276.64 94.1932 1276.28 94.286 1275.99 94.4716C1275.7 94.6572 1275.56 94.8977 1275.56 95.1932C1275.56 95.447 1275.65 95.6534 1275.84 95.8125C1276.03 95.9716 1276.35 96.1023 1276.79 96.2045L1278.28 96.5227C1279.11 96.7008 1279.72 96.983 1280.12 97.3693C1280.53 97.7557 1280.73 98.2614 1280.74 98.8864C1280.73 99.4356 1280.57 99.9205 1280.25 100.341C1279.94 100.758 1279.5 101.083 1278.94 101.318C1278.38 101.553 1277.74 101.67 1277.01 101.67C1275.94 101.67 1275.08 101.447 1274.43 101C1273.78 100.549 1273.39 99.9223 1273.26 99.1193L1275.27 98.9261C1275.36 99.3201 1275.55 99.6174 1275.85 99.8182C1276.14 100.019 1276.53 100.119 1277 100.119C1277.49 100.119 1277.88 100.019 1278.18 99.8182C1278.48 99.6174 1278.63 99.3693 1278.63 99.0739C1278.63 98.8239 1278.53 98.6174 1278.34 98.4545C1278.15 98.2917 1277.85 98.1667 1277.45 98.0795L1275.96 97.767C1275.13 97.5928 1274.51 97.2992 1274.11 96.8864C1273.7 96.4697 1273.5 95.9432 1273.51 95.3068C1273.5 94.7689 1273.65 94.303 1273.95 93.9091C1274.25 93.5114 1274.66 93.2045 1275.19 92.9886C1275.72 92.7689 1276.34 92.6591 1277.04 92.6591C1278.06 92.6591 1278.86 92.8769 1279.45 93.3125C1280.04 93.7481 1280.41 94.3371 1280.55 95.0795ZM1286.79 92.7727V94.3636H1281.77V92.7727H1286.79ZM1283.01 90.6818H1285.07V98.875C1285.07 99.1515 1285.11 99.3636 1285.19 99.5114C1285.28 99.6553 1285.39 99.7538 1285.53 99.8068C1285.67 99.8598 1285.83 99.8864 1286 99.8864C1286.13 99.8864 1286.25 99.8769 1286.35 99.858C1286.46 99.839 1286.55 99.822 1286.6 99.8068L1286.95 101.415C1286.84 101.453 1286.68 101.494 1286.48 101.54C1286.28 101.585 1286.03 101.612 1285.74 101.619C1285.22 101.634 1284.76 101.557 1284.35 101.386C1283.93 101.212 1283.61 100.943 1283.36 100.58C1283.13 100.216 1283.01 99.7614 1283.01 99.2159V90.6818ZM1300.27 92.7727L1297.17 101.5H1294.89L1291.79 92.7727H1293.98L1295.98 99.2557H1296.08L1298.09 92.7727H1300.27ZM1301.7 101.5V92.7727H1303.75V101.5H1301.7ZM1302.73 91.5341C1302.41 91.5341 1302.13 91.4261 1301.89 91.2102C1301.66 90.9905 1301.54 90.7273 1301.54 90.4205C1301.54 90.1098 1301.66 89.8466 1301.89 89.6307C1302.13 89.411 1302.41 89.3011 1302.73 89.3011C1303.06 89.3011 1303.34 89.411 1303.57 89.6307C1303.81 89.8466 1303.92 90.1098 1303.92 90.4205C1303.92 90.7273 1303.81 90.9905 1303.57 91.2102C1303.34 91.4261 1303.06 91.5341 1302.73 91.5341ZM1309.73 101.67C1308.86 101.67 1308.1 101.489 1307.47 101.125C1306.83 100.758 1306.35 100.239 1306.01 99.5682C1305.66 98.8939 1305.49 98.1004 1305.49 97.1875C1305.49 96.2898 1305.66 95.5019 1306.01 94.8239C1306.35 94.142 1306.83 93.6117 1307.45 93.233C1308.07 92.8504 1308.79 92.6591 1309.62 92.6591C1310.16 92.6591 1310.67 92.7462 1311.15 92.9205C1311.63 93.0909 1312.05 93.3561 1312.42 93.7159C1312.79 94.0758 1313.08 94.5341 1313.3 95.0909C1313.51 95.6439 1313.61 96.303 1313.61 97.0682V97.6989H1306.46V96.3125H1311.64C1311.64 95.9186 1311.55 95.5682 1311.39 95.2614C1311.22 94.9508 1310.99 94.7064 1310.69 94.5284C1310.39 94.3504 1310.05 94.2614 1309.65 94.2614C1309.23 94.2614 1308.86 94.3636 1308.55 94.5682C1308.23 94.7689 1307.98 95.0341 1307.8 95.3636C1307.63 95.6894 1307.54 96.0473 1307.53 96.4375V97.6477C1307.53 98.1553 1307.63 98.5909 1307.81 98.9545C1308 99.3144 1308.26 99.5909 1308.59 99.7841C1308.92 99.9735 1309.31 100.068 1309.76 100.068C1310.06 100.068 1310.33 100.027 1310.57 99.9432C1310.82 99.8561 1311.03 99.7292 1311.2 99.5625C1311.38 99.3958 1311.52 99.1894 1311.61 98.9432L1313.53 99.1591C1313.41 99.6667 1313.18 100.11 1312.84 100.489C1312.5 100.864 1312.07 101.155 1311.54 101.364C1311.01 101.568 1310.41 101.67 1309.73 101.67ZM1317.11 101.5L1314.64 92.7727H1316.74L1318.27 98.9091H1318.35L1319.92 92.7727H1321.99L1323.56 98.875H1323.65L1325.16 92.7727H1327.26L1324.79 101.5H1322.65L1321.01 95.6023H1320.89L1319.26 101.5H1317.11Z" fill="black"/>
<path d="M348.598 110V95.4545H357.618V97.3438H350.793V101.776H356.972V103.658H350.793V110H348.598ZM360.01 110V99.0909H362.062V100.824H362.176C362.375 100.237 362.725 99.7751 363.227 99.4389C363.734 99.098 364.306 98.9276 364.946 98.9276C365.078 98.9276 365.234 98.9323 365.414 98.9418C365.599 98.9512 365.743 98.9631 365.848 98.9773V101.009C365.762 100.985 365.611 100.959 365.393 100.93C365.175 100.897 364.958 100.881 364.74 100.881C364.238 100.881 363.79 100.987 363.397 101.2C363.009 101.409 362.701 101.7 362.474 102.074C362.247 102.443 362.133 102.865 362.133 103.338V110H360.01ZM371.996 110.22C370.922 110.22 369.996 109.991 369.219 109.531C368.448 109.067 367.851 108.416 367.43 107.578C367.013 106.735 366.805 105.748 366.805 104.616C366.805 103.499 367.013 102.514 367.43 101.662C367.851 100.81 368.438 100.144 369.191 99.6662C369.949 99.188 370.834 98.9489 371.847 98.9489C372.463 98.9489 373.059 99.0507 373.637 99.2543C374.215 99.4579 374.733 99.7775 375.192 100.213C375.652 100.649 376.014 101.214 376.279 101.911C376.544 102.602 376.677 103.442 376.677 104.432V105.185H368.005V103.594H374.596C374.596 103.035 374.482 102.54 374.255 102.109C374.028 101.674 373.708 101.33 373.296 101.08C372.889 100.829 372.411 100.703 371.862 100.703C371.265 100.703 370.744 100.85 370.299 101.143C369.859 101.432 369.518 101.811 369.276 102.28C369.04 102.744 368.921 103.248 368.921 103.793V105.036C368.921 105.765 369.049 106.385 369.305 106.896C369.565 107.408 369.927 107.798 370.391 108.068C370.855 108.333 371.397 108.466 372.018 108.466C372.42 108.466 372.787 108.409 373.119 108.295C373.45 108.177 373.737 108.002 373.978 107.77C374.219 107.538 374.404 107.251 374.532 106.911L376.542 107.273C376.381 107.865 376.092 108.383 375.675 108.828C375.263 109.268 374.745 109.612 374.12 109.858C373.5 110.099 372.792 110.22 371.996 110.22ZM387.208 101.754L385.283 102.095C385.203 101.849 385.075 101.615 384.9 101.392C384.729 101.17 384.497 100.987 384.203 100.845C383.91 100.703 383.543 100.632 383.103 100.632C382.501 100.632 381.999 100.767 381.597 101.037C381.194 101.302 380.993 101.645 380.993 102.067C380.993 102.431 381.128 102.725 381.398 102.947C381.668 103.17 382.104 103.352 382.705 103.494L384.438 103.892C385.442 104.124 386.19 104.482 386.682 104.964C387.175 105.447 387.421 106.075 387.421 106.847C387.421 107.5 387.231 108.082 386.853 108.594C386.479 109.1 385.955 109.498 385.283 109.787C384.615 110.076 383.841 110.22 382.961 110.22C381.739 110.22 380.742 109.96 379.971 109.439C379.199 108.913 378.725 108.168 378.55 107.202L380.603 106.889C380.73 107.424 380.993 107.829 381.391 108.104C381.789 108.374 382.307 108.509 382.946 108.509C383.642 108.509 384.199 108.364 384.615 108.075C385.032 107.782 385.24 107.424 385.24 107.003C385.24 106.662 385.113 106.375 384.857 106.143C384.606 105.911 384.22 105.736 383.699 105.618L381.853 105.213C380.835 104.981 380.082 104.612 379.594 104.105C379.111 103.598 378.87 102.957 378.87 102.18C378.87 101.536 379.05 100.973 379.409 100.49C379.769 100.007 380.266 99.6307 380.901 99.3608C381.535 99.0862 382.262 98.9489 383.081 98.9489C384.26 98.9489 385.188 99.2045 385.865 99.7159C386.542 100.223 386.99 100.902 387.208 101.754ZM391.879 103.523V110H389.756V95.4545H391.851V100.866H391.986C392.241 100.279 392.632 99.813 393.158 99.4673C393.683 99.1217 394.37 98.9489 395.217 98.9489C395.965 98.9489 396.619 99.1027 397.178 99.4105C397.741 99.7183 398.177 100.178 398.484 100.788C398.797 101.394 398.953 102.152 398.953 103.061V110H396.83V103.317C396.83 102.517 396.624 101.896 396.212 101.456C395.8 101.011 395.227 100.788 394.493 100.788C393.991 100.788 393.541 100.895 393.143 101.108C392.75 101.321 392.44 101.634 392.213 102.045C391.991 102.453 391.879 102.945 391.879 103.523ZM431.609 102.131V103.324H411.609V102.131H431.609ZM444.812 110H443.42L448.712 95.4545H450.132L455.423 110H454.031L449.472 97.1804H449.372L444.812 110ZM445.814 104.425H453.03V105.618H445.814V104.425ZM464.585 105.831V99.0909H465.849V110H464.585V108.189H464.486C464.23 108.748 463.825 109.214 463.271 109.588C462.717 109.957 462.04 110.142 461.24 110.142C460.544 110.142 459.926 109.991 459.386 109.688C458.847 109.38 458.423 108.93 458.115 108.338C457.807 107.746 457.653 107.019 457.653 106.158V99.0909H458.918V106.08C458.918 106.932 459.169 107.618 459.67 108.139C460.172 108.655 460.816 108.913 461.602 108.913C462.095 108.913 462.568 108.795 463.023 108.558C463.477 108.321 463.851 107.976 464.145 107.521C464.438 107.062 464.585 106.499 464.585 105.831ZM473.358 114.318C472.615 114.318 471.964 114.221 471.405 114.027C470.846 113.838 470.375 113.577 469.992 113.246C469.608 112.914 469.31 112.543 469.097 112.131L470.134 111.449C470.29 111.723 470.498 111.993 470.759 112.259C471.024 112.524 471.367 112.744 471.789 112.919C472.215 113.094 472.738 113.182 473.358 113.182C474.324 113.182 475.103 112.94 475.695 112.457C476.292 111.974 476.59 111.224 476.59 110.206V107.749H476.476C476.329 108.08 476.119 108.411 475.844 108.743C475.569 109.07 475.21 109.342 474.765 109.56C474.324 109.777 473.777 109.886 473.124 109.886C472.253 109.886 471.479 109.671 470.801 109.24C470.129 108.809 469.599 108.194 469.211 107.393C468.827 106.589 468.635 105.63 468.635 104.517C468.635 103.414 468.822 102.443 469.196 101.605C469.575 100.767 470.103 100.114 470.78 99.6449C471.457 99.1761 472.246 98.9418 473.145 98.9418C473.813 98.9418 474.367 99.0601 474.807 99.2969C475.248 99.5289 475.6 99.8177 475.865 100.163C476.135 100.509 476.346 100.845 476.498 101.172H476.625V99.0909H477.861V110.284C477.861 111.207 477.665 111.967 477.272 112.564C476.879 113.161 476.344 113.601 475.667 113.885C474.989 114.174 474.22 114.318 473.358 114.318ZM473.273 108.729C473.974 108.729 474.573 108.561 475.07 108.224C475.567 107.884 475.948 107.396 476.213 106.761C476.479 106.127 476.611 105.372 476.611 104.496C476.611 103.643 476.481 102.888 476.221 102.23C475.96 101.567 475.581 101.046 475.084 100.668C474.592 100.284 473.988 100.092 473.273 100.092C472.544 100.092 471.928 100.289 471.426 100.682C470.925 101.075 470.546 101.605 470.29 102.273C470.034 102.936 469.907 103.677 469.907 104.496C469.907 105.329 470.037 106.065 470.297 106.705C470.558 107.339 470.939 107.836 471.441 108.196C471.943 108.551 472.553 108.729 473.273 108.729ZM488.14 105.831V99.0909H489.404V110H488.14V108.189H488.04C487.785 108.748 487.38 109.214 486.826 109.588C486.272 109.957 485.595 110.142 484.795 110.142C484.099 110.142 483.481 109.991 482.941 109.688C482.401 109.38 481.978 108.93 481.67 108.338C481.362 107.746 481.208 107.019 481.208 106.158V99.0909H482.472V106.08C482.472 106.932 482.723 107.618 483.225 108.139C483.727 108.655 484.371 108.913 485.157 108.913C485.649 108.913 486.123 108.795 486.577 108.558C487.032 108.321 487.406 107.976 487.7 107.521C487.993 107.062 488.14 106.499 488.14 105.831ZM500.081 101.484L498.923 101.811C498.809 101.484 498.648 101.188 498.44 100.923C498.232 100.658 497.959 100.447 497.623 100.291C497.292 100.135 496.88 100.057 496.387 100.057C495.649 100.057 495.043 100.232 494.569 100.582C494.096 100.933 493.859 101.385 493.859 101.939C493.859 102.408 494.02 102.789 494.342 103.082C494.669 103.371 495.171 103.601 495.848 103.771L497.495 104.176C498.409 104.399 499.093 104.751 499.548 105.234C500.007 105.717 500.237 106.323 500.237 107.053C500.237 107.668 500.066 108.215 499.725 108.693C499.385 109.171 498.909 109.548 498.298 109.822C497.692 110.092 496.989 110.227 496.189 110.227C495.123 110.227 494.245 109.988 493.554 109.51C492.862 109.027 492.42 108.331 492.225 107.422L493.44 107.124C493.596 107.772 493.902 108.262 494.356 108.594C494.815 108.925 495.419 109.091 496.167 109.091C497.005 109.091 497.675 108.904 498.177 108.53C498.679 108.151 498.93 107.678 498.93 107.109C498.93 106.669 498.783 106.3 498.49 106.001C498.196 105.698 497.751 105.476 497.154 105.334L495.372 104.908C494.425 104.68 493.724 104.321 493.27 103.828C492.815 103.336 492.588 102.725 492.588 101.996C492.588 101.394 492.751 100.866 493.078 100.412C493.404 99.9527 493.854 99.5928 494.427 99.3324C495 99.072 495.654 98.9418 496.387 98.9418C497.386 98.9418 498.184 99.169 498.781 99.6236C499.382 100.073 499.815 100.694 500.081 101.484ZM507.302 99.0909V100.192H502.096V99.0909H507.302ZM503.722 96.4773H504.994V107.152C504.994 107.607 505.072 107.964 505.228 108.224C505.384 108.48 505.588 108.662 505.839 108.771C506.09 108.875 506.357 108.928 506.641 108.928C506.807 108.928 506.949 108.918 507.067 108.899C507.186 108.875 507.29 108.852 507.38 108.828L507.65 109.972C507.527 110.019 507.375 110.062 507.195 110.099C507.015 110.142 506.793 110.163 506.528 110.163C506.064 110.163 505.616 110.062 505.185 109.858C504.759 109.654 504.409 109.351 504.134 108.949C503.86 108.546 503.722 108.047 503.722 107.45V96.4773ZM515.748 110V109.027L520.5 103.686C521.12 102.985 521.619 102.386 521.998 101.889C522.377 101.392 522.652 100.933 522.822 100.511C522.997 100.09 523.085 99.652 523.085 99.1974C523.085 98.6435 522.955 98.1605 522.694 97.7486C522.439 97.3319 522.086 97.0076 521.636 96.7756C521.186 96.5436 520.68 96.4276 520.116 96.4276C519.52 96.4276 518.996 96.5554 518.547 96.8111C518.101 97.0668 517.756 97.4171 517.51 97.8622C517.263 98.3073 517.14 98.8187 517.14 99.3963H515.869C515.869 98.5914 516.054 97.8788 516.423 97.2585C516.797 96.6335 517.306 96.1435 517.95 95.7884C518.599 95.4332 519.333 95.2557 520.152 95.2557C520.961 95.2557 521.681 95.4309 522.311 95.7812C522.94 96.1269 523.435 96.598 523.795 97.1946C524.155 97.7912 524.335 98.4588 524.335 99.1974C524.335 99.7325 524.24 100.251 524.051 100.753C523.866 101.255 523.547 101.813 523.092 102.429C522.637 103.045 522.008 103.797 521.203 104.688L517.595 108.714V108.807H524.789V110H515.748ZM532.444 95.4545V110H531.116V96.8466H531.031L527.621 99.1122V97.7344L531.059 95.4545H532.444ZM538.154 108.011L538.026 108.771C537.946 109.283 537.832 109.846 537.685 110.462C537.539 111.077 537.387 111.662 537.231 112.216C537.075 112.77 536.94 113.215 536.826 113.551H535.853C535.915 113.229 535.993 112.82 536.087 112.322C536.187 111.825 536.289 111.274 536.393 110.668C536.497 110.066 536.592 109.446 536.677 108.807L536.776 108.011H538.154ZM547.076 110V109.027L551.828 103.686C552.448 102.985 552.948 102.386 553.326 101.889C553.705 101.392 553.98 100.933 554.15 100.511C554.325 100.09 554.413 99.652 554.413 99.1974C554.413 98.6435 554.283 98.1605 554.022 97.7486C553.767 97.3319 553.414 97.0076 552.964 96.7756C552.514 96.5436 552.008 96.4276 551.444 96.4276C550.848 96.4276 550.324 96.5554 549.875 96.8111C549.43 97.0668 549.084 97.4171 548.838 97.8622C548.592 98.3073 548.468 98.8187 548.468 99.3963H547.197C547.197 98.5914 547.382 97.8788 547.751 97.2585C548.125 96.6335 548.634 96.1435 549.278 95.7884C549.927 95.4332 550.661 95.2557 551.48 95.2557C552.289 95.2557 553.009 95.4309 553.639 95.7812C554.269 96.1269 554.763 96.598 555.123 97.1946C555.483 97.7912 555.663 98.4588 555.663 99.1974C555.663 99.7325 555.568 100.251 555.379 100.753C555.194 101.255 554.875 101.813 554.42 102.429C553.966 103.045 553.336 103.797 552.531 104.688L548.923 108.714V108.807H556.118V110H547.076ZM563.8 110.199C562.778 110.199 561.904 109.905 561.18 109.318C560.46 108.726 559.906 107.872 559.518 106.754C559.134 105.637 558.942 104.295 558.942 102.727C558.942 101.165 559.134 99.8272 559.518 98.7145C559.906 97.5971 560.462 96.7424 561.187 96.1506C561.916 95.554 562.787 95.2557 563.8 95.2557C564.814 95.2557 565.683 95.554 566.407 96.1506C567.136 96.7424 567.692 97.5971 568.076 98.7145C568.464 99.8272 568.658 101.165 568.658 102.727C568.658 104.295 568.464 105.637 568.076 106.754C567.692 107.872 567.138 108.726 566.414 109.318C565.694 109.905 564.823 110.199 563.8 110.199ZM563.8 109.006C564.923 109.006 565.799 108.459 566.428 107.365C567.058 106.267 567.373 104.721 567.373 102.727C567.373 101.402 567.228 100.27 566.94 99.3324C566.656 98.3902 566.246 97.6705 565.711 97.1733C565.181 96.6761 564.544 96.4276 563.8 96.4276C562.688 96.4276 561.814 96.9815 561.18 98.0895C560.545 99.1927 560.228 100.739 560.228 102.727C560.228 104.053 560.37 105.185 560.654 106.122C560.943 107.06 561.353 107.775 561.883 108.267C562.418 108.759 563.057 109.006 563.8 109.006ZM571.549 110V109.027L576.3 103.686C576.921 102.985 577.42 102.386 577.799 101.889C578.178 101.392 578.452 100.933 578.623 100.511C578.798 100.09 578.886 99.652 578.886 99.1974C578.886 98.6435 578.755 98.1605 578.495 97.7486C578.239 97.3319 577.887 97.0076 577.437 96.7756C576.987 96.5436 576.48 96.4276 575.917 96.4276C575.32 96.4276 574.797 96.5554 574.347 96.8111C573.902 97.0668 573.557 97.4171 573.31 97.8622C573.064 98.3073 572.941 98.8187 572.941 99.3963H571.67C571.67 98.5914 571.854 97.8788 572.224 97.2585C572.598 96.6335 573.107 96.1435 573.751 95.7884C574.399 95.4332 575.133 95.2557 575.952 95.2557C576.762 95.2557 577.482 95.4309 578.112 95.7812C578.741 96.1269 579.236 96.598 579.596 97.1946C579.956 97.7912 580.136 98.4588 580.136 99.1974C580.136 99.7325 580.041 100.251 579.852 100.753C579.667 101.255 579.347 101.813 578.893 102.429C578.438 103.045 577.808 103.797 577.004 104.688L573.396 108.714V108.807H580.59V110H571.549ZM588.479 110.199C587.584 110.199 586.784 110.038 586.078 109.716C585.373 109.389 584.814 108.937 584.402 108.359C583.99 107.782 583.773 107.116 583.749 106.364H585.091C585.115 106.894 585.278 107.358 585.581 107.756C585.884 108.149 586.287 108.456 586.789 108.679C587.291 108.897 587.849 109.006 588.465 109.006C589.137 109.006 589.729 108.88 590.24 108.629C590.757 108.378 591.159 108.035 591.448 107.599C591.741 107.159 591.888 106.662 591.888 106.108C591.888 105.521 591.739 105.002 591.441 104.553C591.142 104.103 590.714 103.752 590.155 103.501C589.601 103.25 588.938 103.125 588.167 103.125H587.314V101.932H588.167C588.796 101.932 589.353 101.818 589.836 101.591C590.323 101.359 590.707 101.035 590.986 100.618C591.266 100.201 591.405 99.7112 591.405 99.1477C591.405 98.6127 591.284 98.1416 591.043 97.7344C590.801 97.3272 590.461 97.0076 590.02 96.7756C589.585 96.5436 589.076 96.4276 588.493 96.4276C587.93 96.4276 587.414 96.5365 586.945 96.7543C586.476 96.9721 586.097 97.2798 585.809 97.6776C585.525 98.0753 585.373 98.5464 585.354 99.0909H584.069C584.087 98.3333 584.296 97.6681 584.694 97.0952C585.096 96.5175 585.629 96.0677 586.292 95.7457C586.959 95.419 587.698 95.2557 588.507 95.2557C589.364 95.2557 590.105 95.4309 590.73 95.7812C591.355 96.1316 591.838 96.598 592.179 97.1804C592.525 97.758 592.698 98.3949 592.698 99.0909C592.698 99.9195 592.473 100.63 592.023 101.222C591.573 101.809 590.967 102.216 590.205 102.443V102.536C591.133 102.72 591.862 103.132 592.392 103.771C592.927 104.406 593.195 105.185 593.195 106.108C593.195 106.884 592.991 107.583 592.584 108.203C592.177 108.819 591.618 109.306 590.908 109.666C590.203 110.021 589.393 110.199 588.479 110.199Z" fill="black"/>
<path d="M128.096 77.168C128.096 74.928 127.616 73.04 126.656 71.504C125.696 69.9467 124.107 68.7627 121.888 67.952C119.669 67.1413 116.672 66.736 112.896 66.736H105.952L106.016 64.656H118.144C122.091 64.656 125.259 65.2 127.648 66.288C130.059 67.3547 131.819 68.8053 132.928 70.64C134.059 72.4533 134.624 74.4907 134.624 76.752C134.624 79.0987 134.048 81.2533 132.896 83.216C131.744 85.1787 129.963 86.7467 127.552 87.92C125.141 89.072 122.005 89.648 118.144 89.648H106.016L105.952 87.568H116.96C119.072 87.568 120.971 87.184 122.656 86.416C124.341 85.6267 125.664 84.464 126.624 82.928C127.605 81.3707 128.096 79.4507 128.096 77.168ZM110.272 64.656V107.632L115.872 109.04V110H98.272V109.04L103.872 107.632V66.992L98.272 65.648V64.656H110.272ZM156.573 77.488C157.533 77.488 158.28 77.7547 158.813 78.288C159.368 78.8213 159.645 79.5467 159.645 80.464C159.645 81.5733 159.304 82.4693 158.621 83.152C157.938 83.8347 157.064 84.176 155.997 84.176C155.528 84.176 155.048 84.112 154.557 83.984C154.088 83.856 153.586 83.728 153.053 83.6C152.52 83.472 151.933 83.408 151.293 83.408C150.674 83.408 150.088 83.5147 149.533 83.728C148.978 83.9413 148.424 84.2293 147.869 84.592C147.336 84.9547 146.792 85.392 146.237 85.904L146.141 84.528C147.698 82.9493 149.021 81.6907 150.109 80.752C151.197 79.8133 152.125 79.1093 152.893 78.64C153.661 78.1707 154.333 77.8613 154.909 77.712C155.485 77.5627 156.04 77.488 156.573 77.488ZM146.653 83.28V108.048L151.837 109.104V110H136.349V109.104L140.957 108.048V83.472C140.68 83.28 140.328 83.056 139.901 82.8C139.496 82.544 138.994 82.2453 138.397 81.904C137.821 81.5413 137.138 81.136 136.349 80.688V80.08L146.397 77.104H146.621L146.653 83.28ZM175.451 109.072C177.457 109.072 179.153 108.517 180.539 107.408C181.926 106.299 182.971 104.635 183.675 102.416C184.401 100.197 184.764 97.4453 184.764 94.16C184.764 90.832 184.412 88.048 183.708 85.808C183.004 83.5467 181.969 81.84 180.604 80.688C179.238 79.536 177.564 78.96 175.58 78.96C173.595 78.96 171.91 79.5253 170.523 80.656C169.137 81.7653 168.081 83.4293 167.355 85.648C166.651 87.8453 166.299 90.5867 166.299 93.872C166.299 97.1787 166.651 99.9627 167.355 102.224C168.059 104.485 169.094 106.192 170.459 107.344C171.825 108.496 173.489 109.072 175.451 109.072ZM175.387 110.64C172.507 110.64 169.905 109.936 167.579 108.528C165.254 107.12 163.398 105.168 162.011 102.672C160.646 100.155 159.963 97.2747 159.963 94.032C159.963 90.7893 160.667 87.92 162.075 85.424C163.483 82.9067 165.371 80.944 167.739 79.536C170.107 78.1067 172.753 77.392 175.675 77.392C178.598 77.392 181.222 78.1067 183.548 79.536C185.873 80.944 187.707 82.896 189.052 85.392C190.417 87.8667 191.099 90.736 191.099 94C191.099 97.264 190.385 100.155 188.955 102.672C187.526 105.168 185.617 107.12 183.227 108.528C180.859 109.936 178.246 110.64 175.387 110.64ZM218.336 86.16C218.336 84.112 217.589 82.4267 216.096 81.104C214.603 79.7813 212.715 79.12 210.432 79.12C208.363 79.12 206.603 79.664 205.152 80.752C203.701 81.84 202.592 83.4293 201.824 85.52C201.077 87.6107 200.704 90.1707 200.704 93.2C200.704 96.144 201.077 98.5973 201.824 100.56C202.571 102.501 203.68 103.963 205.152 104.944C206.624 105.904 208.459 106.384 210.656 106.384C212.448 106.384 214.112 106.085 215.648 105.488C217.184 104.891 218.667 103.856 220.096 102.384L220.512 103.28C219.125 104.709 217.867 105.904 216.736 106.864C215.605 107.803 214.539 108.549 213.536 109.104C212.555 109.659 211.605 110.053 210.688 110.288C209.792 110.523 208.917 110.64 208.064 110.64C205.291 110.64 202.891 110.011 200.864 108.752C198.859 107.493 197.301 105.733 196.192 103.472C195.104 101.211 194.56 98.5867 194.56 95.6C194.56 92.72 194.976 90.16 195.808 87.92C196.661 85.6587 197.856 83.7493 199.392 82.192C200.928 80.6347 202.741 79.4507 204.832 78.64C206.923 77.808 209.205 77.392 211.68 77.392C212.896 77.392 214.123 77.488 215.36 77.68C216.597 77.8507 217.813 78.128 219.008 78.512C220.203 78.896 221.333 79.3867 222.4 79.984L218.336 81.008V68.24C218.08 68.112 217.664 67.9093 217.088 67.632C216.533 67.3547 215.915 67.056 215.232 66.736C214.549 66.416 213.899 66.128 213.28 65.872V65.296L224.288 62.832H224.48L224.032 67.824V106.576C224.224 106.683 224.523 106.832 224.928 107.024C225.355 107.195 225.813 107.376 226.304 107.568C226.795 107.76 227.275 107.952 227.744 108.144C228.235 108.336 228.651 108.496 228.992 108.624V109.36L218.624 110.8H218.4L218.336 106.256V86.16ZM239.454 100.08C239.454 101.488 239.688 102.661 240.158 103.6C240.648 104.517 241.395 105.211 242.398 105.68C243.4 106.128 244.702 106.352 246.302 106.352C247.966 106.352 249.534 106.096 251.006 105.584C252.478 105.072 253.672 104.485 254.59 103.824L255.23 104.592C253.63 105.829 252.243 106.843 251.07 107.632C249.896 108.421 248.83 109.04 247.87 109.488C246.931 109.915 246.024 110.213 245.15 110.384C244.275 110.555 243.358 110.64 242.398 110.64C239.368 110.64 237.171 109.808 235.806 108.144C234.44 106.459 233.758 103.824 233.758 100.24V80.72L228.222 79.568V78.32L239.774 77.744L239.454 80.72V100.08ZM253.342 110.8L253.246 104.752V80.72L247.742 79.568V78.32L259.294 77.744L258.974 80.72V106.576C259.166 106.683 259.464 106.832 259.87 107.024C260.275 107.195 260.723 107.376 261.214 107.568C261.726 107.76 262.216 107.952 262.686 108.144C263.155 108.336 263.56 108.496 263.902 108.624V109.36L253.566 110.8H253.342ZM282.262 77.392C284.267 77.392 285.899 77.6053 287.158 78.032C288.438 78.4587 289.377 79.0133 289.974 79.696C290.571 80.3787 290.87 81.1147 290.87 81.904C290.87 82.5653 290.731 83.1413 290.454 83.632C290.198 84.1013 289.835 84.464 289.366 84.72C288.897 84.976 288.321 85.104 287.638 85.104C287.403 85.104 287.094 84.912 286.71 84.528C286.347 84.1227 285.91 83.632 285.398 83.056C284.886 82.48 284.31 81.904 283.67 81.328C283.051 80.7307 282.39 80.24 281.686 79.856C280.982 79.4507 280.235 79.248 279.446 79.248C277.953 79.248 276.609 79.6853 275.414 80.56C274.241 81.4347 273.313 82.768 272.63 84.56C271.969 86.352 271.638 88.656 271.638 91.472C271.638 94.8853 272.065 97.68 272.918 99.856C273.771 102.032 275.019 103.632 276.662 104.656C278.305 105.659 280.331 106.16 282.742 106.16C284.363 106.16 285.931 105.829 287.446 105.168C288.961 104.485 290.241 103.451 291.286 102.064L291.798 102.512C290.582 104.496 289.345 106.085 288.086 107.28C286.827 108.475 285.505 109.339 284.118 109.872C282.753 110.384 281.259 110.64 279.638 110.64C277.014 110.64 274.646 110.021 272.534 108.784C270.443 107.547 268.79 105.744 267.574 103.376C266.358 100.987 265.75 98.0747 265.75 94.64C265.75 92.144 266.155 89.8507 266.966 87.76C267.777 85.6693 268.918 83.856 270.39 82.32C271.862 80.7627 273.601 79.5573 275.606 78.704C277.633 77.8293 279.851 77.392 282.262 77.392ZM308.789 77.392C311.008 77.392 312.938 77.8613 314.581 78.8C316.224 79.7173 317.525 81.0827 318.485 82.896C319.466 84.688 320.053 86.896 320.245 89.52H299.285L299.317 87.632L316.789 87.504L314.357 88.784C314.144 86.608 313.77 84.8053 313.237 83.376C312.704 81.9467 312 80.88 311.125 80.176C310.25 79.472 309.173 79.12 307.893 79.12C306.208 79.12 304.746 79.6107 303.509 80.592C302.293 81.552 301.354 82.9707 300.693 84.848C300.053 86.704 299.733 88.9547 299.733 91.6C299.733 94.992 300.192 97.7653 301.109 99.92C302.048 102.075 303.392 103.653 305.141 104.656C306.89 105.659 309.013 106.16 311.509 106.16C312.64 106.16 313.738 106.011 314.805 105.712C315.893 105.413 316.917 104.965 317.877 104.368C318.837 103.749 319.669 102.981 320.373 102.064L320.917 102.512C319.637 104.496 318.346 106.085 317.045 107.28C315.744 108.475 314.378 109.339 312.949 109.872C311.52 110.384 309.962 110.64 308.277 110.64C305.546 110.64 303.082 110.021 300.885 108.784C298.709 107.547 296.992 105.733 295.733 103.344C294.474 100.933 293.845 98.0107 293.845 94.576C293.845 91.4613 294.432 88.6027 295.605 86C296.778 83.3973 298.485 81.3173 300.725 79.76C302.965 78.1813 305.653 77.392 308.789 77.392Z" fill="black"/>
<g filter="url(#filter0_d_4368_321190)">
<line x1="96" y1="148" x2="1344" y2="148" stroke="#E6E6E6" stroke-width="2"/>
</g>
</g>
<defs>
<filter id="filter0_d_4368_321190" x="92" y="147" width="1256" height="10.0001" filterUnits="userSpaceOnUse" color-interpolation-filters="sRGB">
<feFlood flood-opacity="0" result="BackgroundImageFix"/>
<feColorMatrix in="SourceAlpha" type="matrix" values="0 0 0 0 0 0 0 0 0 0 0 0 0 0 0 0 0 0 127 0" result="hardAlpha"/>
<feOffset dy="4"/>
<feGaussianBlur stdDeviation="2"/>
<feComposite in2="hardAlpha" operator="out"/>
<feColorMatrix type="matrix" values="0 0 0 0 0 0 0 0 0 0 0 0 0 0 0 0 0 0 0.25 0"/>
<feBlend mode="normal" in2="BackgroundImageFix" result="effect1_dropShadow_4368_321190"/>
<feBlend mode="normal" in="SourceGraphic" in2="effect1_dropShadow_4368_321190" result="shape"/>
</filter>
<clipPath id="clip0_4368_321190">
<rect width="1440" height="149" fill="white"/>
</clipPath>
</defs>
</svg>
