<svg width="1440" height="112" viewBox="0 0 1440 112" fill="none" xmlns="http://www.w3.org/2000/svg">
<path d="M112.352 46.328L105.248 65.256H103.76L98.128 44.648L95.728 43.8V43.192H104.592V43.8L101.84 44.616L106.224 61.112L105.392 61.224L112.048 42.936H113.6L120.816 61.496L119.648 61.864L123.728 44.632L120.976 43.784V43.192H127.648V43.784L125.296 44.648L120.048 65.256H118.56L111.264 46.824L112.352 46.328ZM134.176 64.136C134.944 64.136 135.616 63.928 136.192 63.512C136.768 63.096 137.216 62.4507 137.536 61.576C137.856 60.7013 138.016 59.576 138.016 58.2C138.016 56.728 137.856 55.496 137.536 54.504C137.227 53.5013 136.779 52.744 136.192 52.232C135.616 51.72 134.912 51.464 134.08 51.464C133.312 51.464 132.64 51.672 132.064 52.088C131.488 52.504 131.04 53.1547 130.72 54.04C130.411 54.9147 130.256 56.04 130.256 57.416C130.256 58.8773 130.411 60.1093 130.72 61.112C131.029 62.104 131.477 62.856 132.064 63.368C132.651 63.88 133.355 64.136 134.176 64.136ZM134.048 65.352C132.619 65.352 131.355 65.0373 130.256 64.408C129.168 63.7787 128.315 62.9093 127.696 61.8C127.088 60.68 126.784 59.3893 126.784 57.928C126.784 56.4453 127.104 55.128 127.744 53.976C128.395 52.8133 129.28 51.9013 130.4 51.24C131.52 50.5787 132.789 50.248 134.208 50.248C135.648 50.248 136.912 50.5627 138 51.192C139.099 51.8213 139.952 52.696 140.56 53.816C141.168 54.9253 141.472 56.2107 141.472 57.672C141.472 59.1653 141.147 60.4933 140.496 61.656C139.845 62.808 138.96 63.7147 137.84 64.376C136.731 65.0267 135.467 65.352 134.048 65.352ZM153.194 50.36C153.76 50.36 154.176 50.5093 154.442 50.808C154.709 51.096 154.842 51.4747 154.842 51.944C154.842 52.52 154.656 52.9787 154.282 53.32C153.92 53.6613 153.461 53.832 152.906 53.832C152.608 53.832 152.33 53.7893 152.074 53.704C151.829 53.6187 151.573 53.5387 151.306 53.464C151.04 53.3787 150.741 53.336 150.41 53.336C150.154 53.336 149.888 53.3733 149.61 53.448C149.333 53.5227 149.061 53.6293 148.794 53.768C148.528 53.9067 148.282 54.072 148.058 54.264L147.786 53.608C148.458 52.9893 149.061 52.4773 149.594 52.072C150.128 51.656 150.608 51.3253 151.034 51.08C151.461 50.824 151.85 50.6427 152.202 50.536C152.565 50.4187 152.896 50.36 153.194 50.36ZM148.474 53.288V63.704L150.874 64.44V65H143.05V64.44L145.29 63.72V53.656C145.141 53.496 144.96 53.352 144.746 53.224C144.544 53.0853 144.298 52.9413 144.01 52.792C143.733 52.6427 143.402 52.488 143.018 52.328V51.896L147.962 50.216H148.282L148.474 53.288ZM160.46 63.72L162.732 64.44V65H155.036V64.44L157.276 63.72V45.432C157.137 45.272 156.951 45.112 156.716 44.952C156.492 44.7813 156.22 44.6053 155.9 44.424C155.58 44.2427 155.212 44.056 154.796 43.864V43.464L160.284 41.992H160.604L160.46 44.84V63.72ZM175.052 54.648C175.052 53.752 174.753 53.0107 174.156 52.424C173.558 51.8267 172.721 51.528 171.644 51.528C170.769 51.528 170.022 51.7627 169.404 52.232C168.785 52.6907 168.31 53.368 167.98 54.264C167.66 55.1493 167.5 56.2427 167.5 57.544C167.5 58.8133 167.67 59.8747 168.012 60.728C168.364 61.5707 168.854 62.2053 169.484 62.632C170.124 63.0587 170.886 63.272 171.772 63.272C172.508 63.272 173.217 63.1547 173.9 62.92C174.593 62.6747 175.26 62.2853 175.9 61.752L175.948 62.76C175.233 63.2827 174.614 63.7147 174.092 64.056C173.569 64.3973 173.094 64.664 172.668 64.856C172.252 65.0373 171.857 65.1653 171.484 65.24C171.11 65.3147 170.726 65.352 170.332 65.352C168.988 65.352 167.846 65.064 166.908 64.488C165.969 63.912 165.254 63.112 164.764 62.088C164.273 61.064 164.028 59.88 164.028 58.536C164.028 57.224 164.241 56.056 164.668 55.032C165.094 54.008 165.676 53.144 166.412 52.44C167.148 51.7253 167.996 51.1813 168.956 50.808C169.926 50.4347 170.956 50.248 172.044 50.248C172.598 50.248 173.142 50.296 173.676 50.392C174.22 50.4773 174.769 50.6107 175.324 50.792C175.878 50.9627 176.454 51.1973 177.052 51.496L175.052 52.136V45.16C174.913 45.0107 174.726 44.8613 174.492 44.712C174.268 44.552 174.012 44.3973 173.724 44.248C173.436 44.088 173.126 43.9333 172.796 43.784V43.384L178.108 41.992H178.412L178.22 44.808V62.744C178.326 62.8507 178.465 62.9573 178.636 63.064C178.806 63.16 178.993 63.2613 179.196 63.368C179.398 63.464 179.601 63.5547 179.804 63.64C180.006 63.7147 180.198 63.7787 180.38 63.832V64.312L175.612 65.352H175.292L175.052 62.888V54.648ZM202.758 49.368C202.758 48.3653 202.55 47.5173 202.134 46.824C201.718 46.1307 201.04 45.6027 200.102 45.24C199.163 44.8667 197.899 44.68 196.31 44.68H191.862L192.006 43.192H198.214C200.166 43.192 201.739 43.4587 202.934 43.992C204.128 44.5253 204.998 45.2453 205.542 46.152C206.096 47.0587 206.374 48.072 206.374 49.192C206.374 50.344 206.091 51.4053 205.526 52.376C204.96 53.336 204.075 54.104 202.87 54.68C201.675 55.256 200.123 55.544 198.214 55.544H192.006L191.862 54.056H197.862C198.8 54.056 199.638 53.88 200.374 53.528C201.11 53.1653 201.691 52.6373 202.118 51.944C202.544 51.24 202.758 50.3813 202.758 49.368ZM194.47 43.192V63.576L197.014 64.392V65H188.39V64.392L190.918 63.576V44.616L188.39 43.8V43.192H194.47ZM213.464 50.248C214.584 50.248 215.55 50.488 216.36 50.968C217.171 51.448 217.811 52.1467 218.28 53.064C218.76 53.9813 219.054 55.0907 219.16 56.392H209.064L209.096 55.272L217.384 54.968L215.928 55.704C215.854 54.7867 215.704 54.0187 215.48 53.4C215.267 52.7707 214.968 52.296 214.584 51.976C214.2 51.6453 213.715 51.48 213.128 51.48C212.435 51.48 211.827 51.6773 211.304 52.072C210.782 52.4667 210.376 53.064 210.088 53.864C209.8 54.664 209.656 55.672 209.656 56.888C209.656 58.2 209.88 59.3093 210.328 60.216C210.776 61.1227 211.406 61.8107 212.216 62.28C213.038 62.7387 214.003 62.968 215.112 62.968C215.571 62.968 216.014 62.9147 216.44 62.808C216.878 62.6907 217.299 62.5147 217.704 62.28C218.12 62.0453 218.52 61.752 218.904 61.4L219.304 61.864C218.718 62.6533 218.12 63.3093 217.512 63.832C216.904 64.344 216.259 64.728 215.576 64.984C214.894 65.2293 214.158 65.352 213.368 65.352C212.035 65.352 210.851 65.048 209.816 64.44C208.792 63.8213 207.987 62.9627 207.4 61.864C206.824 60.7653 206.536 59.4853 206.536 58.024C206.536 56.616 206.808 55.3253 207.352 54.152C207.896 52.968 208.686 52.024 209.72 51.32C210.755 50.6053 212.003 50.248 213.464 50.248ZM229.845 55.832L230.021 56.904C228.826 57.2133 227.855 57.5227 227.109 57.832C226.362 58.1307 225.781 58.44 225.365 58.76C224.959 59.08 224.677 59.4213 224.517 59.784C224.367 60.136 224.293 60.5253 224.293 60.952C224.293 61.7093 224.495 62.28 224.901 62.664C225.317 63.048 225.829 63.24 226.437 63.24C226.906 63.24 227.327 63.128 227.701 62.904C228.085 62.6693 228.389 62.3547 228.613 61.96C228.837 61.5653 228.949 61.1227 228.949 60.632V54.376C228.949 53.576 228.741 52.9467 228.325 52.488C227.919 52.0293 227.263 51.8 226.357 51.8C225.983 51.8 225.589 51.8427 225.173 51.928C224.757 52.0133 224.378 52.136 224.037 52.296L224.789 51.48C224.746 51.9067 224.687 52.296 224.613 52.648C224.549 53 224.474 53.3093 224.389 53.576C224.303 53.832 224.197 54.0293 224.069 54.168C223.909 54.3493 223.685 54.4933 223.397 54.6C223.119 54.696 222.837 54.744 222.549 54.744C222.154 54.744 221.845 54.664 221.621 54.504C221.407 54.344 221.301 54.1253 221.301 53.848C221.301 53.4533 221.487 53.0533 221.861 52.648C222.234 52.232 222.73 51.8533 223.349 51.512C223.967 51.16 224.655 50.8773 225.413 50.664C226.17 50.4507 226.933 50.344 227.701 50.344C228.778 50.344 229.642 50.5093 230.293 50.84C230.943 51.16 231.413 51.624 231.701 52.232C231.989 52.84 232.133 53.5653 232.133 54.408V62.12C232.133 62.4293 232.181 62.6907 232.277 62.904C232.373 63.1067 232.506 63.256 232.677 63.352C232.858 63.448 233.077 63.496 233.333 63.496C233.589 63.496 233.861 63.4533 234.149 63.368C234.437 63.272 234.725 63.1387 235.013 62.968V63.704C234.447 64.2907 233.882 64.712 233.317 64.968C232.762 65.2133 232.218 65.336 231.685 65.336C231.087 65.336 230.586 65.208 230.181 64.952C229.786 64.696 229.493 64.328 229.301 63.848C229.109 63.3573 229.007 62.7813 228.997 62.12L229.109 62.04C228.938 62.712 228.655 63.2987 228.261 63.8C227.877 64.2907 227.413 64.6747 226.869 64.952C226.325 65.2187 225.733 65.352 225.093 65.352C223.93 65.352 222.975 65.0373 222.229 64.408C221.482 63.768 221.109 62.8507 221.109 61.656C221.109 61.0373 221.226 60.4773 221.461 59.976C221.706 59.4747 222.138 59 222.757 58.552C223.386 58.104 224.271 57.6613 225.413 57.224C226.565 56.7867 228.042 56.3227 229.845 55.832ZM241.15 50.248C241.854 50.248 242.478 50.3173 243.022 50.456C243.566 50.584 244.158 50.7973 244.798 51.096L245.102 55.048H244.382L242.558 51.048L243.742 52.408C243.305 52.0347 242.884 51.7627 242.478 51.592C242.084 51.4213 241.641 51.336 241.15 51.336C240.318 51.336 239.673 51.512 239.214 51.864C238.756 52.2053 238.526 52.696 238.526 53.336C238.526 53.8053 238.644 54.2 238.878 54.52C239.113 54.84 239.476 55.1333 239.966 55.4C240.457 55.6667 241.081 55.9493 241.838 56.248C242.414 56.4613 242.932 56.7067 243.39 56.984C243.849 57.2613 244.238 57.5813 244.558 57.944C244.878 58.296 245.124 58.7067 245.294 59.176C245.476 59.6453 245.566 60.184 245.566 60.792C245.566 61.752 245.321 62.5733 244.83 63.256C244.34 63.9387 243.673 64.4613 242.83 64.824C241.998 65.176 241.049 65.352 239.982 65.352C239.268 65.352 238.617 65.2933 238.03 65.176C237.444 65.0587 236.889 64.8827 236.366 64.648L235.646 60.44H236.414L238.766 64.76L237.038 63.592C237.401 63.784 237.732 63.9333 238.03 64.04C238.329 64.136 238.612 64.2053 238.878 64.248C239.156 64.28 239.428 64.296 239.694 64.296C240.665 64.296 241.454 64.0933 242.062 63.688C242.67 63.272 242.974 62.648 242.974 61.816C242.974 61.4107 242.889 61.064 242.718 60.776C242.548 60.488 242.302 60.232 241.982 60.008C241.662 59.7733 241.278 59.5547 240.83 59.352C240.393 59.1387 239.902 58.9253 239.358 58.712C238.644 58.424 238.041 58.088 237.55 57.704C237.06 57.32 236.686 56.8613 236.43 56.328C236.185 55.784 236.062 55.144 236.062 54.408C236.062 53.5227 236.286 52.776 236.734 52.168C237.193 51.5493 237.806 51.0747 238.574 50.744C239.353 50.4133 240.212 50.248 241.15 50.248Z" fill="#426B1F"/>
<path d="M751.796 52.7727C751.728 52.197 751.451 51.75 750.967 51.4318C750.482 51.1136 749.887 50.9545 749.183 50.9545C748.667 50.9545 748.217 51.0379 747.83 51.2045C747.448 51.3712 747.148 51.6004 746.933 51.892C746.72 52.1837 746.614 52.5152 746.614 52.8864C746.614 53.197 746.688 53.464 746.836 53.6875C746.987 53.9072 747.181 54.0909 747.415 54.2386C747.65 54.3826 747.897 54.5019 748.154 54.5966C748.412 54.6875 748.648 54.7614 748.864 54.8182L750.046 55.1364C750.349 55.2159 750.686 55.3258 751.058 55.4659C751.433 55.6061 751.79 55.7973 752.131 56.0398C752.476 56.2784 752.76 56.5852 752.984 56.9602C753.207 57.3352 753.319 57.7955 753.319 58.3409C753.319 58.9697 753.154 59.5379 752.825 60.0455C752.499 60.553 752.022 60.9564 751.393 61.2557C750.768 61.5549 750.008 61.7045 749.114 61.7045C748.281 61.7045 747.559 61.5701 746.95 61.3011C746.344 61.0322 745.866 60.6572 745.518 60.1761C745.173 59.6951 744.978 59.1364 744.933 58.5H746.387C746.425 58.9394 746.573 59.303 746.83 59.5909C747.092 59.875 747.421 60.0871 747.819 60.2273C748.22 60.3636 748.652 60.4318 749.114 60.4318C749.652 60.4318 750.135 60.3447 750.563 60.1705C750.991 59.9924 751.33 59.7462 751.58 59.4318C751.83 59.1136 751.955 58.7424 751.955 58.3182C751.955 57.9318 751.847 57.6174 751.631 57.375C751.415 57.1326 751.131 56.9356 750.779 56.7841C750.427 56.6326 750.046 56.5 749.637 56.3864L748.205 55.9773C747.296 55.7159 746.576 55.3428 746.046 54.858C745.516 54.3731 745.251 53.7386 745.251 52.9545C745.251 52.303 745.427 51.7348 745.779 51.25C746.135 50.7614 746.612 50.3826 747.211 50.1136C747.813 49.8409 748.486 49.7045 749.228 49.7045C749.978 49.7045 750.645 49.839 751.228 50.108C751.811 50.3731 752.273 50.7367 752.614 51.1989C752.959 51.661 753.141 52.1856 753.16 52.7727H751.796ZM756.795 56.25V61.5H755.454V49.8636H756.795V54.1364H756.908C757.113 53.6856 757.42 53.3277 757.829 53.0625C758.242 52.7936 758.791 52.6591 759.477 52.6591C760.071 52.6591 760.592 52.7784 761.039 53.017C761.486 53.2519 761.833 53.6136 762.079 54.1023C762.329 54.5871 762.454 55.2045 762.454 55.9545V61.5H761.113V56.0455C761.113 55.3523 760.933 54.8163 760.573 54.4375C760.217 54.0549 759.723 53.8636 759.09 53.8636C758.651 53.8636 758.257 53.9564 757.908 54.142C757.564 54.3277 757.291 54.5985 757.09 54.9545C756.893 55.3106 756.795 55.7424 756.795 56.25ZM768.452 61.6818C767.665 61.6818 766.973 61.4943 766.379 61.1193C765.788 60.7443 765.326 60.2197 764.992 59.5455C764.663 58.8712 764.498 58.0833 764.498 57.1818C764.498 56.2727 764.663 55.4792 764.992 54.8011C765.326 54.1231 765.788 53.5966 766.379 53.2216C766.973 52.8466 767.665 52.6591 768.452 52.6591C769.24 52.6591 769.93 52.8466 770.521 53.2216C771.115 53.5966 771.577 54.1231 771.907 54.8011C772.24 55.4792 772.407 56.2727 772.407 57.1818C772.407 58.0833 772.24 58.8712 771.907 59.5455C771.577 60.2197 771.115 60.7443 770.521 61.1193C769.93 61.4943 769.24 61.6818 768.452 61.6818ZM768.452 60.4773C769.051 60.4773 769.543 60.3239 769.93 60.017C770.316 59.7102 770.602 59.3068 770.788 58.8068C770.973 58.3068 771.066 57.7652 771.066 57.1818C771.066 56.5985 770.973 56.0549 770.788 55.5511C770.602 55.0473 770.316 54.6402 769.93 54.3295C769.543 54.0189 769.051 53.8636 768.452 53.8636C767.854 53.8636 767.362 54.0189 766.975 54.3295C766.589 54.6402 766.303 55.0473 766.117 55.5511C765.932 56.0549 765.839 56.5985 765.839 57.1818C765.839 57.7652 765.932 58.3068 766.117 58.8068C766.303 59.3068 766.589 59.7102 766.975 60.017C767.362 60.3239 767.854 60.4773 768.452 60.4773ZM774.454 64.7727V52.7727H775.749V54.1591H775.908C776.007 54.0076 776.143 53.8144 776.317 53.5795C776.496 53.3409 776.749 53.1288 777.079 52.9432C777.412 52.7538 777.863 52.6591 778.431 52.6591C779.166 52.6591 779.814 52.8428 780.374 53.2102C780.935 53.5777 781.372 54.0985 781.687 54.7727C782.001 55.447 782.158 56.2424 782.158 57.1591C782.158 58.0833 782.001 58.8845 781.687 59.5625C781.372 60.2367 780.937 60.7595 780.38 61.1307C779.823 61.4981 779.181 61.6818 778.454 61.6818C777.893 61.6818 777.444 61.589 777.107 61.4034C776.77 61.214 776.511 61 776.329 60.7614C776.147 60.5189 776.007 60.3182 775.908 60.1591H775.795V64.7727H774.454ZM775.772 57.1364C775.772 57.7955 775.869 58.3769 776.062 58.8807C776.255 59.3807 776.537 59.7727 776.908 60.0568C777.28 60.3371 777.734 60.4773 778.272 60.4773C778.833 60.4773 779.3 60.3295 779.675 60.0341C780.054 59.7348 780.338 59.3333 780.528 58.8295C780.721 58.322 780.817 57.7576 780.817 57.1364C780.817 56.5227 780.723 55.9697 780.533 55.4773C780.348 54.9811 780.066 54.589 779.687 54.3011C779.312 54.0095 778.84 53.8636 778.272 53.8636C777.727 53.8636 777.268 54.0019 776.897 54.2784C776.526 54.5511 776.246 54.9337 776.056 55.4261C775.867 55.9148 775.772 56.4848 775.772 57.1364Z" fill="black"/>
<path d="M841.714 49.8636V61.5H840.351L834.01 52.3636H833.896V61.5H832.487V49.8636H833.851L840.214 59.0227H840.328V49.8636H841.714ZM848.011 61.6818C847.17 61.6818 846.445 61.4962 845.835 61.125C845.229 60.75 844.761 60.2273 844.432 59.5568C844.106 58.8826 843.943 58.0985 843.943 57.2045C843.943 56.3106 844.106 55.5227 844.432 54.8409C844.761 54.1553 845.22 53.6212 845.807 53.2386C846.398 52.8523 847.087 52.6591 847.875 52.6591C848.33 52.6591 848.778 52.7348 849.222 52.8864C849.665 53.0379 850.068 53.2841 850.432 53.625C850.795 53.9621 851.085 54.4091 851.301 54.9659C851.517 55.5227 851.625 56.2083 851.625 57.0227V57.5909H844.898V56.4318H850.261C850.261 55.9394 850.163 55.5 849.966 55.1136C849.773 54.7273 849.496 54.4223 849.136 54.1989C848.78 53.9754 848.36 53.8636 847.875 53.8636C847.341 53.8636 846.879 53.9962 846.489 54.2614C846.102 54.5227 845.805 54.8636 845.597 55.2841C845.388 55.7045 845.284 56.1553 845.284 56.6364V57.4091C845.284 58.0682 845.398 58.6269 845.625 59.0852C845.856 59.5398 846.176 59.8864 846.585 60.125C846.994 60.3598 847.47 60.4773 848.011 60.4773C848.364 60.4773 848.682 60.428 848.966 60.3295C849.254 60.2273 849.502 60.0758 849.71 59.875C849.919 59.6705 850.08 59.4167 850.193 59.1136L851.489 59.4773C851.352 59.9167 851.123 60.303 850.801 60.6364C850.479 60.9659 850.081 61.2235 849.608 61.4091C849.134 61.5909 848.602 61.6818 848.011 61.6818ZM855.642 61.5L852.983 52.7727H854.392L856.278 59.4545H856.369L858.233 52.7727H859.665L861.506 59.4318H861.597L863.483 52.7727H864.892L862.233 61.5H860.915L859.006 54.7955H858.869L856.96 61.5H855.642ZM872.847 54.7273L871.642 55.0682C871.566 54.8674 871.455 54.6723 871.307 54.483C871.163 54.2898 870.966 54.1307 870.716 54.0057C870.466 53.8807 870.146 53.8182 869.756 53.8182C869.222 53.8182 868.777 53.9413 868.42 54.1875C868.068 54.4299 867.892 54.7386 867.892 55.1136C867.892 55.447 868.013 55.7102 868.256 55.9034C868.498 56.0966 868.877 56.2576 869.392 56.3864L870.688 56.7045C871.468 56.8939 872.049 57.1837 872.432 57.5739C872.814 57.9602 873.006 58.4583 873.006 59.0682C873.006 59.5682 872.862 60.0152 872.574 60.4091C872.29 60.803 871.892 61.1136 871.381 61.3409C870.869 61.5682 870.275 61.6818 869.597 61.6818C868.706 61.6818 867.97 61.4886 867.386 61.1023C866.803 60.7159 866.434 60.1515 866.278 59.4091L867.551 59.0909C867.672 59.5606 867.902 59.9129 868.239 60.1477C868.58 60.3826 869.025 60.5 869.574 60.5C870.199 60.5 870.695 60.3674 871.062 60.1023C871.434 59.8333 871.619 59.5114 871.619 59.1364C871.619 58.8333 871.513 58.5795 871.301 58.375C871.089 58.1667 870.763 58.0114 870.324 57.9091L868.869 57.5682C868.07 57.3788 867.483 57.0852 867.108 56.6875C866.737 56.286 866.551 55.7841 866.551 55.1818C866.551 54.6894 866.689 54.2538 866.966 53.875C867.246 53.4962 867.627 53.1989 868.108 52.983C868.593 52.767 869.142 52.6591 869.756 52.6591C870.619 52.6591 871.297 52.8485 871.79 53.2273C872.286 53.6061 872.638 54.1061 872.847 54.7273ZM878.82 52.7727V53.9091H874.297V52.7727H878.82ZM875.615 50.6818H876.956V59C876.956 59.3788 877.011 59.6629 877.121 59.8523C877.234 60.0379 877.378 60.1629 877.553 60.2273C877.731 60.2879 877.918 60.3182 878.115 60.3182C878.263 60.3182 878.384 60.3106 878.479 60.2955C878.573 60.2765 878.649 60.2614 878.706 60.25L878.979 61.4545C878.888 61.4886 878.761 61.5227 878.598 61.5568C878.435 61.5947 878.229 61.6136 877.979 61.6136C877.6 61.6136 877.229 61.5322 876.865 61.3693C876.505 61.2064 876.206 60.9583 875.967 60.625C875.732 60.2917 875.615 59.8712 875.615 59.3636V50.6818ZM883.405 61.7045C882.852 61.7045 882.35 61.6004 881.899 61.392C881.448 61.1799 881.09 60.875 880.825 60.4773C880.56 60.0758 880.428 59.5909 880.428 59.0227C880.428 58.5227 880.526 58.1174 880.723 57.8068C880.92 57.4924 881.183 57.2462 881.513 57.0682C881.842 56.8902 882.206 56.7576 882.604 56.6705C883.005 56.5795 883.409 56.5076 883.814 56.4545C884.344 56.3864 884.774 56.3352 885.104 56.3011C885.437 56.2633 885.679 56.2008 885.831 56.1136C885.986 56.0265 886.064 55.875 886.064 55.6591V55.6136C886.064 55.053 885.911 54.6174 885.604 54.3068C885.301 53.9962 884.84 53.8409 884.223 53.8409C883.583 53.8409 883.081 53.9811 882.717 54.2614C882.354 54.5417 882.098 54.8409 881.95 55.1591L880.678 54.7045C880.905 54.1742 881.208 53.7614 881.587 53.4659C881.969 53.1667 882.386 52.9583 882.837 52.8409C883.291 52.7197 883.738 52.6591 884.178 52.6591C884.458 52.6591 884.78 52.6932 885.143 52.7614C885.511 52.8258 885.865 52.9602 886.206 53.1648C886.551 53.3693 886.837 53.678 887.064 54.0909C887.291 54.5038 887.405 55.0568 887.405 55.75V61.5H886.064V60.3182H885.996C885.905 60.5076 885.753 60.7102 885.541 60.9261C885.329 61.142 885.047 61.3258 884.695 61.4773C884.342 61.6288 883.912 61.7045 883.405 61.7045ZM883.609 60.5C884.14 60.5 884.587 60.3958 884.95 60.1875C885.318 59.9792 885.594 59.7102 885.78 59.3807C885.969 59.0511 886.064 58.7045 886.064 58.3409V57.1136C886.007 57.1818 885.882 57.2443 885.689 57.3011C885.5 57.3542 885.28 57.4015 885.03 57.4432C884.784 57.4811 884.543 57.5152 884.308 57.5455C884.077 57.572 883.89 57.5947 883.746 57.6136C883.397 57.6591 883.071 57.733 882.768 57.8352C882.469 57.9337 882.227 58.0833 882.041 58.2841C881.859 58.4811 881.768 58.75 881.768 59.0909C881.768 59.5568 881.941 59.9091 882.286 60.1477C882.634 60.3826 883.075 60.5 883.609 60.5ZM891.193 56.25V61.5H889.852V52.7727H891.148V54.1364H891.261C891.466 53.6932 891.777 53.3371 892.193 53.0682C892.61 52.7955 893.148 52.6591 893.807 52.6591C894.398 52.6591 894.915 52.7803 895.358 53.0227C895.801 53.2614 896.146 53.625 896.392 54.1136C896.638 54.5985 896.761 55.2121 896.761 55.9545V61.5H895.42V56.0455C895.42 55.3598 895.242 54.8258 894.886 54.4432C894.53 54.0568 894.042 53.8636 893.42 53.8636C892.992 53.8636 892.61 53.9564 892.273 54.142C891.939 54.3277 891.676 54.5985 891.483 54.9545C891.29 55.3106 891.193 55.7424 891.193 56.25ZM902.507 61.6818C901.78 61.6818 901.138 61.4981 900.581 61.1307C900.024 60.7595 899.589 60.2367 899.274 59.5625C898.96 58.8845 898.803 58.0833 898.803 57.1591C898.803 56.2424 898.96 55.447 899.274 54.7727C899.589 54.0985 900.026 53.5777 900.587 53.2102C901.147 52.8428 901.795 52.6591 902.53 52.6591C903.098 52.6591 903.547 52.7538 903.876 52.9432C904.21 53.1288 904.464 53.3409 904.638 53.5795C904.816 53.8144 904.954 54.0076 905.053 54.1591H905.166V49.8636H906.507V61.5H905.212V60.1591H905.053C904.954 60.3182 904.814 60.5189 904.632 60.7614C904.45 61 904.191 61.214 903.854 61.4034C903.517 61.589 903.068 61.6818 902.507 61.6818ZM902.689 60.4773C903.227 60.4773 903.681 60.3371 904.053 60.0568C904.424 59.7727 904.706 59.3807 904.899 58.8807C905.092 58.3769 905.189 57.7955 905.189 57.1364C905.189 56.4848 905.094 55.9148 904.905 55.4261C904.715 54.9337 904.435 54.5511 904.064 54.2784C903.693 54.0019 903.234 53.8636 902.689 53.8636C902.121 53.8636 901.647 54.0095 901.268 54.3011C900.893 54.589 900.611 54.9811 900.422 55.4773C900.236 55.9697 900.143 56.5227 900.143 57.1364C900.143 57.7576 900.238 58.322 900.428 58.8295C900.621 59.3333 900.905 59.7348 901.28 60.0341C901.659 60.3295 902.128 60.4773 902.689 60.4773Z" fill="black"/>
<path d="M959.913 61.5L956.732 49.8636H958.163L960.595 59.3409H960.709L963.186 49.8636H964.777L967.254 59.3409H967.368L969.8 49.8636H971.232L968.05 61.5H966.595L964.027 52.2273H963.936L961.368 61.5H959.913ZM974.146 56.25V61.5H972.805V49.8636H974.146V54.1364H974.26C974.464 53.6856 974.771 53.3277 975.18 53.0625C975.593 52.7936 976.143 52.6591 976.828 52.6591C977.423 52.6591 977.944 52.7784 978.391 53.017C978.838 53.2519 979.184 53.6136 979.43 54.1023C979.68 54.5871 979.805 55.2045 979.805 55.9545V61.5H978.464V56.0455C978.464 55.3523 978.285 54.8163 977.925 54.4375C977.569 54.0549 977.074 53.8636 976.442 53.8636C976.002 53.8636 975.608 53.9564 975.26 54.142C974.915 54.3277 974.643 54.5985 974.442 54.9545C974.245 55.3106 974.146 55.7424 974.146 56.25ZM985.804 61.6818C985.016 61.6818 984.325 61.4943 983.73 61.1193C983.139 60.7443 982.677 60.2197 982.344 59.5455C982.014 58.8712 981.849 58.0833 981.849 57.1818C981.849 56.2727 982.014 55.4792 982.344 54.8011C982.677 54.1231 983.139 53.5966 983.73 53.2216C984.325 52.8466 985.016 52.6591 985.804 52.6591C986.592 52.6591 987.281 52.8466 987.872 53.2216C988.467 53.5966 988.929 54.1231 989.259 54.8011C989.592 55.4792 989.759 56.2727 989.759 57.1818C989.759 58.0833 989.592 58.8712 989.259 59.5455C988.929 60.2197 988.467 60.7443 987.872 61.1193C987.281 61.4943 986.592 61.6818 985.804 61.6818ZM985.804 60.4773C986.402 60.4773 986.895 60.3239 987.281 60.017C987.668 59.7102 987.954 59.3068 988.139 58.8068C988.325 58.3068 988.418 57.7652 988.418 57.1818C988.418 56.5985 988.325 56.0549 988.139 55.5511C987.954 55.0473 987.668 54.6402 987.281 54.3295C986.895 54.0189 986.402 53.8636 985.804 53.8636C985.205 53.8636 984.713 54.0189 984.327 54.3295C983.94 54.6402 983.654 55.0473 983.469 55.5511C983.283 56.0549 983.19 56.5985 983.19 57.1818C983.19 57.7652 983.283 58.3068 983.469 58.8068C983.654 59.3068 983.94 59.7102 984.327 60.017C984.713 60.3239 985.205 60.4773 985.804 60.4773ZM998.283 61.5L995.624 52.7727H997.033L998.919 59.4545H999.01L1000.87 52.7727H1002.31L1004.15 59.4318H1004.24L1006.12 52.7727H1007.53L1004.87 61.5H1003.56L1001.65 54.7955H1001.51L999.601 61.5H998.283ZM1012.67 61.6818C1011.83 61.6818 1011.1 61.4962 1010.49 61.125C1009.89 60.75 1009.42 60.2273 1009.09 59.5568C1008.76 58.8826 1008.6 58.0985 1008.6 57.2045C1008.6 56.3106 1008.76 55.5227 1009.09 54.8409C1009.42 54.1553 1009.88 53.6212 1010.46 53.2386C1011.05 52.8523 1011.74 52.6591 1012.53 52.6591C1012.99 52.6591 1013.43 52.7348 1013.88 52.8864C1014.32 53.0379 1014.72 53.2841 1015.09 53.625C1015.45 53.9621 1015.74 54.4091 1015.96 54.9659C1016.17 55.5227 1016.28 56.2083 1016.28 57.0227V57.5909H1009.55V56.4318H1014.92C1014.92 55.9394 1014.82 55.5 1014.62 55.1136C1014.43 54.7273 1014.15 54.4223 1013.79 54.1989C1013.44 53.9754 1013.02 53.8636 1012.53 53.8636C1012 53.8636 1011.54 53.9962 1011.14 54.2614C1010.76 54.5227 1010.46 54.8636 1010.25 55.2841C1010.04 55.7045 1009.94 56.1553 1009.94 56.6364V57.4091C1009.94 58.0682 1010.05 58.6269 1010.28 59.0852C1010.51 59.5398 1010.83 59.8864 1011.24 60.125C1011.65 60.3598 1012.13 60.4773 1012.67 60.4773C1013.02 60.4773 1013.34 60.428 1013.62 60.3295C1013.91 60.2273 1014.16 60.0758 1014.37 59.875C1014.57 59.6705 1014.74 59.4167 1014.85 59.1136L1016.14 59.4773C1016.01 59.9167 1015.78 60.303 1015.46 60.6364C1015.14 60.9659 1014.74 61.2235 1014.26 61.4091C1013.79 61.5909 1013.26 61.6818 1012.67 61.6818ZM1025.39 61.7045C1024.84 61.7045 1024.33 61.6004 1023.88 61.392C1023.43 61.1799 1023.07 60.875 1022.81 60.4773C1022.54 60.0758 1022.41 59.5909 1022.41 59.0227C1022.41 58.5227 1022.51 58.1174 1022.71 57.8068C1022.9 57.4924 1023.17 57.2462 1023.5 57.0682C1023.83 56.8902 1024.19 56.7576 1024.59 56.6705C1024.99 56.5795 1025.39 56.5076 1025.8 56.4545C1026.33 56.3864 1026.76 56.3352 1027.09 56.3011C1027.42 56.2633 1027.66 56.2008 1027.82 56.1136C1027.97 56.0265 1028.05 55.875 1028.05 55.6591V55.6136C1028.05 55.053 1027.89 54.6174 1027.59 54.3068C1027.29 53.9962 1026.82 53.8409 1026.21 53.8409C1025.57 53.8409 1025.07 53.9811 1024.7 54.2614C1024.34 54.5417 1024.08 54.8409 1023.93 55.1591L1022.66 54.7045C1022.89 54.1742 1023.19 53.7614 1023.57 53.4659C1023.95 53.1667 1024.37 52.9583 1024.82 52.8409C1025.28 52.7197 1025.72 52.6591 1026.16 52.6591C1026.44 52.6591 1026.76 52.6932 1027.13 52.7614C1027.5 52.8258 1027.85 52.9602 1028.19 53.1648C1028.54 53.3693 1028.82 53.678 1029.05 54.0909C1029.28 54.5038 1029.39 55.0568 1029.39 55.75V61.5H1028.05V60.3182H1027.98C1027.89 60.5076 1027.74 60.7102 1027.53 60.9261C1027.31 61.142 1027.03 61.3258 1026.68 61.4773C1026.33 61.6288 1025.9 61.7045 1025.39 61.7045ZM1025.59 60.5C1026.12 60.5 1026.57 60.3958 1026.93 60.1875C1027.3 59.9792 1027.58 59.7102 1027.76 59.3807C1027.95 59.0511 1028.05 58.7045 1028.05 58.3409V57.1136C1027.99 57.1818 1027.87 57.2443 1027.67 57.3011C1027.48 57.3542 1027.26 57.4015 1027.01 57.4432C1026.77 57.4811 1026.53 57.5152 1026.29 57.5455C1026.06 57.572 1025.87 57.5947 1025.73 57.6136C1025.38 57.6591 1025.06 57.733 1024.75 57.8352C1024.45 57.9337 1024.21 58.0833 1024.03 58.2841C1023.84 58.4811 1023.75 58.75 1023.75 59.0909C1023.75 59.5568 1023.93 59.9091 1024.27 60.1477C1024.62 60.3826 1025.06 60.5 1025.59 60.5ZM1031.84 61.5V52.7727H1033.13V54.0909H1033.22C1033.38 53.6591 1033.67 53.3087 1034.09 53.0398C1034.5 52.7708 1034.97 52.6364 1035.5 52.6364C1035.59 52.6364 1035.72 52.6383 1035.87 52.642C1036.01 52.6458 1036.12 52.6515 1036.2 52.6591V54.0227C1036.15 54.0114 1036.05 53.9943 1035.89 53.9716C1035.73 53.9451 1035.56 53.9318 1035.38 53.9318C1034.96 53.9318 1034.58 54.0208 1034.25 54.1989C1033.92 54.3731 1033.65 54.6155 1033.46 54.9261C1033.27 55.233 1033.18 55.5833 1033.18 55.9773V61.5H1031.84ZM1041.18 61.6818C1040.34 61.6818 1039.62 61.4962 1039.01 61.125C1038.4 60.75 1037.93 60.2273 1037.6 59.5568C1037.28 58.8826 1037.12 58.0985 1037.12 57.2045C1037.12 56.3106 1037.28 55.5227 1037.6 54.8409C1037.93 54.1553 1038.39 53.6212 1038.98 53.2386C1039.57 52.8523 1040.26 52.6591 1041.05 52.6591C1041.5 52.6591 1041.95 52.7348 1042.39 52.8864C1042.84 53.0379 1043.24 53.2841 1043.6 53.625C1043.97 53.9621 1044.26 54.4091 1044.47 54.9659C1044.69 55.5227 1044.8 56.2083 1044.8 57.0227V57.5909H1038.07V56.4318H1043.43C1043.43 55.9394 1043.33 55.5 1043.14 55.1136C1042.94 54.7273 1042.67 54.4223 1042.31 54.1989C1041.95 53.9754 1041.53 53.8636 1041.05 53.8636C1040.51 53.8636 1040.05 53.9962 1039.66 54.2614C1039.27 54.5227 1038.98 54.8636 1038.77 55.2841C1038.56 55.7045 1038.46 56.1553 1038.46 56.6364V57.4091C1038.46 58.0682 1038.57 58.6269 1038.8 59.0852C1039.03 59.5398 1039.35 59.8864 1039.76 60.125C1040.17 60.3598 1040.64 60.4773 1041.18 60.4773C1041.54 60.4773 1041.85 60.428 1042.14 60.3295C1042.43 60.2273 1042.67 60.0758 1042.88 59.875C1043.09 59.6705 1043.25 59.4167 1043.37 59.1136L1044.66 59.4773C1044.52 59.9167 1044.29 60.303 1043.97 60.6364C1043.65 60.9659 1043.25 61.2235 1042.78 61.4091C1042.31 61.5909 1041.77 61.6818 1041.18 61.6818Z" fill="black"/>
<path d="M1095.76 49.8636H1097.44L1101.4 59.5227H1101.53L1105.49 49.8636H1107.17V61.5H1105.85V52.6591H1105.74L1102.1 61.5H1100.83L1097.19 52.6591H1097.08V61.5H1095.76V49.8636ZM1110.68 64.7727C1110.45 64.7727 1110.25 64.7538 1110.07 64.7159C1109.89 64.6818 1109.77 64.6477 1109.7 64.6136L1110.04 63.4318C1110.37 63.5152 1110.65 63.5455 1110.9 63.5227C1111.15 63.5 1111.38 63.3883 1111.57 63.1875C1111.77 62.9905 1111.95 62.6705 1112.11 62.2273L1112.36 61.5455L1109.13 52.7727H1110.59L1113 59.7273H1113.09L1115.5 52.7727H1116.95L1113.25 62.7727C1113.08 63.2235 1112.87 63.5966 1112.63 63.892C1112.38 64.1913 1112.09 64.4129 1111.77 64.5568C1111.45 64.7008 1111.08 64.7727 1110.68 64.7727ZM1123.22 64.7727V52.7727H1124.51V54.1591H1124.67C1124.77 54.0076 1124.91 53.8144 1125.08 53.5795C1125.26 53.3409 1125.51 53.1288 1125.84 52.9432C1126.18 52.7538 1126.63 52.6591 1127.2 52.6591C1127.93 52.6591 1128.58 52.8428 1129.14 53.2102C1129.7 53.5777 1130.14 54.0985 1130.45 54.7727C1130.77 55.447 1130.92 56.2424 1130.92 57.1591C1130.92 58.0833 1130.77 58.8845 1130.45 59.5625C1130.14 60.2367 1129.7 60.7595 1129.15 61.1307C1128.59 61.4981 1127.95 61.6818 1127.22 61.6818C1126.66 61.6818 1126.21 61.589 1125.87 61.4034C1125.54 61.214 1125.28 61 1125.09 60.7614C1124.91 60.5189 1124.77 60.3182 1124.67 60.1591H1124.56V64.7727H1123.22ZM1124.54 57.1364C1124.54 57.7955 1124.63 58.3769 1124.83 58.8807C1125.02 59.3807 1125.3 59.7727 1125.67 60.0568C1126.05 60.3371 1126.5 60.4773 1127.04 60.4773C1127.6 60.4773 1128.07 60.3295 1128.44 60.0341C1128.82 59.7348 1129.1 59.3333 1129.29 58.8295C1129.49 58.322 1129.58 57.7576 1129.58 57.1364C1129.58 56.5227 1129.49 55.9697 1129.3 55.4773C1129.11 54.9811 1128.83 54.589 1128.45 54.3011C1128.08 54.0095 1127.61 53.8636 1127.04 53.8636C1126.49 53.8636 1126.03 54.0019 1125.66 54.2784C1125.29 54.5511 1125.01 54.9337 1124.82 55.4261C1124.63 55.9148 1124.54 56.4848 1124.54 57.1364ZM1132.97 61.5V52.7727H1134.26V54.0909H1134.36C1134.51 53.6591 1134.8 53.3087 1135.22 53.0398C1135.64 52.7708 1136.11 52.6364 1136.63 52.6364C1136.73 52.6364 1136.85 52.6383 1137 52.642C1137.15 52.6458 1137.26 52.6515 1137.33 52.6591V54.0227C1137.29 54.0114 1137.18 53.9943 1137.02 53.9716C1136.86 53.9451 1136.69 53.9318 1136.51 53.9318C1136.09 53.9318 1135.71 54.0208 1135.38 54.1989C1135.05 54.3731 1134.79 54.6155 1134.59 54.9261C1134.41 55.233 1134.31 55.5833 1134.31 55.9773V61.5H1132.97ZM1142.2 61.6818C1141.41 61.6818 1140.72 61.4943 1140.13 61.1193C1139.54 60.7443 1139.08 60.2197 1138.74 59.5455C1138.41 58.8712 1138.25 58.0833 1138.25 57.1818C1138.25 56.2727 1138.41 55.4792 1138.74 54.8011C1139.08 54.1231 1139.54 53.5966 1140.13 53.2216C1140.72 52.8466 1141.41 52.6591 1142.2 52.6591C1142.99 52.6591 1143.68 52.8466 1144.27 53.2216C1144.87 53.5966 1145.33 54.1231 1145.66 54.8011C1145.99 55.4792 1146.16 56.2727 1146.16 57.1818C1146.16 58.0833 1145.99 58.8712 1145.66 59.5455C1145.33 60.2197 1144.87 60.7443 1144.27 61.1193C1143.68 61.4943 1142.99 61.6818 1142.2 61.6818ZM1142.2 60.4773C1142.8 60.4773 1143.29 60.3239 1143.68 60.017C1144.07 59.7102 1144.35 59.3068 1144.54 58.8068C1144.72 58.3068 1144.82 57.7652 1144.82 57.1818C1144.82 56.5985 1144.72 56.0549 1144.54 55.5511C1144.35 55.0473 1144.07 54.6402 1143.68 54.3295C1143.29 54.0189 1142.8 53.8636 1142.2 53.8636C1141.6 53.8636 1141.11 54.0189 1140.73 54.3295C1140.34 54.6402 1140.05 55.0473 1139.87 55.5511C1139.68 56.0549 1139.59 56.5985 1139.59 57.1818C1139.59 57.7652 1139.68 58.3068 1139.87 58.8068C1140.05 59.3068 1140.34 59.7102 1140.73 60.017C1141.11 60.3239 1141.6 60.4773 1142.2 60.4773ZM1152.09 52.7727V53.9091H1147.39V52.7727H1152.09ZM1148.79 61.5V51.5682C1148.79 51.0682 1148.91 50.6515 1149.15 50.3182C1149.38 49.9848 1149.69 49.7348 1150.06 49.5682C1150.44 49.4015 1150.83 49.3182 1151.25 49.3182C1151.58 49.3182 1151.85 49.3447 1152.06 49.3977C1152.26 49.4508 1152.42 49.5 1152.52 49.5455L1152.14 50.7045C1152.07 50.6818 1151.97 50.6534 1151.85 50.6193C1151.73 50.5852 1151.58 50.5682 1151.39 50.5682C1150.94 50.5682 1150.62 50.6799 1150.43 50.9034C1150.23 51.1269 1150.14 51.4545 1150.14 51.8864V61.5H1148.79ZM1153.97 61.5V52.7727H1155.31V61.5H1153.97ZM1154.65 51.3182C1154.39 51.3182 1154.16 51.2292 1153.98 51.0511C1153.79 50.8731 1153.7 50.6591 1153.7 50.4091C1153.7 50.1591 1153.79 49.9451 1153.98 49.767C1154.16 49.589 1154.39 49.5 1154.65 49.5C1154.91 49.5 1155.14 49.589 1155.32 49.767C1155.51 49.9451 1155.61 50.1591 1155.61 50.4091C1155.61 50.6591 1155.51 50.8731 1155.32 51.0511C1155.14 51.2292 1154.91 51.3182 1154.65 51.3182ZM1159.11 49.8636V61.5H1157.77V49.8636H1159.11ZM1165.22 61.6818C1164.38 61.6818 1163.66 61.4962 1163.05 61.125C1162.44 60.75 1161.97 60.2273 1161.64 59.5568C1161.32 58.8826 1161.15 58.0985 1161.15 57.2045C1161.15 56.3106 1161.32 55.5227 1161.64 54.8409C1161.97 54.1553 1162.43 53.6212 1163.02 53.2386C1163.61 52.8523 1164.3 52.6591 1165.09 52.6591C1165.54 52.6591 1165.99 52.7348 1166.43 52.8864C1166.88 53.0379 1167.28 53.2841 1167.64 53.625C1168.01 53.9621 1168.3 54.4091 1168.51 54.9659C1168.73 55.5227 1168.84 56.2083 1168.84 57.0227V57.5909H1162.11V56.4318H1167.47C1167.47 55.9394 1167.37 55.5 1167.18 55.1136C1166.98 54.7273 1166.71 54.4223 1166.35 54.1989C1165.99 53.9754 1165.57 53.8636 1165.09 53.8636C1164.55 53.8636 1164.09 53.9962 1163.7 54.2614C1163.31 54.5227 1163.02 54.8636 1162.81 55.2841C1162.6 55.7045 1162.5 56.1553 1162.5 56.6364V57.4091C1162.5 58.0682 1162.61 58.6269 1162.84 59.0852C1163.07 59.5398 1163.39 59.8864 1163.8 60.125C1164.21 60.3598 1164.68 60.4773 1165.22 60.4773C1165.57 60.4773 1165.89 60.428 1166.18 60.3295C1166.46 60.2273 1166.71 60.0758 1166.92 59.875C1167.13 59.6705 1167.29 59.4167 1167.4 59.1136L1168.7 59.4773C1168.56 59.9167 1168.33 60.303 1168.01 60.6364C1167.69 60.9659 1167.29 61.2235 1166.82 61.4091C1166.35 61.5909 1165.81 61.6818 1165.22 61.6818Z" fill="black"/>
<rect x="1218" y="32" width="126" height="48" rx="8" fill="#426B1F"/>
<path d="M1242.26 61.5V49.8636H1246.71C1247.55 49.8636 1248.25 49.9962 1248.81 50.2614C1249.37 50.5227 1249.79 50.8807 1250.06 51.3352C1250.34 51.7898 1250.48 52.3049 1250.48 52.8807C1250.48 53.3542 1250.39 53.7595 1250.21 54.0966C1250.03 54.4299 1249.79 54.7008 1249.48 54.9091C1249.17 55.1174 1248.83 55.267 1248.45 55.358V55.4716C1248.86 55.4943 1249.26 55.6212 1249.64 55.8523C1250.02 56.0795 1250.33 56.4015 1250.58 56.8182C1250.82 57.2348 1250.94 57.7386 1250.94 58.3295C1250.94 58.9318 1250.79 59.4735 1250.5 59.9545C1250.21 60.4318 1249.77 60.8087 1249.18 61.0852C1248.6 61.3617 1247.86 61.5 1246.97 61.5H1242.26ZM1244.37 59.7386H1246.63C1247.4 59.7386 1247.95 59.5928 1248.29 59.3011C1248.63 59.0057 1248.8 58.6269 1248.8 58.1648C1248.8 57.8201 1248.71 57.5095 1248.54 57.233C1248.37 56.9527 1248.13 56.733 1247.81 56.5739C1247.5 56.411 1247.12 56.3295 1246.69 56.3295H1244.37V59.7386ZM1244.37 54.8125H1246.45C1246.81 54.8125 1247.14 54.7462 1247.43 54.6136C1247.72 54.4773 1247.95 54.286 1248.12 54.0398C1248.29 53.7898 1248.38 53.4943 1248.38 53.1534C1248.38 52.7027 1248.22 52.3314 1247.9 52.0398C1247.58 51.7481 1247.12 51.6023 1246.5 51.6023H1244.37V54.8125ZM1255.19 61.6761C1254.64 61.6761 1254.14 61.5777 1253.7 61.3807C1253.26 61.1799 1252.91 60.8845 1252.65 60.4943C1252.4 60.1042 1252.27 59.6231 1252.27 59.0511C1252.27 58.5587 1252.36 58.1515 1252.55 57.8295C1252.73 57.5076 1252.98 57.25 1253.29 57.0568C1253.6 56.8636 1253.96 56.7178 1254.35 56.6193C1254.75 56.517 1255.16 56.4432 1255.59 56.3977C1256.1 56.3447 1256.51 56.2973 1256.83 56.2557C1257.15 56.2102 1257.38 56.142 1257.52 56.0511C1257.67 55.9564 1257.74 55.8106 1257.74 55.6136V55.5795C1257.74 55.1515 1257.62 54.8201 1257.36 54.5852C1257.11 54.3504 1256.74 54.233 1256.27 54.233C1255.76 54.233 1255.36 54.3428 1255.07 54.5625C1254.78 54.7822 1254.58 55.0417 1254.48 55.3409L1252.56 55.0682C1252.71 54.5379 1252.96 54.0947 1253.31 53.7386C1253.66 53.3788 1254.08 53.1098 1254.59 52.9318C1255.09 52.75 1255.65 52.6591 1256.26 52.6591C1256.68 52.6591 1257.09 52.7083 1257.51 52.8068C1257.93 52.9053 1258.31 53.0682 1258.65 53.2955C1259 53.5189 1259.27 53.8239 1259.48 54.2102C1259.7 54.5966 1259.8 55.0795 1259.8 55.6591V61.5H1257.82V60.3011H1257.76C1257.63 60.5436 1257.45 60.7708 1257.23 60.983C1257 61.1913 1256.72 61.3598 1256.38 61.4886C1256.04 61.6136 1255.65 61.6761 1255.19 61.6761ZM1255.73 60.1648C1256.14 60.1648 1256.5 60.0833 1256.8 59.9205C1257.1 59.7538 1257.34 59.5341 1257.5 59.2614C1257.67 58.9886 1257.75 58.6913 1257.75 58.3693V57.3409C1257.69 57.3939 1257.58 57.4432 1257.42 57.4886C1257.27 57.5341 1257.1 57.5739 1256.91 57.608C1256.72 57.642 1256.53 57.6723 1256.35 57.6989C1256.16 57.7254 1256 57.7481 1255.86 57.767C1255.56 57.8087 1255.28 57.8769 1255.04 57.9716C1254.8 58.0663 1254.61 58.1989 1254.47 58.3693C1254.33 58.536 1254.26 58.7519 1254.26 59.017C1254.26 59.3958 1254.39 59.6818 1254.67 59.875C1254.95 60.0682 1255.3 60.1648 1255.73 60.1648ZM1268.77 55.0795L1266.89 55.2841C1266.84 55.0947 1266.75 54.9167 1266.61 54.75C1266.48 54.5833 1266.31 54.4489 1266.09 54.3466C1265.87 54.2443 1265.6 54.1932 1265.28 54.1932C1264.86 54.1932 1264.5 54.286 1264.2 54.4716C1263.92 54.6572 1263.77 54.8977 1263.78 55.1932C1263.77 55.447 1263.87 55.6534 1264.06 55.8125C1264.25 55.9716 1264.57 56.1023 1265.01 56.2045L1266.5 56.5227C1267.33 56.7008 1267.94 56.983 1268.34 57.3693C1268.75 57.7557 1268.95 58.2614 1268.95 58.8864C1268.95 59.4356 1268.79 59.9205 1268.47 60.3409C1268.16 60.7576 1267.72 61.0833 1267.16 61.3182C1266.6 61.553 1265.95 61.6705 1265.23 61.6705C1264.16 61.6705 1263.3 61.447 1262.65 61C1262 60.5492 1261.61 59.9223 1261.48 59.1193L1263.49 58.9261C1263.58 59.3201 1263.77 59.6174 1264.07 59.8182C1264.36 60.0189 1264.75 60.1193 1265.22 60.1193C1265.71 60.1193 1266.1 60.0189 1266.4 59.8182C1266.7 59.6174 1266.85 59.3693 1266.85 59.0739C1266.85 58.8239 1266.75 58.6174 1266.56 58.4545C1266.37 58.2917 1266.07 58.1667 1265.67 58.0795L1264.18 57.767C1263.34 57.5928 1262.73 57.2992 1262.32 56.8864C1261.92 56.4697 1261.72 55.9432 1261.73 55.3068C1261.72 54.7689 1261.87 54.303 1262.16 53.9091C1262.46 53.5114 1262.88 53.2045 1263.41 52.9886C1263.94 52.7689 1264.56 52.6591 1265.26 52.6591C1266.28 52.6591 1267.08 52.8769 1267.67 53.3125C1268.26 53.7481 1268.63 54.3371 1268.77 55.0795ZM1272.53 58.7614L1272.52 56.2784H1272.85L1275.99 52.7727H1278.39L1274.53 57.0682H1274.11L1272.53 58.7614ZM1270.65 61.5V49.8636H1272.71V61.5H1270.65ZM1276.13 61.5L1273.29 57.5284L1274.67 56.0795L1278.59 61.5H1276.13ZM1283.26 61.6705C1282.39 61.6705 1281.63 61.4886 1281 61.125C1280.36 60.7576 1279.88 60.2386 1279.54 59.5682C1279.2 58.8939 1279.03 58.1004 1279.03 57.1875C1279.03 56.2898 1279.2 55.5019 1279.54 54.8239C1279.88 54.142 1280.36 53.6117 1280.98 53.233C1281.6 52.8504 1282.32 52.6591 1283.16 52.6591C1283.69 52.6591 1284.2 52.7462 1284.68 52.9205C1285.16 53.0909 1285.58 53.3561 1285.95 53.7159C1286.32 54.0758 1286.61 54.5341 1286.83 55.0909C1287.04 55.6439 1287.14 56.303 1287.14 57.0682V57.6989H1279.99V56.3125H1285.17C1285.17 55.9186 1285.08 55.5682 1284.92 55.2614C1284.75 54.9508 1284.52 54.7064 1284.22 54.5284C1283.92 54.3504 1283.58 54.2614 1283.18 54.2614C1282.76 54.2614 1282.39 54.3636 1282.08 54.5682C1281.76 54.7689 1281.51 55.0341 1281.33 55.3636C1281.16 55.6894 1281.07 56.0473 1281.07 56.4375V57.6477C1281.07 58.1553 1281.16 58.5909 1281.34 58.9545C1281.53 59.3144 1281.79 59.5909 1282.12 59.7841C1282.46 59.9735 1282.85 60.0682 1283.29 60.0682C1283.59 60.0682 1283.86 60.0265 1284.11 59.9432C1284.35 59.8561 1284.56 59.7292 1284.74 59.5625C1284.91 59.3958 1285.05 59.1894 1285.14 58.9432L1287.06 59.1591C1286.94 59.6667 1286.71 60.1098 1286.37 60.4886C1286.03 60.8636 1285.6 61.1553 1285.07 61.3636C1284.54 61.5682 1283.94 61.6705 1283.26 61.6705ZM1293.24 52.7727V54.3636H1288.23V52.7727H1293.24ZM1289.46 50.6818H1291.52V58.875C1291.52 59.1515 1291.56 59.3636 1291.65 59.5114C1291.73 59.6553 1291.85 59.7538 1291.99 59.8068C1292.13 59.8598 1292.28 59.8864 1292.45 59.8864C1292.58 59.8864 1292.7 59.8769 1292.81 59.858C1292.92 59.839 1293 59.822 1293.06 59.8068L1293.4 61.4148C1293.29 61.4527 1293.13 61.4943 1292.93 61.5398C1292.73 61.5852 1292.48 61.6117 1292.19 61.6193C1291.68 61.6345 1291.21 61.5568 1290.8 61.3864C1290.39 61.2121 1290.06 60.9432 1289.82 60.5795C1289.58 60.2159 1289.46 59.7614 1289.46 59.2159V50.6818ZM1299.44 55.6818C1299.44 54.2614 1299.63 52.9564 1300.01 51.767C1300.38 50.5739 1300.95 49.4716 1301.69 48.4602H1303.63C1303.34 48.8352 1303.07 49.2955 1302.82 49.8409C1302.57 50.3826 1302.36 50.9773 1302.17 51.625C1301.99 52.2689 1301.84 52.9375 1301.74 53.6307C1301.64 54.3239 1301.59 55.0076 1301.59 55.6818C1301.59 56.5795 1301.67 57.4886 1301.85 58.4091C1302.03 59.3295 1302.28 60.1837 1302.59 60.9716C1302.9 61.7557 1303.24 62.3977 1303.63 62.8977H1301.69C1300.95 61.8864 1300.38 60.786 1300.01 59.5966C1299.63 58.4034 1299.44 57.0985 1299.44 55.6818ZM1309.38 61.6591C1308.56 61.6591 1307.84 61.5189 1307.2 61.2386C1306.57 60.9583 1306.07 60.5682 1305.7 60.0682C1305.33 59.5682 1305.14 58.9905 1305.12 58.3352H1307.25C1307.27 58.6496 1307.37 58.9242 1307.56 59.1591C1307.75 59.3902 1308.01 59.5701 1308.32 59.6989C1308.63 59.8277 1308.99 59.892 1309.38 59.892C1309.79 59.892 1310.16 59.8201 1310.48 59.6761C1310.81 59.5284 1311.06 59.3239 1311.24 59.0625C1311.42 58.8011 1311.51 58.5 1311.51 58.1591C1311.51 57.8068 1311.42 57.4962 1311.23 57.2273C1311.05 56.9583 1310.78 56.7481 1310.43 56.5966C1310.08 56.4451 1309.66 56.3693 1309.17 56.3693H1308.14V54.7443H1309.17C1309.57 54.7443 1309.93 54.6742 1310.23 54.5341C1310.54 54.3939 1310.78 54.197 1310.95 53.9432C1311.12 53.6856 1311.21 53.3883 1311.21 53.0511C1311.21 52.7216 1311.14 52.4356 1310.98 52.1932C1310.84 51.947 1310.63 51.7557 1310.35 51.6193C1310.08 51.483 1309.77 51.4148 1309.4 51.4148C1309.05 51.4148 1308.72 51.4792 1308.42 51.608C1308.11 51.7367 1307.87 51.9205 1307.68 52.1591C1307.5 52.3939 1307.4 52.6742 1307.39 53H1305.36C1305.37 52.3485 1305.56 51.7765 1305.92 51.2841C1306.29 50.7879 1306.77 50.4015 1307.38 50.125C1307.98 49.8447 1308.66 49.7045 1309.42 49.7045C1310.19 49.7045 1310.87 49.8504 1311.44 50.142C1312.01 50.4299 1312.46 50.8182 1312.77 51.3068C1313.09 51.7955 1313.25 52.3352 1313.25 52.9261C1313.25 53.5814 1313.06 54.1307 1312.67 54.5739C1312.28 55.017 1311.77 55.3068 1311.14 55.4432V55.5341C1311.96 55.6477 1312.59 55.9508 1313.02 56.4432C1313.46 56.9318 1313.68 57.5398 1313.68 58.267C1313.68 58.9186 1313.49 59.5019 1313.12 60.017C1312.75 60.5284 1312.25 60.9299 1311.6 61.2216C1310.95 61.5133 1310.22 61.6591 1309.38 61.6591ZM1319.32 55.6818C1319.32 57.0985 1319.13 58.4034 1318.75 59.5966C1318.38 60.786 1317.82 61.8864 1317.07 62.8977H1315.13C1315.43 62.5227 1315.69 62.0644 1315.94 61.5227C1316.19 60.9811 1316.41 60.3864 1316.59 59.7386C1316.77 59.0909 1316.92 58.4205 1317.02 57.7273C1317.13 57.0341 1317.18 56.3523 1317.18 55.6818C1317.18 54.7841 1317.09 53.875 1316.91 52.9545C1316.73 52.0341 1316.48 51.1799 1316.17 50.392C1315.87 49.6042 1315.52 48.9602 1315.13 48.4602H1317.07C1317.82 49.4716 1318.38 50.5739 1318.75 51.767C1319.13 52.9564 1319.32 54.2614 1319.32 55.6818Z" fill="white"/>
</svg>
