<svg width="136" height="11" viewBox="0 0 136 11" fill="none" xmlns="http://www.w3.org/2000/svg">
<path d="M2.87358 10.1819L0 6.62804e-05H1.98366L3.81818 7.48231H3.91264L5.87145 6.62804e-05H7.67614L9.63992 7.48728H9.7294L11.5639 6.62804e-05H13.5476L10.674 10.1819H8.8544L6.81605 3.03771H6.73651L4.69318 10.1819H2.87358ZM15.3865 10.1819V6.62804e-05H17.231V4.31044H21.949V6.62804e-05H23.7985V10.1819H21.949V5.8566H17.231V10.1819H15.3865ZM27.672 10.1819H25.7033L29.2878 6.62804e-05H31.5648L35.1543 10.1819H33.1855L30.4661 2.08813H30.3865L27.672 10.1819ZM27.7367 6.1897H33.106V7.67123H27.7367V6.1897ZM35.3774 1.54623V6.62804e-05H43.501V1.54623H40.354V10.1819H38.5245V1.54623H35.3774ZM51.8025 10.1819L48.9289 6.62804e-05H50.9126L52.7471 7.48231H52.8415L54.8004 6.62804e-05H56.605L58.5688 7.48728H58.6583L60.4928 6.62804e-05H62.4765L59.6029 10.1819H57.7833L55.745 3.03771H55.6654L53.6221 10.1819H51.8025ZM64.3154 10.1819V6.62804e-05H70.9376V1.54623H66.1599V4.31044H70.5946V5.8566H66.1599V8.63572H70.9774V10.1819H64.3154ZM77.412 10.1819V6.62804e-05H81.3097C82.0455 6.62804e-05 82.657 0.11607 83.1442 0.348077C83.6348 0.576771 84.001 0.889981 84.243 1.28771C84.4882 1.68544 84.6109 2.13619 84.6109 2.63998C84.6109 3.05428 84.5313 3.40892 84.3722 3.7039C84.2131 3.99557 83.9994 4.23255 83.7309 4.41484C83.4624 4.59713 83.1625 4.72805 82.831 4.80759V4.90703C83.1923 4.92691 83.5387 5.03795 83.8701 5.24012C84.2048 5.43899 84.4783 5.72071 84.6904 6.08529C84.9025 6.44988 85.0086 6.89069 85.0086 7.40774C85.0086 7.93473 84.881 8.40868 84.6258 8.82961C84.3706 9.24723 83.9861 9.57701 83.4724 9.81896C82.9586 10.0609 82.3123 10.1819 81.5334 10.1819H77.412ZM79.2565 8.64069H81.2401C81.9096 8.64069 82.3919 8.51309 82.6869 8.25788C82.9852 7.99936 83.1343 7.66792 83.1343 7.26356C83.1343 6.96195 83.0597 6.69017 82.9106 6.44822C82.7614 6.20295 82.5493 6.01072 82.2742 5.87152C81.9991 5.729 81.671 5.65774 81.2898 5.65774H79.2565V8.64069ZM79.2565 4.33032H81.081C81.3992 4.33032 81.6859 4.27232 81.9411 4.15632C82.1963 4.037 82.3968 3.86962 82.5427 3.65419C82.6918 3.43544 82.7664 3.17691 82.7664 2.87862C82.7664 2.4842 82.6272 2.15939 82.3488 1.90419C82.0737 1.64898 81.6644 1.52137 81.1208 1.52137H79.2565V4.33032ZM87.1732 10.1819V6.62804e-05H93.7953V1.54623H89.0176V4.31044H93.4523V5.8566H89.0176V8.63572H93.8351V10.1819H87.1732ZM96.2371 10.1819V6.62804e-05H98.0815V8.63572H102.566V10.1819H96.2371ZM106.571 6.62804e-05V10.1819H104.727V6.62804e-05H106.571ZM109.129 10.1819V6.62804e-05H115.751V1.54623H110.973V4.31044H115.408V5.8566H110.973V8.63572H115.79V10.1819H109.129ZM119.555 6.62804e-05L122.205 8.01427H122.309L124.954 6.62804e-05H126.982L123.393 10.1819H121.116L117.531 6.62804e-05H119.555ZM128.883 10.1819V6.62804e-05H135.505V1.54623H130.728V4.31044H135.162V5.8566H130.728V8.63572H135.545V10.1819H128.883Z" fill="black"/>
</svg>
