<svg width="460" height="36" viewBox="0 0 460 36" fill="none" xmlns="http://www.w3.org/2000/svg">
<path d="M8.78476 3.78844H7.23362C7.17396 3.457 7.06293 3.16533 6.90052 2.91344C6.73812 2.66155 6.53926 2.44777 6.30393 2.27211C6.06861 2.09644 5.80512 1.96387 5.51345 1.87438C5.2251 1.78489 4.91852 1.74015 4.59371 1.74015C4.00706 1.74015 3.48173 1.88764 3.01771 2.18262C2.55701 2.4776 2.19243 2.91013 1.92396 3.4802C1.65881 4.05028 1.52623 4.7463 1.52623 5.56827C1.52623 6.39687 1.65881 7.09621 1.92396 7.66628C2.19243 8.23636 2.55867 8.66723 3.02268 8.9589C3.4867 9.25056 4.00872 9.3964 4.58873 9.3964C4.91023 9.3964 5.21515 9.35331 5.50351 9.26713C5.79517 9.17765 6.05867 9.04673 6.29399 8.87438C6.52931 8.70203 6.72818 8.49157 6.89058 8.24299C7.0563 7.99109 7.17065 7.70274 7.23362 7.37793L8.78476 7.3829C8.7019 7.88337 8.54115 8.34408 8.30251 8.765C8.06719 9.18262 7.76392 9.54389 7.39271 9.84881C7.02481 10.1504 6.60389 10.3841 6.12993 10.5498C5.65597 10.7155 5.13892 10.7984 4.57879 10.7984C3.69716 10.7984 2.91165 10.5896 2.22226 10.172C1.53286 9.75104 0.989302 9.14947 0.591575 8.36728C0.197162 7.58508 -4.43608e-05 6.65208 -4.43608e-05 5.56827C-4.43608e-05 4.48115 0.198819 3.54815 0.596547 2.76926C0.994274 1.98707 1.53783 1.38716 2.22723 0.969549C2.91662 0.548621 3.70048 0.338157 4.57879 0.338157C5.11904 0.338157 5.62282 0.416045 6.09015 0.571822C6.5608 0.724284 6.98338 0.949662 7.35791 1.24796C7.73244 1.54294 8.04233 1.90421 8.2876 2.33176C8.53286 2.75601 8.69858 3.24157 8.78476 3.78844ZM13.6549 10.8133C12.9025 10.8133 12.2545 10.6526 11.711 10.3311C11.1707 10.0062 10.7531 9.55051 10.4581 8.96387C10.1665 8.37391 10.0206 7.68285 10.0206 6.89071C10.0206 6.10852 10.1665 5.41912 10.4581 4.82253C10.7531 4.22594 11.1641 3.76027 11.6911 3.42551C12.2214 3.09076 12.8412 2.92338 13.5505 2.92338C13.9813 2.92338 14.399 2.99464 14.8033 3.13716C15.2077 3.27968 15.5706 3.5034 15.8921 3.80833C16.2136 4.11325 16.4671 4.50932 16.6527 4.99654C16.8384 5.48044 16.9312 6.06874 16.9312 6.76145V7.28844H10.8608V6.1748H15.4745C15.4745 5.78371 15.3949 5.43735 15.2358 5.13574C15.0768 4.83082 14.853 4.59052 14.5647 4.41486C14.2796 4.2392 13.9449 4.15137 13.5604 4.15137C13.1428 4.15137 12.7782 4.25411 12.4667 4.45961C12.1584 4.66178 11.9198 4.92694 11.7508 5.25506C11.585 5.57987 11.5022 5.93285 11.5022 6.31401V7.18404C11.5022 7.69445 11.5917 8.12864 11.7706 8.48659C11.9529 8.84455 12.2065 9.11799 12.5313 9.30691C12.8561 9.49251 13.2356 9.58532 13.6698 9.58532C13.9515 9.58532 14.2084 9.54554 14.4404 9.466C14.6724 9.38314 14.8729 9.26051 15.042 9.0981C15.211 8.93569 15.3402 8.73517 15.4297 8.49654L16.8367 8.75009C16.724 9.16439 16.5218 9.52731 16.2302 9.83887C15.9418 10.1471 15.5789 10.3874 15.1414 10.5597C14.7072 10.7288 14.2117 10.8133 13.6549 10.8133ZM19.927 6.12509V10.6592H18.4405V3.02282H19.8673V4.26571H19.9618C20.1375 3.86136 20.4125 3.53655 20.7871 3.29128C21.1649 3.04602 21.6405 2.92338 22.2139 2.92338C22.7343 2.92338 23.19 3.03276 23.5811 3.25151C23.9722 3.46694 24.2755 3.78844 24.4909 4.216C24.7063 4.64355 24.8141 5.1722 24.8141 5.80194V10.6592H23.3276V5.98091C23.3276 5.42741 23.1834 4.99488 22.895 4.68333C22.6067 4.36846 22.2106 4.21103 21.7068 4.21103C21.3621 4.21103 21.0555 4.2856 20.7871 4.43475C20.5219 4.5839 20.3115 4.80265 20.1557 5.091C20.0032 5.37604 19.927 5.72073 19.927 6.12509ZM30.2323 3.02282V4.216H26.0611V3.02282H30.2323ZM27.1797 1.19327H28.6662V8.41699C28.6662 8.70534 28.7093 8.92244 28.7955 9.06827C28.8817 9.21079 28.9927 9.30856 29.1286 9.36159C29.2678 9.41131 29.4186 9.43617 29.581 9.43617C29.7003 9.43617 29.8047 9.42788 29.8942 9.41131C29.9837 9.39474 30.0533 9.38148 30.103 9.37154L30.3715 10.5995C30.2853 10.6327 30.1627 10.6658 30.0036 10.699C29.8445 10.7354 29.6457 10.7553 29.407 10.7586C29.0159 10.7652 28.6513 10.6956 28.3133 10.5498C27.9752 10.404 27.7018 10.1786 27.493 9.87367C27.2841 9.56874 27.1797 9.18593 27.1797 8.72523V1.19327ZM31.7367 10.6592V3.02282H33.1734V4.23588H33.253C33.3922 3.8249 33.6375 3.50175 33.9888 3.26642C34.3434 3.02779 34.7445 2.90847 35.1919 2.90847C35.2847 2.90847 35.3941 2.91178 35.52 2.91841C35.6493 2.92504 35.7504 2.93333 35.8233 2.94327V4.36515C35.7636 4.34857 35.6576 4.33034 35.5051 4.31046C35.3527 4.28726 35.2002 4.27566 35.0477 4.27566C34.6964 4.27566 34.3832 4.35023 34.1081 4.49938C33.8363 4.64521 33.6209 4.84905 33.4618 5.11088C33.3027 5.36941 33.2232 5.66439 33.2232 5.99583V10.6592H31.7367ZM39.1236 10.8282C38.6397 10.8282 38.2022 10.7387 37.8111 10.5597C37.42 10.3775 37.1101 10.114 36.8815 9.76926C36.6561 9.42457 36.5434 9.00198 36.5434 8.50151C36.5434 8.07064 36.6262 7.716 36.792 7.43759C36.9577 7.15918 37.1814 6.93877 37.4631 6.77637C37.7449 6.61396 38.0597 6.49133 38.4077 6.40847C38.7557 6.32561 39.1104 6.26264 39.4717 6.21955C39.929 6.16652 40.3003 6.12343 40.5853 6.09029C40.8703 6.05383 41.0775 5.99583 41.2067 5.91628C41.336 5.83674 41.4006 5.70747 41.4006 5.5285V5.4937C41.4006 5.05951 41.278 4.7231 41.0327 4.48446C40.7908 4.24583 40.4295 4.12651 39.9489 4.12651C39.4485 4.12651 39.054 4.23754 38.7657 4.45961C38.4806 4.67836 38.2834 4.92196 38.1741 5.19043L36.7771 4.87225C36.9428 4.40823 37.1847 4.03371 37.5029 3.74867C37.8244 3.46032 38.194 3.25151 38.6116 3.12225C39.0292 2.98967 39.4683 2.92338 39.929 2.92338C40.234 2.92338 40.5571 2.95984 40.8985 3.03276C41.2432 3.10236 41.5647 3.23162 41.863 3.42054C42.1646 3.60946 42.4115 3.87959 42.6038 4.23091C42.796 4.57892 42.8921 5.03134 42.8921 5.58816V10.6592H41.4404V9.61515H41.3807C41.2846 9.80738 41.1404 9.9963 40.9482 10.1819C40.756 10.3675 40.5091 10.5216 40.2074 10.6443C39.9058 10.7669 39.5446 10.8282 39.1236 10.8282ZM39.4468 9.63503C39.8578 9.63503 40.2091 9.55383 40.5008 9.39142C40.7958 9.22902 41.0195 9.0169 41.1719 8.75506C41.3277 8.48991 41.4056 8.20653 41.4056 7.90492V6.92054C41.3526 6.97357 41.2498 7.02329 41.0974 7.06969C40.9482 7.11278 40.7775 7.15089 40.5853 7.18404C40.3931 7.21387 40.2058 7.24204 40.0235 7.26855C39.8412 7.29176 39.6887 7.31164 39.5661 7.32821C39.2778 7.36467 39.0143 7.42599 38.7756 7.51216C38.5403 7.59834 38.3514 7.72263 38.2089 7.88503C38.0697 8.04412 38.0001 8.25624 38.0001 8.5214C38.0001 8.88929 38.136 9.1677 38.4077 9.35662C38.6795 9.54223 39.0259 9.63503 39.4468 9.63503ZM46.2185 0.477361V10.6592H44.732V0.477361H46.2185ZM60.2194 3.78844H58.6683C58.6087 3.457 58.4976 3.16533 58.3352 2.91344C58.1728 2.66155 57.9739 2.44777 57.7386 2.27211C57.5033 2.09644 57.2398 1.96387 56.9481 1.87438C56.6598 1.78489 56.3532 1.74015 56.0284 1.74015C55.4417 1.74015 54.9164 1.88764 54.4524 2.18262C53.9917 2.4776 53.6271 2.91013 53.3586 3.4802C53.0935 4.05028 52.9609 4.7463 52.9609 5.56827C52.9609 6.39687 53.0935 7.09621 53.3586 7.66628C53.6271 8.23636 53.9934 8.66723 54.4574 8.9589C54.9214 9.25056 55.4434 9.3964 56.0234 9.3964C56.3449 9.3964 56.6498 9.35331 56.9382 9.26713C57.2299 9.17765 57.4934 9.04673 57.7287 8.87438C57.964 8.70203 58.1629 8.49157 58.3253 8.24299C58.491 7.99109 58.6053 7.70274 58.6683 7.37793L60.2194 7.3829C60.1366 7.88337 59.9758 8.34408 59.7372 8.765C59.5019 9.18262 59.1986 9.54389 58.8274 9.84881C58.4595 10.1504 58.0386 10.3841 57.5646 10.5498C57.0907 10.7155 56.5736 10.7984 56.0135 10.7984C55.1319 10.7984 54.3463 10.5896 53.6569 10.172C52.9676 9.75104 52.424 9.14947 52.0263 8.36728C51.6319 7.58508 51.4346 6.65208 51.4346 5.56827C51.4346 4.48115 51.6335 3.54815 52.0312 2.76926C52.429 1.98707 52.9725 1.38716 53.6619 0.969549C54.3513 0.548621 55.1352 0.338157 56.0135 0.338157C56.5537 0.338157 57.0575 0.416045 57.5248 0.571822C57.9955 0.724284 58.4181 0.949662 58.7926 1.24796C59.1671 1.54294 59.477 1.90421 59.7223 2.33176C59.9676 2.75601 60.1333 3.24157 60.2194 3.78844ZM64.0207 10.8282C63.5368 10.8282 63.0993 10.7387 62.7082 10.5597C62.3171 10.3775 62.0072 10.114 61.7785 9.76926C61.5531 9.42457 61.4404 9.00198 61.4404 8.50151C61.4404 8.07064 61.5233 7.716 61.689 7.43759C61.8547 7.15918 62.0784 6.93877 62.3602 6.77637C62.6419 6.61396 62.9568 6.49133 63.3048 6.40847C63.6528 6.32561 64.0074 6.26264 64.3687 6.21955C64.8261 6.16652 65.1973 6.12343 65.4823 6.09029C65.7674 6.05383 65.9745 5.99583 66.1038 5.91628C66.233 5.83674 66.2977 5.70747 66.2977 5.5285V5.4937C66.2977 5.05951 66.175 4.7231 65.9298 4.48446C65.6878 4.24583 65.3265 4.12651 64.846 4.12651C64.3455 4.12651 63.9511 4.23754 63.6627 4.45961C63.3777 4.67836 63.1805 4.92196 63.0711 5.19043L61.6741 4.87225C61.8398 4.40823 62.0818 4.03371 62.3999 3.74867C62.7214 3.46032 63.091 3.25151 63.5086 3.12225C63.9262 2.98967 64.3654 2.92338 64.8261 2.92338C65.131 2.92338 65.4542 2.95984 65.7955 3.03276C66.1402 3.10236 66.4617 3.23162 66.76 3.42054C67.0616 3.60946 67.3086 3.87959 67.5008 4.23091C67.693 4.57892 67.7891 5.03134 67.7891 5.58816V10.6592H66.3374V9.61515H66.2778C66.1817 9.80738 66.0375 9.9963 65.8452 10.1819C65.653 10.3675 65.4061 10.5216 65.1045 10.6443C64.8029 10.7669 64.4416 10.8282 64.0207 10.8282ZM64.3438 9.63503C64.7548 9.63503 65.1061 9.55383 65.3978 9.39142C65.6928 9.22902 65.9165 9.0169 66.069 8.75506C66.2247 8.48991 66.3026 8.20653 66.3026 7.90492V6.92054C66.2496 6.97357 66.1469 7.02329 65.9944 7.06969C65.8452 7.11278 65.6746 7.15089 65.4823 7.18404C65.2901 7.21387 65.1028 7.24204 64.9205 7.26855C64.7382 7.29176 64.5858 7.31164 64.4631 7.32821C64.1748 7.36467 63.9113 7.42599 63.6727 7.51216C63.4373 7.59834 63.2484 7.72263 63.1059 7.88503C62.9667 8.04412 62.8971 8.25624 62.8971 8.5214C62.8971 8.88929 63.033 9.1677 63.3048 9.35662C63.5765 9.54223 63.9229 9.63503 64.3438 9.63503ZM71.1156 0.477361V10.6592H69.6291V0.477361H71.1156ZM72.9754 10.6592V3.02282H74.4619V10.6592H72.9754ZM73.7261 1.84455C73.4676 1.84455 73.2455 1.75837 73.0599 1.58603C72.8776 1.41036 72.7865 1.20156 72.7865 0.959605C72.7865 0.71434 72.8776 0.505534 73.0599 0.333185C73.2455 0.157522 73.4676 0.0696908 73.7261 0.0696908C73.9846 0.0696908 74.205 0.157522 74.3873 0.333185C74.5729 0.505534 74.6657 0.71434 74.6657 0.959605C74.6657 1.20156 74.5729 1.41036 74.3873 1.58603C74.205 1.75837 73.9846 1.84455 73.7261 1.84455ZM79.956 3.02282V4.216H75.6406V3.02282H79.956ZM76.8239 10.6592V2.13787C76.8239 1.6606 76.9283 1.26453 77.1371 0.949663C77.3459 0.63148 77.6226 0.394501 77.9673 0.238725C78.312 0.0796338 78.6866 8.80957e-05 79.0909 8.80957e-05C79.3892 8.80957e-05 79.6444 0.0249463 79.8565 0.0746626C80.0687 0.121064 80.2261 0.164151 80.3288 0.203924L79.9808 1.40705C79.9112 1.38716 79.8217 1.36396 79.7124 1.33745C79.603 1.30762 79.4704 1.2927 79.3146 1.2927C78.9534 1.2927 78.6948 1.38219 78.5391 1.56117C78.3866 1.74015 78.3104 1.99867 78.3104 2.33674V10.6592H76.8239ZM84.2655 10.8133C83.5496 10.8133 82.9249 10.6492 82.3912 10.3211C81.8576 9.99299 81.4433 9.53394 81.1484 8.94398C80.8534 8.35402 80.7059 7.66462 80.7059 6.8758C80.7059 6.08366 80.8534 5.39095 81.1484 4.79767C81.4433 4.2044 81.8576 3.7437 82.3912 3.41557C82.9249 3.08745 83.5496 2.92338 84.2655 2.92338C84.9814 2.92338 85.6062 3.08745 86.1398 3.41557C86.6734 3.7437 87.0877 4.2044 87.3827 4.79767C87.6777 5.39095 87.8252 6.08366 87.8252 6.8758C87.8252 7.66462 87.6777 8.35402 87.3827 8.94398C87.0877 9.53394 86.6734 9.99299 86.1398 10.3211C85.6062 10.6492 84.9814 10.8133 84.2655 10.8133ZM84.2705 9.56543C84.7345 9.56543 85.119 9.4428 85.4239 9.19753C85.7288 8.95227 85.9542 8.6258 86.1001 8.21813C86.2492 7.81046 86.3238 7.36136 86.3238 6.87083C86.3238 6.38361 86.2492 5.93617 86.1001 5.5285C85.9542 5.11751 85.7288 4.78773 85.4239 4.53915C85.119 4.29057 84.7345 4.16628 84.2705 4.16628C83.8032 4.16628 83.4154 4.29057 83.1072 4.53915C82.8022 4.78773 82.5752 5.11751 82.426 5.5285C82.2802 5.93617 82.2073 6.38361 82.2073 6.87083C82.2073 7.36136 82.2802 7.81046 82.426 8.21813C82.5752 8.6258 82.8022 8.95227 83.1072 9.19753C83.4154 9.4428 83.8032 9.56543 84.2705 9.56543ZM89.3445 10.6592V3.02282H90.7813V4.23588H90.8608C91 3.8249 91.2453 3.50175 91.5966 3.26642C91.9512 3.02779 92.3523 2.90847 92.7997 2.90847C92.8925 2.90847 93.0019 2.91178 93.1278 2.91841C93.2571 2.92504 93.3582 2.93333 93.4311 2.94327V4.36515C93.3715 4.34857 93.2654 4.33034 93.1129 4.31046C92.9605 4.28726 92.808 4.27566 92.6555 4.27566C92.3042 4.27566 91.991 4.35023 91.7159 4.49938C91.4441 4.64521 91.2287 4.84905 91.0696 5.11088C90.9105 5.36941 90.831 5.66439 90.831 5.99583V10.6592H89.3445ZM96.064 6.12509V10.6592H94.5775V3.02282H96.0044V4.26571H96.0988C96.2745 3.86136 96.5496 3.53655 96.9241 3.29128C97.3019 3.04602 97.7776 2.92338 98.351 2.92338C98.8713 2.92338 99.327 3.03276 99.7181 3.25151C100.109 3.46694 100.413 3.78844 100.628 4.216C100.843 4.64355 100.951 5.1722 100.951 5.80194V10.6592H99.4646V5.98091C99.4646 5.42741 99.3204 4.99488 99.0321 4.68333C98.7437 4.36846 98.3476 4.21103 97.8438 4.21103C97.4992 4.21103 97.1926 4.2856 96.9241 4.43475C96.659 4.5839 96.4485 4.80265 96.2927 5.091C96.1403 5.37604 96.064 5.72073 96.064 6.12509ZM102.805 10.6592V3.02282H104.291V10.6592H102.805ZM103.555 1.84455C103.297 1.84455 103.075 1.75837 102.889 1.58603C102.707 1.41036 102.616 1.20156 102.616 0.959605C102.616 0.71434 102.707 0.505534 102.889 0.333185C103.075 0.157522 103.297 0.0696908 103.555 0.0696908C103.814 0.0696908 104.034 0.157522 104.217 0.333185C104.402 0.505534 104.495 0.71434 104.495 0.959605C104.495 1.20156 104.402 1.41036 104.217 1.58603C104.034 1.75837 103.814 1.84455 103.555 1.84455ZM108.373 10.8282C107.889 10.8282 107.452 10.7387 107.061 10.5597C106.67 10.3775 106.36 10.114 106.131 9.76926C105.906 9.42457 105.793 9.00198 105.793 8.50151C105.793 8.07064 105.876 7.716 106.042 7.43759C106.207 7.15918 106.431 6.93877 106.713 6.77637C106.995 6.61396 107.309 6.49133 107.657 6.40847C108.005 6.32561 108.36 6.26264 108.721 6.21955C109.179 6.16652 109.55 6.12343 109.835 6.09029C110.12 6.05383 110.327 5.99583 110.456 5.91628C110.586 5.83674 110.65 5.70747 110.65 5.5285V5.4937C110.65 5.05951 110.528 4.7231 110.282 4.48446C110.04 4.24583 109.679 4.12651 109.199 4.12651C108.698 4.12651 108.304 4.23754 108.015 4.45961C107.73 4.67836 107.533 4.92196 107.424 5.19043L106.027 4.87225C106.192 4.40823 106.434 4.03371 106.753 3.74867C107.074 3.46032 107.444 3.25151 107.861 3.12225C108.279 2.98967 108.718 2.92338 109.179 2.92338C109.484 2.92338 109.807 2.95984 110.148 3.03276C110.493 3.10236 110.814 3.23162 111.113 3.42054C111.414 3.60946 111.661 3.87959 111.853 4.23091C112.046 4.57892 112.142 5.03134 112.142 5.58816V10.6592H110.69V9.61515H110.63C110.534 9.80738 110.39 9.9963 110.198 10.1819C110.006 10.3675 109.759 10.5216 109.457 10.6443C109.156 10.7669 108.794 10.8282 108.373 10.8282ZM108.696 9.63503C109.107 9.63503 109.459 9.55383 109.75 9.39142C110.045 9.22902 110.269 9.0169 110.422 8.75506C110.577 8.48991 110.655 8.20653 110.655 7.90492V6.92054C110.602 6.97357 110.5 7.02329 110.347 7.06969C110.198 7.11278 110.027 7.15089 109.835 7.18404C109.643 7.21387 109.455 7.24204 109.273 7.26855C109.091 7.29176 108.938 7.31164 108.816 7.32821C108.527 7.36467 108.264 7.42599 108.025 7.51216C107.79 7.59834 107.601 7.72263 107.459 7.88503C107.319 8.04412 107.25 8.25624 107.25 8.5214C107.25 8.88929 107.386 9.1677 107.657 9.35662C107.929 9.54223 108.276 9.63503 108.696 9.63503ZM130.78 5.15066V5.98588H116.78V5.15066H130.78ZM135.173 1.31259V0.477361H142.556V1.31259H139.329V10.6592H138.4V1.31259H135.173ZM145.21 5.88645V10.6592H144.325V0.477361H145.21V4.22097H145.29C145.469 3.82656 145.745 3.51169 146.12 3.27637C146.498 3.04105 146.975 2.92338 147.552 2.92338C148.069 2.92338 148.523 3.02944 148.914 3.24157C149.305 3.45369 149.61 3.7669 149.829 4.1812C150.047 4.5955 150.157 5.10591 150.157 5.71245V10.6592H149.267V5.76713C149.267 5.1374 149.091 4.6419 148.74 4.28063C148.392 3.91604 147.921 3.73375 147.328 3.73375C146.92 3.73375 146.557 3.81993 146.239 3.99228C145.921 4.16462 145.669 4.4132 145.484 4.73801C145.301 5.05951 145.21 5.44232 145.21 5.88645ZM155.435 10.8183C154.722 10.8183 154.106 10.6526 153.585 10.3211C153.065 9.98636 152.662 9.524 152.377 8.93404C152.095 8.34076 151.954 7.658 151.954 6.88574C151.954 6.1168 152.095 5.43404 152.377 4.83745C152.662 4.23754 153.055 3.76855 153.555 3.43049C154.059 3.0891 154.641 2.91841 155.3 2.91841C155.715 2.91841 156.114 2.99464 156.499 3.14711C156.883 3.29625 157.228 3.5266 157.533 3.83816C157.841 4.1464 158.084 4.53584 158.263 5.00648C158.442 5.47381 158.532 6.02731 158.532 6.66699V7.10449H152.566V6.32395H157.627C157.627 5.83342 157.528 5.39261 157.329 5.00151C157.133 4.6071 156.86 4.29554 156.508 4.06685C156.16 3.83816 155.758 3.72381 155.3 3.72381C154.816 3.72381 154.391 3.85307 154.023 4.11159C153.655 4.37012 153.366 4.7115 153.158 5.13574C152.952 5.55998 152.848 6.024 152.844 6.52779V6.99512C152.844 7.60165 152.949 8.13195 153.158 8.58603C153.37 9.03678 153.67 9.38645 154.057 9.63503C154.445 9.88361 154.904 10.0079 155.435 10.0079C155.796 10.0079 156.112 9.95156 156.384 9.83887C156.659 9.72618 156.89 9.57537 157.075 9.38645C157.264 9.19422 157.407 8.98375 157.503 8.75506L158.343 9.0285C158.227 9.34999 158.036 9.64663 157.771 9.91841C157.509 10.1902 157.181 10.4089 156.787 10.5747C156.396 10.7371 155.945 10.8183 155.435 10.8183ZM164.14 13.5228V3.02282H165V4.47949H165.104C165.21 4.2508 165.356 4.01713 165.542 3.7785C165.727 3.53655 165.972 3.33271 166.277 3.16699C166.586 3.00127 166.973 2.91841 167.441 2.91841C168.07 2.91841 168.621 3.08413 169.091 3.41557C169.565 3.7437 169.933 4.2044 170.195 4.79767C170.46 5.38764 170.593 6.07537 170.593 6.86088C170.593 7.64971 170.46 8.34076 170.195 8.93404C169.933 9.52731 169.565 9.98967 169.091 10.3211C168.621 10.6526 168.074 10.8183 167.451 10.8183C166.99 10.8183 166.604 10.7354 166.292 10.5697C165.984 10.404 165.734 10.2001 165.542 9.95819C165.353 9.71292 165.207 9.47428 165.104 9.24228H165.024V13.5228H164.14ZM165.015 6.84597C165.015 7.46245 165.106 8.00932 165.288 8.48659C165.474 8.96055 165.739 9.33342 166.083 9.6052C166.431 9.87367 166.852 10.0079 167.346 10.0079C167.853 10.0079 168.281 9.8687 168.629 9.59029C168.98 9.30856 169.247 8.92907 169.429 8.45179C169.615 7.97452 169.708 7.43925 169.708 6.84597C169.708 6.25932 169.617 5.73068 169.434 5.26003C169.255 4.78939 168.99 4.41652 168.639 4.14142C168.287 3.86301 167.857 3.72381 167.346 3.72381C166.849 3.72381 166.426 3.85804 166.078 4.12651C165.73 4.39166 165.465 4.75956 165.283 5.2302C165.104 5.69753 165.015 6.23612 165.015 6.84597ZM175.481 10.8183C174.769 10.8183 174.152 10.6526 173.632 10.3211C173.112 9.98636 172.709 9.524 172.424 8.93404C172.142 8.34076 172.001 7.658 172.001 6.88574C172.001 6.1168 172.142 5.43404 172.424 4.83745C172.709 4.23754 173.102 3.76855 173.602 3.43049C174.106 3.0891 174.688 2.91841 175.347 2.91841C175.761 2.91841 176.161 2.99464 176.545 3.14711C176.93 3.29625 177.274 3.5266 177.579 3.83816C177.888 4.1464 178.131 4.53584 178.31 5.00648C178.489 5.47381 178.579 6.02731 178.579 6.66699V7.10449H172.613V6.32395H177.674C177.674 5.83342 177.574 5.39261 177.376 5.00151C177.18 4.6071 176.907 4.29554 176.555 4.06685C176.207 3.83816 175.805 3.72381 175.347 3.72381C174.863 3.72381 174.437 3.85307 174.069 4.11159C173.702 4.37012 173.413 4.7115 173.204 5.13574C172.999 5.55998 172.895 6.024 172.891 6.52779V6.99512C172.891 7.60165 172.996 8.13195 173.204 8.58603C173.417 9.03678 173.716 9.38645 174.104 9.63503C174.492 9.88361 174.951 10.0079 175.481 10.0079C175.843 10.0079 176.159 9.95156 176.431 9.83887C176.706 9.72618 176.936 9.57537 177.122 9.38645C177.311 9.19422 177.453 8.98375 177.55 8.75506L178.39 9.0285C178.274 9.34999 178.083 9.64663 177.818 9.91841C177.556 10.1902 177.228 10.4089 176.834 10.5747C176.443 10.7371 175.992 10.8183 175.481 10.8183ZM180.389 10.6592V3.02282H181.249V4.19611H181.314C181.466 3.81164 181.731 3.50175 182.109 3.26642C182.49 3.02779 182.921 2.90847 183.402 2.90847C183.475 2.90847 183.556 2.91013 183.645 2.91344C183.735 2.91676 183.809 2.92007 183.869 2.92338V3.82324C183.829 3.81661 183.76 3.80667 183.66 3.79341C183.561 3.78015 183.453 3.77353 183.337 3.77353C182.939 3.77353 182.585 3.85804 182.273 4.02708C181.965 4.1928 181.721 4.42315 181.542 4.71813C181.363 5.01311 181.274 5.34952 181.274 5.72736V10.6592H180.389ZM190.37 4.69824L189.559 4.92694C189.48 4.69824 189.367 4.49109 189.221 4.30549C189.075 4.11988 188.885 3.97239 188.65 3.86301C188.418 3.75364 188.129 3.69895 187.785 3.69895C187.267 3.69895 186.843 3.82158 186.512 4.06685C186.18 4.31212 186.015 4.62864 186.015 5.01642C186.015 5.34455 186.127 5.61136 186.353 5.81685C186.581 6.01903 186.933 6.17978 187.407 6.29909L188.56 6.58248C189.2 6.73825 189.679 6.98517 189.997 7.32324C190.318 7.66131 190.479 8.08555 190.479 8.59597C190.479 9.02684 190.36 9.40965 190.121 9.74441C189.883 10.0792 189.549 10.3427 189.122 10.5349C188.698 10.7238 188.205 10.8183 187.645 10.8183C186.9 10.8183 186.285 10.6509 185.801 10.3161C185.317 9.97807 185.007 9.49086 184.871 8.85449L185.721 8.64569C185.831 9.09976 186.044 9.4428 186.363 9.6748C186.684 9.90681 187.107 10.0228 187.63 10.0228C188.217 10.0228 188.686 9.8919 189.037 9.63006C189.389 9.36491 189.564 9.03347 189.564 8.63574C189.564 8.3275 189.462 8.06898 189.256 7.86017C189.051 7.64805 188.739 7.49228 188.321 7.39284L187.074 7.09455C186.411 6.93546 185.92 6.68356 185.602 6.33887C185.284 5.99417 185.125 5.56661 185.125 5.0562C185.125 4.63527 185.239 4.26571 185.468 3.94753C185.696 3.62604 186.011 3.37414 186.412 3.19185C186.813 3.00956 187.271 2.91841 187.785 2.91841C188.484 2.91841 189.042 3.0775 189.46 3.39568C189.881 3.71055 190.184 4.14474 190.37 4.69824ZM195.245 10.8183C194.585 10.8183 194.002 10.6509 193.495 10.3161C192.991 9.98139 192.597 9.51903 192.312 8.92907C192.027 8.33579 191.884 7.65137 191.884 6.8758C191.884 6.0936 192.027 5.40587 192.312 4.81259C192.597 4.216 192.991 3.75198 193.495 3.42054C194.002 3.08579 194.585 2.91841 195.245 2.91841C195.904 2.91841 196.486 3.08579 196.99 3.42054C197.494 3.7553 197.888 4.21931 198.173 4.81259C198.461 5.40587 198.606 6.0936 198.606 6.8758C198.606 7.65137 198.463 8.33579 198.178 8.92907C197.893 9.51903 197.497 9.98139 196.99 10.3161C196.486 10.6509 195.904 10.8183 195.245 10.8183ZM195.245 10.0079C195.775 10.0079 196.224 9.86538 196.592 9.58034C196.96 9.29531 197.238 8.91581 197.427 8.44185C197.62 7.96789 197.716 7.44587 197.716 6.8758C197.716 6.30572 197.62 5.78205 197.427 5.30478C197.238 4.8275 196.96 4.44469 196.592 4.15634C196.224 3.86799 195.775 3.72381 195.245 3.72381C194.718 3.72381 194.269 3.86799 193.898 4.15634C193.53 4.44469 193.25 4.8275 193.057 5.30478C192.868 5.78205 192.774 6.30572 192.774 6.8758C192.774 7.44587 192.868 7.96789 193.057 8.44185C193.25 8.91581 193.53 9.29531 193.898 9.58034C194.265 9.86538 194.715 10.0079 195.245 10.0079ZM201.293 5.88645V10.6592H200.408V3.02282H201.268V4.22097H201.348C201.527 3.82987 201.805 3.51666 202.183 3.28134C202.564 3.0427 203.035 2.92338 203.595 2.92338C204.109 2.92338 204.56 3.0311 204.947 3.24654C205.338 3.45866 205.642 3.77187 205.857 4.18617C206.076 4.60047 206.185 5.10923 206.185 5.71245V10.6592H205.3V5.76713C205.3 5.14071 205.125 4.64521 204.773 4.28063C204.425 3.91604 203.958 3.73375 203.371 3.73375C202.97 3.73375 202.614 3.81993 202.302 3.99228C201.991 4.16462 201.744 4.4132 201.562 4.73801C201.383 5.05951 201.293 5.44232 201.293 5.88645ZM213.869 10.6592L211.562 3.02282H212.496L214.306 9.32182H214.371L216.175 3.02282H217.115L218.905 9.30691H218.974L220.784 3.02282H221.719L219.412 10.6592H218.497L216.687 4.39995H216.593L214.783 10.6592H213.869ZM224.184 5.88645V10.6592H223.299V0.477361H224.184V4.22097H224.263C224.442 3.82656 224.719 3.51169 225.094 3.27637C225.471 3.04105 225.949 2.92338 226.525 2.92338C227.042 2.92338 227.496 3.02944 227.888 3.24157C228.279 3.45369 228.584 3.7669 228.802 4.1812C229.021 4.5955 229.13 5.10591 229.13 5.71245V10.6592H228.241V5.76713C228.241 5.1374 228.065 4.6419 227.714 4.28063C227.366 3.91604 226.895 3.73375 226.302 3.73375C225.894 3.73375 225.531 3.81993 225.213 3.99228C224.895 4.16462 224.643 4.4132 224.457 4.73801C224.275 5.05951 224.184 5.44232 224.184 5.88645ZM234.289 10.8183C233.629 10.8183 233.046 10.6509 232.539 10.3161C232.035 9.98139 231.641 9.51903 231.356 8.92907C231.071 8.33579 230.928 7.65137 230.928 6.8758C230.928 6.0936 231.071 5.40587 231.356 4.81259C231.641 4.216 232.035 3.75198 232.539 3.42054C233.046 3.08579 233.629 2.91841 234.289 2.91841C234.949 2.91841 235.53 3.08579 236.034 3.42054C236.538 3.7553 236.932 4.21931 237.217 4.81259C237.506 5.40587 237.65 6.0936 237.65 6.8758C237.65 7.65137 237.507 8.33579 237.222 8.92907C236.937 9.51903 236.541 9.98139 236.034 10.3161C235.53 10.6509 234.949 10.8183 234.289 10.8183ZM234.289 10.0079C234.819 10.0079 235.268 9.86538 235.636 9.58034C236.004 9.29531 236.283 8.91581 236.471 8.44185C236.664 7.96789 236.76 7.44587 236.76 6.8758C236.76 6.30572 236.664 5.78205 236.471 5.30478C236.283 4.8275 236.004 4.44469 235.636 4.15634C235.268 3.86799 234.819 3.72381 234.289 3.72381C233.762 3.72381 233.313 3.86799 232.942 4.15634C232.574 4.44469 232.294 4.8275 232.101 5.30478C231.913 5.78205 231.818 6.30572 231.818 6.8758C231.818 7.44587 231.913 7.96789 232.101 8.44185C232.294 8.91581 232.574 9.29531 232.942 9.58034C233.31 9.86538 233.759 10.0079 234.289 10.0079ZM246.163 13.6819C245.643 13.6819 245.187 13.614 244.796 13.4781C244.405 13.3455 244.075 13.1632 243.807 12.9312C243.538 12.6992 243.329 12.439 243.18 12.1507L243.906 11.6734C244.016 11.8656 244.161 12.0545 244.344 12.2401C244.529 12.4258 244.77 12.5799 245.065 12.7025C245.363 12.8251 245.729 12.8865 246.163 12.8865C246.839 12.8865 247.385 12.7174 247.799 12.3794C248.217 12.0413 248.425 11.516 248.425 10.8034V9.08319H248.346C248.243 9.31519 248.096 9.5472 247.903 9.77921C247.711 10.0079 247.459 10.1985 247.148 10.3509C246.839 10.5034 246.457 10.5796 245.999 10.5796C245.389 10.5796 244.847 10.4288 244.373 10.1272C243.903 9.82561 243.532 9.39474 243.26 8.83461C242.991 8.27116 242.857 7.59999 242.857 6.82111C242.857 6.04886 242.988 5.36941 243.25 4.78276C243.515 4.19611 243.885 3.73873 244.359 3.4106C244.833 3.08248 245.384 2.91841 246.014 2.91841C246.481 2.91841 246.869 3.00127 247.177 3.16699C247.486 3.3294 247.733 3.53158 247.918 3.77353C248.107 4.01548 248.255 4.2508 248.361 4.47949H248.45V3.02282H249.315V10.858C249.315 11.5044 249.178 12.0363 248.903 12.4539C248.628 12.8715 248.253 13.1798 247.779 13.3786C247.305 13.5808 246.766 13.6819 246.163 13.6819ZM246.104 9.76926C246.594 9.76926 247.013 9.6516 247.361 9.41628C247.709 9.17765 247.976 8.83626 248.162 8.39213C248.347 7.94801 248.44 7.41936 248.44 6.8062C248.44 6.20961 248.349 5.68096 248.167 5.22026C247.985 4.75624 247.719 4.39166 247.371 4.12651C247.027 3.85804 246.604 3.72381 246.104 3.72381C245.593 3.72381 245.162 3.86136 244.811 4.13645C244.46 4.41155 244.195 4.78276 244.016 5.25009C243.837 5.7141 243.747 6.23281 243.747 6.8062C243.747 7.38953 243.838 7.90492 244.021 8.35236C244.203 8.79649 244.47 9.1445 244.821 9.3964C245.172 9.64498 245.6 9.76926 246.104 9.76926ZM251.518 10.6592V3.02282H252.378V4.19611H252.443C252.595 3.81164 252.86 3.50175 253.238 3.26642C253.619 3.02779 254.05 2.90847 254.531 2.90847C254.604 2.90847 254.685 2.91013 254.775 2.91344C254.864 2.91676 254.939 2.92007 254.998 2.92338V3.82324C254.958 3.81661 254.889 3.80667 254.789 3.79341C254.69 3.78015 254.582 3.77353 254.466 3.77353C254.069 3.77353 253.714 3.85804 253.402 4.02708C253.094 4.1928 252.851 4.42315 252.672 4.71813C252.493 5.01311 252.403 5.34952 252.403 5.72736V10.6592H251.518ZM259.223 10.8183C258.511 10.8183 257.894 10.6526 257.374 10.3211C256.853 9.98636 256.451 9.524 256.166 8.93404C255.884 8.34076 255.743 7.658 255.743 6.88574C255.743 6.1168 255.884 5.43404 256.166 4.83745C256.451 4.23754 256.844 3.76855 257.344 3.43049C257.848 3.0891 258.429 2.91841 259.089 2.91841C259.503 2.91841 259.903 2.99464 260.287 3.14711C260.672 3.29625 261.016 3.5266 261.321 3.83816C261.63 4.1464 261.873 4.53584 262.052 5.00648C262.231 5.47381 262.321 6.02731 262.321 6.66699V7.10449H256.355V6.32395H261.416C261.416 5.83342 261.316 5.39261 261.117 5.00151C260.922 4.6071 260.648 4.29554 260.297 4.06685C259.949 3.83816 259.546 3.72381 259.089 3.72381C258.605 3.72381 258.179 3.85307 257.811 4.11159C257.443 4.37012 257.155 4.7115 256.946 5.13574C256.741 5.55998 256.636 6.024 256.633 6.52779V6.99512C256.633 7.60165 256.737 8.13195 256.946 8.58603C257.158 9.03678 257.458 9.38645 257.846 9.63503C258.234 9.88361 258.693 10.0079 259.223 10.0079C259.585 10.0079 259.901 9.95156 260.173 9.83887C260.448 9.72618 260.678 9.57537 260.864 9.38645C261.053 9.19422 261.195 8.98375 261.291 8.75506L262.132 9.0285C262.016 9.34999 261.825 9.64663 261.56 9.91841C261.298 10.1902 260.97 10.4089 260.576 10.5747C260.184 10.7371 259.734 10.8183 259.223 10.8183ZM265.826 10.6592L263.519 3.02282H264.454L266.264 9.32182H266.328L268.133 3.02282H269.072L270.862 9.30691H270.932L272.741 3.02282H273.676L271.369 10.6592H270.455L268.645 4.39995H268.55L266.741 10.6592H265.826ZM282.062 3.02282V3.79341H278.417V3.02282H282.062ZM279.556 1.19327H280.446V8.66557C280.446 8.98375 280.501 9.23399 280.61 9.41628C280.719 9.59526 280.862 9.72286 281.037 9.79909C281.213 9.87201 281.4 9.90847 281.599 9.90847C281.715 9.90847 281.815 9.90184 281.898 9.88858C281.98 9.87201 282.053 9.85544 282.116 9.83887L282.305 10.6393C282.219 10.6724 282.113 10.7023 281.987 10.7288C281.861 10.7586 281.705 10.7735 281.52 10.7735C281.195 10.7735 280.882 10.7023 280.58 10.5597C280.282 10.4172 280.037 10.2051 279.844 9.92338C279.652 9.64166 279.556 9.29199 279.556 8.87438V1.19327ZM284.98 5.88645V10.6592H284.095V0.477361H284.98V4.22097H285.06C285.239 3.82656 285.516 3.51169 285.89 3.27637C286.268 3.04105 286.745 2.92338 287.322 2.92338C287.839 2.92338 288.293 3.02944 288.684 3.24157C289.075 3.45369 289.38 3.7669 289.599 4.1812C289.818 4.5955 289.927 5.10591 289.927 5.71245V10.6592H289.037V5.76713C289.037 5.1374 288.862 4.6419 288.51 4.28063C288.162 3.91604 287.692 3.73375 287.098 3.73375C286.691 3.73375 286.328 3.81993 286.01 3.99228C285.691 4.16462 285.439 4.4132 285.254 4.73801C285.072 5.05951 284.98 5.44232 284.98 5.88645ZM295.205 10.8183C294.492 10.8183 293.876 10.6526 293.355 10.3211C292.835 9.98636 292.432 9.524 292.147 8.93404C291.866 8.34076 291.725 7.658 291.725 6.88574C291.725 6.1168 291.866 5.43404 292.147 4.83745C292.432 4.23754 292.825 3.76855 293.326 3.43049C293.829 3.0891 294.411 2.91841 295.071 2.91841C295.485 2.91841 295.884 2.99464 296.269 3.14711C296.653 3.29625 296.998 3.5266 297.303 3.83816C297.611 4.1464 297.855 4.53584 298.034 5.00648C298.213 5.47381 298.302 6.02731 298.302 6.66699V7.10449H292.336V6.32395H297.397C297.397 5.83342 297.298 5.39261 297.099 5.00151C296.904 4.6071 296.63 4.29554 296.279 4.06685C295.931 3.83816 295.528 3.72381 295.071 3.72381C294.587 3.72381 294.161 3.85307 293.793 4.11159C293.425 4.37012 293.137 4.7115 292.928 5.13574C292.722 5.55998 292.618 6.024 292.615 6.52779V6.99512C292.615 7.60165 292.719 8.13195 292.928 8.58603C293.14 9.03678 293.44 9.38645 293.828 9.63503C294.216 9.88361 294.675 10.0079 295.205 10.0079C295.566 10.0079 295.883 9.95156 296.155 9.83887C296.43 9.72618 296.66 9.57537 296.846 9.38645C297.034 9.19422 297.177 8.98375 297.273 8.75506L298.113 9.0285C297.997 9.34999 297.807 9.64663 297.542 9.91841C297.28 10.1902 296.952 10.4089 296.557 10.5747C296.166 10.7371 295.715 10.8183 295.205 10.8183ZM305.243 4.69824L304.433 4.92694C304.353 4.69824 304.24 4.49109 304.095 4.30549C303.949 4.11988 303.758 3.97239 303.523 3.86301C303.291 3.75364 303.002 3.69895 302.658 3.69895C302.141 3.69895 301.716 3.82158 301.385 4.06685C301.054 4.31212 300.888 4.62864 300.888 5.01642C300.888 5.34455 301.001 5.61136 301.226 5.81685C301.455 6.01903 301.806 6.17978 302.28 6.29909L303.433 6.58248C304.073 6.73825 304.552 6.98517 304.87 7.32324C305.192 7.66131 305.352 8.08555 305.352 8.59597C305.352 9.02684 305.233 9.40965 304.994 9.74441C304.756 10.0792 304.423 10.3427 303.995 10.5349C303.571 10.7238 303.079 10.8183 302.519 10.8183C301.773 10.8183 301.158 10.6509 300.674 10.3161C300.19 9.97807 299.88 9.49086 299.744 8.85449L300.595 8.64569C300.704 9.09976 300.918 9.4428 301.236 9.6748C301.557 9.90681 301.98 10.0228 302.504 10.0228C303.09 10.0228 303.559 9.8919 303.911 9.63006C304.262 9.36491 304.438 9.03347 304.438 8.63574C304.438 8.3275 304.335 8.06898 304.129 7.86017C303.924 7.64805 303.612 7.49228 303.195 7.39284L301.947 7.09455C301.284 6.93546 300.793 6.68356 300.475 6.33887C300.157 5.99417 299.998 5.56661 299.998 5.0562C299.998 4.63527 300.112 4.26571 300.341 3.94753C300.57 3.62604 300.885 3.37414 301.286 3.19185C301.687 3.00956 302.144 2.91841 302.658 2.91841C303.357 2.91841 303.916 3.0775 304.333 3.39568C304.754 3.71055 305.057 4.14474 305.243 4.69824ZM310.237 10.8183C309.525 10.8183 308.908 10.6526 308.388 10.3211C307.868 9.98636 307.465 9.524 307.18 8.93404C306.898 8.34076 306.757 7.658 306.757 6.88574C306.757 6.1168 306.898 5.43404 307.18 4.83745C307.465 4.23754 307.858 3.76855 308.358 3.43049C308.862 3.0891 309.444 2.91841 310.103 2.91841C310.517 2.91841 310.917 2.99464 311.301 3.14711C311.686 3.29625 312.031 3.5266 312.335 3.83816C312.644 4.1464 312.887 4.53584 313.066 5.00648C313.245 5.47381 313.335 6.02731 313.335 6.66699V7.10449H307.369V6.32395H312.43C312.43 5.83342 312.33 5.39261 312.132 5.00151C311.936 4.6071 311.663 4.29554 311.311 4.06685C310.963 3.83816 310.561 3.72381 310.103 3.72381C309.619 3.72381 309.193 3.85307 308.826 4.11159C308.458 4.37012 308.169 4.7115 307.96 5.13574C307.755 5.55998 307.651 6.024 307.647 6.52779V6.99512C307.647 7.60165 307.752 8.13195 307.96 8.58603C308.173 9.03678 308.473 9.38645 308.86 9.63503C309.248 9.88361 309.707 10.0079 310.237 10.0079C310.599 10.0079 310.915 9.95156 311.187 9.83887C311.462 9.72618 311.692 9.57537 311.878 9.38645C312.067 9.19422 312.209 8.98375 312.306 8.75506L313.146 9.0285C313.03 9.34999 312.839 9.64663 312.574 9.91841C312.312 10.1902 311.984 10.4089 311.59 10.5747C311.199 10.7371 310.748 10.8183 310.237 10.8183ZM320.638 10.6592L318.331 3.02282H319.265L321.075 9.32182H321.14L322.944 3.02282H323.884L325.674 9.30691H325.743L327.553 3.02282H328.488L326.181 10.6592H325.266L323.457 4.39995H323.362L321.552 10.6592H320.638ZM332.201 10.8332C331.74 10.8332 331.319 10.7437 330.938 10.5647C330.557 10.3824 330.254 10.1206 330.028 9.77921C329.803 9.43451 329.69 9.0169 329.69 8.52637C329.69 8.14853 329.761 7.83034 329.904 7.57182C330.046 7.3133 330.249 7.10118 330.51 6.93546C330.772 6.76974 331.082 6.63882 331.44 6.5427C331.798 6.44658 332.192 6.37201 332.623 6.31898C333.051 6.26595 333.412 6.21955 333.707 6.17978C334.005 6.14 334.232 6.07703 334.388 5.99086C334.544 5.90468 334.622 5.76548 334.622 5.57324V5.39426C334.622 4.87391 334.466 4.46458 334.155 4.16628C333.846 3.86467 333.402 3.71387 332.822 3.71387C332.272 3.71387 331.823 3.83484 331.475 4.07679C331.13 4.31874 330.888 4.60378 330.749 4.93191L329.909 4.62864C330.081 4.21103 330.32 3.87793 330.625 3.62935C330.93 3.37746 331.271 3.19682 331.649 3.08745C332.027 2.97476 332.41 2.91841 332.797 2.91841C333.089 2.91841 333.392 2.95653 333.707 3.03276C334.025 3.10899 334.32 3.24157 334.592 3.43049C334.864 3.61609 335.084 3.87627 335.253 4.21103C335.422 4.54247 335.507 4.96339 335.507 5.47381V10.6592H334.622V9.45108H334.567C334.461 9.67646 334.304 9.89521 334.095 10.1073C333.886 10.3195 333.624 10.4935 333.309 10.6294C332.995 10.7652 332.625 10.8332 332.201 10.8332ZM332.32 10.0228C332.791 10.0228 333.198 9.91841 333.543 9.70961C333.888 9.5008 334.153 9.22405 334.339 8.87935C334.527 8.53134 334.622 8.14853 334.622 7.73091V6.62722C334.556 6.69019 334.445 6.74654 334.289 6.79625C334.136 6.84597 333.959 6.89071 333.757 6.93049C333.558 6.96694 333.359 6.99843 333.16 7.02495C332.961 7.05146 332.782 7.07466 332.623 7.09455C332.192 7.14758 331.825 7.23044 331.52 7.34313C331.215 7.45582 330.981 7.61159 330.819 7.81046C330.656 8.00601 330.575 8.2579 330.575 8.56614C330.575 9.03016 330.741 9.38977 331.072 9.64498C331.404 9.89687 331.82 10.0228 332.32 10.0228ZM342.852 4.69824L342.041 4.92694C341.962 4.69824 341.849 4.49109 341.703 4.30549C341.557 4.11988 341.367 3.97239 341.131 3.86301C340.899 3.75364 340.611 3.69895 340.266 3.69895C339.749 3.69895 339.325 3.82158 338.994 4.06685C338.662 4.31212 338.497 4.62864 338.497 5.01642C338.497 5.34455 338.609 5.61136 338.835 5.81685C339.063 6.01903 339.415 6.17978 339.889 6.29909L341.042 6.58248C341.682 6.73825 342.161 6.98517 342.479 7.32324C342.8 7.66131 342.961 8.08555 342.961 8.59597C342.961 9.02684 342.842 9.40965 342.603 9.74441C342.364 10.0792 342.031 10.3427 341.604 10.5349C341.18 10.7238 340.687 10.8183 340.127 10.8183C339.381 10.8183 338.767 10.6509 338.283 10.3161C337.799 9.97807 337.489 9.49086 337.353 8.85449L338.203 8.64569C338.313 9.09976 338.526 9.4428 338.845 9.6748C339.166 9.90681 339.589 10.0228 340.112 10.0228C340.699 10.0228 341.168 9.8919 341.519 9.63006C341.871 9.36491 342.046 9.03347 342.046 8.63574C342.046 8.3275 341.943 8.06898 341.738 7.86017C341.532 7.64805 341.221 7.49228 340.803 7.39284L339.555 7.09455C338.893 6.93546 338.402 6.68356 338.084 6.33887C337.766 5.99417 337.607 5.56661 337.607 5.0562C337.607 4.63527 337.721 4.26571 337.95 3.94753C338.178 3.62604 338.493 3.37414 338.894 3.19185C339.295 3.00956 339.753 2.91841 340.266 2.91841C340.966 2.91841 341.524 3.0775 341.942 3.39568C342.363 3.71055 342.666 4.14474 342.852 4.69824ZM349.441 0.477361V10.6592H348.556V0.477361H349.441ZM354.611 10.8183C353.951 10.8183 353.368 10.6509 352.861 10.3161C352.357 9.98139 351.963 9.51903 351.678 8.92907C351.392 8.33579 351.25 7.65137 351.25 6.8758C351.25 6.0936 351.392 5.40587 351.678 4.81259C351.963 4.216 352.357 3.75198 352.861 3.42054C353.368 3.08579 353.951 2.91841 354.611 2.91841C355.27 2.91841 355.852 3.08579 356.356 3.42054C356.86 3.7553 357.254 4.21931 357.539 4.81259C357.827 5.40587 357.972 6.0936 357.972 6.8758C357.972 7.65137 357.829 8.33579 357.544 8.92907C357.259 9.51903 356.863 9.98139 356.356 10.3161C355.852 10.6509 355.27 10.8183 354.611 10.8183ZM354.611 10.0079C355.141 10.0079 355.59 9.86538 355.958 9.58034C356.326 9.29531 356.604 8.91581 356.793 8.44185C356.986 7.96789 357.082 7.44587 357.082 6.8758C357.082 6.30572 356.986 5.78205 356.793 5.30478C356.604 4.8275 356.326 4.44469 355.958 4.15634C355.59 3.86799 355.141 3.72381 354.611 3.72381C354.084 3.72381 353.635 3.86799 353.263 4.15634C352.896 4.44469 352.615 4.8275 352.423 5.30478C352.234 5.78205 352.14 6.30572 352.14 6.8758C352.14 7.44587 352.234 7.96789 352.423 8.44185C352.615 8.91581 352.896 9.29531 353.263 9.58034C353.631 9.86538 354.08 10.0079 354.611 10.0079ZM362.757 10.8183C362.074 10.8183 361.479 10.6476 360.972 10.3062C360.469 9.96481 360.077 9.49748 359.799 8.90421C359.521 8.31093 359.381 7.6348 359.381 6.8758C359.381 6.11017 359.522 5.42907 359.804 4.83248C360.089 4.23588 360.483 3.76855 360.987 3.43049C361.491 3.0891 362.076 2.91841 362.742 2.91841C363.253 2.91841 363.715 3.01784 364.129 3.21671C364.544 3.41226 364.885 3.68901 365.153 4.04696C365.425 4.4016 365.596 4.8159 365.666 5.28986H364.771C364.678 4.85899 364.454 4.49109 364.099 4.18617C363.748 3.87793 363.301 3.72381 362.757 3.72381C362.27 3.72381 361.839 3.85639 361.465 4.12154C361.09 4.38337 360.797 4.74962 360.585 5.22026C360.376 5.68759 360.271 6.22949 360.271 6.84597C360.271 7.46576 360.374 8.01429 360.58 8.49157C360.785 8.96552 361.073 9.33674 361.445 9.6052C361.819 9.87367 362.257 10.0079 362.757 10.0079C363.095 10.0079 363.403 9.94493 363.682 9.81898C363.964 9.68972 364.199 9.50743 364.388 9.27211C364.58 9.03678 364.709 8.75672 364.776 8.43191H365.67C365.604 8.89261 365.44 9.30359 365.178 9.66486C364.92 10.0228 364.583 10.3045 364.169 10.51C363.758 10.7155 363.287 10.8183 362.757 10.8183ZM369.56 10.8332C369.099 10.8332 368.678 10.7437 368.297 10.5647C367.916 10.3824 367.613 10.1206 367.387 9.77921C367.162 9.43451 367.049 9.0169 367.049 8.52637C367.049 8.14853 367.121 7.83034 367.263 7.57182C367.406 7.3133 367.608 7.10118 367.87 6.93546C368.131 6.76974 368.441 6.63882 368.799 6.5427C369.157 6.44658 369.552 6.37201 369.983 6.31898C370.41 6.26595 370.771 6.21955 371.066 6.17978C371.365 6.14 371.592 6.07703 371.747 5.99086C371.903 5.90468 371.981 5.76548 371.981 5.57324V5.39426C371.981 4.87391 371.825 4.46458 371.514 4.16628C371.206 3.86467 370.761 3.71387 370.181 3.71387C369.631 3.71387 369.182 3.83484 368.834 4.07679C368.489 4.31874 368.247 4.60378 368.108 4.93191L367.268 4.62864C367.44 4.21103 367.679 3.87793 367.984 3.62935C368.289 3.37746 368.63 3.19682 369.008 3.08745C369.386 2.97476 369.769 2.91841 370.157 2.91841C370.448 2.91841 370.752 2.95653 371.066 3.03276C371.385 3.10899 371.68 3.24157 371.951 3.43049C372.223 3.61609 372.444 3.87627 372.613 4.21103C372.782 4.54247 372.866 4.96339 372.866 5.47381V10.6592H371.981V9.45108H371.926C371.82 9.67646 371.663 9.89521 371.454 10.1073C371.245 10.3195 370.984 10.4935 370.669 10.6294C370.354 10.7652 369.984 10.8332 369.56 10.8332ZM369.679 10.0228C370.15 10.0228 370.558 9.91841 370.902 9.70961C371.247 9.5008 371.512 9.22405 371.698 8.87935C371.887 8.53134 371.981 8.14853 371.981 7.73091V6.62722C371.915 6.69019 371.804 6.74654 371.648 6.79625C371.496 6.84597 371.318 6.89071 371.116 6.93049C370.917 6.96694 370.718 6.99843 370.52 7.02495C370.321 7.05146 370.142 7.07466 369.983 7.09455C369.552 7.14758 369.184 7.23044 368.879 7.34313C368.574 7.45582 368.34 7.61159 368.178 7.81046C368.015 8.00601 367.934 8.2579 367.934 8.56614C367.934 9.03016 368.1 9.38977 368.431 9.64498C368.763 9.89687 369.179 10.0228 369.679 10.0228ZM378.088 3.02282V3.79341H374.444V3.02282H378.088ZM375.582 1.19327H376.472V8.66557C376.472 8.98375 376.527 9.23399 376.636 9.41628C376.746 9.59526 376.888 9.72286 377.064 9.79909C377.239 9.87201 377.427 9.90847 377.626 9.90847C377.742 9.90847 377.841 9.90184 377.924 9.88858C378.007 9.87201 378.08 9.85544 378.143 9.83887L378.332 10.6393C378.245 10.6724 378.139 10.7023 378.013 10.7288C377.887 10.7586 377.732 10.7735 377.546 10.7735C377.221 10.7735 376.908 10.7023 376.606 10.5597C376.308 10.4172 376.063 10.2051 375.871 9.92338C375.678 9.64166 375.582 9.29199 375.582 8.87438V1.19327ZM382.963 10.8183C382.25 10.8183 381.634 10.6526 381.114 10.3211C380.593 9.98636 380.191 9.524 379.906 8.93404C379.624 8.34076 379.483 7.658 379.483 6.88574C379.483 6.1168 379.624 5.43404 379.906 4.83745C380.191 4.23754 380.583 3.76855 381.084 3.43049C381.588 3.0891 382.169 2.91841 382.829 2.91841C383.243 2.91841 383.642 2.99464 384.027 3.14711C384.411 3.29625 384.756 3.5266 385.061 3.83816C385.369 4.1464 385.613 4.53584 385.792 5.00648C385.971 5.47381 386.06 6.02731 386.06 6.66699V7.10449H380.094V6.32395H385.156C385.156 5.83342 385.056 5.39261 384.857 5.00151C384.662 4.6071 384.388 4.29554 384.037 4.06685C383.689 3.83816 383.286 3.72381 382.829 3.72381C382.345 3.72381 381.919 3.85307 381.551 4.11159C381.183 4.37012 380.895 4.7115 380.686 5.13574C380.481 5.55998 380.376 6.024 380.373 6.52779V6.99512C380.373 7.60165 380.477 8.13195 380.686 8.58603C380.898 9.03678 381.198 9.38645 381.586 9.63503C381.974 9.88361 382.433 10.0079 382.963 10.0079C383.324 10.0079 383.641 9.95156 383.913 9.83887C384.188 9.72618 384.418 9.57537 384.604 9.38645C384.793 9.19422 384.935 8.98375 385.031 8.75506L385.871 9.0285C385.755 9.34999 385.565 9.64663 385.3 9.91841C385.038 10.1902 384.71 10.4089 384.315 10.5747C383.924 10.7371 383.473 10.8183 382.963 10.8183ZM390.62 10.8183C389.993 10.8183 389.445 10.6526 388.974 10.3211C388.503 9.98967 388.136 9.52731 387.87 8.93404C387.609 8.34076 387.478 7.64971 387.478 6.86088C387.478 6.07537 387.609 5.38764 387.87 4.79767C388.136 4.2044 388.505 3.7437 388.979 3.41557C389.453 3.08413 390.005 2.91841 390.635 2.91841C391.099 2.91841 391.485 3.00127 391.793 3.16699C392.101 3.3294 392.348 3.53158 392.534 3.77353C392.719 4.01548 392.864 4.2508 392.966 4.47949H393.046V0.477361H393.936V10.6592H393.071V9.24228H392.966C392.864 9.47428 392.718 9.71292 392.529 9.95819C392.34 10.2001 392.09 10.404 391.778 10.5697C391.47 10.7354 391.084 10.8183 390.62 10.8183ZM390.724 10.0079C391.218 10.0079 391.639 9.87367 391.987 9.6052C392.335 9.33342 392.6 8.96055 392.782 8.48659C392.968 8.00932 393.061 7.46245 393.061 6.84597C393.061 6.23612 392.97 5.69753 392.787 5.2302C392.605 4.75956 392.34 4.39166 391.992 4.12651C391.644 3.85804 391.221 3.72381 390.724 3.72381C390.214 3.72381 389.783 3.86301 389.432 4.14142C389.084 4.41652 388.818 4.78939 388.636 5.26003C388.457 5.73068 388.368 6.25932 388.368 6.84597C388.368 7.43925 388.459 7.97452 388.641 8.45179C388.823 8.92907 389.088 9.30856 389.436 9.59029C389.788 9.8687 390.217 10.0079 390.724 10.0079ZM400.124 10.6592V3.02282H401.014V10.6592H400.124ZM400.576 1.71032C400.394 1.71032 400.238 1.649 400.109 1.52637C399.98 1.40042 399.915 1.24962 399.915 1.07395C399.915 0.898289 399.98 0.749142 400.109 0.626509C400.238 0.500562 400.394 0.437588 400.576 0.437588C400.759 0.437588 400.914 0.500562 401.044 0.626509C401.173 0.749142 401.237 0.898289 401.237 1.07395C401.237 1.24962 401.173 1.40042 401.044 1.52637C400.914 1.649 400.759 1.71032 400.576 1.71032ZM404.099 5.88645V10.6592H403.214V3.02282H404.074V4.22097H404.154C404.333 3.82987 404.611 3.51666 404.989 3.28134C405.37 3.0427 405.841 2.92338 406.401 2.92338C406.915 2.92338 407.365 3.0311 407.753 3.24654C408.144 3.45866 408.448 3.77187 408.663 4.18617C408.882 4.60047 408.991 5.10923 408.991 5.71245V10.6592H408.106V5.76713C408.106 5.14071 407.931 4.64521 407.579 4.28063C407.231 3.91604 406.764 3.73375 406.177 3.73375C405.776 3.73375 405.42 3.81993 405.108 3.99228C404.797 4.16462 404.55 4.4132 404.368 4.73801C404.189 5.05951 404.099 5.44232 404.099 5.88645ZM423.137 3.65918H422.203C422.133 3.31117 422.007 2.98967 421.825 2.69469C421.646 2.3964 421.421 2.13622 421.149 1.91415C420.877 1.69209 420.569 1.51974 420.224 1.39711C419.879 1.27447 419.507 1.21316 419.105 1.21316C418.462 1.21316 417.876 1.38053 417.346 1.71529C416.819 2.05004 416.396 2.54223 416.078 3.19185C415.763 3.83816 415.605 4.6303 415.605 5.56827C415.605 6.51287 415.763 7.30833 416.078 7.95463C416.396 8.60094 416.819 9.09147 417.346 9.42623C417.876 9.75766 418.462 9.92338 419.105 9.92338C419.507 9.92338 419.879 9.86207 420.224 9.73944C420.569 9.6168 420.877 9.44611 421.149 9.22736C421.421 9.0053 421.646 8.74512 421.825 8.44682C422.007 8.14853 422.133 7.82537 422.203 7.47736H423.137C423.055 7.94469 422.899 8.38053 422.67 8.78489C422.445 9.18593 422.156 9.53726 421.805 9.83887C421.457 10.1405 421.056 10.3758 420.602 10.5448C420.148 10.7139 419.649 10.7984 419.105 10.7984C418.25 10.7984 417.491 10.5846 416.828 10.157C416.166 9.72618 415.645 9.11964 415.267 8.33745C414.893 7.55525 414.706 6.63219 414.706 5.56827C414.706 4.50435 414.893 3.58129 415.267 2.79909C415.645 2.0169 416.166 1.41202 416.828 0.984463C417.491 0.553592 418.25 0.338157 419.105 0.338157C419.649 0.338157 420.148 0.422674 420.602 0.591708C421.056 0.757428 421.457 0.99275 421.805 1.29767C422.156 1.59928 422.445 1.95061 422.67 2.35165C422.899 2.75269 423.055 3.18854 423.137 3.65918ZM428.085 10.8183C427.372 10.8183 426.756 10.6526 426.235 10.3211C425.715 9.98636 425.312 9.524 425.027 8.93404C424.745 8.34076 424.604 7.658 424.604 6.88574C424.604 6.1168 424.745 5.43404 425.027 4.83745C425.312 4.23754 425.705 3.76855 426.205 3.43049C426.709 3.0891 427.291 2.91841 427.95 2.91841C428.365 2.91841 428.764 2.99464 429.149 3.14711C429.533 3.29625 429.878 3.5266 430.183 3.83816C430.491 4.1464 430.734 4.53584 430.913 5.00648C431.092 5.47381 431.182 6.02731 431.182 6.66699V7.10449H425.216V6.32395H430.277C430.277 5.83342 430.178 5.39261 429.979 5.00151C429.783 4.6071 429.51 4.29554 429.158 4.06685C428.81 3.83816 428.408 3.72381 427.95 3.72381C427.466 3.72381 427.041 3.85307 426.673 4.11159C426.305 4.37012 426.016 4.7115 425.808 5.13574C425.602 5.55998 425.498 6.024 425.494 6.52779V6.99512C425.494 7.60165 425.599 8.13195 425.808 8.58603C426.02 9.03678 426.32 9.38645 426.707 9.63503C427.095 9.88361 427.554 10.0079 428.085 10.0079C428.446 10.0079 428.762 9.95156 429.034 9.83887C429.309 9.72618 429.54 9.57537 429.725 9.38645C429.914 9.19422 430.057 8.98375 430.153 8.75506L430.993 9.0285C430.877 9.34999 430.686 9.64663 430.421 9.91841C430.159 10.1902 429.831 10.4089 429.437 10.5747C429.046 10.7371 428.595 10.8183 428.085 10.8183ZM433.877 5.88645V10.6592H432.992V3.02282H433.852V4.22097H433.932C434.111 3.82987 434.389 3.51666 434.767 3.28134C435.148 3.0427 435.619 2.92338 436.179 2.92338C436.693 2.92338 437.143 3.0311 437.531 3.24654C437.922 3.45866 438.225 3.77187 438.441 4.18617C438.66 4.60047 438.769 5.10923 438.769 5.71245V10.6592H437.884V5.76713C437.884 5.14071 437.708 4.64521 437.357 4.28063C437.009 3.91604 436.542 3.73375 435.955 3.73375C435.554 3.73375 435.198 3.81993 434.886 3.99228C434.575 4.16462 434.328 4.4132 434.145 4.73801C433.966 5.05951 433.877 5.44232 433.877 5.88645ZM443.967 3.02282V3.79341H440.323V3.02282H443.967ZM441.462 1.19327H442.351V8.66557C442.351 8.98375 442.406 9.23399 442.516 9.41628C442.625 9.59526 442.767 9.72286 442.943 9.79909C443.119 9.87201 443.306 9.90847 443.505 9.90847C443.621 9.90847 443.72 9.90184 443.803 9.88858C443.886 9.87201 443.959 9.85544 444.022 9.83887L444.211 10.6393C444.125 10.6724 444.019 10.7023 443.893 10.7288C443.767 10.7586 443.611 10.7735 443.425 10.7735C443.101 10.7735 442.787 10.7023 442.486 10.5597C442.187 10.4172 441.942 10.2051 441.75 9.92338C441.558 9.64166 441.462 9.29199 441.462 8.87438V1.19327ZM445.837 10.6592V3.02282H446.697V4.19611H446.762C446.914 3.81164 447.179 3.50175 447.557 3.26642C447.938 3.02779 448.369 2.90847 448.85 2.90847C448.923 2.90847 449.004 2.91013 449.093 2.91344C449.183 2.91676 449.257 2.92007 449.317 2.92338V3.82324C449.277 3.81661 449.208 3.80667 449.108 3.79341C449.009 3.78015 448.901 3.77353 448.785 3.77353C448.387 3.77353 448.033 3.85804 447.721 4.02708C447.413 4.1928 447.169 4.42315 446.99 4.71813C446.811 5.01311 446.722 5.34952 446.722 5.72736V10.6592H445.837ZM452.82 10.8332C452.359 10.8332 451.938 10.7437 451.557 10.5647C451.176 10.3824 450.873 10.1206 450.647 9.77921C450.422 9.43451 450.309 9.0169 450.309 8.52637C450.309 8.14853 450.381 7.83034 450.523 7.57182C450.666 7.3133 450.868 7.10118 451.13 6.93546C451.392 6.76974 451.701 6.63882 452.059 6.5427C452.417 6.44658 452.812 6.37201 453.243 6.31898C453.67 6.26595 454.031 6.21955 454.326 6.17978C454.625 6.14 454.852 6.07703 455.008 5.99086C455.163 5.90468 455.241 5.76548 455.241 5.57324V5.39426C455.241 4.87391 455.085 4.46458 454.774 4.16628C454.466 3.86467 454.022 3.71387 453.442 3.71387C452.891 3.71387 452.442 3.83484 452.094 4.07679C451.75 4.31874 451.508 4.60378 451.368 4.93191L450.528 4.62864C450.701 4.21103 450.939 3.87793 451.244 3.62935C451.549 3.37746 451.89 3.19682 452.268 3.08745C452.646 2.97476 453.029 2.91841 453.417 2.91841C453.708 2.91841 454.012 2.95653 454.326 3.03276C454.645 3.10899 454.94 3.24157 455.211 3.43049C455.483 3.61609 455.704 3.87627 455.873 4.21103C456.042 4.54247 456.126 4.96339 456.126 5.47381V10.6592H455.241V9.45108H455.187C455.08 9.67646 454.923 9.89521 454.714 10.1073C454.505 10.3195 454.244 10.4935 453.929 10.6294C453.614 10.7652 453.244 10.8332 452.82 10.8332ZM452.939 10.0228C453.41 10.0228 453.818 9.91841 454.162 9.70961C454.507 9.5008 454.772 9.22405 454.958 8.87935C455.147 8.53134 455.241 8.14853 455.241 7.73091V6.62722C455.175 6.69019 455.064 6.74654 454.908 6.79625C454.756 6.84597 454.578 6.89071 454.376 6.93049C454.177 6.96694 453.978 6.99843 453.78 7.02495C453.581 7.05146 453.402 7.07466 453.243 7.09455C452.812 7.14758 452.444 7.23044 452.139 7.34313C451.834 7.45582 451.6 7.61159 451.438 7.81046C451.276 8.00601 451.194 8.2579 451.194 8.56614C451.194 9.03016 451.36 9.38977 451.692 9.64498C452.023 9.89687 452.439 10.0228 452.939 10.0228ZM459.225 0.477361V10.6592H458.34V0.477361H459.225ZM8.53618 25.6592H7.60152C7.53192 25.3112 7.40597 24.9897 7.22368 24.6947C7.0447 24.3964 6.81932 24.1362 6.54754 23.9142C6.27576 23.6921 5.96752 23.5197 5.62282 23.3971C5.27813 23.2745 4.90526 23.2132 4.50422 23.2132C3.86122 23.2132 3.27458 23.3805 2.74427 23.7153C2.21729 24.05 1.7947 24.5422 1.47652 25.1919C1.16165 25.8382 1.00422 26.6303 1.00422 27.5683C1.00422 28.5129 1.16165 29.3083 1.47652 29.9546C1.7947 30.6009 2.21729 31.0915 2.74427 31.4262C3.27458 31.7577 3.86122 31.9234 4.50422 31.9234C4.90526 31.9234 5.27813 31.8621 5.62282 31.7394C5.96752 31.6168 6.27576 31.4461 6.54754 31.2274C6.81932 31.0053 7.0447 30.7451 7.22368 30.4468C7.40597 30.1485 7.53192 29.8254 7.60152 29.4774H8.53618C8.45332 29.9447 8.29754 30.3805 8.06885 30.7849C7.84347 31.1859 7.55512 31.5373 7.20379 31.8389C6.85578 32.1405 6.45474 32.3758 6.00067 32.5448C5.54659 32.7139 5.04778 32.7984 4.50422 32.7984C3.6491 32.7984 2.89011 32.5846 2.22723 32.157C1.56435 31.7262 1.04399 31.1196 0.666149 30.3374C0.291622 29.5552 0.104359 28.6322 0.104359 27.5683C0.104359 26.5044 0.291622 25.5813 0.666149 24.7991C1.04399 24.0169 1.56435 23.412 2.22723 22.9845C2.89011 22.5536 3.6491 22.3382 4.50422 22.3382C5.04778 22.3382 5.54659 22.4227 6.00067 22.5917C6.45474 22.7574 6.85578 22.9927 7.20379 23.2977C7.55512 23.5993 7.84347 23.9506 8.06885 24.3517C8.29754 24.7527 8.45332 25.1885 8.53618 25.6592ZM12.5288 32.8332C12.0681 32.8332 11.6472 32.7437 11.266 32.5647C10.8849 32.3824 10.5816 32.1206 10.3562 31.7792C10.1308 31.4345 10.0182 31.0169 10.0182 30.5264C10.0182 30.1485 10.0894 29.8303 10.2319 29.5718C10.3745 29.3133 10.5766 29.1012 10.8385 28.9355C11.1003 28.7697 11.4102 28.6388 11.7682 28.5427C12.1261 28.4466 12.5205 28.372 12.9514 28.319C13.379 28.266 13.7402 28.2195 14.0352 28.1798C14.3335 28.14 14.5605 28.077 14.7163 27.9909C14.8721 27.9047 14.95 27.7655 14.95 27.5732V27.3943C14.95 26.8739 14.7942 26.4646 14.4826 26.1663C14.1744 25.8647 13.7303 25.7139 13.1503 25.7139C12.6001 25.7139 12.151 25.8348 11.803 26.0768C11.4583 26.3187 11.2163 26.6038 11.0771 26.9319L10.2369 26.6286C10.4093 26.211 10.6479 25.8779 10.9528 25.6294C11.2577 25.3775 11.5991 25.1968 11.977 25.0874C12.3548 24.9748 12.7376 24.9184 13.1254 24.9184C13.4171 24.9184 13.7203 24.9565 14.0352 25.0328C14.3534 25.109 14.6484 25.2416 14.9201 25.4305C15.1919 25.6161 15.4123 25.8763 15.5814 26.211C15.7504 26.5425 15.8349 26.9634 15.8349 27.4738V32.6592H14.95V31.4511H14.8953C14.7892 31.6765 14.6318 31.8952 14.423 32.1073C14.2142 32.3195 13.9523 32.4935 13.6375 32.6294C13.3226 32.7652 12.9531 32.8332 12.5288 32.8332ZM12.6481 32.0228C13.1188 32.0228 13.5264 31.9184 13.8711 31.7096C14.2158 31.5008 14.481 31.224 14.6666 30.8794C14.8555 30.5313 14.95 30.1485 14.95 29.7309V28.6272C14.8837 28.6902 14.7727 28.7465 14.6169 28.7963C14.4644 28.846 14.2871 28.8907 14.0849 28.9305C13.8861 28.9669 13.6872 28.9984 13.4883 29.0249C13.2895 29.0515 13.1105 29.0747 12.9514 29.0945C12.5205 29.1476 12.1526 29.2304 11.8477 29.3431C11.5428 29.4558 11.3091 29.6116 11.1467 29.8105C10.9843 30.006 10.9031 30.2579 10.9031 30.5661C10.9031 31.0302 11.0688 31.3898 11.4003 31.645C11.7317 31.8969 12.1477 32.0228 12.6481 32.0228ZM18.9339 22.4774V32.6592H18.049V22.4774H18.9339ZM21.1455 32.6592V25.0228H22.0354V32.6592H21.1455ZM21.5979 23.7103C21.4156 23.7103 21.2598 23.649 21.1306 23.5264C21.0013 23.4004 20.9367 23.2496 20.9367 23.074C20.9367 22.8983 21.0013 22.7491 21.1306 22.6265C21.2598 22.5006 21.4156 22.4376 21.5979 22.4376C21.7802 22.4376 21.936 22.5006 22.0652 22.6265C22.1945 22.7491 22.2591 22.8983 22.2591 23.074C22.2591 23.2496 22.1945 23.4004 22.0652 23.5264C21.936 23.649 21.7802 23.7103 21.5979 23.7103ZM27.3778 25.0228V25.7934H23.6243V25.0228H27.3778ZM24.7976 32.6592V23.9042C24.7976 23.4932 24.892 23.1469 25.0809 22.8651C25.2732 22.5834 25.5234 22.3696 25.8316 22.2238C26.1399 22.078 26.4664 22.0051 26.811 22.0051C27.0431 22.0051 27.2353 22.0249 27.3878 22.0647C27.5435 22.1012 27.6662 22.1376 27.7557 22.1741L27.4971 22.9497C27.4308 22.9298 27.3496 22.9066 27.2535 22.8801C27.1574 22.8535 27.0364 22.8403 26.8906 22.8403C26.5061 22.8403 26.2095 22.948 26.0007 23.1634C25.7919 23.3789 25.6875 23.6871 25.6875 24.0882L25.6825 32.6592H24.7976ZM31.6576 32.8183C30.998 32.8183 30.4147 32.6509 29.9076 32.3161C29.4038 31.9814 29.0094 31.519 28.7243 30.9291C28.4393 30.3358 28.2968 29.6514 28.2968 28.8758C28.2968 28.0936 28.4393 27.4059 28.7243 26.8126C29.0094 26.216 29.4038 25.752 29.9076 25.4205C30.4147 25.0858 30.998 24.9184 31.6576 24.9184C32.3171 24.9184 32.8988 25.0858 33.4026 25.4205C33.9064 25.7553 34.3008 26.2193 34.5858 26.8126C34.8742 27.4059 35.0183 28.0936 35.0183 28.8758C35.0183 29.6514 34.8758 30.3358 34.5908 30.9291C34.3058 31.519 33.9097 31.9814 33.4026 32.3161C32.8988 32.6509 32.3171 32.8183 31.6576 32.8183ZM31.6576 32.0079C32.1879 32.0079 32.637 31.8654 33.0049 31.5803C33.3728 31.2953 33.6512 30.9158 33.8401 30.4419C34.0323 29.9679 34.1284 29.4459 34.1284 28.8758C34.1284 28.3057 34.0323 27.782 33.8401 27.3048C33.6512 26.8275 33.3728 26.4447 33.0049 26.1563C32.637 25.868 32.1879 25.7238 31.6576 25.7238C31.1306 25.7238 30.6815 25.868 30.3103 26.1563C29.9424 26.4447 29.6623 26.8275 29.4701 27.3048C29.2811 27.782 29.1867 28.3057 29.1867 28.8758C29.1867 29.4459 29.2811 29.9679 29.4701 30.4419C29.6623 30.9158 29.9424 31.2953 30.3103 31.5803C30.6782 31.8654 31.1273 32.0079 31.6576 32.0079ZM36.821 32.6592V25.0228H37.6811V26.1961H37.7457C37.8982 25.8116 38.1633 25.5017 38.5412 25.2664C38.9223 25.0278 39.3532 24.9085 39.8338 24.9085C39.9067 24.9085 39.9879 24.9101 40.0774 24.9134C40.1669 24.9168 40.2415 24.9201 40.3011 24.9234V25.8232C40.2613 25.8166 40.1917 25.8067 40.0923 25.7934C39.9929 25.7802 39.8852 25.7735 39.7692 25.7735C39.3714 25.7735 39.0168 25.858 38.7052 26.0271C38.397 26.1928 38.1534 26.4231 37.9744 26.7181C37.7954 27.0131 37.7059 27.3495 37.7059 27.7274V32.6592H36.821ZM42.5562 27.8865V32.6592H41.6712V25.0228H42.5313V26.221H42.6109C42.7898 25.8299 43.0683 25.5167 43.4461 25.2813C43.8272 25.0427 44.2979 24.9234 44.858 24.9234C45.3718 24.9234 45.8225 25.0311 46.2103 25.2465C46.6014 25.4587 46.9047 25.7719 47.1201 26.1862C47.3388 26.6005 47.4482 27.1092 47.4482 27.7124V32.6592H46.5633V27.7671C46.5633 27.1407 46.3876 26.6452 46.0363 26.2806C45.6883 25.916 45.221 25.7338 44.6343 25.7338C44.2333 25.7338 43.877 25.8199 43.5654 25.9923C43.2539 26.1646 43.0069 26.4132 42.8246 26.738C42.6457 27.0595 42.5562 27.4423 42.5562 27.8865ZM49.6486 32.6592V25.0228H50.5385V32.6592H49.6486ZM50.101 23.7103C49.9187 23.7103 49.7629 23.649 49.6337 23.5264C49.5044 23.4004 49.4398 23.2496 49.4398 23.074C49.4398 22.8983 49.5044 22.7491 49.6337 22.6265C49.7629 22.5006 49.9187 22.4376 50.101 22.4376C50.2833 22.4376 50.4391 22.5006 50.5683 22.6265C50.6976 22.7491 50.7622 22.8983 50.7622 23.074C50.7622 23.2496 50.6976 23.4004 50.5683 23.5264C50.4391 23.649 50.2833 23.7103 50.101 23.7103ZM54.8717 32.8332C54.411 32.8332 53.9901 32.7437 53.6089 32.5647C53.2278 32.3824 52.9245 32.1206 52.6991 31.7792C52.4737 31.4345 52.3611 31.0169 52.3611 30.5264C52.3611 30.1485 52.4323 29.8303 52.5748 29.5718C52.7173 29.3133 52.9195 29.1012 53.1814 28.9355C53.4432 28.7697 53.7531 28.6388 54.1111 28.5427C54.469 28.4466 54.8634 28.372 55.2943 28.319C55.7218 28.266 56.0831 28.2195 56.3781 28.1798C56.6764 28.14 56.9034 28.077 57.0592 27.9909C57.215 27.9047 57.2929 27.7655 57.2929 27.5732V27.3943C57.2929 26.8739 57.1371 26.4646 56.8255 26.1663C56.5173 25.8647 56.0732 25.7139 55.4932 25.7139C54.943 25.7139 54.4939 25.8348 54.1459 26.0768C53.8012 26.3187 53.5592 26.6038 53.42 26.9319L52.5798 26.6286C52.7521 26.211 52.9908 25.8779 53.2957 25.6294C53.6006 25.3775 53.942 25.1968 54.3199 25.0874C54.6977 24.9748 55.0805 24.9184 55.4683 24.9184C55.76 24.9184 56.0632 24.9565 56.3781 25.0328C56.6963 25.109 56.9913 25.2416 57.263 25.4305C57.5348 25.6161 57.7552 25.8763 57.9243 26.211C58.0933 26.5425 58.1778 26.9634 58.1778 27.4738V32.6592H57.2929V31.4511H57.2382C57.1321 31.6765 56.9747 31.8952 56.7659 32.1073C56.5571 32.3195 56.2952 32.4935 55.9804 32.6294C55.6655 32.7652 55.2959 32.8332 54.8717 32.8332ZM54.991 32.0228C55.4617 32.0228 55.8693 31.9184 56.214 31.7096C56.5587 31.5008 56.8239 31.224 57.0095 30.8794C57.1984 30.5313 57.2929 30.1485 57.2929 29.7309V28.6272C57.2266 28.6902 57.1155 28.7465 56.9598 28.7963C56.8073 28.846 56.63 28.8907 56.4278 28.9305C56.2289 28.9669 56.0301 28.9984 55.8312 29.0249C55.6324 29.0515 55.4534 29.0747 55.2943 29.0945C54.8634 29.1476 54.4955 29.2304 54.1906 29.3431C53.8857 29.4558 53.652 29.6116 53.4896 29.8105C53.3272 30.006 53.246 30.2579 53.246 30.5661C53.246 31.0302 53.4117 31.3898 53.7432 31.645C54.0746 31.8969 54.4905 32.0228 54.991 32.0228ZM66.3222 32.8332C65.8615 32.8332 65.4405 32.7437 65.0594 32.5647C64.6782 32.3824 64.375 32.1206 64.1496 31.7792C63.9242 31.4345 63.8115 31.0169 63.8115 30.5264C63.8115 30.1485 63.8828 29.8303 64.0253 29.5718C64.1678 29.3133 64.37 29.1012 64.6318 28.9355C64.8937 28.7697 65.2036 28.6388 65.5615 28.5427C65.9195 28.4466 66.3139 28.372 66.7448 28.319C67.1723 28.266 67.5336 28.2195 67.8286 28.1798C68.1269 28.14 68.3539 28.077 68.5097 27.9909C68.6654 27.9047 68.7433 27.7655 68.7433 27.5732V27.3943C68.7433 26.8739 68.5876 26.4646 68.276 26.1663C67.9678 25.8647 67.5236 25.7139 66.9436 25.7139C66.3934 25.7139 65.9443 25.8348 65.5963 26.0768C65.2516 26.3187 65.0097 26.6038 64.8705 26.9319L64.0303 26.6286C64.2026 26.211 64.4413 25.8779 64.7462 25.6294C65.0511 25.3775 65.3925 25.1968 65.7703 25.0874C66.1482 24.9748 66.531 24.9184 66.9188 24.9184C67.2104 24.9184 67.5137 24.9565 67.8286 25.0328C68.1467 25.109 68.4417 25.2416 68.7135 25.4305C68.9853 25.6161 69.2057 25.8763 69.3747 26.211C69.5438 26.5425 69.6283 26.9634 69.6283 27.4738V32.6592H68.7433V31.4511H68.6886C68.5826 31.6765 68.4252 31.8952 68.2163 32.1073C68.0075 32.3195 67.7457 32.4935 67.4308 32.6294C67.116 32.7652 66.7464 32.8332 66.3222 32.8332ZM66.4415 32.0228C66.9121 32.0228 67.3198 31.9184 67.6645 31.7096C68.0092 31.5008 68.2743 31.224 68.46 30.8794C68.6489 30.5313 68.7433 30.1485 68.7433 29.7309V28.6272C68.677 28.6902 68.566 28.7465 68.4102 28.7963C68.2578 28.846 68.0805 28.8907 67.8783 28.9305C67.6794 28.9669 67.4806 28.9984 67.2817 29.0249C67.0828 29.0515 66.9038 29.0747 66.7448 29.0945C66.3139 29.1476 65.946 29.2304 65.6411 29.3431C65.3361 29.4558 65.1025 29.6116 64.9401 29.8105C64.7777 30.006 64.6965 30.2579 64.6965 30.5661C64.6965 31.0302 64.8622 31.3898 65.1936 31.645C65.5251 31.8969 65.941 32.0228 66.4415 32.0228ZM72.7273 27.8865V32.6592H71.8423V25.0228H72.7024V26.221H72.782C72.9609 25.8299 73.2393 25.5167 73.6172 25.2813C73.9983 25.0427 74.469 24.9234 75.0291 24.9234C75.5428 24.9234 75.9936 25.0311 76.3814 25.2465C76.7725 25.4587 77.0758 25.7719 77.2912 26.1862C77.5099 26.6005 77.6193 27.1092 77.6193 27.7124V32.6592H76.7344V27.7671C76.7344 27.1407 76.5587 26.6452 76.2074 26.2806C75.8594 25.916 75.392 25.7338 74.8054 25.7338C74.4044 25.7338 74.0481 25.8199 73.7365 25.9923C73.425 26.1646 73.178 26.4132 72.9957 26.738C72.8168 27.0595 72.7273 27.4423 72.7273 27.8865ZM82.559 32.8183C81.9326 32.8183 81.3841 32.6526 80.9134 32.3211C80.4428 31.9897 80.0749 31.5273 79.8098 30.934C79.5479 30.3408 79.417 29.6497 79.417 28.8609C79.417 28.0754 79.5479 27.3876 79.8098 26.7977C80.0749 26.2044 80.4445 25.7437 80.9184 25.4156C81.3924 25.0841 81.9442 24.9184 82.574 24.9184C83.038 24.9184 83.4241 25.0013 83.7323 25.167C84.0406 25.3294 84.2875 25.5316 84.4731 25.7735C84.6587 26.0155 84.8029 26.2508 84.9056 26.4795H84.9852V22.4774H85.8751V32.6592H85.01V31.2423H84.9056C84.8029 31.4743 84.6571 31.7129 84.4681 31.9582C84.2792 32.2001 84.029 32.404 83.7174 32.5697C83.4092 32.7354 83.0231 32.8183 82.559 32.8183ZM82.6634 32.0079C83.1573 32.0079 83.5782 31.8737 83.9262 31.6052C84.2742 31.3334 84.5394 30.9606 84.7217 30.4866C84.9073 30.0093 85.0001 29.4624 85.0001 28.846C85.0001 28.2361 84.9089 27.6975 84.7267 27.2302C84.5444 26.7596 84.2792 26.3917 83.9312 26.1265C83.5832 25.858 83.1606 25.7238 82.6634 25.7238C82.153 25.7238 81.7222 25.863 81.3708 26.1414C81.0228 26.4165 80.7577 26.7894 80.5754 27.26C80.3964 27.7307 80.3069 28.2593 80.3069 28.846C80.3069 29.4392 80.3981 29.9745 80.5803 30.4518C80.7626 30.9291 81.0278 31.3086 81.3758 31.5903C81.7271 31.8687 82.1563 32.0079 82.6634 32.0079ZM89.7273 31.2671L89.6378 31.7991C89.5814 32.157 89.5019 32.5515 89.3992 32.9823C89.2964 33.4132 89.1903 33.8225 89.081 34.2103C88.9716 34.5981 88.8771 34.9097 88.7976 35.145H88.1165C88.1596 34.9196 88.2143 34.6329 88.2805 34.2849C88.3501 33.9369 88.4214 33.5508 88.4943 33.1265C88.5672 32.7056 88.6335 32.2714 88.6932 31.824L88.7628 31.2671H89.7273ZM98.815 32.8183C98.1024 32.8183 97.4859 32.6526 96.9656 32.3211C96.4452 31.9864 96.0425 31.524 95.7575 30.934C95.4757 30.3408 95.3349 29.658 95.3349 28.8857C95.3349 28.1168 95.4757 27.434 95.7575 26.8374C96.0425 26.2375 96.4353 25.7686 96.9357 25.4305C97.4395 25.0891 98.0212 24.9184 98.6808 24.9184C99.0951 24.9184 99.4945 24.9946 99.8789 25.1471C100.263 25.2963 100.608 25.5266 100.913 25.8382C101.221 26.1464 101.465 26.5358 101.644 27.0065C101.823 27.4738 101.912 28.0273 101.912 28.667V29.1045H95.9464V28.324H101.007C101.007 27.8334 100.908 27.3926 100.709 27.0015C100.514 26.6071 100.24 26.2955 99.8889 26.0669C99.5409 25.8382 99.1382 25.7238 98.6808 25.7238C98.1969 25.7238 97.771 25.8531 97.4031 26.1116C97.0352 26.3701 96.7468 26.7115 96.538 27.1357C96.3325 27.56 96.2281 28.024 96.2248 28.5278V28.9951C96.2248 29.6017 96.3292 30.132 96.538 30.586C96.7501 31.0368 97.0501 31.3865 97.4379 31.635C97.8257 31.8836 98.2847 32.0079 98.815 32.0079C99.1763 32.0079 99.4928 31.9516 99.7646 31.8389C100.04 31.7262 100.27 31.5754 100.456 31.3865C100.645 31.1942 100.787 30.9838 100.883 30.7551L101.723 31.0285C101.607 31.35 101.417 31.6466 101.152 31.9184C100.89 32.1902 100.562 32.4089 100.167 32.5747C99.7762 32.7371 99.3254 32.8183 98.815 32.8183ZM103.722 32.6592V25.0228H104.582V26.1961H104.647C104.8 25.8116 105.065 25.5017 105.443 25.2664C105.824 25.0278 106.255 24.9085 106.735 24.9085C106.808 24.9085 106.889 24.9101 106.979 24.9134C107.068 24.9168 107.143 24.9201 107.203 24.9234V25.8232C107.163 25.8166 107.093 25.8067 106.994 25.7934C106.894 25.7802 106.787 25.7735 106.671 25.7735C106.273 25.7735 105.918 25.858 105.607 26.0271C105.298 26.1928 105.055 26.4231 104.876 26.7181C104.697 27.0131 104.607 27.3495 104.607 27.7274V32.6592H103.722ZM109.169 31.2671L109.08 31.7991C109.023 32.157 108.944 32.5515 108.841 32.9823C108.738 33.4132 108.632 33.8225 108.523 34.2103C108.414 34.5981 108.319 34.9097 108.24 35.145H107.558C107.602 34.9196 107.656 34.6329 107.723 34.2849C107.792 33.9369 107.863 33.5508 107.936 33.1265C108.009 32.7056 108.075 32.2714 108.135 31.824L108.205 31.2671H109.169ZM116.055 27.8865V32.6592H115.17V22.4774H116.055V26.221H116.134C116.313 25.8266 116.59 25.5117 116.964 25.2764C117.342 25.041 117.819 24.9234 118.396 24.9234C118.913 24.9234 119.367 25.0294 119.758 25.2416C120.149 25.4537 120.454 25.7669 120.673 26.1812C120.892 26.5955 121.001 27.1059 121.001 27.7124V32.6592H120.111V27.7671C120.111 27.1374 119.936 26.6419 119.584 26.2806C119.236 25.916 118.766 25.7338 118.172 25.7338C117.765 25.7338 117.402 25.8199 117.084 25.9923C116.765 26.1646 116.514 26.4132 116.328 26.738C116.146 27.0595 116.055 27.4423 116.055 27.8865ZM126.16 32.8183C125.5 32.8183 124.917 32.6509 124.41 32.3161C123.906 31.9814 123.512 31.519 123.227 30.9291C122.941 30.3358 122.799 29.6514 122.799 28.8758C122.799 28.0936 122.941 27.4059 123.227 26.8126C123.512 26.216 123.906 25.752 124.41 25.4205C124.917 25.0858 125.5 24.9184 126.16 24.9184C126.819 24.9184 127.401 25.0858 127.905 25.4205C128.409 25.7553 128.803 26.2193 129.088 26.8126C129.376 27.4059 129.521 28.0936 129.521 28.8758C129.521 29.6514 129.378 30.3358 129.093 30.9291C128.808 31.519 128.412 31.9814 127.905 32.3161C127.401 32.6509 126.819 32.8183 126.16 32.8183ZM126.16 32.0079C126.69 32.0079 127.139 31.8654 127.507 31.5803C127.875 31.2953 128.153 30.9158 128.342 30.4419C128.535 29.9679 128.631 29.4459 128.631 28.8758C128.631 28.3057 128.535 27.782 128.342 27.3048C128.153 26.8275 127.875 26.4447 127.507 26.1563C127.139 25.868 126.69 25.7238 126.16 25.7238C125.633 25.7238 125.184 25.868 124.812 26.1563C124.445 26.4447 124.164 26.8275 123.972 27.3048C123.783 27.782 123.689 28.3057 123.689 28.8758C123.689 29.4459 123.783 29.9679 123.972 30.4419C124.164 30.9158 124.445 31.2953 124.812 31.5803C125.18 31.8654 125.629 32.0079 126.16 32.0079ZM131.323 35.5228V25.0228H132.183V26.4795H132.288C132.394 26.2508 132.54 26.0171 132.725 25.7785C132.911 25.5365 133.156 25.3327 133.461 25.167C133.769 25.0013 134.157 24.9184 134.624 24.9184C135.254 24.9184 135.804 25.0841 136.275 25.4156C136.749 25.7437 137.117 26.2044 137.379 26.7977C137.644 27.3876 137.776 28.0754 137.776 28.8609C137.776 29.6497 137.644 30.3408 137.379 30.934C137.117 31.5273 136.749 31.9897 136.275 32.3211C135.804 32.6526 135.257 32.8183 134.634 32.8183C134.174 32.8183 133.787 32.7354 133.476 32.5697C133.168 32.404 132.917 32.2001 132.725 31.9582C132.536 31.7129 132.39 31.4743 132.288 31.2423H132.208V35.5228H131.323ZM132.198 28.846C132.198 29.4624 132.289 30.0093 132.472 30.4866C132.657 30.9606 132.922 31.3334 133.267 31.6052C133.615 31.8737 134.036 32.0079 134.53 32.0079C135.037 32.0079 135.465 31.8687 135.813 31.5903C136.164 31.3086 136.431 30.9291 136.613 30.4518C136.799 29.9745 136.891 29.4392 136.891 28.846C136.891 28.2593 136.8 27.7307 136.618 27.26C136.439 26.7894 136.174 26.4165 135.822 26.1414C135.471 25.863 135.04 25.7238 134.53 25.7238C134.033 25.7238 133.61 25.858 133.262 26.1265C132.914 26.3917 132.649 26.7596 132.467 27.2302C132.288 27.6975 132.198 28.2361 132.198 28.846ZM142.665 32.8183C141.952 32.8183 141.336 32.6526 140.816 32.3211C140.295 31.9864 139.893 31.524 139.608 30.934C139.326 30.3408 139.185 29.658 139.185 28.8857C139.185 28.1168 139.326 27.434 139.608 26.8374C139.893 26.2375 140.285 25.7686 140.786 25.4305C141.29 25.0891 141.871 24.9184 142.531 24.9184C142.945 24.9184 143.345 24.9946 143.729 25.1471C144.113 25.2963 144.458 25.5266 144.763 25.8382C145.071 26.1464 145.315 26.5358 145.494 27.0065C145.673 27.4738 145.762 28.0273 145.762 28.667V29.1045H139.796V28.324H144.858C144.858 27.8334 144.758 27.3926 144.559 27.0015C144.364 26.6071 144.09 26.2955 143.739 26.0669C143.391 25.8382 142.988 25.7238 142.531 25.7238C142.047 25.7238 141.621 25.8531 141.253 26.1116C140.885 26.3701 140.597 26.7115 140.388 27.1357C140.183 27.56 140.078 28.024 140.075 28.5278V28.9951C140.075 29.6017 140.179 30.132 140.388 30.586C140.6 31.0368 140.9 31.3865 141.288 31.635C141.676 31.8836 142.135 32.0079 142.665 32.0079C143.026 32.0079 143.343 31.9516 143.615 31.8389C143.89 31.7262 144.12 31.5754 144.306 31.3865C144.495 31.1942 144.637 30.9838 144.733 30.7551L145.573 31.0285C145.457 31.35 145.267 31.6466 145.002 31.9184C144.74 32.1902 144.412 32.4089 144.017 32.5747C143.626 32.7371 143.175 32.8183 142.665 32.8183ZM150.715 25.0228V25.7934H146.961V25.0228H150.715ZM148.134 32.6592V23.9042C148.134 23.4932 148.229 23.1469 148.418 22.8651C148.61 22.5834 148.86 22.3696 149.168 22.2238C149.477 22.078 149.803 22.0051 150.148 22.0051C150.38 22.0051 150.572 22.0249 150.724 22.0647C150.88 22.1012 151.003 22.1376 151.092 22.1741L150.834 22.9497C150.768 22.9298 150.686 22.9066 150.59 22.8801C150.494 22.8535 150.373 22.8403 150.227 22.8403C149.843 22.8403 149.546 22.948 149.337 23.1634C149.129 23.3789 149.024 23.6871 149.024 24.0882L149.019 32.6592H148.134ZM157.193 29.7409V25.0228H158.078V32.6592H157.193V31.3914H157.123C156.944 31.7825 156.661 32.109 156.273 32.3708C155.885 32.6294 155.411 32.7586 154.851 32.7586C154.364 32.7586 153.932 32.6526 153.554 32.4404C153.176 32.225 152.879 31.9101 152.664 31.4958C152.448 31.0815 152.341 30.5728 152.341 29.9695V25.0228H153.226V29.9149C153.226 30.5115 153.401 30.992 153.753 31.3566C154.104 31.7179 154.555 31.8985 155.105 31.8985C155.45 31.8985 155.781 31.8157 156.099 31.6499C156.417 31.4842 156.679 31.2423 156.885 30.9241C157.09 30.6026 157.193 30.2082 157.193 29.7409ZM161.166 22.4774V32.6592H160.281V22.4774H161.166ZM164.252 22.4774V32.6592H163.367V22.4774H164.252ZM167.07 35.5228C166.895 35.5228 166.731 35.5062 166.578 35.4731C166.426 35.44 166.305 35.4035 166.215 35.3637L166.454 34.5832C166.756 34.676 167.024 34.7091 167.259 34.6826C167.495 34.6594 167.703 34.5534 167.886 34.3644C168.068 34.1788 168.23 33.8938 168.373 33.5093L168.651 32.7338L165.842 25.0228H166.802L169.069 31.4909H169.139L171.406 25.0228H172.365L169.134 33.8673C168.998 34.2352 168.83 34.5418 168.631 34.787C168.433 35.0356 168.202 35.2195 167.94 35.3389C167.682 35.4615 167.392 35.5228 167.07 35.5228ZM183.665 25.0228L180.876 32.6592H179.932L177.142 25.0228H178.102L180.369 31.4909H180.439L182.706 25.0228H183.665ZM188.07 32.8183C187.358 32.8183 186.741 32.6526 186.221 32.3211C185.701 31.9864 185.298 31.524 185.013 30.934C184.731 30.3408 184.59 29.658 184.59 28.8857C184.59 28.1168 184.731 27.434 185.013 26.8374C185.298 26.2375 185.691 25.7686 186.191 25.4305C186.695 25.0891 187.277 24.9184 187.936 24.9184C188.351 24.9184 188.75 24.9946 189.134 25.1471C189.519 25.2963 189.864 25.5266 190.168 25.8382C190.477 26.1464 190.72 26.5358 190.899 27.0065C191.078 27.4738 191.168 28.0273 191.168 28.667V29.1045H185.202V28.324H190.263C190.263 27.8334 190.164 27.3926 189.965 27.0015C189.769 26.6071 189.496 26.2955 189.144 26.0669C188.796 25.8382 188.394 25.7238 187.936 25.7238C187.452 25.7238 187.026 25.8531 186.659 26.1116C186.291 26.3701 186.002 26.7115 185.793 27.1357C185.588 27.56 185.484 28.024 185.48 28.5278V28.9951C185.48 29.6017 185.585 30.132 185.793 30.586C186.006 31.0368 186.306 31.3865 186.693 31.635C187.081 31.8836 187.54 32.0079 188.07 32.0079C188.432 32.0079 188.748 31.9516 189.02 31.8389C189.295 31.7262 189.525 31.5754 189.711 31.3865C189.9 31.1942 190.043 30.9838 190.139 30.7551L190.979 31.0285C190.863 31.35 190.672 31.6466 190.407 31.9184C190.145 32.1902 189.817 32.4089 189.423 32.5747C189.032 32.7371 188.581 32.8183 188.07 32.8183ZM192.978 32.6592V25.0228H193.838V26.1961H193.903C194.055 25.8116 194.32 25.5017 194.698 25.2664C195.079 25.0278 195.51 24.9085 195.991 24.9085C196.064 24.9085 196.145 24.9101 196.234 24.9134C196.324 24.9168 196.398 24.9201 196.458 24.9234V25.8232C196.418 25.8166 196.349 25.8067 196.249 25.7934C196.15 25.7802 196.042 25.7735 195.926 25.7735C195.528 25.7735 195.174 25.858 194.862 26.0271C194.554 26.1928 194.31 26.4231 194.131 26.7181C193.952 27.0131 193.863 27.3495 193.863 27.7274V32.6592H192.978ZM198.677 35.5228C198.501 35.5228 198.337 35.5062 198.185 35.4731C198.032 35.44 197.911 35.4035 197.822 35.3637L198.061 34.5832C198.362 34.676 198.631 34.7091 198.866 34.6826C199.101 34.6594 199.31 34.5534 199.492 34.3644C199.675 34.1788 199.837 33.8938 199.98 33.5093L200.258 32.7338L197.449 25.0228H198.409L200.676 31.4909H200.745L203.012 25.0228H203.972L200.74 33.8673C200.604 34.2352 200.437 34.5418 200.238 34.787C200.039 35.0356 199.809 35.2195 199.547 35.3389C199.289 35.4615 198.999 35.5228 198.677 35.5228ZM211.056 32.6592L208.749 25.0228H209.684L211.493 31.3218H211.558L213.363 25.0228H214.302L216.092 31.3069H216.162L217.971 25.0228H218.906L216.599 32.6592H215.684L213.875 26.3999H213.78L211.971 32.6592H211.056ZM223.314 32.8183C222.601 32.8183 221.985 32.6526 221.464 32.3211C220.944 31.9864 220.541 31.524 220.256 30.934C219.975 30.3408 219.834 29.658 219.834 28.8857C219.834 28.1168 219.975 27.434 220.256 26.8374C220.541 26.2375 220.934 25.7686 221.435 25.4305C221.938 25.0891 222.52 24.9184 223.18 24.9184C223.594 24.9184 223.993 24.9946 224.378 25.1471C224.762 25.2963 225.107 25.5266 225.412 25.8382C225.72 26.1464 225.964 26.5358 226.143 27.0065C226.322 27.4738 226.411 28.0273 226.411 28.667V29.1045H220.445V28.324H225.506C225.506 27.8334 225.407 27.3926 225.208 27.0015C225.012 26.6071 224.739 26.2955 224.388 26.0669C224.04 25.8382 223.637 25.7238 223.18 25.7238C222.696 25.7238 222.27 25.8531 221.902 26.1116C221.534 26.3701 221.246 26.7115 221.037 27.1357C220.831 27.56 220.727 28.024 220.724 28.5278V28.9951C220.724 29.6017 220.828 30.132 221.037 30.586C221.249 31.0368 221.549 31.3865 221.937 31.635C222.324 31.8836 222.784 32.0079 223.314 32.0079C223.675 32.0079 223.992 31.9516 224.263 31.8389C224.539 31.7262 224.769 31.5754 224.954 31.3865C225.143 31.1942 225.286 30.9838 225.382 30.7551L226.222 31.0285C226.106 31.35 225.916 31.6466 225.65 31.9184C225.389 32.1902 225.061 32.4089 224.666 32.5747C224.275 32.7371 223.824 32.8183 223.314 32.8183ZM229.106 22.4774V32.6592H228.221V22.4774H229.106ZM232.193 22.4774V32.6592H231.308V22.4774H232.193ZM238.516 27.8765V28.7117H234.28V27.8765H238.516ZM243.581 32.8183C242.898 32.8183 242.303 32.6476 241.796 32.3062C241.292 31.9648 240.901 31.4975 240.623 30.9042C240.345 30.3109 240.205 29.6348 240.205 28.8758C240.205 28.1102 240.346 27.4291 240.628 26.8325C240.913 26.2359 241.307 25.7686 241.811 25.4305C242.315 25.0891 242.9 24.9184 243.566 24.9184C244.077 24.9184 244.539 25.0178 244.953 25.2167C245.368 25.4123 245.709 25.689 245.977 26.047C246.249 26.4016 246.42 26.8159 246.489 27.2899H245.595C245.502 26.859 245.278 26.4911 244.923 26.1862C244.572 25.8779 244.125 25.7238 243.581 25.7238C243.094 25.7238 242.663 25.8564 242.288 26.1215C241.914 26.3834 241.621 26.7496 241.408 27.2203C241.2 27.6876 241.095 28.2295 241.095 28.846C241.095 29.4658 241.198 30.0143 241.404 30.4916C241.609 30.9655 241.897 31.3367 242.269 31.6052C242.643 31.8737 243.081 32.0079 243.581 32.0079C243.919 32.0079 244.227 31.9449 244.506 31.819C244.787 31.6897 245.023 31.5074 245.212 31.2721C245.404 31.0368 245.533 30.7567 245.6 30.4319H246.494C246.428 30.8926 246.264 31.3036 246.002 31.6649C245.744 32.0228 245.407 32.3045 244.993 32.51C244.582 32.7155 244.111 32.8183 243.581 32.8183ZM251.219 32.8183C250.56 32.8183 249.976 32.6509 249.469 32.3161C248.965 31.9814 248.571 31.519 248.286 30.9291C248.001 30.3358 247.858 29.6514 247.858 28.8758C247.858 28.0936 248.001 27.4059 248.286 26.8126C248.571 26.216 248.965 25.752 249.469 25.4205C249.976 25.0858 250.56 24.9184 251.219 24.9184C251.879 24.9184 252.46 25.0858 252.964 25.4205C253.468 25.7553 253.862 26.2193 254.147 26.8126C254.436 27.4059 254.58 28.0936 254.58 28.8758C254.58 29.6514 254.437 30.3358 254.152 30.9291C253.867 31.519 253.471 31.9814 252.964 32.3161C252.46 32.6509 251.879 32.8183 251.219 32.8183ZM251.219 32.0079C251.749 32.0079 252.199 31.8654 252.566 31.5803C252.934 31.2953 253.213 30.9158 253.402 30.4419C253.594 29.9679 253.69 29.4459 253.69 28.8758C253.69 28.3057 253.594 27.782 253.402 27.3048C253.213 26.8275 252.934 26.4447 252.566 26.1563C252.199 25.868 251.749 25.7238 251.219 25.7238C250.692 25.7238 250.243 25.868 249.872 26.1563C249.504 26.4447 249.224 26.8275 249.032 27.3048C248.843 27.782 248.748 28.3057 248.748 28.8758C248.748 29.4459 248.843 29.9679 249.032 30.4419C249.224 30.9158 249.504 31.2953 249.872 31.5803C250.24 31.8654 250.689 32.0079 251.219 32.0079ZM256.383 32.6592V25.0228H257.243V26.1961H257.322C257.475 25.8017 257.728 25.4918 258.083 25.2664C258.441 25.0377 258.87 24.9234 259.37 24.9234C259.897 24.9234 260.33 25.0477 260.668 25.2963C261.009 25.5415 261.265 25.8796 261.434 26.3105H261.498C261.671 25.8862 261.951 25.5498 262.339 25.3012C262.73 25.0493 263.204 24.9234 263.76 24.9234C264.47 24.9234 265.03 25.1471 265.441 25.5945C265.852 26.0387 266.057 26.6883 266.057 27.5434V32.6592H265.172V27.5434C265.172 26.9402 265.018 26.4878 264.71 26.1862C264.402 25.8846 263.996 25.7338 263.492 25.7338C262.909 25.7338 262.459 25.9127 262.145 26.2707C261.83 26.6286 261.672 27.0827 261.672 27.6329V32.6592H260.768V27.4639C260.768 26.9468 260.623 26.5292 260.335 26.211C260.047 25.8928 259.641 25.7338 259.117 25.7338C258.766 25.7338 258.449 25.8199 258.167 25.9923C257.889 26.1646 257.669 26.4049 257.506 26.7132C257.347 27.0181 257.268 27.3694 257.268 27.7671V32.6592H256.383ZM268.26 35.5228V25.0228H269.12V26.4795H269.225C269.331 26.2508 269.477 26.0171 269.662 25.7785C269.848 25.5365 270.093 25.3327 270.398 25.167C270.706 25.0013 271.094 24.9184 271.561 24.9184C272.191 24.9184 272.741 25.0841 273.212 25.4156C273.686 25.7437 274.054 26.2044 274.316 26.7977C274.581 27.3876 274.713 28.0754 274.713 28.8609C274.713 29.6497 274.581 30.3408 274.316 30.934C274.054 31.5273 273.686 31.9897 273.212 32.3211C272.741 32.6526 272.194 32.8183 271.571 32.8183C271.111 32.8183 270.724 32.7354 270.413 32.5697C270.105 32.404 269.854 32.2001 269.662 31.9582C269.473 31.7129 269.327 31.4743 269.225 31.2423H269.145V35.5228H268.26ZM269.135 28.846C269.135 29.4624 269.226 30.0093 269.409 30.4866C269.594 30.9606 269.859 31.3334 270.204 31.6052C270.552 31.8737 270.973 32.0079 271.467 32.0079C271.974 32.0079 272.401 31.8687 272.749 31.5903C273.101 31.3086 273.368 30.9291 273.55 30.4518C273.736 29.9745 273.828 29.4392 273.828 28.846C273.828 28.2593 273.737 27.7307 273.555 27.26C273.376 26.7894 273.111 26.4165 272.759 26.1414C272.408 25.863 271.977 25.7238 271.467 25.7238C270.97 25.7238 270.547 25.858 270.199 26.1265C269.851 26.3917 269.586 26.7596 269.404 27.2302C269.225 27.6975 269.135 28.2361 269.135 28.846ZM279.602 32.8183C278.889 32.8183 278.273 32.6526 277.753 32.3211C277.232 31.9864 276.83 31.524 276.544 30.934C276.263 30.3408 276.122 29.658 276.122 28.8857C276.122 28.1168 276.263 27.434 276.544 26.8374C276.83 26.2375 277.222 25.7686 277.723 25.4305C278.227 25.0891 278.808 24.9184 279.468 24.9184C279.882 24.9184 280.281 24.9946 280.666 25.1471C281.05 25.2963 281.395 25.5266 281.7 25.8382C282.008 26.1464 282.252 26.5358 282.431 27.0065C282.61 27.4738 282.699 28.0273 282.699 28.667V29.1045H276.733V28.324H281.794C281.794 27.8334 281.695 27.3926 281.496 27.0015C281.301 26.6071 281.027 26.2955 280.676 26.0669C280.328 25.8382 279.925 25.7238 279.468 25.7238C278.984 25.7238 278.558 25.8531 278.19 26.1116C277.822 26.3701 277.534 26.7115 277.325 27.1357C277.12 27.56 277.015 28.024 277.012 28.5278V28.9951C277.012 29.6017 277.116 30.132 277.325 30.586C277.537 31.0368 277.837 31.3865 278.225 31.635C278.613 31.8836 279.072 32.0079 279.602 32.0079C279.963 32.0079 280.28 31.9516 280.552 31.8389C280.827 31.7262 281.057 31.5754 281.243 31.3865C281.432 31.1942 281.574 30.9838 281.67 30.7551L282.51 31.0285C282.394 31.35 282.204 31.6466 281.939 31.9184C281.677 32.1902 281.349 32.4089 280.954 32.5747C280.563 32.7371 280.112 32.8183 279.602 32.8183ZM285.394 27.8865V32.6592H284.509V25.0228H285.37V26.221H285.449C285.628 25.8299 285.906 25.5167 286.284 25.2813C286.665 25.0427 287.136 24.9234 287.696 24.9234C288.21 24.9234 288.661 25.0311 289.049 25.2465C289.44 25.4587 289.743 25.7719 289.958 26.1862C290.177 26.6005 290.286 27.1092 290.286 27.7124V32.6592H289.401V27.7671C289.401 27.1407 289.226 26.6452 288.875 26.2806C288.526 25.916 288.059 25.7338 287.473 25.7338C287.071 25.7338 286.715 25.8199 286.404 25.9923C286.092 26.1646 285.845 26.4132 285.663 26.738C285.484 27.0595 285.394 27.4423 285.394 27.8865ZM297.608 26.6982L296.797 26.9269C296.718 26.6982 296.605 26.4911 296.459 26.3055C296.313 26.1199 296.123 25.9724 295.887 25.863C295.655 25.7536 295.367 25.699 295.022 25.699C294.505 25.699 294.081 25.8216 293.75 26.0669C293.418 26.3121 293.252 26.6286 293.252 27.0164C293.252 27.3445 293.365 27.6114 293.59 27.8169C293.819 28.019 294.171 28.1798 294.644 28.2991L295.798 28.5825C296.438 28.7383 296.916 28.9852 297.235 29.3232C297.556 29.6613 297.717 30.0856 297.717 30.596C297.717 31.0268 297.598 31.4097 297.359 31.7444C297.12 32.0792 296.787 32.3427 296.36 32.5349C295.935 32.7238 295.443 32.8183 294.883 32.8183C294.137 32.8183 293.523 32.6509 293.039 32.3161C292.555 31.9781 292.245 31.4909 292.109 30.8545L292.959 30.6457C293.068 31.0998 293.282 31.4428 293.6 31.6748C293.922 31.9068 294.345 32.0228 294.868 32.0228C295.455 32.0228 295.924 31.8919 296.275 31.6301C296.626 31.3649 296.802 31.0335 296.802 30.6357C296.802 30.3275 296.699 30.069 296.494 29.8602C296.288 29.6481 295.977 29.4923 295.559 29.3928L294.311 29.0945C293.648 28.9355 293.158 28.6836 292.84 28.3389C292.522 27.9942 292.363 27.5666 292.363 27.0562C292.363 26.6353 292.477 26.2657 292.706 25.9475C292.934 25.626 293.249 25.3741 293.65 25.1919C294.051 25.0096 294.509 24.9184 295.022 24.9184C295.722 24.9184 296.28 25.0775 296.698 25.3957C297.119 25.7106 297.422 26.1447 297.608 26.6982ZM301.647 32.8332C301.187 32.8332 300.766 32.7437 300.385 32.5647C300.003 32.3824 299.7 32.1206 299.475 31.7792C299.249 31.4345 299.137 31.0169 299.137 30.5264C299.137 30.1485 299.208 29.8303 299.351 29.5718C299.493 29.3133 299.695 29.1012 299.957 28.9355C300.219 28.7697 300.529 28.6388 300.887 28.5427C301.245 28.4466 301.639 28.372 302.07 28.319C302.498 28.266 302.859 28.2195 303.154 28.1798C303.452 28.14 303.679 28.077 303.835 27.9909C303.991 27.9047 304.069 27.7655 304.069 27.5732V27.3943C304.069 26.8739 303.913 26.4646 303.601 26.1663C303.293 25.8647 302.849 25.7139 302.269 25.7139C301.719 25.7139 301.27 25.8348 300.922 26.0768C300.577 26.3187 300.335 26.6038 300.196 26.9319L299.356 26.6286C299.528 26.211 299.767 25.8779 300.071 25.6294C300.376 25.3775 300.718 25.1968 301.096 25.0874C301.473 24.9748 301.856 24.9184 302.244 24.9184C302.536 24.9184 302.839 24.9565 303.154 25.0328C303.472 25.109 303.767 25.2416 304.039 25.4305C304.311 25.6161 304.531 25.8763 304.7 26.211C304.869 26.5425 304.954 26.9634 304.954 27.4738V32.6592H304.069V31.4511H304.014C303.908 31.6765 303.75 31.8952 303.542 32.1073C303.333 32.3195 303.071 32.4935 302.756 32.6294C302.441 32.7652 302.072 32.8332 301.647 32.8332ZM301.767 32.0228C302.237 32.0228 302.645 31.9184 302.99 31.7096C303.334 31.5008 303.6 31.224 303.785 30.8794C303.974 30.5313 304.069 30.1485 304.069 29.7309V28.6272C304.002 28.6902 303.891 28.7465 303.735 28.7963C303.583 28.846 303.406 28.8907 303.204 28.9305C303.005 28.9669 302.806 28.9984 302.607 29.0249C302.408 29.0515 302.229 29.0747 302.07 29.0945C301.639 29.1476 301.271 29.2304 300.966 29.3431C300.661 29.4558 300.428 29.6116 300.265 29.8105C300.103 30.006 300.022 30.2579 300.022 30.5661C300.022 31.0302 300.187 31.3898 300.519 31.645C300.85 31.8969 301.266 32.0228 301.767 32.0228ZM310.175 25.0228V25.7934H306.531V25.0228H310.175ZM307.67 23.1933H308.56V30.6656C308.56 30.9838 308.614 31.234 308.724 31.4163C308.833 31.5953 308.976 31.7229 309.151 31.7991C309.327 31.872 309.514 31.9085 309.713 31.9085C309.829 31.9085 309.928 31.9018 310.011 31.8886C310.094 31.872 310.167 31.8554 310.23 31.8389L310.419 32.6393C310.333 32.6724 310.227 32.7023 310.101 32.7288C309.975 32.7586 309.819 32.7735 309.633 32.7735C309.309 32.7735 308.995 32.7023 308.694 32.5597C308.396 32.4172 308.15 32.2051 307.958 31.9234C307.766 31.6417 307.67 31.292 307.67 30.8744V23.1933ZM315.05 32.8183C314.338 32.8183 313.721 32.6526 313.201 32.3211C312.681 31.9864 312.278 31.524 311.993 30.934C311.711 30.3408 311.57 29.658 311.57 28.8857C311.57 28.1168 311.711 27.434 311.993 26.8374C312.278 26.2375 312.671 25.7686 313.171 25.4305C313.675 25.0891 314.257 24.9184 314.916 24.9184C315.331 24.9184 315.73 24.9946 316.114 25.1471C316.499 25.2963 316.844 25.5266 317.148 25.8382C317.457 26.1464 317.7 26.5358 317.879 27.0065C318.058 27.4738 318.148 28.0273 318.148 28.667V29.1045H312.182V28.324H317.243C317.243 27.8334 317.144 27.3926 316.945 27.0015C316.749 26.6071 316.476 26.2955 316.124 26.0669C315.776 25.8382 315.374 25.7238 314.916 25.7238C314.432 25.7238 314.006 25.8531 313.639 26.1116C313.271 26.3701 312.982 26.7115 312.773 27.1357C312.568 27.56 312.464 28.024 312.46 28.5278V28.9951C312.46 29.6017 312.565 30.132 312.773 30.586C312.986 31.0368 313.286 31.3865 313.673 31.635C314.061 31.8836 314.52 32.0079 315.05 32.0079C315.412 32.0079 315.728 31.9516 316 31.8389C316.275 31.7262 316.506 31.5754 316.691 31.3865C316.88 31.1942 317.023 30.9838 317.119 30.7551L317.959 31.0285C317.843 31.35 317.652 31.6466 317.387 31.9184C317.125 32.1902 316.797 32.4089 316.403 32.5747C316.012 32.7371 315.561 32.8183 315.05 32.8183ZM322.707 32.8183C322.081 32.8183 321.532 32.6526 321.062 32.3211C320.591 31.9897 320.223 31.5273 319.958 30.934C319.696 30.3408 319.565 29.6497 319.565 28.8609C319.565 28.0754 319.696 27.3876 319.958 26.7977C320.223 26.2044 320.593 25.7437 321.067 25.4156C321.54 25.0841 322.092 24.9184 322.722 24.9184C323.186 24.9184 323.572 25.0013 323.88 25.167C324.189 25.3294 324.436 25.5316 324.621 25.7735C324.807 26.0155 324.951 26.2508 325.054 26.4795H325.133V22.4774H326.023V32.6592H325.158V31.2423H325.054C324.951 31.4743 324.805 31.7129 324.616 31.9582C324.427 32.2001 324.177 32.404 323.866 32.5697C323.557 32.7354 323.171 32.8183 322.707 32.8183ZM322.812 32.0079C323.305 32.0079 323.726 31.8737 324.074 31.6052C324.422 31.3334 324.688 30.9606 324.87 30.4866C325.055 30.0093 325.148 29.4624 325.148 28.846C325.148 28.2361 325.057 27.6975 324.875 27.2302C324.692 26.7596 324.427 26.3917 324.079 26.1265C323.731 25.858 323.309 25.7238 322.812 25.7238C322.301 25.7238 321.87 25.863 321.519 26.1414C321.171 26.4165 320.906 26.7894 320.723 27.26C320.545 27.7307 320.455 28.2593 320.455 28.846C320.455 29.4392 320.546 29.9745 320.728 30.4518C320.911 30.9291 321.176 31.3086 321.524 31.5903C321.875 31.8687 322.304 32.0079 322.812 32.0079ZM329.11 32.7338C328.914 32.7338 328.745 32.6642 328.603 32.5249C328.463 32.3824 328.394 32.2134 328.394 32.0178C328.394 31.819 328.463 31.6499 328.603 31.5107C328.745 31.3715 328.914 31.3019 329.11 31.3019C329.309 31.3019 329.478 31.3715 329.617 31.5107C329.756 31.6499 329.826 31.819 329.826 32.0178C329.826 32.1471 329.793 32.2664 329.726 32.3758C329.663 32.4852 329.577 32.573 329.468 32.6393C329.362 32.7023 329.242 32.7338 329.11 32.7338Z" fill="black"/>
</svg>
