<svg width="395" height="318" viewBox="0 0 395 318" fill="none" xmlns="http://www.w3.org/2000/svg">
<rect x="1" y="1" width="393" height="316" rx="23" fill="#FAFAF5"/>
<rect x="1" y="1" width="393" height="316" rx="23" stroke="#E6E6E6" stroke-width="2"/>
<path d="M38.4318 36.7273C38.4318 38.2945 38.1383 39.6368 37.5511 40.7543C36.9688 41.867 36.1733 42.7192 35.1648 43.3111C34.161 43.9029 33.0223 44.1989 31.7486 44.1989C30.4749 44.1989 29.3338 43.9029 28.3253 43.3111C27.3215 42.7145 26.526 41.8598 25.9389 40.7472C25.3565 39.6297 25.0653 38.2898 25.0653 36.7273C25.0653 35.16 25.3565 33.8201 25.9389 32.7074C26.526 31.59 27.3215 30.7353 28.3253 30.1435C29.3338 29.5516 30.4749 29.2557 31.7486 29.2557C33.0223 29.2557 34.161 29.5516 35.1648 30.1435C36.1733 30.7353 36.9688 31.59 37.5511 32.7074C38.1383 33.8201 38.4318 35.16 38.4318 36.7273ZM35.7827 36.7273C35.7827 35.6241 35.6098 34.6937 35.2642 33.9361C34.9233 33.1738 34.4498 32.5985 33.8438 32.2102C33.2377 31.8172 32.5393 31.6207 31.7486 31.6207C30.9579 31.6207 30.2595 31.8172 29.6534 32.2102C29.0473 32.5985 28.5715 33.1738 28.2259 33.9361C27.8849 34.6937 27.7145 35.6241 27.7145 36.7273C27.7145 37.8305 27.8849 38.7633 28.2259 39.5256C28.5715 40.2831 29.0473 40.8584 29.6534 41.2514C30.2595 41.6397 30.9579 41.8338 31.7486 41.8338C32.5393 41.8338 33.2377 41.6397 33.8438 41.2514C34.4498 40.8584 34.9233 40.2831 35.2642 39.5256C35.6098 38.7633 35.7827 37.8305 35.7827 36.7273ZM40.8093 44V33.0909H43.3022V34.9091H43.4158C43.6147 34.2794 43.9556 33.794 44.4386 33.4531C44.9263 33.1075 45.4826 32.9347 46.1076 32.9347C46.2496 32.9347 46.4083 32.9418 46.5835 32.956C46.7634 32.9654 46.9125 32.982 47.0309 33.0057V35.3707C46.922 35.3329 46.7492 35.2997 46.5124 35.2713C46.2804 35.2382 46.0555 35.2216 45.8377 35.2216C45.369 35.2216 44.9476 35.3234 44.5735 35.527C44.2042 35.7259 43.913 36.0028 43.6999 36.358C43.4869 36.7131 43.3803 37.1226 43.3803 37.5866V44H40.8093ZM52.3381 44.1918C51.4811 44.1918 50.714 43.9716 50.0369 43.5312C49.3598 43.0909 48.8248 42.4517 48.4318 41.6136C48.0388 40.7756 47.8423 39.7576 47.8423 38.5597C47.8423 37.3475 48.0412 36.3248 48.4389 35.4915C48.8414 34.6534 49.3835 34.0213 50.0653 33.5952C50.7472 33.1643 51.5071 32.9489 52.3452 32.9489C52.9844 32.9489 53.5099 33.0578 53.9219 33.2756C54.3338 33.4886 54.6605 33.7467 54.902 34.0497C55.1435 34.348 55.3305 34.6297 55.4631 34.8949H55.5696V29.4545H58.1477V44H55.6193V42.2812H55.4631C55.3305 42.5464 55.1387 42.8281 54.8878 43.1264C54.6368 43.42 54.3054 43.6709 53.8935 43.8793C53.4815 44.0876 52.9631 44.1918 52.3381 44.1918ZM53.0554 42.0824C53.5999 42.0824 54.0639 41.9356 54.4474 41.642C54.831 41.3437 55.1222 40.9295 55.321 40.3991C55.5199 39.8688 55.6193 39.2509 55.6193 38.5455C55.6193 37.84 55.5199 37.2268 55.321 36.706C55.1269 36.1851 54.8381 35.7803 54.4545 35.4915C54.0758 35.2027 53.6094 35.0582 53.0554 35.0582C52.4825 35.0582 52.0043 35.2074 51.6207 35.5057C51.2372 35.804 50.9484 36.2159 50.7543 36.7415C50.5601 37.267 50.4631 37.8684 50.4631 38.5455C50.4631 39.2273 50.5601 39.8357 50.7543 40.3707C50.9531 40.901 51.2443 41.3201 51.6278 41.6278C52.0161 41.9309 52.492 42.0824 53.0554 42.0824ZM65.717 44.2131C64.6232 44.2131 63.6786 43.9858 62.8832 43.5312C62.0924 43.072 61.484 42.4233 61.0579 41.5852C60.6317 40.7424 60.4187 39.7505 60.4187 38.6094C60.4187 37.4872 60.6317 36.5024 61.0579 35.6548C61.4888 34.8026 62.0901 34.1397 62.8619 33.6662C63.6336 33.188 64.5404 32.9489 65.582 32.9489C66.2544 32.9489 66.8888 33.0578 67.4854 33.2756C68.0868 33.4886 68.6171 33.8201 69.0763 34.2699C69.5404 34.7197 69.9049 35.2926 70.1701 35.9886C70.4353 36.6799 70.5678 37.5038 70.5678 38.4602V39.2486H61.6261V37.5156H68.1033C68.0986 37.0232 67.9921 36.5852 67.7837 36.2017C67.5754 35.8134 67.2842 35.508 66.9102 35.2855C66.5408 35.063 66.11 34.9517 65.6175 34.9517C65.092 34.9517 64.6303 35.0795 64.2326 35.3352C63.8349 35.5862 63.5247 35.9176 63.3022 36.3295C63.0844 36.7367 62.9731 37.1842 62.9684 37.6719V39.1847C62.9684 39.8191 63.0844 40.3636 63.3164 40.8182C63.5484 41.268 63.8728 41.6136 64.2894 41.8551C64.7061 42.0919 65.1938 42.2102 65.7525 42.2102C66.1265 42.2102 66.4651 42.1581 66.7681 42.054C67.0711 41.9451 67.3339 41.7865 67.5565 41.5781C67.779 41.3698 67.9471 41.1117 68.0607 40.804L70.4613 41.0739C70.3098 41.7083 70.021 42.2623 69.5948 42.7358C69.1734 43.2045 68.6336 43.5691 67.9755 43.8295C67.3174 44.0852 66.5645 44.2131 65.717 44.2131ZM72.7429 44V33.0909H75.2358V34.9091H75.3494C75.5483 34.2794 75.8892 33.794 76.3722 33.4531C76.8598 33.1075 77.4162 32.9347 78.0412 32.9347C78.1832 32.9347 78.3419 32.9418 78.517 32.956C78.697 32.9654 78.8461 32.982 78.9645 33.0057V35.3707C78.8556 35.3329 78.6828 35.2997 78.446 35.2713C78.214 35.2382 77.9891 35.2216 77.7713 35.2216C77.3026 35.2216 76.8812 35.3234 76.5071 35.527C76.1378 35.7259 75.8466 36.0028 75.6335 36.358C75.4205 36.7131 75.3139 37.1226 75.3139 37.5866V44H72.7429ZM94.2557 35.9744L91.9119 36.2301C91.8456 35.9934 91.7296 35.7708 91.5639 35.5625C91.4029 35.3542 91.1851 35.1861 90.9105 35.0582C90.6359 34.9304 90.2997 34.8665 89.902 34.8665C89.367 34.8665 88.9171 34.9825 88.5526 35.2145C88.1927 35.4465 88.0152 35.7472 88.0199 36.1165C88.0152 36.4337 88.1312 36.6918 88.3679 36.8906C88.6094 37.0895 89.0071 37.2528 89.5611 37.3807L91.4219 37.7784C92.4541 38.0009 93.2211 38.3537 93.723 38.8366C94.2296 39.3196 94.4853 39.9517 94.4901 40.733C94.4853 41.4195 94.2841 42.0256 93.8864 42.5511C93.4934 43.072 92.9465 43.4792 92.2457 43.7727C91.545 44.0663 90.7401 44.2131 89.831 44.2131C88.4957 44.2131 87.4209 43.9337 86.6065 43.375C85.7921 42.8116 85.3068 42.0279 85.1506 41.0241L87.6577 40.7827C87.7713 41.2751 88.0128 41.6468 88.3821 41.8977C88.7514 42.1487 89.232 42.2741 89.8239 42.2741C90.4347 42.2741 90.9247 42.1487 91.294 41.8977C91.6681 41.6468 91.8551 41.3366 91.8551 40.9673C91.8551 40.6548 91.7344 40.3968 91.4929 40.1932C91.2562 39.9896 90.8868 39.8333 90.3849 39.7244L88.5241 39.3338C87.4777 39.116 86.7036 38.7491 86.2017 38.233C85.6998 37.7121 85.4512 37.054 85.456 36.2585C85.4512 35.5862 85.6335 35.0038 86.0028 34.5114C86.3769 34.0142 86.8954 33.6307 87.5582 33.3608C88.2259 33.0862 88.9953 32.9489 89.8665 32.9489C91.1449 32.9489 92.151 33.2211 92.8849 33.7656C93.6236 34.3101 94.0805 35.0464 94.2557 35.9744ZM103.563 39.4119V33.0909H106.134V44H103.641V42.0611H103.528C103.281 42.6719 102.877 43.1714 102.313 43.5597C101.754 43.9479 101.066 44.142 100.246 44.142C99.5315 44.142 98.8994 43.9834 98.3501 43.6662C97.8056 43.3442 97.3795 42.8778 97.0717 42.267C96.764 41.6515 96.6101 40.9081 96.6101 40.0369V33.0909H99.1811V39.6392C99.1811 40.3305 99.3705 40.8797 99.7493 41.2869C100.128 41.6941 100.625 41.8977 101.241 41.8977C101.62 41.8977 101.987 41.8054 102.342 41.6207C102.697 41.4361 102.988 41.1615 103.215 40.7969C103.447 40.4276 103.563 39.9659 103.563 39.4119ZM108.778 44V33.0909H111.235V34.9446H111.363C111.591 34.3196 111.967 33.8319 112.493 33.4815C113.018 33.1264 113.645 32.9489 114.375 32.9489C115.113 32.9489 115.736 33.1288 116.243 33.4886C116.754 33.8437 117.114 34.3291 117.322 34.9446H117.436C117.677 34.3385 118.084 33.8556 118.657 33.4957C119.235 33.1312 119.919 32.9489 120.71 32.9489C121.714 32.9489 122.533 33.2661 123.167 33.9006C123.802 34.535 124.119 35.4607 124.119 36.6776V44H121.541V37.0753C121.541 36.3982 121.361 35.9034 121.001 35.5909C120.641 35.2737 120.201 35.1151 119.68 35.1151C119.06 35.1151 118.574 35.3092 118.224 35.6974C117.878 36.081 117.706 36.5805 117.706 37.196V44H115.184V36.9688C115.184 36.4053 115.014 35.9555 114.673 35.6193C114.337 35.2831 113.896 35.1151 113.352 35.1151C112.983 35.1151 112.646 35.2098 112.343 35.3991C112.04 35.5838 111.799 35.8466 111.619 36.1875C111.439 36.5237 111.349 36.9167 111.349 37.3665V44H108.778ZM126.727 44V33.0909H129.185V34.9446H129.312C129.54 34.3196 129.916 33.8319 130.442 33.4815C130.967 33.1264 131.595 32.9489 132.324 32.9489C133.062 32.9489 133.685 33.1288 134.192 33.4886C134.703 33.8437 135.063 34.3291 135.271 34.9446H135.385C135.626 34.3385 136.034 33.8556 136.607 33.4957C137.184 33.1312 137.868 32.9489 138.659 32.9489C139.663 32.9489 140.482 33.2661 141.116 33.9006C141.751 34.535 142.068 35.4607 142.068 36.6776V44H139.49V37.0753C139.49 36.3982 139.31 35.9034 138.95 35.5909C138.59 35.2737 138.15 35.1151 137.629 35.1151C137.009 35.1151 136.524 35.3092 136.173 35.6974C135.828 36.081 135.655 36.5805 135.655 37.196V44H133.134V36.9688C133.134 36.4053 132.963 35.9555 132.622 35.6193C132.286 35.2831 131.846 35.1151 131.301 35.1151C130.932 35.1151 130.596 35.2098 130.293 35.3991C129.99 35.5838 129.748 35.8466 129.568 36.1875C129.388 36.5237 129.298 36.9167 129.298 37.3665V44H126.727ZM147.816 44.2202C147.124 44.2202 146.502 44.0971 145.948 43.8509C145.399 43.5999 144.963 43.2306 144.641 42.7429C144.324 42.2552 144.165 41.6539 144.165 40.9389C144.165 40.3234 144.279 39.8144 144.506 39.4119C144.733 39.0095 145.043 38.6875 145.436 38.446C145.829 38.2045 146.272 38.0223 146.765 37.8991C147.262 37.7713 147.775 37.679 148.306 37.6222C148.945 37.5559 149.463 37.4967 149.861 37.4446C150.259 37.3878 150.548 37.3026 150.728 37.1889C150.912 37.0705 151.005 36.8883 151.005 36.642V36.5994C151.005 36.0644 150.846 35.6501 150.529 35.3565C150.212 35.063 149.755 34.9162 149.158 34.9162C148.528 34.9162 148.029 35.0535 147.659 35.3281C147.295 35.6027 147.049 35.9271 146.921 36.3011L144.52 35.9602C144.71 35.2973 145.022 34.7434 145.458 34.2983C145.893 33.8485 146.426 33.5123 147.056 33.2898C147.685 33.0625 148.382 32.9489 149.144 32.9489C149.669 32.9489 150.193 33.0104 150.713 33.1335C151.234 33.2566 151.71 33.4602 152.141 33.7443C152.572 34.0237 152.917 34.4048 153.178 34.8878C153.443 35.3707 153.576 35.9744 153.576 36.6989V44H151.104V42.5014H151.019C150.863 42.8045 150.642 43.0885 150.358 43.3537C150.079 43.6141 149.726 43.8248 149.3 43.9858C148.879 44.142 148.384 44.2202 147.816 44.2202ZM148.483 42.331C148.999 42.331 149.447 42.2292 149.826 42.0256C150.204 41.8172 150.496 41.5426 150.699 41.2017C150.908 40.8608 151.012 40.4891 151.012 40.0866V38.8011C150.931 38.8674 150.794 38.929 150.6 38.9858C150.41 39.0426 150.197 39.0923 149.961 39.1349C149.724 39.1776 149.489 39.2154 149.257 39.2486C149.025 39.2817 148.824 39.3101 148.654 39.3338C148.27 39.3859 147.927 39.4711 147.624 39.5895C147.321 39.7079 147.082 39.8736 146.907 40.0866C146.731 40.295 146.644 40.5649 146.644 40.8963C146.644 41.3698 146.817 41.7273 147.162 41.9688C147.508 42.2102 147.948 42.331 148.483 42.331ZM156.161 44V33.0909H158.654V34.9091H158.767C158.966 34.2794 159.307 33.794 159.79 33.4531C160.278 33.1075 160.834 32.9347 161.459 32.9347C161.601 32.9347 161.76 32.9418 161.935 32.956C162.115 32.9654 162.264 32.982 162.382 33.0057V35.3707C162.274 35.3329 162.101 35.2997 161.864 35.2713C161.632 35.2382 161.407 35.2216 161.189 35.2216C160.721 35.2216 160.299 35.3234 159.925 35.527C159.556 35.7259 159.265 36.0028 159.051 36.358C158.838 36.7131 158.732 37.1226 158.732 37.5866V44H156.161ZM166.021 48.0909C165.67 48.0909 165.346 48.0625 165.048 48.0057C164.754 47.9536 164.52 47.892 164.344 47.821L164.941 45.8182C165.315 45.9271 165.649 45.9792 165.942 45.9744C166.236 45.9697 166.494 45.8774 166.717 45.6974C166.944 45.5223 167.136 45.2287 167.292 44.8168L167.512 44.2273L163.556 33.0909H166.283L168.798 41.3295H168.911L171.433 33.0909H174.167L169.799 45.321C169.595 45.8987 169.326 46.3935 168.989 46.8054C168.653 47.2221 168.241 47.5393 167.754 47.7571C167.271 47.9796 166.693 48.0909 166.021 48.0909Z" fill="black"/>
<path d="M31.7727 89.2727C31.7045 88.697 31.428 88.25 30.9432 87.9318C30.4583 87.6136 29.8636 87.4545 29.1591 87.4545C28.6439 87.4545 28.1932 87.5379 27.8068 87.7045C27.4242 87.8712 27.125 88.1004 26.9091 88.392C26.697 88.6837 26.5909 89.0152 26.5909 89.3864C26.5909 89.697 26.6648 89.964 26.8125 90.1875C26.964 90.4072 27.1572 90.5909 27.392 90.7386C27.6269 90.8826 27.8731 91.0019 28.1307 91.0966C28.3883 91.1875 28.625 91.2614 28.8409 91.3182L30.0227 91.6364C30.3258 91.7159 30.6629 91.8258 31.0341 91.9659C31.4091 92.1061 31.767 92.2973 32.108 92.5398C32.4527 92.7784 32.7367 93.0852 32.9602 93.4602C33.1837 93.8352 33.2955 94.2955 33.2955 94.8409C33.2955 95.4697 33.1307 96.0379 32.8011 96.5455C32.4754 97.053 31.9981 97.4564 31.3693 97.7557C30.7443 98.0549 29.9848 98.2045 29.0909 98.2045C28.2576 98.2045 27.536 98.0701 26.9261 97.8011C26.3201 97.5322 25.8428 97.1572 25.4943 96.6761C25.1496 96.1951 24.9545 95.6364 24.9091 95H26.3636C26.4015 95.4394 26.5492 95.803 26.8068 96.0909C27.0682 96.375 27.3977 96.5871 27.7955 96.7273C28.197 96.8636 28.6288 96.9318 29.0909 96.9318C29.6288 96.9318 30.1117 96.8447 30.5398 96.6705C30.9678 96.4924 31.3068 96.2462 31.5568 95.9318C31.8068 95.6136 31.9318 95.2424 31.9318 94.8182C31.9318 94.4318 31.8239 94.1174 31.608 93.875C31.392 93.6326 31.108 93.4356 30.7557 93.2841C30.4034 93.1326 30.0227 93 29.6136 92.8864L28.1818 92.4773C27.2727 92.2159 26.553 91.8428 26.0227 91.358C25.4924 90.8731 25.2273 90.2386 25.2273 89.4545C25.2273 88.803 25.4034 88.2348 25.7557 87.75C26.1117 87.2614 26.589 86.8826 27.1875 86.6136C27.7898 86.3409 28.4621 86.2045 29.2045 86.2045C29.9545 86.2045 30.6212 86.339 31.2045 86.608C31.7879 86.8731 32.25 87.2367 32.5909 87.6989C32.9356 88.161 33.1174 88.6856 33.1364 89.2727H31.7727ZM40.9304 94.4318V89.2727H42.2713V98H40.9304V96.5227H40.8395C40.6349 96.9659 40.3168 97.3428 39.8849 97.6534C39.4531 97.9602 38.9077 98.1136 38.2486 98.1136C37.7031 98.1136 37.2183 97.9943 36.794 97.7557C36.3698 97.5133 36.0365 97.1496 35.794 96.6648C35.5516 96.1761 35.4304 95.5606 35.4304 94.8182V89.2727H36.7713V94.7273C36.7713 95.3636 36.9493 95.8712 37.3054 96.25C37.6652 96.6288 38.1236 96.8182 38.6804 96.8182C39.0137 96.8182 39.3527 96.733 39.6974 96.5625C40.0459 96.392 40.3376 96.1307 40.5724 95.7784C40.8111 95.4261 40.9304 94.9773 40.9304 94.4318ZM44.9091 98V86.3636H46.25V90.6591H46.3636C46.4621 90.5076 46.5985 90.3144 46.7727 90.0795C46.9508 89.8409 47.2045 89.6288 47.5341 89.4432C47.8674 89.2538 48.3182 89.1591 48.8864 89.1591C49.6212 89.1591 50.2689 89.3428 50.8295 89.7102C51.3902 90.0777 51.8277 90.5985 52.142 91.2727C52.4564 91.947 52.6136 92.7424 52.6136 93.6591C52.6136 94.5833 52.4564 95.3845 52.142 96.0625C51.8277 96.7367 51.392 97.2595 50.8352 97.6307C50.2784 97.9981 49.6364 98.1818 48.9091 98.1818C48.3485 98.1818 47.8996 98.089 47.5625 97.9034C47.2254 97.714 46.9659 97.5 46.7841 97.2614C46.6023 97.0189 46.4621 96.8182 46.3636 96.6591H46.2045V98H44.9091ZM46.2273 93.6364C46.2273 94.2955 46.3239 94.8769 46.517 95.3807C46.7102 95.8807 46.9924 96.2727 47.3636 96.5568C47.7348 96.8371 48.1894 96.9773 48.7273 96.9773C49.2879 96.9773 49.7557 96.8295 50.1307 96.5341C50.5095 96.2348 50.7936 95.8333 50.983 95.3295C51.1761 94.822 51.2727 94.2576 51.2727 93.6364C51.2727 93.0227 51.178 92.4697 50.9886 91.9773C50.803 91.4811 50.5208 91.089 50.142 90.8011C49.767 90.5095 49.2955 90.3636 48.7273 90.3636C48.1818 90.3636 47.7235 90.5019 47.3523 90.7784C46.9811 91.0511 46.7008 91.4337 46.5114 91.9261C46.322 92.4148 46.2273 92.9848 46.2273 93.6364ZM58.4602 89.2727V90.4091H53.9375V89.2727H58.4602ZM55.2557 87.1818H56.5966V95.5C56.5966 95.8788 56.6515 96.1629 56.7614 96.3523C56.875 96.5379 57.0189 96.6629 57.1932 96.7273C57.3712 96.7879 57.5587 96.8182 57.7557 96.8182C57.9034 96.8182 58.0246 96.8106 58.1193 96.7955C58.214 96.7765 58.2898 96.7614 58.3466 96.75L58.6193 97.9545C58.5284 97.9886 58.4015 98.0227 58.2386 98.0568C58.0758 98.0947 57.8693 98.1136 57.6193 98.1136C57.2405 98.1136 56.8693 98.0322 56.5057 97.8693C56.1458 97.7064 55.8466 97.4583 55.608 97.125C55.3731 96.7917 55.2557 96.3712 55.2557 95.8636V87.1818ZM63.929 98.1818C63.1411 98.1818 62.4498 97.9943 61.8551 97.6193C61.2642 97.2443 60.8021 96.7197 60.4688 96.0455C60.1392 95.3712 59.9744 94.5833 59.9744 93.6818C59.9744 92.7727 60.1392 91.9792 60.4688 91.3011C60.8021 90.6231 61.2642 90.0966 61.8551 89.7216C62.4498 89.3466 63.1411 89.1591 63.929 89.1591C64.7169 89.1591 65.4063 89.3466 65.9972 89.7216C66.5919 90.0966 67.054 90.6231 67.3835 91.3011C67.7169 91.9792 67.8835 92.7727 67.8835 93.6818C67.8835 94.5833 67.7169 95.3712 67.3835 96.0455C67.054 96.7197 66.5919 97.2443 65.9972 97.6193C65.4063 97.9943 64.7169 98.1818 63.929 98.1818ZM63.929 96.9773C64.5275 96.9773 65.0199 96.8239 65.4062 96.517C65.7926 96.2102 66.0786 95.8068 66.2642 95.3068C66.4498 94.8068 66.5426 94.2652 66.5426 93.6818C66.5426 93.0985 66.4498 92.5549 66.2642 92.0511C66.0786 91.5473 65.7926 91.1402 65.4062 90.8295C65.0199 90.5189 64.5275 90.3636 63.929 90.3636C63.3305 90.3636 62.8381 90.5189 62.4517 90.8295C62.0653 91.1402 61.7794 91.5473 61.5938 92.0511C61.4081 92.5549 61.3153 93.0985 61.3153 93.6818C61.3153 94.2652 61.4081 94.8068 61.5938 95.3068C61.7794 95.8068 62.0653 96.2102 62.4517 96.517C62.8381 96.8239 63.3305 96.9773 63.929 96.9773ZM73.7259 89.2727V90.4091H69.2031V89.2727H73.7259ZM70.5213 87.1818H71.8622V95.5C71.8622 95.8788 71.9171 96.1629 72.027 96.3523C72.1406 96.5379 72.2846 96.6629 72.4588 96.7273C72.6368 96.7879 72.8243 96.8182 73.0213 96.8182C73.169 96.8182 73.2902 96.8106 73.3849 96.7955C73.4796 96.7765 73.5554 96.7614 73.6122 96.75L73.8849 97.9545C73.794 97.9886 73.6671 98.0227 73.5043 98.0568C73.3414 98.0947 73.1349 98.1136 72.8849 98.1136C72.5062 98.1136 72.1349 98.0322 71.7713 97.8693C71.4115 97.7064 71.1122 97.4583 70.8736 97.125C70.6387 96.7917 70.5213 96.3712 70.5213 95.8636V87.1818ZM78.3111 98.2045C77.758 98.2045 77.2562 98.1004 76.8054 97.892C76.3546 97.6799 75.9967 97.375 75.7315 96.9773C75.4664 96.5758 75.3338 96.0909 75.3338 95.5227C75.3338 95.0227 75.4323 94.6174 75.6293 94.3068C75.8262 93.9924 76.0895 93.7462 76.419 93.5682C76.7486 93.3902 77.1122 93.2576 77.5099 93.1705C77.9115 93.0795 78.3149 93.0076 78.7202 92.9545C79.2505 92.8864 79.6804 92.8352 80.0099 92.8011C80.3433 92.7633 80.5857 92.7008 80.7372 92.6136C80.8925 92.5265 80.9702 92.375 80.9702 92.1591V92.1136C80.9702 91.553 80.8168 91.1174 80.5099 90.8068C80.2069 90.4962 79.7467 90.3409 79.1293 90.3409C78.4891 90.3409 77.9872 90.4811 77.6236 90.7614C77.2599 91.0417 77.0043 91.3409 76.8565 91.6591L75.5838 91.2045C75.8111 90.6742 76.1141 90.2614 76.4929 89.9659C76.8755 89.6667 77.2921 89.4583 77.7429 89.3409C78.1974 89.2197 78.6444 89.1591 79.0838 89.1591C79.3641 89.1591 79.6861 89.1932 80.0497 89.2614C80.4171 89.3258 80.7713 89.4602 81.1122 89.6648C81.4569 89.8693 81.7429 90.178 81.9702 90.5909C82.1974 91.0038 82.3111 91.5568 82.3111 92.25V98H80.9702V96.8182H80.902C80.8111 97.0076 80.6596 97.2102 80.4474 97.4261C80.2353 97.642 79.9531 97.8258 79.6009 97.9773C79.2486 98.1288 78.8187 98.2045 78.3111 98.2045ZM78.5156 97C79.0459 97 79.4929 96.8958 79.8565 96.6875C80.224 96.4792 80.5005 96.2102 80.6861 95.8807C80.8755 95.5511 80.9702 95.2045 80.9702 94.8409V93.6136C80.9134 93.6818 80.7884 93.7443 80.5952 93.8011C80.4058 93.8542 80.1861 93.9015 79.9361 93.9432C79.6899 93.9811 79.4493 94.0152 79.2145 94.0455C78.9834 94.072 78.7959 94.0947 78.652 94.1136C78.3035 94.1591 77.9777 94.233 77.6747 94.3352C77.3755 94.4337 77.133 94.5833 76.9474 94.7841C76.7656 94.9811 76.6747 95.25 76.6747 95.5909C76.6747 96.0568 76.8471 96.4091 77.1918 96.6477C77.5402 96.8826 77.9815 97 78.5156 97ZM86.0994 86.3636V98H84.7585V86.3636H86.0994Z" fill="black"/>
<path d="M323.668 99.4545V84.9091H324.599V99.4545H323.668ZM326.804 89.2727C326.736 88.697 326.459 88.25 325.974 87.9318C325.49 87.6136 324.895 87.4545 324.19 87.4545C323.675 87.4545 323.224 87.5379 322.838 87.7045C322.455 87.8712 322.156 88.1004 321.94 88.392C321.728 88.6837 321.622 89.0152 321.622 89.3864C321.622 89.697 321.696 89.964 321.844 90.1875C321.995 90.4072 322.188 90.5909 322.423 90.7386C322.658 90.8826 322.904 91.0019 323.162 91.0966C323.42 91.1875 323.656 91.2614 323.872 91.3182L325.054 91.6364C325.357 91.7159 325.694 91.8258 326.065 91.9659C326.44 92.1061 326.798 92.2973 327.139 92.5398C327.484 92.7784 327.768 93.0852 327.991 93.4602C328.215 93.8352 328.327 94.2955 328.327 94.8409C328.327 95.4697 328.162 96.0379 327.832 96.5455C327.507 97.053 327.029 97.4564 326.401 97.7557C325.776 98.0549 325.016 98.2045 324.122 98.2045C323.289 98.2045 322.567 98.0701 321.957 97.8011C321.351 97.5322 320.874 97.1572 320.526 96.6761C320.181 96.1951 319.986 95.6364 319.94 95H321.395C321.433 95.4394 321.58 95.803 321.838 96.0909C322.099 96.375 322.429 96.5871 322.827 96.7273C323.228 96.8636 323.66 96.9318 324.122 96.9318C324.66 96.9318 325.143 96.8447 325.571 96.6705C325.999 96.4924 326.338 96.2462 326.588 95.9318C326.838 95.6136 326.963 95.2424 326.963 94.8182C326.963 94.4318 326.855 94.1174 326.639 93.875C326.423 93.6326 326.139 93.4356 325.787 93.2841C325.435 93.1326 325.054 93 324.645 92.8864L323.213 92.4773C322.304 92.2159 321.584 91.8428 321.054 91.358C320.524 90.8731 320.259 90.2386 320.259 89.4545C320.259 88.803 320.435 88.2348 320.787 87.75C321.143 87.2614 321.62 86.8826 322.219 86.6136C322.821 86.3409 323.493 86.2045 324.236 86.2045C324.986 86.2045 325.652 86.339 326.236 86.608C326.819 86.8731 327.281 87.2367 327.622 87.6989C327.967 88.161 328.149 88.6856 328.168 89.2727H326.804ZM330.439 98V96.9773L334.28 92.7727C334.731 92.2803 335.102 91.8523 335.393 91.4886C335.685 91.1212 335.901 90.7765 336.041 90.4545C336.185 90.1288 336.257 89.7879 336.257 89.4318C336.257 89.0227 336.159 88.6686 335.962 88.3693C335.768 88.0701 335.503 87.839 335.166 87.6761C334.829 87.5133 334.45 87.4318 334.03 87.4318C333.583 87.4318 333.193 87.5246 332.859 87.7102C332.53 87.892 332.274 88.1477 332.092 88.4773C331.914 88.8068 331.825 89.1932 331.825 89.6364H330.484C330.484 88.9545 330.642 88.3561 330.956 87.8409C331.27 87.3258 331.698 86.9242 332.24 86.6364C332.786 86.3485 333.397 86.2045 334.075 86.2045C334.757 86.2045 335.361 86.3485 335.888 86.6364C336.414 86.9242 336.827 87.3125 337.126 87.8011C337.426 88.2898 337.575 88.8333 337.575 89.4318C337.575 89.8598 337.498 90.2784 337.342 90.6875C337.191 91.0928 336.926 91.5455 336.547 92.0455C336.172 92.5417 335.651 93.1477 334.984 93.8636L332.371 96.6591V96.75H337.78V98H330.439ZM340.49 98L345.695 87.7045V87.6136H339.695V86.3636H347.149V87.6818L341.967 98H340.49ZM348.267 98.0909C347.987 98.0909 347.746 97.9905 347.545 97.7898C347.345 97.589 347.244 97.3485 347.244 97.0682C347.244 96.7879 347.345 96.5473 347.545 96.3466C347.746 96.1458 347.987 96.0455 348.267 96.0455C348.547 96.0455 348.788 96.1458 348.989 96.3466C349.189 96.5473 349.29 96.7879 349.29 97.0682C349.29 97.2538 349.242 97.4242 349.148 97.5795C349.057 97.7348 348.934 97.8598 348.778 97.9545C348.627 98.0455 348.456 98.0909 348.267 98.0909ZM351.401 95.6136V94.4545L356.514 86.3636H357.355V88.1591H356.787L352.923 94.2727V94.3636H359.81V95.6136H351.401ZM356.878 98V95.2614V94.7216V86.3636H358.219V98H356.878ZM361.666 95.6136V94.4545L366.78 86.3636H367.621V88.1591H367.053L363.189 94.2727V94.3636H370.075V95.6136H361.666ZM367.143 98V95.2614V94.7216V86.3636H368.484V98H367.143Z" fill="black"/>
<path d="M31.7727 126.273C31.7045 125.697 31.428 125.25 30.9432 124.932C30.4583 124.614 29.8636 124.455 29.1591 124.455C28.6439 124.455 28.1932 124.538 27.8068 124.705C27.4242 124.871 27.125 125.1 26.9091 125.392C26.697 125.684 26.5909 126.015 26.5909 126.386C26.5909 126.697 26.6648 126.964 26.8125 127.188C26.964 127.407 27.1572 127.591 27.392 127.739C27.6269 127.883 27.8731 128.002 28.1307 128.097C28.3883 128.187 28.625 128.261 28.8409 128.318L30.0227 128.636C30.3258 128.716 30.6629 128.826 31.0341 128.966C31.4091 129.106 31.767 129.297 32.108 129.54C32.4527 129.778 32.7367 130.085 32.9602 130.46C33.1837 130.835 33.2955 131.295 33.2955 131.841C33.2955 132.47 33.1307 133.038 32.8011 133.545C32.4754 134.053 31.9981 134.456 31.3693 134.756C30.7443 135.055 29.9848 135.205 29.0909 135.205C28.2576 135.205 27.536 135.07 26.9261 134.801C26.3201 134.532 25.8428 134.157 25.4943 133.676C25.1496 133.195 24.9545 132.636 24.9091 132H26.3636C26.4015 132.439 26.5492 132.803 26.8068 133.091C27.0682 133.375 27.3977 133.587 27.7955 133.727C28.197 133.864 28.6288 133.932 29.0909 133.932C29.6288 133.932 30.1117 133.845 30.5398 133.67C30.9678 133.492 31.3068 133.246 31.5568 132.932C31.8068 132.614 31.9318 132.242 31.9318 131.818C31.9318 131.432 31.8239 131.117 31.608 130.875C31.392 130.633 31.108 130.436 30.7557 130.284C30.4034 130.133 30.0227 130 29.6136 129.886L28.1818 129.477C27.2727 129.216 26.553 128.843 26.0227 128.358C25.4924 127.873 25.2273 127.239 25.2273 126.455C25.2273 125.803 25.4034 125.235 25.7557 124.75C26.1117 124.261 26.589 123.883 27.1875 123.614C27.7898 123.341 28.4621 123.205 29.2045 123.205C29.9545 123.205 30.6212 123.339 31.2045 123.608C31.7879 123.873 32.25 124.237 32.5909 124.699C32.9356 125.161 33.1174 125.686 33.1364 126.273H31.7727ZM36.7713 129.75V135H35.4304V123.364H36.7713V127.636H36.8849C37.0895 127.186 37.3963 126.828 37.8054 126.562C38.2183 126.294 38.7675 126.159 39.4531 126.159C40.0478 126.159 40.5687 126.278 41.0156 126.517C41.4626 126.752 41.8092 127.114 42.0554 127.602C42.3054 128.087 42.4304 128.705 42.4304 129.455V135H41.0895V129.545C41.0895 128.852 40.9096 128.316 40.5497 127.938C40.1937 127.555 39.6993 127.364 39.0668 127.364C38.6274 127.364 38.2334 127.456 37.8849 127.642C37.5402 127.828 37.2675 128.098 37.0668 128.455C36.8698 128.811 36.7713 129.242 36.7713 129.75ZM44.8835 135V126.273H46.2244V135H44.8835ZM45.5653 124.818C45.304 124.818 45.0786 124.729 44.8892 124.551C44.7036 124.373 44.6108 124.159 44.6108 123.909C44.6108 123.659 44.7036 123.445 44.8892 123.267C45.0786 123.089 45.304 123 45.5653 123C45.8267 123 46.0502 123.089 46.2358 123.267C46.4252 123.445 46.5199 123.659 46.5199 123.909C46.5199 124.159 46.4252 124.373 46.2358 124.551C46.0502 124.729 45.8267 124.818 45.5653 124.818ZM48.6804 138.273V126.273H49.9759V127.659H50.1349C50.2334 127.508 50.3698 127.314 50.544 127.08C50.7221 126.841 50.9759 126.629 51.3054 126.443C51.6387 126.254 52.0895 126.159 52.6577 126.159C53.3925 126.159 54.0402 126.343 54.6009 126.71C55.1615 127.078 55.599 127.598 55.9134 128.273C56.2277 128.947 56.3849 129.742 56.3849 130.659C56.3849 131.583 56.2277 132.384 55.9134 133.062C55.599 133.737 55.1634 134.259 54.6065 134.631C54.0497 134.998 53.4077 135.182 52.6804 135.182C52.1198 135.182 51.6709 135.089 51.3338 134.903C50.9967 134.714 50.7372 134.5 50.5554 134.261C50.3736 134.019 50.2334 133.818 50.1349 133.659H50.0213V138.273H48.6804ZM49.9986 130.636C49.9986 131.295 50.0952 131.877 50.2884 132.381C50.4815 132.881 50.7637 133.273 51.1349 133.557C51.5062 133.837 51.9607 133.977 52.4986 133.977C53.0592 133.977 53.527 133.83 53.902 133.534C54.2808 133.235 54.5649 132.833 54.7543 132.33C54.9474 131.822 55.044 131.258 55.044 130.636C55.044 130.023 54.9493 129.47 54.7599 128.977C54.5743 128.481 54.2921 128.089 53.9134 127.801C53.5384 127.509 53.0668 127.364 52.4986 127.364C51.9531 127.364 51.4948 127.502 51.1236 127.778C50.7524 128.051 50.4721 128.434 50.2827 128.926C50.0933 129.415 49.9986 129.985 49.9986 130.636ZM58.4304 138.273V126.273H59.7259V127.659H59.8849C59.9834 127.508 60.1198 127.314 60.294 127.08C60.4721 126.841 60.7259 126.629 61.0554 126.443C61.3887 126.254 61.8395 126.159 62.4077 126.159C63.1425 126.159 63.7902 126.343 64.3509 126.71C64.9115 127.078 65.349 127.598 65.6634 128.273C65.9777 128.947 66.1349 129.742 66.1349 130.659C66.1349 131.583 65.9777 132.384 65.6634 133.062C65.349 133.737 64.9134 134.259 64.3565 134.631C63.7997 134.998 63.1577 135.182 62.4304 135.182C61.8698 135.182 61.4209 135.089 61.0838 134.903C60.7467 134.714 60.4872 134.5 60.3054 134.261C60.1236 134.019 59.9834 133.818 59.8849 133.659H59.7713V138.273H58.4304ZM59.7486 130.636C59.7486 131.295 59.8452 131.877 60.0384 132.381C60.2315 132.881 60.5137 133.273 60.8849 133.557C61.2562 133.837 61.7107 133.977 62.2486 133.977C62.8092 133.977 63.277 133.83 63.652 133.534C64.0308 133.235 64.3149 132.833 64.5043 132.33C64.6974 131.822 64.794 131.258 64.794 130.636C64.794 130.023 64.6993 129.47 64.5099 128.977C64.3243 128.481 64.0421 128.089 63.6634 127.801C63.2884 127.509 62.8168 127.364 62.2486 127.364C61.7031 127.364 61.2448 127.502 60.8736 127.778C60.5024 128.051 60.2221 128.434 60.0327 128.926C59.8433 129.415 59.7486 129.985 59.7486 130.636ZM68.1804 135V126.273H69.5213V135H68.1804ZM68.8622 124.818C68.6009 124.818 68.3755 124.729 68.1861 124.551C68.0005 124.373 67.9077 124.159 67.9077 123.909C67.9077 123.659 68.0005 123.445 68.1861 123.267C68.3755 123.089 68.6009 123 68.8622 123C69.1236 123 69.3471 123.089 69.5327 123.267C69.7221 123.445 69.8168 123.659 69.8168 123.909C69.8168 124.159 69.7221 124.373 69.5327 124.551C69.3471 124.729 69.1236 124.818 68.8622 124.818ZM73.3182 129.75V135H71.9773V126.273H73.2727V127.636H73.3864C73.5909 127.193 73.9015 126.837 74.3182 126.568C74.7348 126.295 75.2727 126.159 75.9318 126.159C76.5227 126.159 77.0398 126.28 77.483 126.523C77.9261 126.761 78.2708 127.125 78.517 127.614C78.7633 128.098 78.8864 128.712 78.8864 129.455V135H77.5455V129.545C77.5455 128.86 77.3674 128.326 77.0114 127.943C76.6553 127.557 76.1667 127.364 75.5455 127.364C75.1174 127.364 74.7348 127.456 74.3977 127.642C74.0644 127.828 73.8011 128.098 73.608 128.455C73.4148 128.811 73.3182 129.242 73.3182 129.75ZM84.8594 138.455C84.2116 138.455 83.6548 138.371 83.1889 138.205C82.723 138.042 82.3348 137.826 82.0241 137.557C81.7173 137.292 81.473 137.008 81.2912 136.705L82.3594 135.955C82.4806 136.114 82.634 136.295 82.8196 136.5C83.0052 136.708 83.259 136.888 83.581 137.04C83.9067 137.195 84.3329 137.273 84.8594 137.273C85.5639 137.273 86.1454 137.102 86.6037 136.761C87.062 136.42 87.2912 135.886 87.2912 135.159V133.386H87.1776C87.0791 133.545 86.9389 133.742 86.7571 133.977C86.5791 134.208 86.3215 134.415 85.9844 134.597C85.651 134.775 85.2003 134.864 84.6321 134.864C83.9276 134.864 83.295 134.697 82.7344 134.364C82.1776 134.03 81.7363 133.545 81.4105 132.909C81.0885 132.273 80.9276 131.5 80.9276 130.591C80.9276 129.697 81.0848 128.919 81.3991 128.256C81.7135 127.589 82.151 127.074 82.7116 126.71C83.2723 126.343 83.92 126.159 84.6548 126.159C85.223 126.159 85.6738 126.254 86.0071 126.443C86.3442 126.629 86.6018 126.841 86.7798 127.08C86.9616 127.314 87.1018 127.508 87.2003 127.659H87.3366V126.273H88.6321V135.25C88.6321 136 88.4616 136.61 88.1207 137.08C87.7836 137.553 87.3291 137.9 86.7571 138.119C86.1889 138.343 85.5563 138.455 84.8594 138.455ZM84.8139 133.659C85.3518 133.659 85.8063 133.536 86.1776 133.29C86.5488 133.044 86.831 132.689 87.0241 132.227C87.2173 131.765 87.3139 131.212 87.3139 130.568C87.3139 129.939 87.2192 129.384 87.0298 128.903C86.8404 128.422 86.5601 128.045 86.1889 127.773C85.8177 127.5 85.3594 127.364 84.8139 127.364C84.2457 127.364 83.7723 127.508 83.3935 127.795C83.0185 128.083 82.7363 128.47 82.5469 128.955C82.3613 129.439 82.2685 129.977 82.2685 130.568C82.2685 131.174 82.3632 131.71 82.5526 132.176C82.7457 132.638 83.0298 133.002 83.4048 133.267C83.7836 133.528 84.2533 133.659 84.8139 133.659Z" fill="black"/>
<path d="M331.339 136.455V121.909H332.271V136.455H331.339ZM334.476 126.273C334.408 125.697 334.131 125.25 333.646 124.932C333.161 124.614 332.567 124.455 331.862 124.455C331.347 124.455 330.896 124.538 330.51 124.705C330.127 124.871 329.828 125.1 329.612 125.392C329.4 125.684 329.294 126.015 329.294 126.386C329.294 126.697 329.368 126.964 329.516 127.188C329.667 127.407 329.86 127.591 330.095 127.739C330.33 127.883 330.576 128.002 330.834 128.097C331.091 128.187 331.328 128.261 331.544 128.318L332.726 128.636C333.029 128.716 333.366 128.826 333.737 128.966C334.112 129.106 334.47 129.297 334.811 129.54C335.156 129.778 335.44 130.085 335.663 130.46C335.887 130.835 335.999 131.295 335.999 131.841C335.999 132.47 335.834 133.038 335.504 133.545C335.179 134.053 334.701 134.456 334.072 134.756C333.447 135.055 332.688 135.205 331.794 135.205C330.961 135.205 330.239 135.07 329.629 134.801C329.023 134.532 328.546 134.157 328.197 133.676C327.853 133.195 327.658 132.636 327.612 132H329.067C329.105 132.439 329.252 132.803 329.51 133.091C329.771 133.375 330.101 133.587 330.499 133.727C330.9 133.864 331.332 133.932 331.794 133.932C332.332 133.932 332.815 133.845 333.243 133.67C333.671 133.492 334.01 133.246 334.26 132.932C334.51 132.614 334.635 132.242 334.635 131.818C334.635 131.432 334.527 131.117 334.311 130.875C334.095 130.633 333.811 130.436 333.459 130.284C333.107 130.133 332.726 130 332.317 129.886L330.885 129.477C329.976 129.216 329.256 128.843 328.726 128.358C328.196 127.873 327.93 127.239 327.93 126.455C327.93 125.803 328.107 125.235 328.459 124.75C328.815 124.261 329.292 123.883 329.891 123.614C330.493 123.341 331.165 123.205 331.908 123.205C332.658 123.205 333.324 123.339 333.908 123.608C334.491 123.873 334.953 124.237 335.294 124.699C335.639 125.161 335.821 125.686 335.839 126.273H334.476ZM342.043 135.159C341.293 135.159 340.624 135.03 340.037 134.773C339.454 134.515 338.99 134.157 338.645 133.699C338.304 133.237 338.118 132.701 338.088 132.091H339.52C339.55 132.466 339.679 132.79 339.906 133.062C340.134 133.331 340.431 133.54 340.798 133.688C341.166 133.835 341.573 133.909 342.02 133.909C342.52 133.909 342.963 133.822 343.349 133.648C343.736 133.473 344.039 133.231 344.259 132.92C344.478 132.61 344.588 132.25 344.588 131.841C344.588 131.413 344.482 131.036 344.27 130.71C344.058 130.381 343.747 130.123 343.338 129.938C342.929 129.752 342.429 129.659 341.838 129.659H340.906V128.409H341.838C342.3 128.409 342.705 128.326 343.054 128.159C343.406 127.992 343.681 127.758 343.878 127.455C344.079 127.152 344.179 126.795 344.179 126.386C344.179 125.992 344.092 125.65 343.918 125.358C343.743 125.066 343.497 124.839 343.179 124.676C342.865 124.513 342.493 124.432 342.065 124.432C341.664 124.432 341.285 124.506 340.929 124.653C340.577 124.797 340.289 125.008 340.065 125.284C339.842 125.557 339.721 125.886 339.702 126.273H338.338C338.361 125.663 338.545 125.129 338.889 124.67C339.234 124.208 339.685 123.848 340.241 123.591C340.802 123.333 341.418 123.205 342.088 123.205C342.808 123.205 343.425 123.35 343.94 123.642C344.455 123.93 344.851 124.311 345.128 124.784C345.404 125.258 345.543 125.769 345.543 126.318C345.543 126.973 345.37 127.532 345.026 127.994C344.685 128.456 344.221 128.777 343.634 128.955V129.045C344.368 129.167 344.942 129.479 345.355 129.983C345.768 130.483 345.974 131.102 345.974 131.841C345.974 132.473 345.802 133.042 345.457 133.545C345.116 134.045 344.651 134.439 344.06 134.727C343.469 135.015 342.796 135.159 342.043 135.159ZM348.939 135.091C348.659 135.091 348.418 134.991 348.217 134.79C348.017 134.589 347.916 134.348 347.916 134.068C347.916 133.788 348.017 133.547 348.217 133.347C348.418 133.146 348.659 133.045 348.939 133.045C349.219 133.045 349.46 133.146 349.661 133.347C349.861 133.547 349.962 133.788 349.962 134.068C349.962 134.254 349.914 134.424 349.82 134.58C349.729 134.735 349.606 134.86 349.45 134.955C349.299 135.045 349.128 135.091 348.939 135.091ZM355.94 123.205C356.418 123.208 356.895 123.299 357.372 123.477C357.849 123.655 358.285 123.951 358.679 124.364C359.073 124.773 359.389 125.331 359.628 126.04C359.866 126.748 359.986 127.636 359.986 128.705C359.986 129.739 359.887 130.657 359.69 131.46C359.497 132.259 359.217 132.934 358.849 133.483C358.486 134.032 358.043 134.449 357.52 134.733C357.001 135.017 356.414 135.159 355.759 135.159C355.107 135.159 354.526 135.03 354.014 134.773C353.507 134.511 353.09 134.15 352.764 133.688C352.442 133.222 352.236 132.682 352.145 132.068H353.531C353.656 132.602 353.904 133.044 354.276 133.392C354.651 133.737 355.145 133.909 355.759 133.909C356.656 133.909 357.365 133.517 357.884 132.733C358.406 131.949 358.668 130.841 358.668 129.409H358.577C358.365 129.727 358.113 130.002 357.821 130.233C357.529 130.464 357.205 130.642 356.849 130.767C356.493 130.892 356.115 130.955 355.713 130.955C355.046 130.955 354.435 130.79 353.878 130.46C353.325 130.127 352.882 129.67 352.548 129.091C352.219 128.508 352.054 127.841 352.054 127.091C352.054 126.379 352.213 125.727 352.531 125.136C352.853 124.542 353.304 124.068 353.884 123.716C354.467 123.364 355.152 123.193 355.94 123.205ZM355.94 124.455C355.463 124.455 355.033 124.574 354.651 124.812C354.272 125.047 353.971 125.366 353.747 125.767C353.527 126.165 353.418 126.606 353.418 127.091C353.418 127.576 353.524 128.017 353.736 128.415C353.952 128.809 354.245 129.123 354.616 129.358C354.991 129.589 355.418 129.705 355.895 129.705C356.255 129.705 356.59 129.634 356.901 129.494C357.211 129.35 357.482 129.155 357.713 128.909C357.948 128.659 358.132 128.377 358.264 128.062C358.397 127.744 358.463 127.413 358.463 127.068C358.463 126.614 358.353 126.187 358.134 125.79C357.918 125.392 357.618 125.07 357.236 124.824C356.857 124.578 356.425 124.455 355.94 124.455ZM365.925 123.205C366.402 123.208 366.879 123.299 367.357 123.477C367.834 123.655 368.269 123.951 368.663 124.364C369.057 124.773 369.374 125.331 369.612 126.04C369.851 126.748 369.97 127.636 369.97 128.705C369.97 129.739 369.872 130.657 369.675 131.46C369.482 132.259 369.201 132.934 368.834 133.483C368.47 134.032 368.027 134.449 367.504 134.733C366.985 135.017 366.398 135.159 365.743 135.159C365.091 135.159 364.51 135.03 363.999 134.773C363.491 134.511 363.074 134.15 362.749 133.688C362.427 133.222 362.22 132.682 362.129 132.068H363.516C363.641 132.602 363.889 133.044 364.26 133.392C364.635 133.737 365.129 133.909 365.743 133.909C366.641 133.909 367.349 133.517 367.868 132.733C368.391 131.949 368.652 130.841 368.652 129.409H368.561C368.349 129.727 368.097 130.002 367.805 130.233C367.514 130.464 367.19 130.642 366.834 130.767C366.478 130.892 366.099 130.955 365.697 130.955C365.031 130.955 364.419 130.79 363.862 130.46C363.309 130.127 362.866 129.67 362.533 129.091C362.203 128.508 362.038 127.841 362.038 127.091C362.038 126.379 362.197 125.727 362.516 125.136C362.838 124.542 363.288 124.068 363.868 123.716C364.451 123.364 365.137 123.193 365.925 123.205ZM365.925 124.455C365.447 124.455 365.018 124.574 364.635 124.812C364.256 125.047 363.955 125.366 363.732 125.767C363.512 126.165 363.402 126.606 363.402 127.091C363.402 127.576 363.508 128.017 363.72 128.415C363.936 128.809 364.23 129.123 364.601 129.358C364.976 129.589 365.402 129.705 365.879 129.705C366.239 129.705 366.574 129.634 366.885 129.494C367.196 129.35 367.466 129.155 367.697 128.909C367.932 128.659 368.116 128.377 368.249 128.062C368.381 127.744 368.447 127.413 368.447 127.068C368.447 126.614 368.338 126.187 368.118 125.79C367.902 125.392 367.603 125.07 367.22 124.824C366.841 124.578 366.41 124.455 365.925 124.455Z" fill="black"/>
<path d="M24.7727 161.614V160.364H33.5V161.614H29.8409V172H28.4318V161.614H24.7727ZM36.8736 172.205C36.3205 172.205 35.8187 172.1 35.3679 171.892C34.9171 171.68 34.5592 171.375 34.294 170.977C34.0289 170.576 33.8963 170.091 33.8963 169.523C33.8963 169.023 33.9948 168.617 34.1918 168.307C34.3887 167.992 34.652 167.746 34.9815 167.568C35.3111 167.39 35.6747 167.258 36.0724 167.17C36.474 167.08 36.8774 167.008 37.2827 166.955C37.813 166.886 38.2429 166.835 38.5724 166.801C38.9058 166.763 39.1482 166.701 39.2997 166.614C39.455 166.527 39.5327 166.375 39.5327 166.159V166.114C39.5327 165.553 39.3793 165.117 39.0724 164.807C38.7694 164.496 38.3092 164.341 37.6918 164.341C37.0516 164.341 36.5497 164.481 36.1861 164.761C35.8224 165.042 35.5668 165.341 35.419 165.659L34.1463 165.205C34.3736 164.674 34.6766 164.261 35.0554 163.966C35.438 163.667 35.8546 163.458 36.3054 163.341C36.7599 163.22 37.2069 163.159 37.6463 163.159C37.9266 163.159 38.2486 163.193 38.6122 163.261C38.9796 163.326 39.3338 163.46 39.6747 163.665C40.0194 163.869 40.3054 164.178 40.5327 164.591C40.7599 165.004 40.8736 165.557 40.8736 166.25V172H39.5327V170.818H39.4645C39.3736 171.008 39.2221 171.21 39.0099 171.426C38.7978 171.642 38.5156 171.826 38.1634 171.977C37.8111 172.129 37.3812 172.205 36.8736 172.205ZM37.0781 171C37.6084 171 38.0554 170.896 38.419 170.688C38.7865 170.479 39.063 170.21 39.2486 169.881C39.438 169.551 39.5327 169.205 39.5327 168.841V167.614C39.4759 167.682 39.3509 167.744 39.1577 167.801C38.9683 167.854 38.7486 167.902 38.4986 167.943C38.2524 167.981 38.0118 168.015 37.777 168.045C37.5459 168.072 37.3584 168.095 37.2145 168.114C36.866 168.159 36.5402 168.233 36.2372 168.335C35.938 168.434 35.6955 168.583 35.5099 168.784C35.3281 168.981 35.2372 169.25 35.2372 169.591C35.2372 170.057 35.4096 170.409 35.7543 170.648C36.1027 170.883 36.544 171 37.0781 171ZM44.321 163.273L46.4119 166.841L48.5028 163.273H50.0483L47.2301 167.636L50.0483 172H48.5028L46.4119 168.614L44.321 172H42.7756L45.5483 167.636L42.7756 163.273H44.321Z" fill="black"/>
<path d="M331.746 173.455V158.909H332.678V173.455H331.746ZM334.882 163.273C334.814 162.697 334.537 162.25 334.053 161.932C333.568 161.614 332.973 161.455 332.268 161.455C331.753 161.455 331.303 161.538 330.916 161.705C330.534 161.871 330.234 162.1 330.018 162.392C329.806 162.684 329.7 163.015 329.7 163.386C329.7 163.697 329.774 163.964 329.922 164.188C330.073 164.407 330.267 164.591 330.501 164.739C330.736 164.883 330.982 165.002 331.24 165.097C331.498 165.187 331.734 165.261 331.95 165.318L333.132 165.636C333.435 165.716 333.772 165.826 334.143 165.966C334.518 166.106 334.876 166.297 335.217 166.54C335.562 166.778 335.846 167.085 336.07 167.46C336.293 167.835 336.405 168.295 336.405 168.841C336.405 169.47 336.24 170.038 335.911 170.545C335.585 171.053 335.107 171.456 334.479 171.756C333.854 172.055 333.094 172.205 332.2 172.205C331.367 172.205 330.645 172.07 330.036 171.801C329.429 171.532 328.952 171.157 328.604 170.676C328.259 170.195 328.064 169.636 328.018 169H329.473C329.511 169.439 329.659 169.803 329.916 170.091C330.178 170.375 330.507 170.587 330.905 170.727C331.306 170.864 331.738 170.932 332.2 170.932C332.738 170.932 333.221 170.845 333.649 170.67C334.077 170.492 334.416 170.246 334.666 169.932C334.916 169.614 335.041 169.242 335.041 168.818C335.041 168.432 334.933 168.117 334.717 167.875C334.501 167.633 334.217 167.436 333.865 167.284C333.513 167.133 333.132 167 332.723 166.886L331.291 166.477C330.382 166.216 329.662 165.843 329.132 165.358C328.602 164.873 328.337 164.239 328.337 163.455C328.337 162.803 328.513 162.235 328.865 161.75C329.221 161.261 329.698 160.883 330.297 160.614C330.899 160.341 331.571 160.205 332.314 160.205C333.064 160.205 333.731 160.339 334.314 160.608C334.897 160.873 335.359 161.237 335.7 161.699C336.045 162.161 336.227 162.686 336.246 163.273H334.882ZM338.517 172V170.977L342.358 166.773C342.809 166.28 343.18 165.852 343.472 165.489C343.763 165.121 343.979 164.777 344.119 164.455C344.263 164.129 344.335 163.788 344.335 163.432C344.335 163.023 344.237 162.669 344.04 162.369C343.847 162.07 343.581 161.839 343.244 161.676C342.907 161.513 342.528 161.432 342.108 161.432C341.661 161.432 341.271 161.525 340.938 161.71C340.608 161.892 340.352 162.148 340.17 162.477C339.992 162.807 339.903 163.193 339.903 163.636H338.562C338.562 162.955 338.72 162.356 339.034 161.841C339.348 161.326 339.777 160.924 340.318 160.636C340.864 160.348 341.475 160.205 342.153 160.205C342.835 160.205 343.439 160.348 343.966 160.636C344.492 160.924 344.905 161.312 345.205 161.801C345.504 162.29 345.653 162.833 345.653 163.432C345.653 163.86 345.576 164.278 345.42 164.688C345.269 165.093 345.004 165.545 344.625 166.045C344.25 166.542 343.729 167.148 343.062 167.864L340.449 170.659V170.75H345.858V172H338.517ZM349.205 172.091C348.924 172.091 348.684 171.991 348.483 171.79C348.282 171.589 348.182 171.348 348.182 171.068C348.182 170.788 348.282 170.547 348.483 170.347C348.684 170.146 348.924 170.045 349.205 170.045C349.485 170.045 349.725 170.146 349.926 170.347C350.127 170.547 350.227 170.788 350.227 171.068C350.227 171.254 350.18 171.424 350.085 171.58C349.994 171.735 349.871 171.86 349.716 171.955C349.564 172.045 349.394 172.091 349.205 172.091ZM356 172.159C355.144 172.159 354.415 171.926 353.812 171.46C353.21 170.991 352.75 170.311 352.432 169.42C352.114 168.527 351.955 167.447 351.955 166.182C351.955 164.924 352.114 163.85 352.432 162.96C352.754 162.066 353.216 161.384 353.818 160.915C354.424 160.441 355.152 160.205 356 160.205C356.848 160.205 357.574 160.441 358.176 160.915C358.782 161.384 359.244 162.066 359.562 162.96C359.884 163.85 360.045 164.924 360.045 166.182C360.045 167.447 359.886 168.527 359.568 169.42C359.25 170.311 358.79 170.991 358.188 171.46C357.585 171.926 356.856 172.159 356 172.159ZM356 170.909C356.848 170.909 357.508 170.5 357.977 169.682C358.447 168.864 358.682 167.697 358.682 166.182C358.682 165.174 358.574 164.316 358.358 163.608C358.146 162.9 357.839 162.36 357.438 161.989C357.04 161.617 356.561 161.432 356 161.432C355.159 161.432 354.502 161.847 354.028 162.676C353.555 163.502 353.318 164.67 353.318 166.182C353.318 167.189 353.424 168.045 353.636 168.75C353.848 169.455 354.153 169.991 354.551 170.358C354.953 170.725 355.436 170.909 356 170.909ZM366 172.159C365.144 172.159 364.415 171.926 363.812 171.46C363.21 170.991 362.75 170.311 362.432 169.42C362.114 168.527 361.955 167.447 361.955 166.182C361.955 164.924 362.114 163.85 362.432 162.96C362.754 162.066 363.216 161.384 363.818 160.915C364.424 160.441 365.152 160.205 366 160.205C366.848 160.205 367.574 160.441 368.176 160.915C368.782 161.384 369.244 162.066 369.562 162.96C369.884 163.85 370.045 164.924 370.045 166.182C370.045 167.447 369.886 168.527 369.568 169.42C369.25 170.311 368.79 170.991 368.188 171.46C367.585 171.926 366.856 172.159 366 172.159ZM366 170.909C366.848 170.909 367.508 170.5 367.977 169.682C368.447 168.864 368.682 167.697 368.682 166.182C368.682 165.174 368.574 164.316 368.358 163.608C368.146 162.9 367.839 162.36 367.438 161.989C367.04 161.617 366.561 161.432 366 161.432C365.159 161.432 364.502 161.847 364.028 162.676C363.555 163.502 363.318 164.67 363.318 166.182C363.318 167.189 363.424 168.045 363.636 168.75C363.848 169.455 364.153 169.991 364.551 170.358C364.953 170.725 365.436 170.909 366 170.909Z" fill="black"/>
<path d="M24.6364 199.131V197.364H33.9205V199.131H30.3239V209H28.233V199.131H24.6364ZM38.1605 209.17C37.3082 209.17 36.5696 208.983 35.9446 208.608C35.3196 208.233 34.8348 207.708 34.4901 207.034C34.1491 206.36 33.9787 205.572 33.9787 204.67C33.9787 203.769 34.1491 202.979 34.4901 202.301C34.8348 201.623 35.3196 201.097 35.9446 200.722C36.5696 200.347 37.3082 200.159 38.1605 200.159C39.0128 200.159 39.7514 200.347 40.3764 200.722C41.0014 201.097 41.4844 201.623 41.8253 202.301C42.17 202.979 42.3423 203.769 42.3423 204.67C42.3423 205.572 42.17 206.36 41.8253 207.034C41.4844 207.708 41.0014 208.233 40.3764 208.608C39.7514 208.983 39.0128 209.17 38.1605 209.17ZM38.1719 207.523C38.634 207.523 39.0204 207.396 39.331 207.142C39.6416 206.884 39.8726 206.54 40.0241 206.108C40.1795 205.676 40.2571 205.195 40.2571 204.665C40.2571 204.131 40.1795 203.648 40.0241 203.216C39.8726 202.78 39.6416 202.434 39.331 202.176C39.0204 201.919 38.634 201.79 38.1719 201.79C37.6984 201.79 37.3045 201.919 36.9901 202.176C36.6795 202.434 36.4465 202.78 36.2912 203.216C36.1397 203.648 36.0639 204.131 36.0639 204.665C36.0639 205.195 36.1397 205.676 36.2912 206.108C36.4465 206.54 36.6795 206.884 36.9901 207.142C37.3045 207.396 37.6984 207.523 38.1719 207.523ZM48.446 200.273V201.864H43.429V200.273H48.446ZM44.6676 198.182H46.7244V206.375C46.7244 206.652 46.7661 206.864 46.8494 207.011C46.9366 207.155 47.0502 207.254 47.1903 207.307C47.3305 207.36 47.4858 207.386 47.6562 207.386C47.785 207.386 47.9025 207.377 48.0085 207.358C48.1184 207.339 48.2017 207.322 48.2585 207.307L48.6051 208.915C48.4953 208.953 48.3381 208.994 48.1335 209.04C47.9328 209.085 47.6866 209.112 47.3949 209.119C46.8797 209.134 46.4157 209.057 46.0028 208.886C45.59 208.712 45.2623 208.443 45.0199 208.08C44.7813 207.716 44.6638 207.261 44.6676 206.716V198.182ZM52.6776 209.176C52.1245 209.176 51.6264 209.078 51.1832 208.881C50.7438 208.68 50.3954 208.384 50.1378 207.994C49.884 207.604 49.7571 207.123 49.7571 206.551C49.7571 206.059 49.848 205.652 50.0298 205.33C50.2116 205.008 50.4598 204.75 50.7741 204.557C51.0885 204.364 51.4427 204.218 51.8366 204.119C52.2344 204.017 52.6454 203.943 53.0696 203.898C53.581 203.845 53.9957 203.797 54.3139 203.756C54.6321 203.71 54.8632 203.642 55.0071 203.551C55.1548 203.456 55.2287 203.311 55.2287 203.114V203.08C55.2287 202.652 55.1018 202.32 54.848 202.085C54.5942 201.85 54.2287 201.733 53.7514 201.733C53.2476 201.733 52.848 201.843 52.5526 202.062C52.2609 202.282 52.0639 202.542 51.9616 202.841L50.0412 202.568C50.1927 202.038 50.4427 201.595 50.7912 201.239C51.1397 200.879 51.5658 200.61 52.0696 200.432C52.5734 200.25 53.1302 200.159 53.7401 200.159C54.1605 200.159 54.5791 200.208 54.9957 200.307C55.4124 200.405 55.7931 200.568 56.1378 200.795C56.4825 201.019 56.759 201.324 56.9673 201.71C57.1795 202.097 57.2855 202.58 57.2855 203.159V209H55.3082V207.801H55.2401C55.1151 208.044 54.9389 208.271 54.7116 208.483C54.4882 208.691 54.206 208.86 53.8651 208.989C53.5279 209.114 53.1321 209.176 52.6776 209.176ZM53.2116 207.665C53.6245 207.665 53.9825 207.583 54.2855 207.42C54.5885 207.254 54.8215 207.034 54.9844 206.761C55.151 206.489 55.2344 206.191 55.2344 205.869V204.841C55.17 204.894 55.0601 204.943 54.9048 204.989C54.7533 205.034 54.5829 205.074 54.3935 205.108C54.2041 205.142 54.0166 205.172 53.831 205.199C53.6454 205.225 53.4844 205.248 53.348 205.267C53.0412 205.309 52.7666 205.377 52.5241 205.472C52.2817 205.566 52.0904 205.699 51.9503 205.869C51.8101 206.036 51.7401 206.252 51.7401 206.517C51.7401 206.896 51.8783 207.182 52.1548 207.375C52.4313 207.568 52.7836 207.665 53.2116 207.665ZM61.4105 197.364V209H59.3537V197.364H61.4105Z" fill="black"/>
<path d="M319.175 207.455V192.909H320.107V207.455H319.175ZM321.862 197.562C321.809 197.066 321.586 196.68 321.192 196.403C320.802 196.127 320.294 195.989 319.669 195.989C319.23 195.989 318.853 196.055 318.538 196.188C318.224 196.32 317.983 196.5 317.817 196.727C317.65 196.955 317.565 197.214 317.561 197.506C317.561 197.748 317.616 197.958 317.726 198.136C317.839 198.314 317.993 198.466 318.186 198.591C318.379 198.712 318.593 198.814 318.828 198.898C319.063 198.981 319.3 199.051 319.538 199.108L320.629 199.381C321.069 199.483 321.491 199.621 321.896 199.795C322.305 199.97 322.671 200.189 322.993 200.455C323.319 200.72 323.576 201.04 323.766 201.415C323.955 201.79 324.05 202.229 324.05 202.733C324.05 203.415 323.875 204.015 323.527 204.534C323.179 205.049 322.675 205.453 322.016 205.744C321.36 206.032 320.567 206.176 319.635 206.176C318.73 206.176 317.944 206.036 317.277 205.756C316.614 205.475 316.095 205.066 315.72 204.528C315.349 203.991 315.148 203.335 315.118 202.562H317.192C317.222 202.968 317.347 203.305 317.567 203.574C317.786 203.843 318.072 204.044 318.425 204.176C318.781 204.309 319.179 204.375 319.618 204.375C320.076 204.375 320.478 204.307 320.822 204.17C321.171 204.03 321.444 203.837 321.641 203.591C321.838 203.341 321.938 203.049 321.942 202.716C321.938 202.413 321.849 202.163 321.675 201.966C321.5 201.765 321.256 201.598 320.942 201.466C320.631 201.33 320.268 201.208 319.851 201.102L318.527 200.761C317.569 200.515 316.811 200.142 316.254 199.642C315.701 199.138 315.425 198.47 315.425 197.636C315.425 196.951 315.61 196.35 315.982 195.835C316.357 195.32 316.866 194.92 317.51 194.636C318.154 194.348 318.883 194.205 319.697 194.205C320.523 194.205 321.247 194.348 321.868 194.636C322.493 194.92 322.983 195.316 323.339 195.824C323.696 196.328 323.879 196.907 323.891 197.562H321.862ZM329.991 206.159C329.173 206.159 328.446 206.019 327.81 205.739C327.177 205.458 326.677 205.068 326.31 204.568C325.942 204.068 325.747 203.491 325.724 202.835H327.861C327.88 203.15 327.984 203.424 328.173 203.659C328.363 203.89 328.615 204.07 328.929 204.199C329.243 204.328 329.596 204.392 329.986 204.392C330.402 204.392 330.772 204.32 331.094 204.176C331.416 204.028 331.668 203.824 331.849 203.562C332.031 203.301 332.12 203 332.116 202.659C332.12 202.307 332.029 201.996 331.844 201.727C331.658 201.458 331.389 201.248 331.037 201.097C330.688 200.945 330.268 200.869 329.776 200.869H328.747V199.244H329.776C330.181 199.244 330.535 199.174 330.838 199.034C331.145 198.894 331.385 198.697 331.56 198.443C331.734 198.186 331.819 197.888 331.815 197.551C331.819 197.222 331.745 196.936 331.594 196.693C331.446 196.447 331.236 196.256 330.963 196.119C330.694 195.983 330.378 195.915 330.014 195.915C329.658 195.915 329.329 195.979 329.026 196.108C328.723 196.237 328.478 196.42 328.293 196.659C328.107 196.894 328.009 197.174 327.997 197.5H325.969C325.984 196.848 326.171 196.277 326.531 195.784C326.895 195.288 327.38 194.902 327.986 194.625C328.592 194.345 329.272 194.205 330.026 194.205C330.802 194.205 331.476 194.35 332.048 194.642C332.624 194.93 333.069 195.318 333.384 195.807C333.698 196.295 333.855 196.835 333.855 197.426C333.859 198.081 333.666 198.631 333.276 199.074C332.889 199.517 332.382 199.807 331.753 199.943V200.034C332.571 200.148 333.198 200.451 333.634 200.943C334.073 201.432 334.291 202.04 334.287 202.767C334.287 203.419 334.101 204.002 333.73 204.517C333.363 205.028 332.855 205.43 332.207 205.722C331.563 206.013 330.825 206.159 329.991 206.159ZM340.413 206.159C339.595 206.159 338.868 206.019 338.232 205.739C337.599 205.458 337.099 205.068 336.732 204.568C336.364 204.068 336.169 203.491 336.146 202.835H338.283C338.302 203.15 338.406 203.424 338.595 203.659C338.785 203.89 339.036 204.07 339.351 204.199C339.665 204.328 340.018 204.392 340.408 204.392C340.824 204.392 341.194 204.32 341.516 204.176C341.838 204.028 342.089 203.824 342.271 203.562C342.453 203.301 342.542 203 342.538 202.659C342.542 202.307 342.451 201.996 342.266 201.727C342.08 201.458 341.811 201.248 341.459 201.097C341.11 200.945 340.69 200.869 340.197 200.869H339.169V199.244H340.197C340.603 199.244 340.957 199.174 341.26 199.034C341.567 198.894 341.807 198.697 341.982 198.443C342.156 198.186 342.241 197.888 342.237 197.551C342.241 197.222 342.167 196.936 342.016 196.693C341.868 196.447 341.658 196.256 341.385 196.119C341.116 195.983 340.8 195.915 340.436 195.915C340.08 195.915 339.75 195.979 339.447 196.108C339.144 196.237 338.9 196.42 338.714 196.659C338.529 196.894 338.43 197.174 338.419 197.5H336.391C336.406 196.848 336.593 196.277 336.953 195.784C337.317 195.288 337.802 194.902 338.408 194.625C339.014 194.345 339.694 194.205 340.447 194.205C341.224 194.205 341.898 194.35 342.47 194.642C343.046 194.93 343.491 195.318 343.805 195.807C344.12 196.295 344.277 196.835 344.277 197.426C344.281 198.081 344.088 198.631 343.697 199.074C343.311 199.517 342.804 199.807 342.175 199.943V200.034C342.993 200.148 343.62 200.451 344.055 200.943C344.495 201.432 344.713 202.04 344.709 202.767C344.709 203.419 344.523 204.002 344.152 204.517C343.785 205.028 343.277 205.43 342.629 205.722C341.985 206.013 341.247 206.159 340.413 206.159ZM347.605 206.125C347.26 206.125 346.965 206.004 346.719 205.761C346.473 205.519 346.351 205.223 346.355 204.875C346.351 204.534 346.473 204.242 346.719 204C346.965 203.758 347.26 203.636 347.605 203.636C347.938 203.636 348.228 203.758 348.474 204C348.724 204.242 348.851 204.534 348.855 204.875C348.851 205.106 348.791 205.316 348.673 205.506C348.56 205.695 348.408 205.847 348.219 205.96C348.033 206.07 347.829 206.125 347.605 206.125ZM350.746 203.841V202.165L355.683 194.364H357.081V196.75H356.229L352.905 202.017V202.108H359.797V203.841H350.746ZM356.297 206V203.33L356.32 202.58V194.364H358.308V206H356.297ZM365.788 206.159C364.97 206.159 364.243 206.019 363.607 205.739C362.974 205.458 362.474 205.068 362.107 204.568C361.739 204.068 361.544 203.491 361.521 202.835H363.658C363.677 203.15 363.781 203.424 363.97 203.659C364.16 203.89 364.411 204.07 364.726 204.199C365.04 204.328 365.393 204.392 365.783 204.392C366.199 204.392 366.569 204.32 366.891 204.176C367.213 204.028 367.464 203.824 367.646 203.562C367.828 203.301 367.917 203 367.913 202.659C367.917 202.307 367.826 201.996 367.641 201.727C367.455 201.458 367.186 201.248 366.834 201.097C366.485 200.945 366.065 200.869 365.572 200.869H364.544V199.244H365.572C365.978 199.244 366.332 199.174 366.635 199.034C366.942 198.894 367.182 198.697 367.357 198.443C367.531 198.186 367.616 197.888 367.612 197.551C367.616 197.222 367.542 196.936 367.391 196.693C367.243 196.447 367.033 196.256 366.76 196.119C366.491 195.983 366.175 195.915 365.811 195.915C365.455 195.915 365.125 195.979 364.822 196.108C364.519 196.237 364.275 196.42 364.089 196.659C363.904 196.894 363.805 197.174 363.794 197.5H361.766C361.781 196.848 361.968 196.277 362.328 195.784C362.692 195.288 363.177 194.902 363.783 194.625C364.389 194.345 365.069 194.205 365.822 194.205C366.599 194.205 367.273 194.35 367.845 194.642C368.421 194.93 368.866 195.318 369.18 195.807C369.495 196.295 369.652 196.835 369.652 197.426C369.656 198.081 369.463 198.631 369.072 199.074C368.686 199.517 368.179 199.807 367.55 199.943V200.034C368.368 200.148 368.995 200.451 369.43 200.943C369.87 201.432 370.088 202.04 370.084 202.767C370.084 203.419 369.898 204.002 369.527 204.517C369.16 205.028 368.652 205.43 368.004 205.722C367.36 206.013 366.622 206.159 365.788 206.159Z" fill="black"/>
<rect x="24" y="246" width="347" height="48" rx="8" fill="#426B1F"/>
<path d="M59.108 268.29H56.983C56.9223 267.941 56.8106 267.633 56.6477 267.364C56.4848 267.091 56.2822 266.86 56.0398 266.67C55.7973 266.481 55.5208 266.339 55.2102 266.244C54.9034 266.146 54.572 266.097 54.2159 266.097C53.5833 266.097 53.0227 266.256 52.5341 266.574C52.0455 266.888 51.6629 267.35 51.3864 267.96C51.1098 268.566 50.9716 269.307 50.9716 270.182C50.9716 271.072 51.1098 271.822 51.3864 272.432C51.6667 273.038 52.0492 273.496 52.5341 273.807C53.0227 274.114 53.5814 274.267 54.2102 274.267C54.5587 274.267 54.8845 274.222 55.1875 274.131C55.4943 274.036 55.7689 273.898 56.0114 273.716C56.2576 273.534 56.464 273.311 56.6307 273.045C56.8011 272.78 56.9186 272.477 56.983 272.136L59.108 272.148C59.0284 272.701 58.8561 273.22 58.5909 273.705C58.3295 274.189 57.9867 274.617 57.5625 274.989C57.1383 275.356 56.642 275.644 56.0739 275.852C55.5057 276.057 54.875 276.159 54.1818 276.159C53.1591 276.159 52.2462 275.922 51.4432 275.449C50.6402 274.975 50.0076 274.292 49.5455 273.398C49.0833 272.504 48.8523 271.432 48.8523 270.182C48.8523 268.928 49.0852 267.856 49.5511 266.966C50.017 266.072 50.6515 265.388 51.4545 264.915C52.2576 264.441 53.1667 264.205 54.1818 264.205C54.8295 264.205 55.4318 264.295 55.9886 264.477C56.5455 264.659 57.0417 264.926 57.4773 265.278C57.9129 265.627 58.2708 266.055 58.5511 266.562C58.8352 267.066 59.0208 267.642 59.108 268.29ZM64.7543 276.17C63.902 276.17 63.1634 275.983 62.5384 275.608C61.9134 275.233 61.4285 274.708 61.0838 274.034C60.7429 273.36 60.5724 272.572 60.5724 271.67C60.5724 270.769 60.7429 269.979 61.0838 269.301C61.4285 268.623 61.9134 268.097 62.5384 267.722C63.1634 267.347 63.902 267.159 64.7543 267.159C65.6065 267.159 66.3452 267.347 66.9702 267.722C67.5952 268.097 68.0781 268.623 68.419 269.301C68.7637 269.979 68.9361 270.769 68.9361 271.67C68.9361 272.572 68.7637 273.36 68.419 274.034C68.0781 274.708 67.5952 275.233 66.9702 275.608C66.3452 275.983 65.6065 276.17 64.7543 276.17ZM64.7656 274.523C65.2277 274.523 65.6141 274.396 65.9247 274.142C66.2353 273.884 66.4664 273.54 66.6179 273.108C66.7732 272.676 66.8509 272.195 66.8509 271.665C66.8509 271.131 66.7732 270.648 66.6179 270.216C66.4664 269.78 66.2353 269.434 65.9247 269.176C65.6141 268.919 65.2277 268.79 64.7656 268.79C64.2921 268.79 63.8982 268.919 63.5838 269.176C63.2732 269.434 63.0402 269.78 62.8849 270.216C62.7334 270.648 62.6577 271.131 62.6577 271.665C62.6577 272.195 62.7334 272.676 62.8849 273.108C63.0402 273.54 63.2732 273.884 63.5838 274.142C63.8982 274.396 64.2921 274.523 64.7656 274.523ZM72.7386 270.886V276H70.6818V267.273H72.6477V268.756H72.75C72.9508 268.267 73.2708 267.879 73.7102 267.591C74.1534 267.303 74.7008 267.159 75.3523 267.159C75.9545 267.159 76.4792 267.288 76.9261 267.545C77.3769 267.803 77.7254 268.176 77.9716 268.665C78.2216 269.153 78.3447 269.746 78.3409 270.443V276H76.2841V270.761C76.2841 270.178 76.1326 269.722 75.8295 269.392C75.5303 269.062 75.1155 268.898 74.5852 268.898C74.2254 268.898 73.9053 268.977 73.625 269.136C73.3485 269.292 73.1307 269.517 72.9716 269.812C72.8163 270.108 72.7386 270.466 72.7386 270.886ZM84.7898 267.273V268.864H79.7727V267.273H84.7898ZM81.0114 265.182H83.0682V273.375C83.0682 273.652 83.1098 273.864 83.1932 274.011C83.2803 274.155 83.3939 274.254 83.5341 274.307C83.6742 274.36 83.8295 274.386 84 274.386C84.1288 274.386 84.2462 274.377 84.3523 274.358C84.4621 274.339 84.5455 274.322 84.6023 274.307L84.9489 275.915C84.839 275.953 84.6818 275.994 84.4773 276.04C84.2765 276.085 84.0303 276.112 83.7386 276.119C83.2235 276.134 82.7595 276.057 82.3466 275.886C81.9337 275.712 81.6061 275.443 81.3636 275.08C81.125 274.716 81.0076 274.261 81.0114 273.716V265.182ZM86.5099 276V267.273H88.5668V276H86.5099ZM87.544 266.034C87.2183 266.034 86.938 265.926 86.7031 265.71C86.4683 265.491 86.3509 265.227 86.3509 264.92C86.3509 264.61 86.4683 264.347 86.7031 264.131C86.938 263.911 87.2183 263.801 87.544 263.801C87.8736 263.801 88.1539 263.911 88.3849 264.131C88.6198 264.347 88.7372 264.61 88.7372 264.92C88.7372 265.227 88.6198 265.491 88.3849 265.71C88.1539 265.926 87.8736 266.034 87.544 266.034ZM92.7386 270.886V276H90.6818V267.273H92.6477V268.756H92.75C92.9508 268.267 93.2708 267.879 93.7102 267.591C94.1534 267.303 94.7008 267.159 95.3523 267.159C95.9545 267.159 96.4792 267.288 96.9261 267.545C97.3769 267.803 97.7254 268.176 97.9716 268.665C98.2216 269.153 98.3447 269.746 98.3409 270.443V276H96.2841V270.761C96.2841 270.178 96.1326 269.722 95.8295 269.392C95.5303 269.062 95.1155 268.898 94.5852 268.898C94.2254 268.898 93.9053 268.977 93.625 269.136C93.3485 269.292 93.1307 269.517 92.9716 269.812C92.8163 270.108 92.7386 270.466 92.7386 270.886ZM105.994 272.33V267.273H108.051V276H106.057V274.449H105.966C105.769 274.937 105.445 275.337 104.994 275.648C104.547 275.958 103.996 276.114 103.341 276.114C102.769 276.114 102.263 275.987 101.824 275.733C101.388 275.475 101.047 275.102 100.801 274.614C100.555 274.121 100.432 273.527 100.432 272.83V267.273H102.489V272.511C102.489 273.064 102.64 273.504 102.943 273.83C103.246 274.155 103.644 274.318 104.136 274.318C104.439 274.318 104.733 274.244 105.017 274.097C105.301 273.949 105.534 273.729 105.716 273.438C105.902 273.142 105.994 272.773 105.994 272.33ZM114.03 276.17C113.155 276.17 112.399 275.989 111.763 275.625C111.13 275.258 110.643 274.739 110.303 274.068C109.962 273.394 109.791 272.6 109.791 271.688C109.791 270.79 109.962 270.002 110.303 269.324C110.647 268.642 111.128 268.112 111.746 267.733C112.363 267.35 113.089 267.159 113.922 267.159C114.46 267.159 114.967 267.246 115.445 267.42C115.926 267.591 116.35 267.856 116.717 268.216C117.089 268.576 117.38 269.034 117.592 269.591C117.804 270.144 117.911 270.803 117.911 271.568V272.199H110.757V270.812H115.939C115.935 270.419 115.85 270.068 115.683 269.761C115.517 269.451 115.284 269.206 114.984 269.028C114.689 268.85 114.344 268.761 113.95 268.761C113.53 268.761 113.161 268.864 112.842 269.068C112.524 269.269 112.276 269.534 112.098 269.864C111.924 270.189 111.835 270.547 111.831 270.938V272.148C111.831 272.655 111.924 273.091 112.109 273.455C112.295 273.814 112.554 274.091 112.888 274.284C113.221 274.473 113.611 274.568 114.058 274.568C114.357 274.568 114.628 274.527 114.871 274.443C115.113 274.356 115.323 274.229 115.501 274.062C115.679 273.896 115.814 273.689 115.905 273.443L117.825 273.659C117.704 274.167 117.473 274.61 117.132 274.989C116.795 275.364 116.363 275.655 115.837 275.864C115.31 276.068 114.708 276.17 114.03 276.17ZM127.977 267.273V268.864H122.96V267.273H127.977ZM124.199 265.182H126.256V273.375C126.256 273.652 126.297 273.864 126.381 274.011C126.468 274.155 126.581 274.254 126.722 274.307C126.862 274.36 127.017 274.386 127.188 274.386C127.316 274.386 127.434 274.377 127.54 274.358C127.65 274.339 127.733 274.322 127.79 274.307L128.136 275.915C128.027 275.953 127.869 275.994 127.665 276.04C127.464 276.085 127.218 276.112 126.926 276.119C126.411 276.134 125.947 276.057 125.534 275.886C125.121 275.712 124.794 275.443 124.551 275.08C124.313 274.716 124.195 274.261 124.199 273.716V265.182ZM133.411 276.17C132.558 276.17 131.82 275.983 131.195 275.608C130.57 275.233 130.085 274.708 129.74 274.034C129.399 273.36 129.229 272.572 129.229 271.67C129.229 270.769 129.399 269.979 129.74 269.301C130.085 268.623 130.57 268.097 131.195 267.722C131.82 267.347 132.558 267.159 133.411 267.159C134.263 267.159 135.001 267.347 135.626 267.722C136.251 268.097 136.734 268.623 137.075 269.301C137.42 269.979 137.592 270.769 137.592 271.67C137.592 272.572 137.42 273.36 137.075 274.034C136.734 274.708 136.251 275.233 135.626 275.608C135.001 275.983 134.263 276.17 133.411 276.17ZM133.422 274.523C133.884 274.523 134.27 274.396 134.581 274.142C134.892 273.884 135.123 273.54 135.274 273.108C135.429 272.676 135.507 272.195 135.507 271.665C135.507 271.131 135.429 270.648 135.274 270.216C135.123 269.78 134.892 269.434 134.581 269.176C134.27 268.919 133.884 268.79 133.422 268.79C132.948 268.79 132.554 268.919 132.24 269.176C131.929 269.434 131.696 269.78 131.541 270.216C131.39 270.648 131.314 271.131 131.314 271.665C131.314 272.195 131.39 272.676 131.541 273.108C131.696 273.54 131.929 273.884 132.24 274.142C132.554 274.396 132.948 274.523 133.422 274.523ZM143.307 279.273V267.273H145.33V268.716H145.449C145.555 268.504 145.705 268.278 145.898 268.04C146.091 267.797 146.352 267.591 146.682 267.42C147.011 267.246 147.432 267.159 147.943 267.159C148.617 267.159 149.225 267.331 149.767 267.676C150.313 268.017 150.744 268.523 151.062 269.193C151.384 269.86 151.545 270.678 151.545 271.648C151.545 272.606 151.388 273.42 151.074 274.091C150.759 274.761 150.331 275.273 149.79 275.625C149.248 275.977 148.634 276.153 147.949 276.153C147.449 276.153 147.034 276.07 146.705 275.903C146.375 275.737 146.11 275.536 145.909 275.301C145.712 275.062 145.559 274.837 145.449 274.625H145.364V279.273H143.307ZM145.324 271.636C145.324 272.201 145.403 272.695 145.562 273.119C145.725 273.544 145.958 273.875 146.261 274.114C146.568 274.348 146.939 274.466 147.375 274.466C147.83 274.466 148.21 274.345 148.517 274.102C148.824 273.856 149.055 273.521 149.21 273.097C149.369 272.669 149.449 272.182 149.449 271.636C149.449 271.095 149.371 270.614 149.216 270.193C149.061 269.773 148.83 269.443 148.523 269.205C148.216 268.966 147.833 268.847 147.375 268.847C146.936 268.847 146.562 268.962 146.256 269.193C145.949 269.424 145.716 269.748 145.557 270.165C145.402 270.581 145.324 271.072 145.324 271.636ZM155.818 276.176C155.265 276.176 154.767 276.078 154.324 275.881C153.884 275.68 153.536 275.384 153.278 274.994C153.025 274.604 152.898 274.123 152.898 273.551C152.898 273.059 152.989 272.652 153.17 272.33C153.352 272.008 153.6 271.75 153.915 271.557C154.229 271.364 154.583 271.218 154.977 271.119C155.375 271.017 155.786 270.943 156.21 270.898C156.722 270.845 157.136 270.797 157.455 270.756C157.773 270.71 158.004 270.642 158.148 270.551C158.295 270.456 158.369 270.311 158.369 270.114V270.08C158.369 269.652 158.242 269.32 157.989 269.085C157.735 268.85 157.369 268.733 156.892 268.733C156.388 268.733 155.989 268.843 155.693 269.062C155.402 269.282 155.205 269.542 155.102 269.841L153.182 269.568C153.333 269.038 153.583 268.595 153.932 268.239C154.28 267.879 154.706 267.61 155.21 267.432C155.714 267.25 156.271 267.159 156.881 267.159C157.301 267.159 157.72 267.208 158.136 267.307C158.553 267.405 158.934 267.568 159.278 267.795C159.623 268.019 159.9 268.324 160.108 268.71C160.32 269.097 160.426 269.58 160.426 270.159V276H158.449V274.801H158.381C158.256 275.044 158.08 275.271 157.852 275.483C157.629 275.691 157.347 275.86 157.006 275.989C156.669 276.114 156.273 276.176 155.818 276.176ZM156.352 274.665C156.765 274.665 157.123 274.583 157.426 274.42C157.729 274.254 157.962 274.034 158.125 273.761C158.292 273.489 158.375 273.191 158.375 272.869V271.841C158.311 271.894 158.201 271.943 158.045 271.989C157.894 272.034 157.723 272.074 157.534 272.108C157.345 272.142 157.157 272.172 156.972 272.199C156.786 272.225 156.625 272.248 156.489 272.267C156.182 272.309 155.907 272.377 155.665 272.472C155.422 272.566 155.231 272.699 155.091 272.869C154.951 273.036 154.881 273.252 154.881 273.517C154.881 273.896 155.019 274.182 155.295 274.375C155.572 274.568 155.924 274.665 156.352 274.665ZM163.46 279.273C163.18 279.273 162.92 279.25 162.682 279.205C162.447 279.163 162.259 279.114 162.119 279.057L162.597 277.455C162.896 277.542 163.163 277.583 163.398 277.58C163.633 277.576 163.839 277.502 164.017 277.358C164.199 277.218 164.352 276.983 164.477 276.653L164.653 276.182L161.489 267.273H163.67L165.682 273.864H165.773L167.79 267.273H169.977L166.483 277.057C166.32 277.519 166.104 277.915 165.835 278.244C165.566 278.578 165.237 278.831 164.847 279.006C164.46 279.184 163.998 279.273 163.46 279.273ZM171.401 276V267.273H173.366V268.756H173.469C173.651 268.256 173.952 267.866 174.372 267.585C174.793 267.301 175.295 267.159 175.878 267.159C176.469 267.159 176.967 267.303 177.372 267.591C177.781 267.875 178.069 268.263 178.236 268.756H178.327C178.52 268.271 178.846 267.884 179.304 267.597C179.766 267.305 180.313 267.159 180.946 267.159C181.749 267.159 182.404 267.413 182.912 267.92C183.42 268.428 183.673 269.169 183.673 270.142V276H181.611V270.46C181.611 269.919 181.467 269.523 181.179 269.273C180.891 269.019 180.539 268.892 180.122 268.892C179.626 268.892 179.238 269.047 178.957 269.358C178.681 269.665 178.543 270.064 178.543 270.557V276H176.526V270.375C176.526 269.924 176.389 269.564 176.116 269.295C175.848 269.027 175.495 268.892 175.06 268.892C174.764 268.892 174.495 268.968 174.253 269.119C174.01 269.267 173.817 269.477 173.673 269.75C173.529 270.019 173.457 270.333 173.457 270.693V276H171.401ZM189.624 276.17C188.749 276.17 187.993 275.989 187.357 275.625C186.724 275.258 186.237 274.739 185.896 274.068C185.555 273.394 185.385 272.6 185.385 271.688C185.385 270.79 185.555 270.002 185.896 269.324C186.241 268.642 186.722 268.112 187.339 267.733C187.957 267.35 188.682 267.159 189.516 267.159C190.054 267.159 190.561 267.246 191.038 267.42C191.519 267.591 191.944 267.856 192.311 268.216C192.682 268.576 192.974 269.034 193.186 269.591C193.398 270.144 193.504 270.803 193.504 271.568V272.199H186.351V270.812H191.533C191.529 270.419 191.444 270.068 191.277 269.761C191.11 269.451 190.877 269.206 190.578 269.028C190.283 268.85 189.938 268.761 189.544 268.761C189.124 268.761 188.754 268.864 188.436 269.068C188.118 269.269 187.87 269.534 187.692 269.864C187.518 270.189 187.429 270.547 187.425 270.938V272.148C187.425 272.655 187.518 273.091 187.703 273.455C187.889 273.814 188.148 274.091 188.482 274.284C188.815 274.473 189.205 274.568 189.652 274.568C189.951 274.568 190.222 274.527 190.464 274.443C190.707 274.356 190.917 274.229 191.095 274.062C191.273 273.896 191.408 273.689 191.499 273.443L193.419 273.659C193.298 274.167 193.067 274.61 192.726 274.989C192.389 275.364 191.957 275.655 191.43 275.864C190.904 276.068 190.302 276.17 189.624 276.17ZM197.301 270.886V276H195.244V267.273H197.21V268.756H197.312C197.513 268.267 197.833 267.879 198.273 267.591C198.716 267.303 199.263 267.159 199.915 267.159C200.517 267.159 201.042 267.288 201.489 267.545C201.939 267.803 202.288 268.176 202.534 268.665C202.784 269.153 202.907 269.746 202.903 270.443V276H200.847V270.761C200.847 270.178 200.695 269.722 200.392 269.392C200.093 269.062 199.678 268.898 199.148 268.898C198.788 268.898 198.468 268.977 198.188 269.136C197.911 269.292 197.693 269.517 197.534 269.812C197.379 270.108 197.301 270.466 197.301 270.886ZM209.352 267.273V268.864H204.335V267.273H209.352ZM205.574 265.182H207.631V273.375C207.631 273.652 207.672 273.864 207.756 274.011C207.843 274.155 207.956 274.254 208.097 274.307C208.237 274.36 208.392 274.386 208.562 274.386C208.691 274.386 208.809 274.377 208.915 274.358C209.025 274.339 209.108 274.322 209.165 274.307L209.511 275.915C209.402 275.953 209.244 275.994 209.04 276.04C208.839 276.085 208.593 276.112 208.301 276.119C207.786 276.134 207.322 276.057 206.909 275.886C206.496 275.712 206.169 275.443 205.926 275.08C205.688 274.716 205.57 274.261 205.574 273.716V265.182Z" fill="white"/>
<path d="M331 270H347M341 276L347 270L341 264" stroke="white"/>
</svg>
