<svg width="1440" height="149" viewBox="0 0 1440 149" fill="none" xmlns="http://www.w3.org/2000/svg">
<g clip-path="url(#clip0_4368_321177)">
<rect width="1440" height="149" fill="white"/>
<path d="M307.342 110.199C306.447 110.199 305.647 110.038 304.942 109.716C304.236 109.389 303.678 108.937 303.266 108.359C302.854 107.782 302.636 107.116 302.612 106.364H303.955C303.978 106.894 304.142 107.358 304.445 107.756C304.748 108.149 305.15 108.456 305.652 108.679C306.154 108.897 306.713 109.006 307.328 109.006C308 109.006 308.592 108.88 309.104 108.629C309.62 108.378 310.022 108.035 310.311 107.599C310.605 107.159 310.751 106.662 310.751 106.108C310.751 105.521 310.602 105.002 310.304 104.553C310.006 104.103 309.577 103.752 309.018 103.501C308.464 103.25 307.802 103.125 307.03 103.125H306.178V101.932H307.03C307.66 101.932 308.216 101.818 308.699 101.591C309.187 101.359 309.57 101.035 309.849 100.618C310.129 100.201 310.268 99.7112 310.268 99.1477C310.268 98.6127 310.148 98.1416 309.906 97.7344C309.665 97.3272 309.324 97.0076 308.884 96.7756C308.448 96.5436 307.939 96.4276 307.357 96.4276C306.793 96.4276 306.277 96.5365 305.808 96.7543C305.339 96.9721 304.961 97.2798 304.672 97.6776C304.388 98.0753 304.236 98.5464 304.217 99.0909H302.932C302.951 98.3333 303.159 97.6681 303.557 97.0952C303.959 96.5175 304.492 96.0677 305.155 95.7457C305.822 95.419 306.561 95.2557 307.371 95.2557C308.228 95.2557 308.969 95.4309 309.594 95.7812C310.219 96.1316 310.702 96.598 311.043 97.1804C311.388 97.758 311.561 98.3949 311.561 99.0909C311.561 99.9195 311.336 100.63 310.886 101.222C310.437 101.809 309.83 102.216 309.068 102.443V102.536C309.996 102.72 310.725 103.132 311.256 103.771C311.791 104.406 312.058 105.185 312.058 106.108C312.058 106.884 311.855 107.583 311.447 108.203C311.04 108.819 310.482 109.306 309.771 109.666C309.066 110.021 308.256 110.199 307.342 110.199ZM320.886 110V99.0909H322.158V110H320.886ZM321.533 97.2159C321.272 97.2159 321.05 97.1283 320.865 96.9531C320.68 96.7732 320.588 96.5578 320.588 96.3068C320.588 96.0559 320.68 95.8428 320.865 95.6676C321.05 95.4877 321.272 95.3977 321.533 95.3977C321.793 95.3977 322.016 95.4877 322.2 95.6676C322.385 95.8428 322.477 96.0559 322.477 96.3068C322.477 96.5578 322.385 96.7732 322.2 96.9531C322.016 97.1283 321.793 97.2159 321.533 97.2159ZM329.798 99.0909V100.192H324.592V99.0909H329.798ZM326.218 96.4773H327.49V107.152C327.49 107.607 327.568 107.964 327.724 108.224C327.88 108.48 328.084 108.662 328.335 108.771C328.586 108.875 328.853 108.928 329.137 108.928C329.303 108.928 329.445 108.918 329.564 108.899C329.682 108.875 329.786 108.852 329.876 108.828L330.146 109.972C330.023 110.019 329.871 110.062 329.691 110.099C329.511 110.142 329.289 110.163 329.024 110.163C328.56 110.163 328.112 110.062 327.681 109.858C327.255 109.654 326.905 109.351 326.63 108.949C326.356 108.546 326.218 108.047 326.218 107.45V96.4773ZM336.962 110.227C335.944 110.227 335.064 109.991 334.32 109.517C333.577 109.039 333.002 108.378 332.594 107.536C332.192 106.688 331.991 105.713 331.991 104.609C331.991 103.511 332.192 102.536 332.594 101.683C333.002 100.826 333.563 100.156 334.278 99.6733C334.997 99.1856 335.828 98.9418 336.771 98.9418C337.362 98.9418 337.933 99.0507 338.482 99.2685C339.031 99.4815 339.524 99.8106 339.96 100.256C340.4 100.696 340.748 101.252 341.004 101.925C341.259 102.592 341.387 103.383 341.387 104.297V104.922H332.864V103.807H340.094C340.094 103.106 339.952 102.476 339.668 101.918C339.389 101.354 338.998 100.909 338.496 100.582C337.999 100.256 337.424 100.092 336.771 100.092C336.079 100.092 335.471 100.277 334.945 100.646C334.42 101.016 334.008 101.503 333.71 102.109C333.416 102.715 333.267 103.378 333.262 104.098V104.766C333.262 105.632 333.411 106.39 333.71 107.038C334.013 107.682 334.441 108.182 334.995 108.537C335.549 108.892 336.205 109.07 336.962 109.07C337.478 109.07 337.931 108.989 338.319 108.828C338.712 108.667 339.041 108.452 339.306 108.182C339.576 107.907 339.78 107.607 339.917 107.28L341.117 107.67C340.951 108.13 340.679 108.554 340.3 108.942C339.926 109.33 339.458 109.643 338.894 109.879C338.335 110.111 337.692 110.227 336.962 110.227ZM344.173 110V99.0909H345.402V100.767H345.515C345.733 100.204 346.095 99.7609 346.602 99.4389C347.113 99.1122 347.726 98.9489 348.441 98.9489C349.194 98.9489 349.812 99.1264 350.295 99.4815C350.783 99.8319 351.147 100.315 351.389 100.93H351.481C351.727 100.324 352.127 99.8437 352.681 99.4886C353.24 99.1288 353.917 98.9489 354.713 98.9489C355.726 98.9489 356.526 99.2685 357.113 99.9077C357.7 100.542 357.994 101.47 357.994 102.692V110H356.73V102.692C356.73 101.83 356.51 101.184 356.069 100.753C355.629 100.322 355.049 100.107 354.329 100.107C353.496 100.107 352.854 100.362 352.404 100.874C351.955 101.385 351.73 102.034 351.73 102.82V110H350.437V102.578C350.437 101.839 350.231 101.243 349.819 100.788C349.407 100.334 348.827 100.107 348.079 100.107C347.577 100.107 347.125 100.23 346.723 100.476C346.325 100.722 346.01 101.065 345.778 101.506C345.551 101.941 345.437 102.443 345.437 103.011V110H344.173ZM368.67 101.484L367.513 101.811C367.399 101.484 367.238 101.188 367.03 100.923C366.821 100.658 366.549 100.447 366.213 100.291C365.882 100.135 365.47 100.057 364.977 100.057C364.239 100.057 363.633 100.232 363.159 100.582C362.686 100.933 362.449 101.385 362.449 101.939C362.449 102.408 362.61 102.789 362.932 103.082C363.259 103.371 363.76 103.601 364.438 103.771L366.085 104.176C366.999 104.399 367.683 104.751 368.138 105.234C368.597 105.717 368.827 106.323 368.827 107.053C368.827 107.668 368.656 108.215 368.315 108.693C367.974 109.171 367.499 109.548 366.888 109.822C366.282 110.092 365.579 110.227 364.778 110.227C363.713 110.227 362.835 109.988 362.143 109.51C361.452 109.027 361.009 108.331 360.815 107.422L362.03 107.124C362.186 107.772 362.491 108.262 362.946 108.594C363.405 108.925 364.009 109.091 364.757 109.091C365.595 109.091 366.265 108.904 366.767 108.53C367.269 108.151 367.52 107.678 367.52 107.109C367.52 106.669 367.373 106.3 367.08 106.001C366.786 105.698 366.341 105.476 365.744 105.334L363.962 104.908C363.015 104.68 362.314 104.321 361.859 103.828C361.405 103.336 361.178 102.725 361.178 101.996C361.178 101.394 361.341 100.866 361.668 100.412C361.994 99.9527 362.444 99.5928 363.017 99.3324C363.59 99.072 364.243 98.9418 364.977 98.9418C365.976 98.9418 366.774 99.169 367.371 99.6236C367.972 100.073 368.405 100.694 368.67 101.484Z" fill="black"/>
<path d="M104.8 66.544L107.488 64.656H117.824C121.109 64.656 123.776 65.104 125.824 66C127.872 66.896 129.365 68.1333 130.304 69.712C131.243 71.2693 131.712 73.0507 131.712 75.056C131.712 78.1067 130.613 80.56 128.416 82.416C126.24 84.2507 123.435 85.3387 120 85.68L120.896 85.2C125.355 85.5413 128.843 86.8213 131.36 89.04C133.877 91.2587 135.136 93.9467 135.136 97.104C135.136 99.4933 134.539 101.669 133.344 103.632C132.171 105.573 130.251 107.12 127.584 108.272C124.939 109.424 121.397 110 116.96 110H107.52L105.568 108.144H116.416C118.912 108.144 121.056 107.76 122.848 106.992C124.661 106.224 126.048 105.04 127.008 103.44C127.989 101.819 128.48 99.7493 128.48 97.232C128.48 95.184 128.075 93.3813 127.264 91.824C126.475 90.2453 125.248 89.0187 123.584 88.144C121.941 87.2693 119.808 86.832 117.184 86.832H105.536L104.8 84.944H116.736C119.424 84.944 121.557 84.176 123.136 82.64C124.736 81.0827 125.536 78.7253 125.536 75.568C125.536 73.7547 125.141 72.176 124.352 70.832C123.584 69.4667 122.379 68.4107 120.736 67.664C119.115 66.9173 117.003 66.544 114.4 66.544H104.8ZM98.272 110V109.04L103.872 107.632V66.992L98.272 65.648V64.656H110.272V110H98.272ZM158.238 89.264L158.59 90.736C155.667 91.632 153.288 92.4853 151.454 93.296C149.64 94.1067 148.243 94.928 147.262 95.76C146.302 96.5707 145.64 97.424 145.278 98.32C144.915 99.216 144.734 100.208 144.734 101.296C144.734 103.088 145.246 104.443 146.27 105.36C147.315 106.256 148.584 106.704 150.078 106.704C151.272 106.704 152.318 106.459 153.214 105.968C154.131 105.477 154.846 104.773 155.358 103.856C155.891 102.939 156.158 101.84 156.158 100.56V86.352C156.158 84.24 155.635 82.64 154.59 81.552C153.566 80.4427 151.987 79.888 149.854 79.888C148.851 79.888 147.838 79.9733 146.814 80.144C145.811 80.3147 144.99 80.56 144.35 80.88L146.046 79.568C145.982 80.3147 145.875 81.0933 145.726 81.904C145.598 82.7147 145.438 83.4507 145.246 84.112C145.054 84.752 144.819 85.232 144.542 85.552C144.264 85.9147 143.838 86.192 143.262 86.384C142.707 86.5547 142.142 86.64 141.566 86.64C140.819 86.64 140.222 86.4907 139.774 86.192C139.326 85.872 139.102 85.4027 139.102 84.784C139.102 83.9093 139.507 83.0453 140.318 82.192C141.15 81.3173 142.216 80.528 143.518 79.824C144.84 79.0987 146.27 78.5227 147.806 78.096C149.342 77.6693 150.814 77.456 152.222 77.456C154.547 77.456 156.414 77.7973 157.822 78.48C159.23 79.1627 160.254 80.1333 160.894 81.392C161.534 82.6293 161.854 84.0907 161.854 85.776V104.112C161.854 104.795 161.96 105.349 162.174 105.776C162.408 106.203 162.718 106.523 163.102 106.736C163.507 106.928 163.976 107.024 164.51 107.024C165.192 107.024 165.875 106.917 166.558 106.704C167.262 106.469 167.976 106.096 168.702 105.584V106.544C167.23 108.272 165.907 109.392 164.734 109.904C163.56 110.395 162.366 110.64 161.15 110.64C159.912 110.64 158.931 110.363 158.206 109.808C157.48 109.253 156.958 108.464 156.638 107.44C156.318 106.395 156.136 105.147 156.094 103.696L156.19 103.664C155.848 105.008 155.272 106.203 154.462 107.248C153.651 108.293 152.68 109.125 151.55 109.744C150.419 110.341 149.171 110.64 147.806 110.64C145.246 110.64 143.102 109.957 141.374 108.592C139.667 107.205 138.814 105.2 138.814 102.576C138.814 101.211 139.048 99.9947 139.518 98.928C140.008 97.8613 140.926 96.848 142.27 95.888C143.635 94.928 145.598 93.9253 148.158 92.88C150.718 91.8133 154.078 90.608 158.238 89.264ZM181.154 77.392C182.562 77.392 183.831 77.5413 184.962 77.84C186.114 78.1387 187.309 78.5973 188.546 79.216L189.474 87.824H188.418L184.45 79.216L186.882 82.064C185.794 80.9333 184.781 80.1333 183.842 79.664C182.903 79.1733 181.783 78.928 180.482 78.928C178.669 78.928 177.25 79.344 176.226 80.176C175.223 81.008 174.722 82.2133 174.722 83.792C174.722 84.688 174.903 85.5093 175.266 86.256C175.65 86.9813 176.365 87.696 177.41 88.4C178.477 89.0827 180.045 89.84 182.114 90.672C183.65 91.2693 184.941 91.92 185.986 92.624C187.053 93.328 187.895 94.0853 188.514 94.896C189.154 95.7067 189.613 96.592 189.89 97.552C190.167 98.512 190.306 99.5573 190.306 100.688C190.306 102.672 189.762 104.411 188.674 105.904C187.607 107.397 186.178 108.56 184.386 109.392C182.594 110.224 180.631 110.64 178.498 110.64C176.919 110.64 175.501 110.491 174.242 110.192C173.005 109.893 171.799 109.445 170.626 108.848L168.866 99.12H170.05L175.202 109.136L173.282 107.344C173.858 107.728 174.445 108.048 175.042 108.304C175.639 108.56 176.247 108.752 176.866 108.88C177.506 109.008 178.135 109.072 178.754 109.072C180.589 109.072 182.21 108.571 183.618 107.568C185.026 106.544 185.73 104.997 185.73 102.928C185.73 102.117 185.591 101.381 185.314 100.72C185.037 100.037 184.589 99.408 183.97 98.832C183.373 98.2347 182.573 97.6693 181.57 97.136C180.589 96.5813 179.373 96.0373 177.922 95.504C176.002 94.736 174.477 93.8933 173.346 92.976C172.237 92.0587 171.437 91.0347 170.946 89.904C170.455 88.752 170.21 87.4613 170.21 86.032C170.21 84.176 170.711 82.608 171.714 81.328C172.738 80.048 174.071 79.0773 175.714 78.416C177.378 77.7333 179.191 77.392 181.154 77.392ZM206.702 91.6L207.918 90.224L224.43 108.08L228.11 109.104V110H213.038V109.104L217.326 108.144L203.63 93.36H201.838V91.728H204.11L218.158 80.176L213.518 79.152V78.032H225.742V79.152L221.102 80.24L206.702 91.6ZM202.926 108.048L207.566 109.104V110H192.59V109.104L197.23 108.048V68.368C196.952 68.2187 196.558 68.0267 196.046 67.792C195.555 67.536 194.968 67.2587 194.286 66.96C193.624 66.64 192.878 66.288 192.046 65.904V65.328L202.766 62.832H202.99L202.926 68.048V108.048ZM241.537 77.392C243.755 77.392 245.686 77.8613 247.329 78.8C248.971 79.7173 250.273 81.0827 251.233 82.896C252.214 84.688 252.801 86.896 252.993 89.52H232.033L232.065 87.632L249.537 87.504L247.105 88.784C246.891 86.608 246.518 84.8053 245.985 83.376C245.451 81.9467 244.747 80.88 243.873 80.176C242.998 79.472 241.921 79.12 240.641 79.12C238.955 79.12 237.494 79.6107 236.257 80.592C235.041 81.552 234.102 82.9707 233.441 84.848C232.801 86.704 232.481 88.9547 232.481 91.6C232.481 94.992 232.939 97.7653 233.857 99.92C234.795 102.075 236.139 103.653 237.889 104.656C239.638 105.659 241.761 106.16 244.257 106.16C245.387 106.16 246.486 106.011 247.553 105.712C248.641 105.413 249.665 104.965 250.625 104.368C251.585 103.749 252.417 102.981 253.121 102.064L253.665 102.512C252.385 104.496 251.094 106.085 249.793 107.28C248.491 108.475 247.126 109.339 245.697 109.872C244.267 110.384 242.71 110.64 241.025 110.64C238.294 110.64 235.83 110.021 233.633 108.784C231.457 107.547 229.739 105.733 228.481 103.344C227.222 100.933 226.593 98.0107 226.593 94.576C226.593 91.4613 227.179 88.6027 228.353 86C229.526 83.3973 231.233 81.3173 233.473 79.76C235.713 78.1813 238.401 77.392 241.537 77.392ZM264.983 101.712C264.983 103.269 265.474 104.443 266.455 105.232C267.436 106.021 268.727 106.416 270.327 106.416C271.244 106.416 272.204 106.331 273.207 106.16C274.21 105.989 275.372 105.712 276.695 105.328V106.32C274.818 107.451 273.282 108.325 272.087 108.944C270.914 109.563 269.9 110 269.047 110.256C268.194 110.512 267.298 110.64 266.359 110.64C265.122 110.64 263.959 110.373 262.871 109.84C261.804 109.285 260.94 108.411 260.279 107.216C259.618 106.021 259.287 104.464 259.287 102.544V82.192L255.319 79.696V79.216C255.575 79.0453 255.916 78.8213 256.343 78.544C256.77 78.2667 257.26 77.936 257.815 77.552C258.391 77.168 259.031 76.7413 259.735 76.272C260.46 75.8027 261.228 75.3013 262.039 74.768C262.85 74.2133 263.703 73.648 264.599 73.072H264.983V79.184V101.712ZM263.031 81.424V78.032H275.767L275.255 81.424H263.031Z" fill="black"/>
<g filter="url(#filter0_d_4368_321177)">
<line x1="96" y1="148" x2="1344" y2="148" stroke="#E6E6E6" stroke-width="2"/>
</g>
</g>
<defs>
<filter id="filter0_d_4368_321177" x="92" y="147" width="1256" height="10.0001" filterUnits="userSpaceOnUse" color-interpolation-filters="sRGB">
<feFlood flood-opacity="0" result="BackgroundImageFix"/>
<feColorMatrix in="SourceAlpha" type="matrix" values="0 0 0 0 0 0 0 0 0 0 0 0 0 0 0 0 0 0 127 0" result="hardAlpha"/>
<feOffset dy="4"/>
<feGaussianBlur stdDeviation="2"/>
<feComposite in2="hardAlpha" operator="out"/>
<feColorMatrix type="matrix" values="0 0 0 0 0 0 0 0 0 0 0 0 0 0 0 0 0 0 0.25 0"/>
<feBlend mode="normal" in2="BackgroundImageFix" result="effect1_dropShadow_4368_321177"/>
<feBlend mode="normal" in="SourceGraphic" in2="effect1_dropShadow_4368_321177" result="shape"/>
</filter>
<clipPath id="clip0_4368_321177">
<rect width="1440" height="149" fill="white"/>
</clipPath>
</defs>
</svg>
